<svg width="32" height="32" viewBox="0 0 32 32" fill="none" xmlns="http://www.w3.org/2000/svg">
<path d="M19.5249 0.812891C18.7311 0.931641 18.0686 1.29414 17.5124 1.90664C16.8749 2.60664 16.5874 3.42539 16.6436 4.40664C16.7124 5.62539 17.3686 6.65664 18.4436 7.21914C19.2186 7.62539 20.0499 7.71914 20.8999 7.50039C22.0874 7.20039 22.9936 6.31289 23.3436 5.10664C23.4811 4.63789 23.4811 3.73789 23.3436 3.26914C23.0124 2.13164 22.1124 1.22539 20.9999 0.91289C20.5561 0.79414 19.9311 0.744141 19.5249 0.812891Z" fill="white"/>
<path d="M14.3875 7.81273C13.8562 7.92523 9.9625 9.25023 9.775 9.38773C9.66875 9.46273 9.51875 9.61273 9.44375 9.72523C9.36875 9.83148 8.91875 10.8127 8.4375 11.9127C7.6625 13.6815 7.5625 13.944 7.5625 14.2502C7.5625 14.9565 7.85 15.4627 8.4375 15.769C8.74375 15.9252 8.83125 15.944 9.21875 15.9252C9.48125 15.9127 9.75625 15.8502 9.90625 15.7815C10.3937 15.544 10.55 15.3002 11.2812 13.619L11.9687 12.044L12.8 11.7627C13.2562 11.6127 13.6437 11.5002 13.6625 11.519C13.6812 11.5315 13.4062 12.769 13.0562 14.2565C12.5875 16.2502 12.4187 17.0815 12.4125 17.3877C12.4125 18.119 12.55 18.3127 14.9375 20.8565C16.0937 22.0877 17.1437 23.2127 17.2687 23.3565L17.5062 23.6127L17.1875 26.3065C17.0187 27.7877 16.875 29.1502 16.875 29.3315C16.875 29.819 17.0312 30.2065 17.3812 30.5877C17.7937 31.044 18.1937 31.219 18.8125 31.2127C19.4062 31.2127 19.8062 31.044 20.2062 30.6377C20.7062 30.1315 20.7062 30.119 21.1312 26.494C21.5437 22.9315 21.5625 22.5377 21.3187 22.044C21.225 21.844 20.6187 21.1565 19.5562 20.0252C18 18.369 17.9437 18.3065 18.0062 18.1377C18.0437 18.044 18.4125 17.0565 18.825 15.9377C19.2312 14.8252 19.5812 13.9002 19.5937 13.8877C19.6062 13.8752 19.85 14.2815 20.1312 14.794C20.7312 15.869 21.025 16.194 21.5062 16.344C21.95 16.4752 21.9875 16.469 24.0125 16.194C25.925 15.9315 26.1125 15.8752 26.4812 15.4877C27.05 14.894 27.0875 13.9377 26.5625 13.3002C26.3062 12.9877 25.8062 12.7502 25.4125 12.7502C25.2375 12.7502 24.625 12.8065 24.05 12.8815C23.4812 12.9565 22.975 13.0002 22.925 12.9877C22.8812 12.969 22.5312 12.4002 22.1562 11.719C21.4062 10.3752 21.025 9.89398 20.3437 9.40023C19.8625 9.06273 19.475 8.90023 17.6437 8.27523L16.2187 7.78773L15.4375 7.77523C15.0062 7.76273 14.5375 7.78148 14.3875 7.81273Z" fill="white"/>
<path d="M11.4246 20.1627C11.4059 20.194 11.1746 20.8815 10.9059 21.6877C10.6371 22.494 10.4121 23.169 10.3996 23.1815C10.3934 23.1877 9.44336 23.5002 8.29961 23.869C7.15586 24.2377 6.13086 24.5877 6.02461 24.644C5.69336 24.8127 5.28086 25.3315 5.15586 25.719C4.76836 26.9565 5.58086 28.194 6.84336 28.3002C7.30586 28.3315 7.19336 28.3627 10.6371 27.244C12.8809 26.5127 12.9309 26.494 13.2559 26.2002C13.6371 25.8565 13.7871 25.5627 14.2184 24.2565L14.5121 23.3627L14.1746 23.0065C13.9871 22.8127 13.3621 22.1502 12.7809 21.5315C12.2059 20.9127 11.6684 20.3377 11.5934 20.2565C11.5121 20.1815 11.4371 20.1377 11.4246 20.1627Z" fill="white"/>
</svg>
