<svg width="32" height="32" viewBox="0 0 32 32" fill="none" xmlns="http://www.w3.org/2000/svg">
<path d="M3.6125 1.75C3.325 1.8375 3.05 2.06875 2.93125 2.3375C2.81875 2.58125 2.8125 2.9125 2.8125 10.0437C2.8125 15.1562 2.83125 17.55 2.88125 17.6687C2.9125 17.7625 3.01875 17.925 3.1125 18.0187C3.44375 18.3687 3.4875 18.375 5.21875 18.375C6.925 18.375 7.00625 18.3625 7.2875 18.05C7.6 17.7125 7.59375 17.7812 7.625 14.4375L7.65625 11.2812L8.03125 11.25L8.40625 11.2188L8.44375 10.6875C8.46875 10.3937 8.51875 10.075 8.55625 9.96875C8.75625 9.475 9.15 9.175 9.70625 9.09375C9.9375 9.05625 10 9.025 9.9875 8.94375C9.96875 8.85625 9.81875 8.84375 8.8 8.825L7.63125 8.8125L7.6125 5.66875C7.59375 2.8125 7.58125 2.5125 7.48125 2.33125C7.31875 2.03125 7.075 1.83125 6.775 1.75625C6.4625 1.675 3.86875 1.675 3.6125 1.75Z" fill="white"/>
<path d="M25.168 1.76875C24.8367 1.875 24.5242 2.2 24.443 2.53125C24.3992 2.7125 24.3742 3.8125 24.3742 5.80625V8.80625L23.9242 8.825L23.468 8.84375L23.4305 9.75C23.4117 10.25 23.368 10.7875 23.343 10.95L23.293 11.2438L23.818 11.2625L24.343 11.2812L24.3742 14.4375C24.4055 17.7812 24.3992 17.7125 24.7117 18.05C24.993 18.3625 25.0742 18.375 26.7805 18.375C28.5117 18.375 28.5555 18.3687 28.8867 18.0187C28.9805 17.925 29.0867 17.7625 29.118 17.6687C29.168 17.55 29.1867 15.1562 29.1867 10.0437C29.1867 2.8625 29.1805 2.5875 29.068 2.33125C28.993 2.16875 28.8492 2.00625 28.6805 1.89375L28.418 1.71875L26.9117 1.70625C25.8742 1.7 25.3305 1.71875 25.168 1.76875Z" fill="white"/>
<path d="M1.0625 5.38125C0.98125 5.41875 0.85625 5.4875 0.8 5.54375C0.69375 5.6375 0.6875 5.9125 0.6875 10.0687V14.4937L0.85 14.6187C0.99375 14.7312 1.10625 14.75 1.6 14.75H2.1875L2.175 10.0437L2.15625 5.34375L1.6875 5.33125C1.43125 5.325 1.15 5.34375 1.0625 5.38125Z" fill="white"/>
<path d="M29.8625 5.35C29.8313 5.375 29.8125 7.5 29.8125 10.075V14.75H30.4C30.8938 14.75 31.0063 14.7312 31.15 14.6187L31.3125 14.4875L31.3 10.05L31.2812 5.60625L31.1063 5.475C30.9688 5.375 30.8188 5.3375 30.4187 5.325C30.1375 5.3125 29.8875 5.325 29.8625 5.35Z" fill="white"/>
<path d="M14.9688 5.78742C14.9 5.80617 14.7812 5.83117 14.7063 5.84992C14.5 5.88742 14.1188 6.24367 14.025 6.48117C13.9625 6.62492 13.9375 7.01242 13.9375 7.87492V9.06242H14.675C15.5 9.06242 15.875 9.14367 16.25 9.40617C16.3875 9.49992 16.525 9.55617 16.5563 9.53117C16.6 9.50617 16.625 9.00617 16.625 8.08117C16.625 6.76867 16.6125 6.64367 16.4938 6.39367C16.3188 6.03742 15.9562 5.82492 15.4625 5.78742C15.2625 5.76867 15.0375 5.76867 14.9688 5.78742Z" fill="white"/>
<path d="M18.2812 5.78738C18.2125 5.80613 18.0938 5.83113 18.0188 5.84988C17.8125 5.88738 17.4313 6.24363 17.3375 6.48113C17.2688 6.63738 17.25 7.13113 17.25 8.59363C17.25 10.7124 17.2563 10.7686 17.6438 11.1061C17.9375 11.3686 18.3 11.4624 18.8062 11.4124C19.2938 11.3686 19.6313 11.1686 19.8125 10.8124C19.9313 10.5811 19.9375 10.4499 19.9375 8.58738V6.60613L19.7812 6.33113C19.6813 6.16238 19.525 6.01238 19.375 5.93738C19.1313 5.81238 18.525 5.73113 18.2812 5.78738Z" fill="white"/>
<path d="M11.2188 6.36875C10.9688 6.51875 10.775 6.74375 10.6938 6.95625C10.6562 7.05625 10.625 7.56875 10.625 8.1V9.0625H11.9688H13.3125V8.1C13.3125 7.06875 13.275 6.88125 13.0125 6.60625C12.7313 6.3125 12.5562 6.25 11.9563 6.25C11.5312 6.25 11.3625 6.275 11.2188 6.36875Z" fill="white"/>
<path d="M21 6.825C20.575 7.11875 20.5562 7.20625 20.575 9.10625C20.5937 10.7063 20.6 10.8125 20.725 10.975C20.9875 11.3312 21.1562 11.4062 21.6875 11.4062C22.2187 11.4062 22.3875 11.3312 22.65 10.975C22.775 10.8125 22.7812 10.7063 22.8 9.10625C22.8125 7.54375 22.8062 7.3875 22.7 7.1875C22.5 6.8125 22.2437 6.6875 21.6875 6.6875C21.2937 6.6875 21.1687 6.7125 21 6.825Z" fill="white"/>
<path d="M9.40168 9.80625C9.29543 9.875 9.17043 10.0187 9.12668 10.1375C9.00793 10.45 8.90168 14 8.98918 14.7063C9.07668 15.3938 9.29543 15.8687 10.4704 17.9062C10.9454 18.7312 11.3954 19.5312 11.4642 19.6875C11.5954 19.9625 11.5954 20.0625 11.6267 24.8125C11.6642 30.2 11.6329 29.9062 12.0829 30.1812C12.2954 30.3125 12.3454 30.3125 16.4517 30.3125H20.6079L20.9017 30.0375L21.2017 29.7625L21.1454 25.8937C21.0767 20.4437 21.0267 21.175 21.5142 20.25C22.6079 18.1937 22.8954 16.6312 22.7642 13.4812C22.7329 12.625 22.6829 11.9125 22.6642 11.8937C22.6454 11.875 22.5204 11.8875 22.3829 11.925C22.0454 12.0312 21.3204 12.0187 21.0017 11.9062C20.8579 11.8562 20.6267 11.7125 20.4954 11.5938C20.3579 11.475 20.2392 11.375 20.2204 11.375C20.2079 11.375 20.0454 11.4812 19.8704 11.6187C19.4642 11.925 19.2079 12 18.5704 12C18.0267 12 17.7642 11.925 17.3642 11.6437C17.2329 11.5562 17.0954 11.5 17.0454 11.5187C17.0017 11.5375 16.9267 11.6687 16.8829 11.8125C16.7829 12.15 16.3329 12.6375 15.9517 12.8188C15.7267 12.925 15.4954 12.9625 14.9704 12.9937C14.4017 13.025 14.2829 13.05 14.2642 13.1313C14.2517 13.1938 14.5829 13.5938 15.1079 14.1437C16.0579 15.1312 16.3142 15.525 16.4392 16.1687C16.5079 16.5125 16.5017 16.5813 16.4142 16.7188C16.3079 16.8812 16.1642 16.9125 16.0079 16.8187C15.9579 16.7875 15.8954 16.5875 15.8642 16.375C15.7892 15.8 15.5579 15.4437 14.6704 14.5125C14.2329 14.05 13.7829 13.525 13.6829 13.3375L13.4892 13H13.0892C12.7704 13 12.6642 12.975 12.5642 12.875C12.4954 12.8062 12.4392 12.7188 12.4392 12.6875C12.4392 12.65 12.4954 12.5688 12.5642 12.5C12.6829 12.3813 12.7704 12.375 14.0892 12.375C14.9329 12.375 15.5642 12.35 15.6704 12.3062C15.8892 12.225 16.1704 11.9625 16.3017 11.7188C16.4329 11.4688 16.4329 10.6 16.2954 10.3438C16.1704 10.1 15.8892 9.8375 15.6704 9.75625C15.5517 9.7125 14.4767 9.6875 12.5454 9.6875C9.75793 9.6875 9.58293 9.69375 9.40168 9.80625Z" fill="white"/>
</svg>
