<svg width="141" height="41" viewBox="0 0 141 41" fill="none" xmlns="http://www.w3.org/2000/svg">
<rect width="112.8" height="32.8" rx="8" transform="matrix(1.25 0 0 -1.25 0 41)" fill="white" fill-opacity="0.32"/>
<path d="M52.0951 11.795C52.0951 12.5451 51.8665 13.1459 51.4163 13.5939C50.8987 14.1251 50.2245 14.3924 49.3983 14.3924C48.6087 14.3924 47.9346 14.1206 47.3815 13.585C46.8273 13.0414 46.5508 12.3744 46.5508 11.576C46.5508 10.7776 46.8273 10.1106 47.3815 9.57154C47.9346 9.0314 48.6087 8.75964 49.3983 8.75964C49.7914 8.75964 50.1662 8.83937 50.5239 8.9876C50.8804 9.13695 51.1706 9.33908 51.3809 9.58838L50.9032 10.0623C50.5364 9.63667 50.0371 9.42668 49.3983 9.42668C48.8224 9.42668 48.3231 9.62431 47.8991 10.023C47.4798 10.4227 47.2695 10.9404 47.2695 11.576C47.2695 12.2116 47.4798 12.7338 47.8991 13.1335C48.3231 13.5277 48.8224 13.7298 49.3983 13.7298C50.0097 13.7298 50.5239 13.5277 50.9295 13.129C51.1969 12.8651 51.3489 12.5013 51.3889 12.0364H49.3983V11.3873H52.0539C52.0859 11.5277 52.0951 11.6636 52.0951 11.795Z" fill="white"/>
<path d="M56.3081 9.54458H53.8136V11.2515H56.0624V11.9005H53.8136V13.6074H56.3081V14.2688H53.1075V8.88316H56.3081V9.54458Z" fill="white"/>
<path d="M59.2813 14.2688H58.5752V9.54458H57.0451V8.88316H60.8125V9.54458H59.2813V14.2688Z" fill="white"/>
<path d="M63.539 14.2688V8.88316H64.244V14.2688H63.539Z" fill="white"/>
<path d="M67.3692 14.2688H66.6688V9.54458H65.133V8.88316H68.905V9.54458H67.3692V14.2688Z" fill="white"/>
<path d="M76.0376 13.576C75.4971 14.1206 74.8275 14.3924 74.0288 14.3924C73.2255 14.3924 72.5559 14.1206 72.0154 13.576C71.476 13.0325 71.2075 12.3654 71.2075 11.576C71.2075 10.7866 71.476 10.1195 72.0154 9.57603C72.5559 9.0314 73.2255 8.75964 74.0288 8.75964C74.8229 8.75964 75.4925 9.0314 76.033 9.58052C76.5769 10.1285 76.8455 10.7911 76.8455 11.576C76.8455 12.3654 76.5769 13.0325 76.0376 13.576ZM72.5376 13.1245C72.9444 13.5277 73.4391 13.7298 74.0288 13.7298C74.6138 13.7298 75.1132 13.5277 75.5154 13.1245C75.921 12.7214 76.1267 12.2037 76.1267 11.576C76.1267 10.9483 75.921 10.4306 75.5154 10.0275C75.1132 9.62431 74.6138 9.42218 74.0288 9.42218C73.4391 9.42218 72.9444 9.62431 72.5376 10.0275C72.1319 10.4306 71.9262 10.9483 71.9262 11.576C71.9262 12.2037 72.1319 12.7214 72.5376 13.1245Z" fill="white"/>
<path d="M77.8362 14.2688V8.88316H78.6932L81.3579 13.0718H81.3887L81.3579 12.0364V8.88316H82.0629V14.2688H81.327L78.5366 9.8736H78.5058L78.5366 10.9135V14.2688H77.8362Z" fill="white"/>
<path d="M71.0343 22.134C68.8872 22.134 67.1332 23.7398 67.1332 25.9554C67.1332 28.153 68.8872 29.7757 71.0343 29.7757C73.186 29.7757 74.94 28.153 74.94 25.9554C74.94 23.7398 73.186 22.134 71.0343 22.134ZM71.0343 28.2709C69.8562 28.2709 68.8427 27.3153 68.8427 25.9554C68.8427 24.5776 69.8562 23.6388 71.0343 23.6388C72.2124 23.6388 73.2305 24.5776 73.2305 25.9554C73.2305 27.3153 72.2124 28.2709 71.0343 28.2709ZM62.5225 22.134C60.3708 22.134 58.6214 23.7398 58.6214 25.9554C58.6214 28.153 60.3708 29.7757 62.5225 29.7757C64.673 29.7757 66.4236 28.153 66.4236 25.9554C66.4236 23.7398 64.673 22.134 62.5225 22.134ZM62.5225 28.2709C61.3433 28.2709 60.3263 27.3153 60.3263 25.9554C60.3263 24.5776 61.3433 23.6388 62.5225 23.6388C63.7006 23.6388 64.7142 24.5776 64.7142 25.9554C64.7142 27.3153 63.7006 28.2709 62.5225 28.2709ZM52.3938 23.3053V24.929H56.3395C56.2241 25.8364 55.9155 26.5034 55.4425 26.9683C54.8666 27.5298 53.9696 28.153 52.3938 28.153C49.9656 28.153 48.0642 26.2272 48.0642 23.8409C48.0642 21.4546 49.9656 19.5288 52.3938 19.5288C53.7067 19.5288 54.662 20.033 55.3671 20.6865L56.5314 19.5423C55.5453 18.617 54.2335 17.9061 52.3938 17.9061C49.064 17.9061 46.2656 20.5686 46.2656 23.8409C46.2656 27.1132 49.064 29.7757 52.3938 29.7757C54.1935 29.7757 55.5453 29.1962 56.608 28.1092C57.697 27.0391 58.0363 25.5343 58.0363 24.3193C58.0363 23.942 58.0044 23.595 57.9472 23.3053H52.3938ZM93.8113 24.5641C93.4902 23.7095 92.4995 22.134 90.4815 22.134C88.4819 22.134 86.817 23.6826 86.817 25.9554C86.817 28.0958 88.4647 29.7757 90.6735 29.7757C92.4595 29.7757 93.4902 28.7055 93.9142 28.0823L92.5887 27.2142C92.1464 27.8498 91.5442 28.2709 90.6735 28.2709C89.8085 28.2709 89.188 27.8813 88.7904 27.1132L93.9907 24.9987L93.8113 24.5641ZM88.5093 25.8364C88.4647 24.3631 89.6737 23.6085 90.5398 23.6085C91.2186 23.6085 91.7945 23.942 91.9865 24.4192L88.5093 25.8364ZM84.2825 29.5432H85.992V18.3138H84.2825V29.5432ZM81.483 22.9852H81.4258C81.0419 22.5383 80.3094 22.134 79.3816 22.134C77.4345 22.134 75.6542 23.814 75.6542 25.9678C75.6542 28.1092 77.4345 29.7757 79.3816 29.7757C80.3094 29.7757 81.0419 29.3681 81.4258 28.9077H81.483V29.4557C81.483 30.9166 80.6888 31.7015 79.4079 31.7015C78.3634 31.7015 77.7156 30.9604 77.4482 30.3372L75.9615 30.9469C76.39 31.9598 77.5247 33.2063 79.4079 33.2063C81.4121 33.2063 83.1033 32.0474 83.1033 29.2277V22.3665H81.483V22.9852ZM79.5278 28.2709C78.3497 28.2709 77.3636 27.3018 77.3636 25.9678C77.3636 24.6214 78.3497 23.6388 79.5278 23.6388C80.6888 23.6388 81.6041 24.6214 81.6041 25.9678C81.6041 27.3018 80.6888 28.2709 79.5278 28.2709ZM101.815 18.3138H97.7261V29.5432H99.431V25.2884H101.815C103.708 25.2884 105.565 23.942 105.565 21.8005C105.565 19.6602 103.703 18.3138 101.815 18.3138ZM101.859 23.7264H99.431V19.8758H101.859C103.132 19.8758 103.859 20.9145 103.859 21.8005C103.859 22.6697 103.132 23.7264 101.859 23.7264ZM112.398 22.1127C111.166 22.1127 109.885 22.6472 109.359 23.8319L110.871 24.4552C111.197 23.8319 111.796 23.6298 112.429 23.6298C113.313 23.6298 114.21 24.152 114.224 25.0739V25.1918C113.916 25.0166 113.255 24.7572 112.443 24.7572C110.813 24.7572 109.153 25.6388 109.153 27.2839C109.153 28.7886 110.488 29.7577 111.988 29.7577C113.135 29.7577 113.768 29.249 114.166 28.6572H114.224V29.5253H115.871V25.2176C115.871 23.2267 114.358 22.1127 112.398 22.1127ZM112.192 28.2664C111.635 28.2664 110.858 27.9947 110.858 27.3153C110.858 26.4462 111.827 26.1126 112.666 26.1126C113.416 26.1126 113.768 26.2755 114.224 26.4899C114.09 27.5298 113.18 28.2664 112.192 28.2664ZM121.87 22.3586L119.91 27.2266H119.852L117.826 22.3586H115.987L119.031 29.1614L117.294 32.9469H119.076L123.767 22.3586H121.87ZM106.502 29.5432H108.211V18.3138H106.502V29.5432Z" fill="white"/>
<path d="M17.6544 9.36497C17.3859 9.64122 17.2305 10.0713 17.2305 10.6283V30.4955C17.2305 31.0525 17.3859 31.4826 17.6544 31.7588L17.7207 31.8195L29.0492 20.691V20.4283L17.7207 9.29984L17.6544 9.36497Z" fill="url(#paint0_linear_3592_20553)"/>
<path d="M32.8228 24.4021L29.0508 20.6908V20.428L32.8273 16.7166L32.9119 16.7649L37.3843 19.2657C38.6607 19.9754 38.6607 21.1433 37.3843 21.8575L32.9119 24.3538L32.8228 24.4021Z" fill="url(#paint1_linear_3592_20553)"/>
<path d="M32.9121 24.354L29.051 20.5595L17.6562 31.7587C18.0802 32.1967 18.7715 32.2494 19.5577 31.8115L32.9121 24.354Z" fill="url(#paint2_linear_3592_20553)"/>
<path d="M32.9121 16.7651L19.5577 9.30763C18.7715 8.87417 18.0802 8.92695 17.6562 9.3649L29.051 20.5596L32.9121 16.7651Z" fill="url(#paint3_linear_3592_20553)"/>
<defs>
<linearGradient id="paint0_linear_3592_20553" x1="28.0434" y1="30.7024" x2="12.969" y2="15.3632" gradientUnits="userSpaceOnUse">
<stop stop-color="#00A0FF"/>
<stop offset="0.0066" stop-color="#00A1FF"/>
<stop offset="0.2601" stop-color="#00BEFF"/>
<stop offset="0.5122" stop-color="#00D2FF"/>
<stop offset="0.7604" stop-color="#00DFFF"/>
<stop offset="1" stop-color="#00E3FF"/>
</linearGradient>
<linearGradient id="paint1_linear_3592_20553" x1="39.0464" y1="20.5581" x2="16.927" y2="20.5581" gradientUnits="userSpaceOnUse">
<stop stop-color="#FFE000"/>
<stop offset="0.4087" stop-color="#FFBD00"/>
<stop offset="0.7754" stop-color="#FFA500"/>
<stop offset="1" stop-color="#FF9C00"/>
</linearGradient>
<linearGradient id="paint2_linear_3592_20553" x1="30.8126" y1="18.4968" x2="10.3706" y2="-2.30436" gradientUnits="userSpaceOnUse">
<stop stop-color="#FF3A44"/>
<stop offset="1" stop-color="#C31162"/>
</linearGradient>
<linearGradient id="paint3_linear_3592_20553" x1="14.7879" y1="38.3685" x2="23.9162" y2="29.0799" gradientUnits="userSpaceOnUse">
<stop stop-color="#32A071"/>
<stop offset="0.0685" stop-color="#2DA771"/>
<stop offset="0.4762" stop-color="#15CF74"/>
<stop offset="0.8009" stop-color="#06E775"/>
<stop offset="1" stop-color="#00F076"/>
</linearGradient>
</defs>
</svg>
