<svg width="141" height="41" viewBox="0 0 141 41" fill="none" xmlns="http://www.w3.org/2000/svg">
<rect width="141" height="41" rx="8" fill="white" fill-opacity="0.32"/>
<path d="M34.1304 20.3492C34.1021 17.2665 36.7024 15.7668 36.8213 15.697C35.3486 13.5899 33.0661 13.302 32.264 13.279C30.3469 13.081 28.4874 14.4048 27.5108 14.4048C26.5147 14.4048 25.0109 13.2981 23.3901 13.3307C21.3045 13.3622 19.3533 14.5473 18.2832 16.3875C16.0747 20.1398 17.7218 25.6538 19.8377 28.6868C20.8961 30.1722 22.1329 31.8307 23.7517 31.7723C25.3355 31.7083 25.9271 30.7814 27.8383 30.7814C29.7319 30.7814 30.2875 31.7723 31.9385 31.735C33.6382 31.7083 34.7083 30.2429 35.7297 28.7442C36.9529 27.0416 37.4441 25.365 37.4636 25.2789C37.4236 25.2655 34.1625 24.0441 34.1304 20.3492Z" fill="white"/>
<path d="M31.0116 11.2838C31.8634 10.2384 32.4462 8.81612 32.2845 7.3728C31.0516 7.42637 29.5097 8.20971 28.6219 9.23218C27.8363 10.1332 27.1346 11.61 27.3159 12.9988C28.7008 13.1001 30.1228 12.313 31.0116 11.2838Z" fill="white"/>
<path d="M56.9967 31.5591H54.7833L53.5709 27.8203H49.3567L48.2017 31.5591H46.0469L50.2221 18.8304H52.8009L56.9967 31.5591ZM53.2054 26.2517L52.109 22.9279C51.993 22.5884 51.7757 21.7888 51.455 20.5301H51.416C51.2883 21.0714 51.0827 21.871 50.8001 22.9279L49.7231 26.2517H53.2054Z" fill="white"/>
<path d="M67.734 26.8571C67.734 28.4181 67.3042 29.6519 66.4446 30.5577C65.6746 31.364 64.7185 31.7667 63.5773 31.7667C62.3453 31.7667 61.4604 31.3325 60.9214 30.464H60.8824V35.2989H58.8046V25.4023C58.8046 24.421 58.7783 23.4138 58.7276 22.3809H60.555L60.671 23.8356H60.7099C61.4029 22.7395 62.4545 22.1924 63.8657 22.1924C64.969 22.1924 65.89 22.62 66.6268 23.476C67.3656 24.333 67.734 25.4597 67.734 26.8571ZM65.6171 26.9317C65.6171 26.0384 65.4125 25.3019 65.0012 24.7223C64.5519 24.1178 63.9486 23.8156 63.1923 23.8156C62.6796 23.8156 62.2138 23.9839 61.7976 24.3158C61.3805 24.6506 61.1076 25.0877 60.9799 25.629C60.9156 25.8815 60.8834 26.0881 60.8834 26.2507V27.7811C60.8834 28.4487 61.092 29.0121 61.5091 29.4721C61.9263 29.9322 62.4681 30.1617 63.1348 30.1617C63.9174 30.1617 64.5265 29.8652 64.9622 29.2741C65.3988 28.6821 65.6171 27.9016 65.6171 26.9317Z" fill="white"/>
<path d="M78.4908 26.8571C78.4908 28.4181 78.061 29.6519 77.2004 30.5577C76.4314 31.364 75.4753 31.7667 74.3341 31.7667C73.1022 31.7667 72.2172 31.3325 71.6792 30.464H71.6402V35.2989H69.5624V25.4023C69.5624 24.421 69.5361 23.4138 69.4854 22.3809H71.3128L71.4288 23.8356H71.4677C72.1597 22.7395 73.2113 22.1924 74.6235 22.1924C75.7258 22.1924 76.6468 22.62 77.3856 23.476C78.1214 24.333 78.4908 25.4597 78.4908 26.8571ZM76.3739 26.9317C76.3739 26.0384 76.1683 25.3019 75.757 24.7223C75.3077 24.1178 74.7064 23.8156 73.9491 23.8156C73.4355 23.8156 72.9706 23.9839 72.5535 24.3158C72.1363 24.6506 71.8644 25.0877 71.7367 25.629C71.6734 25.8815 71.6402 26.0881 71.6402 26.2507V27.7811C71.6402 28.4487 71.8488 29.0121 72.264 29.4721C72.6811 29.9312 73.223 30.1617 73.8916 30.1617C74.6742 30.1617 75.2834 29.8652 75.719 29.2741C76.1556 28.6821 76.3739 27.9016 76.3739 26.9317Z" fill="white"/>
<path d="M90.5175 27.9896C90.5175 29.0723 90.1345 29.9532 89.3656 30.6333C88.5206 31.3764 87.3442 31.7476 85.8326 31.7476C84.4369 31.7476 83.3181 31.4836 82.4711 30.9546L82.9526 29.255C83.8648 29.7964 84.8658 30.068 85.9563 30.068C86.739 30.068 87.3481 29.8939 87.7857 29.5477C88.2213 29.2014 88.4387 28.7366 88.4387 28.157C88.4387 27.6405 88.2594 27.2053 87.8997 26.8523C87.542 26.4994 86.9446 26.1713 86.1103 25.8681C83.8395 25.037 82.705 23.8194 82.705 22.2182C82.705 21.1719 83.1027 20.3139 83.8989 19.6463C84.6923 18.9777 85.7507 18.6439 87.0742 18.6439C88.2545 18.6439 89.2349 18.8457 90.0176 19.2484L89.4981 20.9108C88.7671 20.5205 87.9407 20.3254 87.0158 20.3254C86.2848 20.3254 85.7137 20.5023 85.3043 20.8543C84.9583 21.169 84.7849 21.5525 84.7849 22.0069C84.7849 22.51 84.9827 22.926 85.3803 23.2531C85.7263 23.5554 86.355 23.8825 87.2672 24.2354C88.3831 24.6764 89.2028 25.1919 89.7301 25.783C90.2554 26.3722 90.5175 27.1096 90.5175 27.9896Z" fill="white"/>
<path d="M97.3876 23.9112H95.0973V28.3674C95.0973 29.5008 95.5007 30.067 96.3097 30.067C96.681 30.067 96.989 30.0355 97.2326 29.9723L97.2901 31.5209C96.8808 31.671 96.3418 31.7466 95.6742 31.7466C94.8536 31.7466 94.2123 31.5008 93.7494 31.0101C93.2884 30.5185 93.0564 29.694 93.0564 28.5357V23.9093H91.692V22.3789H93.0564V20.6984L95.0973 20.0939V22.3789H97.3876V23.9112Z" fill="white"/>
<path d="M107.721 26.8944C107.721 28.3052 107.31 29.4635 106.49 30.3693C105.629 31.3018 104.487 31.7667 103.063 31.7667C101.691 31.7667 100.598 31.32 99.7832 30.4267C98.9684 29.5333 98.561 28.4056 98.561 27.0465C98.561 25.6242 98.9801 24.4593 99.8212 23.5535C100.66 22.6467 101.793 22.1934 103.217 22.1934C104.589 22.1934 105.693 22.64 106.527 23.5343C107.324 24.4019 107.721 25.5219 107.721 26.8944ZM105.566 26.9604C105.566 26.1139 105.381 25.388 105.008 24.7825C104.572 24.0499 103.95 23.6845 103.143 23.6845C102.307 23.6845 101.673 24.0508 101.237 24.7825C100.864 25.3889 100.68 26.1264 100.68 26.9987C100.68 27.8452 100.864 28.5711 101.237 29.1756C101.687 29.9083 102.314 30.2736 103.124 30.2736C103.917 30.2736 104.54 29.9006 104.99 29.1565C105.373 28.5396 105.566 27.8059 105.566 26.9604Z" fill="white"/>
<path d="M114.476 24.1742C114.27 24.1369 114.051 24.1178 113.821 24.1178C113.09 24.1178 112.524 24.3885 112.127 24.9308C111.781 25.409 111.607 26.0135 111.607 26.7433V31.5591H109.53L109.55 25.2713C109.55 24.2135 109.523 23.2503 109.472 22.3818H111.282L111.358 24.1379H111.415C111.635 23.5344 111.98 23.0485 112.454 22.6841C112.917 22.356 113.417 22.1924 113.956 22.1924C114.148 22.1924 114.322 22.2058 114.476 22.2297V24.1742Z" fill="white"/>
<path d="M123.768 26.5357C123.768 26.9011 123.744 27.2091 123.692 27.4607H117.459C117.483 28.3674 117.784 29.0608 118.363 29.5391C118.889 29.9666 119.568 30.1809 120.402 30.1809C121.325 30.1809 122.167 30.0364 122.924 29.7466L123.25 31.1622C122.365 31.541 121.32 31.7294 120.115 31.7294C118.664 31.7294 117.526 31.3104 116.698 30.4735C115.871 29.6366 115.457 28.5128 115.457 27.1029C115.457 25.7189 115.842 24.5664 116.613 23.6472C117.42 22.6659 118.51 22.1752 119.883 22.1752C121.231 22.1752 122.251 22.6659 122.944 23.6472C123.493 24.4267 123.768 25.3909 123.768 26.5357ZM121.787 26.0068C121.801 25.4023 121.665 24.8801 121.384 24.4392C121.024 23.872 120.471 23.5889 119.728 23.5889C119.048 23.5889 118.496 23.8653 118.074 24.42C117.728 24.861 117.522 25.3899 117.459 26.0059H121.787V26.0068Z" fill="white"/>
<path d="M52.5188 11C52.5188 12.1257 52.1748 12.9732 51.4877 13.5423C50.8513 14.0674 49.9468 14.3304 48.7753 14.3304C48.1945 14.3304 47.6974 14.3055 47.2812 14.2558V8.10473C47.8241 8.01864 48.4089 7.97465 49.0404 7.97465C50.1564 7.97465 50.9975 8.21281 51.5647 8.68913C52.2001 9.22762 52.5188 9.99758 52.5188 11ZM51.4419 11.0277C51.4419 10.2979 51.245 9.73838 50.8513 9.34814C50.4575 8.95885 49.8825 8.76373 49.1252 8.76373C48.8036 8.76373 48.5297 8.78478 48.3026 8.82877V13.505C48.4284 13.5241 48.6584 13.5327 48.9927 13.5327C49.7743 13.5327 50.3776 13.3194 50.8025 12.8928C51.2275 12.4662 51.4419 11.8445 51.4419 11.0277Z" fill="white"/>
<path d="M58.2291 11.9832C58.2291 12.6766 58.0273 13.2448 57.6239 13.6905C57.2009 14.1487 56.6405 14.3773 55.9407 14.3773C55.2663 14.3773 54.7293 14.1582 54.3287 13.7182C53.9291 13.2792 53.7293 12.7254 53.7293 12.0578C53.7293 11.3596 53.9349 10.7867 54.3482 10.3419C54.7614 9.89715 55.3169 9.67429 56.0167 9.67429C56.6912 9.67429 57.233 9.89332 57.6433 10.3323C58.0332 10.7589 58.2291 11.3099 58.2291 11.9832ZM57.1697 12.0157C57.1697 11.5997 57.0781 11.2429 56.8958 10.9454C56.6814 10.5858 56.3764 10.406 55.9797 10.406C55.5694 10.406 55.2575 10.5858 55.0431 10.9454C54.8599 11.2429 54.7692 11.6054 54.7692 12.0339C54.7692 12.45 54.8608 12.8067 55.0431 13.1042C55.2643 13.4638 55.5723 13.6436 55.9699 13.6436C56.3598 13.6436 56.6658 13.461 56.8861 13.0946C57.0751 12.7914 57.1697 12.4318 57.1697 12.0157Z" fill="white"/>
<path d="M65.8857 9.76611L64.4481 14.2749H63.5125L62.917 12.317C62.7659 11.8283 62.6431 11.3424 62.5476 10.8603H62.5291C62.4404 11.3558 62.3176 11.8407 62.1597 12.317L61.5272 14.2749H60.5808L59.229 9.76611H60.2787L60.7982 11.9096C60.9239 12.4165 61.0272 12.8995 61.1101 13.3567H61.1286C61.2046 12.9798 61.3303 12.4997 61.5077 11.9191L62.1597 9.76707H62.992L63.6168 11.8732C63.7678 12.3868 63.8906 12.8813 63.9852 13.3577H64.0134C64.0826 12.8938 64.1869 12.3993 64.3253 11.8732L64.8828 9.76707H65.8857V9.76611Z" fill="white"/>
<path d="M71.1807 14.2749H70.1593V11.6924C70.1593 10.8967 69.8514 10.4988 69.2335 10.4988C68.9303 10.4988 68.6857 10.6078 68.4957 10.8268C68.3076 11.0459 68.2121 11.3041 68.2121 11.5997V14.274H67.1907V11.0545C67.1907 10.6585 67.178 10.2291 67.1536 9.76421H68.0513L68.099 10.4691H68.1273C68.2462 10.2501 68.4236 10.0693 68.6565 9.92489C68.9333 9.75655 69.2432 9.67143 69.5824 9.67143C70.0112 9.67143 70.3679 9.80725 70.6515 10.0798C71.0043 10.4136 71.1807 10.912 71.1807 11.5738V14.2749Z" fill="white"/>
<path d="M73.9974 14.2749H72.977V7.69727H73.9974V14.2749Z" fill="white"/>
<path d="M80.0107 11.9832C80.0107 12.6766 79.809 13.2448 79.4055 13.6905C78.9825 14.1487 78.4212 14.3773 77.7224 14.3773C77.047 14.3773 76.5099 14.1582 76.1103 13.7182C75.7107 13.2792 75.511 12.7254 75.511 12.0578C75.511 11.3596 75.7166 10.7867 76.1298 10.3419C76.5431 9.89715 77.0986 9.67429 77.7974 9.67429C78.4728 9.67429 79.0137 9.89332 79.425 10.3323C79.8148 10.7589 80.0107 11.3099 80.0107 11.9832ZM78.9504 12.0157C78.9504 11.5997 78.8588 11.2429 78.6765 10.9454C78.4631 10.5858 78.157 10.406 77.7613 10.406C77.35 10.406 77.0382 10.5858 76.8247 10.9454C76.6415 11.2429 76.5509 11.6054 76.5509 12.0339C76.5509 12.45 76.6425 12.8067 76.8247 13.1042C77.046 13.4638 77.354 13.6436 77.7516 13.6436C78.1414 13.6436 78.4465 13.461 78.6668 13.0946C78.8568 12.7914 78.9504 12.4318 78.9504 12.0157Z" fill="white"/>
<path d="M84.954 14.2749H84.0369L83.9608 13.7555H83.9326C83.6188 14.1697 83.1714 14.3773 82.5905 14.3773C82.1568 14.3773 81.806 14.2405 81.5419 13.9688C81.3021 13.7221 81.1822 13.415 81.1822 13.0506C81.1822 12.4997 81.4161 12.0798 81.8869 11.789C82.3566 11.4983 83.0174 11.3558 83.8683 11.3625V11.2783C83.8683 10.6843 83.5505 10.3878 82.9141 10.3878C82.4609 10.3878 82.0613 10.4997 81.7163 10.7216L81.5087 10.0636C81.9356 9.80437 82.4629 9.67429 83.0847 9.67429C84.2854 9.67429 84.8877 10.296 84.8877 11.5394V13.1998C84.8877 13.6503 84.9101 14.009 84.954 14.2749ZM83.8936 12.7254V12.0301C82.767 12.0109 82.2036 12.3141 82.2036 12.9387C82.2036 13.174 82.268 13.35 82.3995 13.4676C82.5311 13.5853 82.6987 13.6436 82.8985 13.6436C83.1227 13.6436 83.3322 13.5738 83.5233 13.4351C83.7153 13.2955 83.8332 13.1185 83.877 12.9014C83.8878 12.8526 83.8936 12.7933 83.8936 12.7254Z" fill="white"/>
<path d="M90.7578 14.2749H89.8514L89.8037 13.5509H89.7754C89.4859 14.1018 88.9928 14.3772 88.2998 14.3772C87.7463 14.3772 87.2853 14.164 86.9198 13.7374C86.5543 13.3108 86.3721 12.757 86.3721 12.0769C86.3721 11.3472 86.5699 10.7561 86.9675 10.3046C87.3525 9.88375 87.8242 9.67333 88.3856 9.67333C89.0025 9.67333 89.4343 9.87706 89.6799 10.2855H89.6994V7.69727H90.7218V13.0602C90.7218 13.4992 90.7335 13.9038 90.7578 14.2749ZM89.6994 12.3734V11.6217C89.6994 11.4916 89.6896 11.3864 89.6711 11.306C89.6136 11.065 89.4898 10.8622 89.3017 10.6987C89.1117 10.5351 88.8827 10.4529 88.6185 10.4529C88.2375 10.4529 87.9392 10.6011 87.7199 10.8986C87.5026 11.196 87.3925 11.5757 87.3925 12.0396C87.3925 12.4854 87.4968 12.8469 87.7063 13.1252C87.9275 13.4217 88.2258 13.57 88.599 13.57C88.9343 13.57 89.2023 13.4466 89.406 13.1989C89.6029 12.9703 89.6994 12.6948 89.6994 12.3734Z" fill="white"/>
<path d="M99.4933 11.9832C99.4933 12.6766 99.2915 13.2448 98.888 13.6905C98.4651 14.1487 97.9056 14.3773 97.2049 14.3773C96.5314 14.3773 95.9944 14.1582 95.5929 13.7182C95.1933 13.2792 94.9935 12.7254 94.9935 12.0578C94.9935 11.3596 95.1991 10.7867 95.6124 10.3419C96.0256 9.89715 96.5811 9.67429 97.2819 9.67429C97.9553 9.67429 98.4982 9.89332 98.9075 10.3323C99.2974 10.7589 99.4933 11.3099 99.4933 11.9832ZM98.4349 12.0157C98.4349 11.5997 98.3432 11.2429 98.161 10.9454C97.9456 10.5858 97.6415 10.406 97.2439 10.406C96.8345 10.406 96.5227 10.5858 96.3073 10.9454C96.124 11.2429 96.0334 11.6054 96.0334 12.0339C96.0334 12.45 96.125 12.8067 96.3073 13.1042C96.5285 13.4638 96.8365 13.6436 97.2341 13.6436C97.624 13.6436 97.931 13.461 98.1512 13.0946C98.3393 12.7914 98.4349 12.4318 98.4349 12.0157Z" fill="white"/>
<path d="M104.985 14.2749H103.965V11.6924C103.965 10.8967 103.657 10.4988 103.038 10.4988C102.735 10.4988 102.49 10.6078 102.301 10.8268C102.112 11.0459 102.018 11.3041 102.018 11.5997V14.274H100.995V11.0545C100.995 10.6585 100.983 10.2291 100.959 9.76421H101.856L101.904 10.4691H101.932C102.052 10.2501 102.229 10.0693 102.461 9.92489C102.739 9.75655 103.048 9.67143 103.388 9.67143C103.816 9.67143 104.172 9.80725 104.456 10.0798C104.81 10.4136 104.985 10.912 104.985 11.5738V14.2749Z" fill="white"/>
<path d="M111.859 10.5169H110.734V12.7073C110.734 13.2639 110.934 13.5423 111.33 13.5423C111.513 13.5423 111.665 13.527 111.785 13.4954L111.811 14.2558C111.61 14.3304 111.345 14.3677 111.018 14.3677C110.615 14.3677 110.301 14.2472 110.074 14.0061C109.846 13.7651 109.733 13.3596 109.733 12.7905V10.5169H109.061V9.76612H109.733V8.93973L110.734 8.64322V9.76516H111.858V10.5169H111.859Z" fill="white"/>
<path d="M117.266 14.2749H116.244V11.7116C116.244 10.9034 115.936 10.4988 115.319 10.4988C114.845 10.4988 114.522 10.7331 114.344 11.2018C114.314 11.3003 114.297 11.4208 114.297 11.5624V14.274H113.276V7.69727H114.297V10.4146H114.316C114.638 9.9201 115.099 9.67333 115.696 9.67333C116.119 9.67333 116.469 9.80915 116.747 10.0817C117.093 10.4213 117.266 10.9263 117.266 11.5939V14.2749Z" fill="white"/>
<path d="M122.844 11.8072C122.844 11.987 122.83 12.1382 122.806 12.2615H119.743C119.756 12.7073 119.903 13.0468 120.186 13.2821C120.446 13.4925 120.78 13.5977 121.189 13.5977C121.642 13.5977 122.056 13.5269 122.428 13.3844L122.588 14.0807C122.152 14.2663 121.639 14.3591 121.046 14.3591C120.334 14.3591 119.774 14.1534 119.369 13.7422C118.961 13.3309 118.759 12.779 118.759 12.0865C118.759 11.4065 118.948 10.8402 119.327 10.3888C119.722 9.90671 120.257 9.66568 120.933 9.66568C121.594 9.66568 122.096 9.90671 122.435 10.3888C122.709 10.7714 122.844 11.2448 122.844 11.8072ZM121.869 11.548C121.877 11.2505 121.81 10.9942 121.672 10.7781C121.494 10.4997 121.224 10.3601 120.859 10.3601C120.525 10.3601 120.254 10.4959 120.046 10.7685C119.876 10.9856 119.776 11.2448 119.743 11.548H121.869Z" fill="white"/>
</svg>
