<svg width="36" height="36" viewBox="0 0 36 36" fill="none" xmlns="http://www.w3.org/2000/svg">
<path fill-rule="evenodd" clip-rule="evenodd" d="M35.9987 17.9987C35.9987 17.9987 36.2122 9.72767 31.2422 4.75777C26.2723 -0.212049 18.0013 0.00133445 18.0013 0.00133445C18.0013 0.00133445 18.0002 0.0439346 18 0.124835C18 0.090668 17.9997 0.0633345 17.9995 0.0431512C17.9992 0.0155512 17.9987 0.00133445 17.9987 0.00133445C17.9987 0.00133445 9.72767 -0.212049 4.75777 4.75777C-0.212049 9.72767 0.00133445 17.9987 0.00133445 17.9987C0.00133445 17.9987 8.27242 18.212 13.2422 13.2422C17.7848 8.69968 17.9972 1.39918 18 0.177401C18.003 1.39918 18.2153 8.69968 22.7578 13.2422C27.7277 18.212 35.9987 17.9987 35.9987 17.9987ZM4.75777 31.2422C-0.212049 26.2723 0.00133445 18.0013 0.00133445 18.0013C0.00133445 18.0013 8.27242 17.788 13.2422 22.7578C17.7848 27.3003 17.9972 34.6008 18 35.8227C18.003 34.6008 18.2153 27.3003 22.7578 22.7578C27.7277 17.788 35.9987 18.0013 35.9987 18.0013C35.9987 18.0013 36.2122 26.2723 31.2422 31.2422C26.2723 36.212 18.0013 35.9987 18.0013 35.9987C18.0013 35.9987 18.0002 35.956 18 35.8752C17.9998 35.956 17.9987 35.9987 17.9987 35.9987C17.9987 35.9987 9.72767 36.212 4.75777 31.2422Z" fill="#F2C94C"/>
</svg>
