<svg width="54" height="54" viewBox="0 0 54 54" fill="none" xmlns="http://www.w3.org/2000/svg">
<g clip-path="url(#clip0_3641_20633)">
<path d="M23.8887 0.116016C18.7523 0.748829 14.2172 2.63672 10.0723 5.88515C8.97539 6.75 6.38086 9.40781 5.52656 10.5469C2.71055 14.3016 0.949219 18.4148 0.242578 22.8867C-0.0527344 24.7641 -0.0316406 29.5207 0.284766 31.3242C0.84375 34.5199 1.82461 37.3676 3.28008 39.9832C3.96563 41.2277 4.15547 41.9027 4.09219 42.9574L4.03945 43.7906L2.025 47.8406C0.16875 51.5531 0 51.9434 0 52.4496C0 53.4094 0.590625 54 1.56094 54C2.06719 54 2.42578 53.8418 5.8957 52.1121C7.97344 51.068 9.9457 50.1398 10.2832 50.0344C10.7156 49.9184 11.127 49.8762 11.6754 49.9078C12.3926 49.9605 12.5824 50.0238 14.4809 50.973C17.4867 52.4707 19.8387 53.2406 22.9395 53.7574C24.6059 54.0316 29.3941 54.0316 31.0605 53.7574C34.5199 53.1879 37.7367 52.0594 40.5 50.4457C48.0516 46.0266 52.9664 38.4961 53.8945 29.8793C54.0633 28.35 53.9789 24.2578 53.7469 22.8445C51.8063 10.8844 42.2719 1.63477 30.375 0.158203C28.9512 -0.0105476 25.1754 -0.0421867 23.8887 0.116016ZM29.1094 8.65899C31.3242 8.9332 33.3703 9.55547 35.3109 10.5363C40.4473 13.1625 44.0016 17.877 45.1617 23.625C45.3621 24.6586 45.4043 25.1543 45.4043 27C45.3937 28.8246 45.3621 29.352 45.1512 30.375C43.8328 37.0195 39.1711 42.3668 32.8535 44.4867C30.5965 45.2461 28.7402 45.5203 26.3145 45.4254C17.7188 45.109 10.568 38.9496 8.83828 30.375C8.49023 28.6137 8.49023 25.3863 8.83828 23.625C10.1777 16.9594 14.85 11.6121 21.1465 9.51328C22.275 9.13359 24.0891 8.72226 25.1016 8.61679C25.9348 8.53242 28.2762 8.55352 29.1094 8.65899Z" fill="#9946FF" fill-opacity="0.4"/>
<path d="M26.2832 11.7809C26.0934 11.8652 25.682 12.2238 25.3656 12.5719C24.2055 13.8164 22.8133 17.2758 22.402 19.902L22.3281 20.3555H27.0004H31.6727L31.5988 19.902C31.1875 17.2863 29.8059 13.8691 28.6457 12.593C27.7703 11.6332 27.0742 11.3906 26.2832 11.7809Z" fill="#9946FF"/>
<path d="M20.4715 13.0359C17.5395 14.4176 14.7129 17.1176 13.3313 19.8492L13.0781 20.3555H16.1367H19.1953L19.248 20.1129C19.2797 19.9863 19.4273 19.2902 19.575 18.5625C19.8914 17.0227 20.5875 14.85 21.1992 13.5527C21.4313 13.0465 21.6211 12.6141 21.6211 12.593C21.6211 12.5086 21.4207 12.5824 20.4715 13.0359Z" fill="#9946FF"/>
<path d="M32.3789 12.593C32.3789 12.6141 32.5793 13.0465 32.8113 13.5633C33.4125 14.85 34.098 16.991 34.425 18.5625C34.5727 19.2902 34.7203 19.9863 34.752 20.1129L34.8047 20.3555H37.8633H40.9219L40.6687 19.8492C39.6668 17.877 37.5047 15.4723 35.5852 14.2066C34.4672 13.4684 32.3789 12.4137 32.3789 12.593Z" fill="#9946FF"/>
<path d="M11.9804 23.4984C11.9593 23.5406 11.8539 24.1312 11.7484 24.7957C11.548 26.1457 11.5902 28.6137 11.8328 29.8477L11.9699 30.5332L15.4293 30.5648L18.8781 30.5859L18.8043 30.3012C18.7093 29.9215 18.6988 24.0785 18.8043 23.6988L18.8781 23.4141H15.4609C13.573 23.4141 12.0121 23.4562 11.9804 23.4984Z" fill="#9946FF"/>
<path d="M21.8642 23.8043C21.7692 24.3211 21.7692 29.6789 21.8642 30.1852L21.9485 30.5859H27.0005H32.0524L32.1368 30.1852C32.2317 29.6895 32.2317 24.0891 32.1368 23.6988L32.063 23.4141H27.0005H21.9485L21.8642 23.8043Z" fill="#9946FF"/>
<path d="M35.1949 23.6988C35.2898 24.0785 35.2898 29.9215 35.1949 30.3012L35.1211 30.5859L38.5699 30.5648L42.0293 30.5332L42.177 29.8477C42.2719 29.3941 42.3141 28.4344 42.3141 27C42.3141 25.5656 42.2719 24.6059 42.177 24.1523L42.0293 23.4668L38.5699 23.4352L35.1211 23.4141L35.1949 23.6988Z" fill="#9946FF"/>
<path d="M13.3313 34.1506C14.3332 36.1229 16.4953 38.5276 18.4148 39.7932C19.3957 40.4471 21.484 41.5123 21.5789 41.4174C21.6 41.3963 21.4313 40.9639 21.1992 40.4576C20.5875 39.1498 19.8914 36.9772 19.575 35.4373C19.4273 34.7096 19.2797 34.0135 19.248 33.8764L19.1953 33.6444H16.1367H13.0781L13.3313 34.1506Z" fill="#9946FF"/>
<path d="M22.402 34.0873C22.6656 35.7432 23.3406 37.8209 24.1738 39.5506C24.7117 40.6475 24.9227 40.9744 25.5133 41.5651C26.2832 42.335 26.6523 42.4826 27.3906 42.3455C27.6859 42.2928 27.9602 42.1029 28.498 41.5545C29.0887 40.9533 29.3207 40.6053 29.8375 39.5295C30.6602 37.8209 31.3352 35.7326 31.5988 34.0873L31.6727 33.6443H27.0004H22.3281L22.402 34.0873Z" fill="#9946FF"/>
<path d="M34.7506 33.8768C34.719 34.0139 34.5818 34.6678 34.4447 35.3322C33.9912 37.4416 33.3373 39.4244 32.6201 40.8483C32.483 41.133 32.3881 41.3861 32.4092 41.4178C32.5147 41.5127 34.5713 40.4686 35.5838 39.7936C37.5033 38.5279 39.6654 36.1233 40.6674 34.151L40.9205 33.6447H37.8619H34.8033L34.7506 33.8768Z" fill="#9946FF"/>
</g>
<defs>
<clipPath id="clip0_3641_20633">
<rect width="54" height="54" fill="white"/>
</clipPath>
</defs>
</svg>
