<svg width="45" height="61" viewBox="0 0 45 61" fill="none" xmlns="http://www.w3.org/2000/svg">
<path d="M23.5212 44.11C23.1892 44.11 22.8653 43.945 22.6753 43.645L0.155247 8.099C0.013247 7.875 -0.0337573 7.603 0.0242427 7.345C0.0822427 7.087 0.240245 6.861 0.464245 6.72L6.66425 0.156009C7.13025 -0.140991 7.74825 -0.00099358 8.04425 0.466006L32.5743 39.196C32.8593 39.646 32.7412 40.24 32.3072 40.548C31.8722 40.856 31.2722 40.769 30.9442 40.35C30.1952 39.398 28.4792 37.736 27.3442 38.251C27.1912 38.321 27.1122 38.407 27.0622 38.557C26.8652 39.156 27.2352 40.47 27.9842 41.828C28.2472 42.305 28.0812 42.904 27.6092 43.177C27.1362 43.45 26.5352 43.296 26.2532 42.831C25.5952 41.748 24.8232 40.943 24.3302 40.83C24.2342 40.809 24.1733 40.819 24.0913 40.872C23.7593 41.087 24.0532 41.967 24.4072 42.655C24.6522 43.131 24.4792 43.715 24.0142 43.981C23.8602 44.068 23.6892 44.11 23.5212 44.11ZM2.38025 7.87401L22.4992 39.63C22.6622 39.442 22.8413 39.298 23.0053 39.192C23.5453 38.843 24.1562 38.736 24.7792 38.879C24.8582 38.897 24.9362 38.919 25.0122 38.944C25.0122 38.592 25.0573 38.25 25.1623 37.93C25.3863 37.251 25.8532 36.733 26.5122 36.431C27.1162 36.157 27.7162 36.096 28.2952 36.179L6.88925 2.38001L2.38025 7.87401Z" fill="#442C7D"/>
<path d="M24.302 45.3601C23.991 45.3601 23.686 45.2161 23.491 44.9461C23.355 44.7581 23.002 44.2531 22.669 43.6321C22.415 43.1561 22.583 42.5651 23.05 42.2951C23.516 42.0251 24.113 42.1721 24.399 42.6301L25.149 43.8301C25.435 44.2871 25.306 44.8881 24.859 45.1891C24.688 45.3051 24.494 45.3601 24.302 45.3601Z" fill="#442C7D"/>
<path d="M28.7495 48.28C28.5605 48.28 28.3715 48.226 28.2065 48.12L23.8165 45.28C23.7505 45.237 23.6895 45.187 23.6355 45.13C23.5945 45.087 23.5375 45.02 23.5045 44.97L22.7015 43.69L22.7035 43.689C22.6765 43.65 22.6515 43.61 22.6305 43.567C21.2445 40.872 22.2705 39.669 23.0055 39.192C23.5455 38.843 24.1565 38.736 24.7795 38.879C24.8585 38.897 24.9365 38.919 25.0125 38.944C25.0125 38.592 25.0575 38.25 25.1625 37.93C25.3865 37.251 25.8535 36.733 26.5125 36.431C29.1715 35.221 31.7795 38.177 32.5145 39.112C32.5345 39.136 32.5525 39.162 32.5685 39.188C32.6595 39.318 32.7185 39.469 32.7395 39.629L33.4295 44.809C33.4815 45.195 33.3035 45.577 32.9735 45.786L29.2835 48.126C29.1215 48.228 28.9355 48.28 28.7495 48.28ZM25.0725 43.711L28.7545 46.093L31.3635 44.439L30.7945 40.166C29.9845 39.201 28.4065 37.769 27.3435 38.251C27.1905 38.321 27.1115 38.407 27.0615 38.557C26.8645 39.156 27.2345 40.47 27.9835 41.828C28.2465 42.305 28.0805 42.904 27.6085 43.177C27.1355 43.45 26.5345 43.296 26.2525 42.831C25.5945 41.748 24.8225 40.943 24.3295 40.83C24.2335 40.809 24.1725 40.819 24.0905 40.872C23.7635 41.084 24.0445 41.942 24.3915 42.625C24.4095 42.654 24.4255 42.682 24.4375 42.706L25.0725 43.711Z" fill="#442C7D"/>
<path d="M33.14 51.1202C32.951 51.1202 32.762 51.0662 32.597 50.9602L28.207 48.1202C27.92 47.9342 27.749 47.6172 27.75 47.2762C27.751 46.9352 27.927 46.6182 28.214 46.4362L31.904 44.0962C32.192 43.9132 32.552 43.8912 32.862 44.0342C33.171 44.1782 33.385 44.4692 33.431 44.8072L34.131 49.9872C34.183 50.3742 34.006 50.7562 33.675 50.9652C33.512 51.0682 33.326 51.1202 33.14 51.1202ZM30.604 47.2882L31.858 48.0992L31.658 46.6202L30.604 47.2882Z" fill="#442C7D"/>
<path d="M3.07144 11.8328C2.73944 11.8328 2.41644 11.6678 2.22544 11.3678C1.93044 10.9008 2.06843 10.2838 2.53543 9.98781L9.92743 5.3058C10.3944 5.0118 11.0114 5.1498 11.3074 5.6158C11.6024 6.0828 11.4644 6.69981 10.9974 6.99581L3.60543 11.6778C3.43943 11.7818 3.25444 11.8328 3.07144 11.8328Z" fill="#442C7D"/>
<path d="M5.66518 15.9241C5.33318 15.9241 5.01019 15.7591 4.81919 15.4591C4.52419 14.9921 4.66218 14.3751 5.12918 14.0791L12.5212 9.39707C12.9872 9.10207 13.6052 9.24106 13.9012 9.70706C14.1962 10.1741 14.0582 10.7911 13.5912 11.0871L6.19918 15.7691C6.03318 15.8741 5.84818 15.9241 5.66518 15.9241Z" fill="#442C7D"/>
<path d="M34.8319 43.3011C34.8069 43.3011 34.7819 43.2991 34.7559 43.2951C34.4829 43.2531 34.2959 42.9981 34.3379 42.7251L35.2179 36.9761C35.2599 36.7041 35.5109 36.5141 35.7879 36.5581C36.0609 36.6001 36.2479 36.8551 36.2059 37.1281L35.3259 42.8771C35.2879 43.1251 35.0749 43.3011 34.8319 43.3011Z" fill="#9946FF"/>
<path d="M36.8236 47.2391C36.5846 47.2391 36.3726 47.0671 36.3316 46.8231C36.2846 46.5511 36.4676 46.2921 36.7396 46.2461L44.2946 44.9531C44.5746 44.9081 44.8256 45.0892 44.8716 45.3612C44.9186 45.6332 44.7356 45.8921 44.4636 45.9381L36.9086 47.2311C36.8796 47.2371 36.8516 47.2391 36.8236 47.2391Z" fill="#9946FF"/>
<path d="M44.4099 54.9005C44.3509 54.9005 44.2919 54.8905 44.2339 54.8685L36.6209 52.0035C36.3629 51.9065 36.2319 51.6185 36.3289 51.3595C36.4259 51.1015 36.7139 50.9685 36.9729 51.0675L44.5859 53.9325C44.8439 54.0295 44.9749 54.3175 44.8779 54.5765C44.8019 54.7775 44.6119 54.9005 44.4099 54.9005Z" fill="#9946FF"/>
<path d="M21.1026 56.3424C20.9146 56.3424 20.7346 56.2365 20.6496 56.0555C20.5316 55.8055 20.6386 55.5075 20.8886 55.3895L27.0086 52.5044C27.2576 52.3844 27.5566 52.4934 27.6746 52.7434C27.7926 52.9934 27.6856 53.2914 27.4356 53.4094L21.3156 56.2945C21.2466 56.3275 21.1736 56.3424 21.1026 56.3424Z" fill="#9946FF"/>
<path d="M24.4287 47.9572C24.4057 47.9572 24.3828 47.9562 24.3588 47.9522L18.1097 47.0712C17.8367 47.0322 17.6457 46.7792 17.6847 46.5062C17.7227 46.2332 17.9767 46.0422 18.2497 46.0812L24.4988 46.9622C24.7718 47.0012 24.9628 47.2542 24.9238 47.5272C24.8878 47.7762 24.6737 47.9572 24.4287 47.9572Z" fill="#9946FF"/>
<path d="M31.2655 60.649C31.2405 60.649 31.2155 60.6471 31.1895 60.6431C30.9165 60.6011 30.7295 60.346 30.7715 60.073L31.6515 54.3241C31.6925 54.0511 31.9425 53.8651 32.2215 53.9061C32.4945 53.9481 32.6815 54.203 32.6395 54.476L31.7595 60.2251C31.7215 60.4721 31.5085 60.649 31.2655 60.649Z" fill="#9946FF"/>
</svg>
