<svg width="56" height="37" viewBox="0 0 56 37" fill="none" xmlns="http://www.w3.org/2000/svg">
<path d="M35.1856 13.284H20.9586C20.4616 13.284 20.0586 12.881 20.0586 12.384V8.006C20.0586 3.591 23.6536 0 28.0716 0C30.1976 0 32.2076 0.834991 33.7316 2.34999C35.2496 3.86799 36.0856 5.87699 36.0856 8.00699V12.385C36.0856 12.881 35.6826 13.284 35.1856 13.284ZM21.8586 11.484H34.2856V8.006C34.2856 6.357 33.6376 4.80099 32.4606 3.62399C31.2776 2.44799 29.7186 1.79999 28.0716 1.79999C24.6456 1.79999 21.8586 4.584 21.8586 8.006V11.484Z" fill="#442C7D"/>
<path d="M28.0716 27.7203C23.6526 27.7203 20.0586 24.1253 20.0586 19.7063V19.3463C20.0586 18.8493 20.4616 18.4463 20.9586 18.4463H35.1856C35.6826 18.4463 36.0856 18.8493 36.0856 19.3463V19.7063C36.0856 24.1243 32.4906 27.7203 28.0716 27.7203ZM21.8816 20.2463C22.1566 23.4213 24.8276 25.9203 28.0716 25.9203C31.3156 25.9203 33.9876 23.4213 34.2626 20.2463H21.8816Z" fill="#442C7D"/>
<path d="M36.2798 20.2459H19.7489C18.3519 20.2459 17.2148 19.1089 17.2148 17.7119V14.0179C17.2148 12.6209 18.3519 11.4839 19.7489 11.4839H36.2798C37.6768 11.4839 38.8148 12.6209 38.8148 14.0179V17.7119C38.8148 19.1089 37.6778 20.2459 36.2798 20.2459ZM19.7489 13.2839C19.3509 13.2839 19.0148 13.6199 19.0148 14.0179V17.7119C19.0148 18.1169 19.3449 18.4459 19.7489 18.4459H36.2798C36.6778 18.4459 37.0148 18.1099 37.0148 17.7119V14.0179C37.0148 13.6199 36.6778 13.2839 36.2798 13.2839H19.7489Z" fill="#9946FF"/>
<path d="M33.4823 36.413H22.5473C21.1573 36.413 20.0273 35.283 20.0273 33.893C20.0273 32.503 21.1583 31.373 22.5473 31.373H33.4823C34.8723 31.373 36.0023 32.504 36.0023 33.893C36.0023 35.283 34.8723 36.413 33.4823 36.413ZM22.5473 33.173C22.1503 33.173 21.8273 33.496 21.8273 33.893C21.8273 34.29 22.1503 34.613 22.5473 34.613H33.4823C33.8793 34.613 34.2023 34.29 34.2023 33.893C34.2023 33.496 33.8793 33.173 33.4823 33.173H22.5473Z" fill="#442C7D"/>
<path d="M27.2008 33.1732C26.7038 33.1732 26.3008 32.7703 26.3008 32.2733V26.7643C26.3008 26.2673 26.7038 25.8643 27.2008 25.8643C27.6978 25.8643 28.1008 26.2673 28.1008 26.7643V32.2733C28.1008 32.7703 27.6978 33.1732 27.2008 33.1732Z" fill="#442C7D"/>
<path d="M29.5797 33.1729C29.0827 33.1729 28.6797 32.7699 28.6797 32.2729V26.6549C28.6797 26.1579 29.0827 25.7549 29.5797 25.7549C30.0767 25.7549 30.4797 26.1579 30.4797 26.6549V32.2729C30.4797 32.7699 30.0767 33.1729 29.5797 33.1729Z" fill="#442C7D"/>
<path d="M12.2192 22.0129C11.9572 22.0129 11.6972 21.8989 11.5192 21.6789C6.00621 14.8679 11.4862 8.46288 11.5422 8.39888C11.8692 8.02488 12.4372 7.98687 12.8122 8.31587C13.1852 8.64287 13.2232 9.20987 12.8972 9.58387C12.7102 9.79887 8.37121 14.9299 12.9182 20.5459C13.2302 20.9319 13.1712 21.4989 12.7852 21.8119C12.6182 21.9479 12.4182 22.0129 12.2192 22.0129Z" fill="#9946FF"/>
<path d="M4.42206 26.8133C4.14906 26.8133 3.87905 26.6903 3.70205 26.4553C-4.57295 15.4733 3.59705 3.38234 3.68005 3.26234C3.96205 2.85334 4.52106 2.75033 4.93106 3.03333C5.34006 3.31533 5.44305 3.87534 5.16105 4.28434C4.85105 4.73534 -2.34595 15.4403 5.13905 25.3723C5.43805 25.7693 5.35905 26.3343 4.96205 26.6333C4.80005 26.7553 4.61106 26.8133 4.42206 26.8133Z" fill="#9946FF"/>
<path d="M43.6493 23.6971C43.4503 23.6971 43.2503 23.6321 43.0843 23.4971C42.6973 23.1841 42.6383 22.6171 42.9503 22.2311C47.5213 16.5851 43.1613 11.4851 42.9733 11.2711C42.6453 10.8971 42.6833 10.3281 43.0563 10.0011C43.4283 9.6741 43.9983 9.7101 44.3263 10.0841C44.3823 10.1481 49.8623 16.5531 44.3493 23.3641C44.1723 23.5841 43.9113 23.6971 43.6493 23.6971Z" fill="#9946FF"/>
<path d="M51.4503 28.4969C51.2623 28.4969 51.0713 28.4379 50.9093 28.3159C50.5123 28.0169 50.4333 27.4519 50.7313 27.0559C58.2153 17.1229 51.0193 6.41892 50.7093 5.96792C50.4283 5.55892 50.5313 4.99893 50.9393 4.71693C51.3483 4.43393 51.9083 4.53693 52.1903 4.94593C52.2733 5.06693 60.4443 17.1569 52.1693 28.1389C51.9933 28.3739 51.7233 28.4969 51.4503 28.4969Z" fill="#9946FF"/>
</svg>
