<svg width="39" height="43" viewBox="0 0 39 43" fill="none" xmlns="http://www.w3.org/2000/svg">
<g filter="url(#filter0_d_3647_26151)">
<path d="M16.4738 38.073C17.6957 38.2711 18.8982 38.0639 19.9393 37.5493C21.5062 36.775 22.7043 35.3061 23.045 33.49C23.0465 33.4857 23.0477 33.4815 23.0488 33.4771C23.0496 33.4728 23.0505 33.4685 23.0512 33.4643L23.0523 33.4578C23.0531 33.4533 23.0537 33.449 23.0544 33.4448L24.2248 26.9469L30.0976 29.9641C30.1036 29.9675 30.1091 29.9697 30.1148 29.9724C30.1174 29.9737 30.12 29.975 30.1228 29.9766C32.8784 31.3764 36.3073 30.2903 37.7752 27.549C39.2457 24.8066 38.2055 21.4232 35.4616 19.9958L35.4552 19.992C35.4499 19.9887 35.4457 19.9864 35.4402 19.9846L29.5738 16.9609L34.3672 12.3267C36.6189 10.1498 36.687 6.58702 34.5178 4.38864C32.3489 2.19034 28.7513 2.17087 26.4959 4.3465L21.6989 8.97324L18.7874 3.08836C17.4189 0.325939 14.0182 -0.792452 11.2061 0.597275C8.394 1.987 7.21677 5.36781 8.5813 8.13534L11.4826 14.019L4.89337 15.0193C4.89112 15.0204 4.88813 15.0212 4.88499 15.0218C4.88094 15.0227 4.87656 15.0231 4.87301 15.0231C1.7848 15.5008 -0.374677 18.3654 0.0541867 21.4176C0.482963 24.4696 3.33944 26.5746 6.42735 26.122C6.43017 26.1216 6.43282 26.1214 6.43537 26.1212L6.4465 26.1201L6.4515 26.1195L13.0419 25.1279L11.8804 31.6246C11.8804 31.6278 11.8797 31.6312 11.8791 31.6346C11.8784 31.6381 11.8777 31.6415 11.8777 31.6447C11.3424 34.6926 13.402 37.5753 16.4738 38.073Z" fill="#FE639C"/>
</g>
<defs>
<filter id="filter0_d_3647_26151" x="0" y="0" width="38.4429" height="42.147" filterUnits="userSpaceOnUse" color-interpolation-filters="sRGB">
<feFlood flood-opacity="0" result="BackgroundImageFix"/>
<feColorMatrix in="SourceAlpha" type="matrix" values="0 0 0 0 0 0 0 0 0 0 0 0 0 0 0 0 0 0 127 0" result="hardAlpha"/>
<feOffset dy="4"/>
<feComposite in2="hardAlpha" operator="out"/>
<feColorMatrix type="matrix" values="0 0 0 0 1 0 0 0 0 0.79452 0 0 0 0 0.765374 0 0 0 1 0"/>
<feBlend mode="normal" in2="BackgroundImageFix" result="effect1_dropShadow_3647_26151"/>
<feBlend mode="normal" in="SourceGraphic" in2="effect1_dropShadow_3647_26151" result="shape"/>
</filter>
</defs>
</svg>
