<svg width="115" height="102" viewBox="0 0 115 102" fill="none" xmlns="http://www.w3.org/2000/svg">
<g filter="url(#filter0_f_3653_26376)">
<path d="M94.3299 88.0836C91.0169 90.7258 87.8269 92.609 86.2909 92.1297C83.3159 91.2032 64.3959 68.9441 59.9999 61.198C57.1569 56.1886 57.6009 50.5704 61.0519 47.8185C61.0639 47.809 61.0759 47.7996 61.0879 47.7892C64.3789 45.2008 69.2669 45.8673 74.1639 49.5721C83.6109 56.7198 95.8179 68.5594 96.3329 69.0595C97.1029 69.8082 97.0859 71.005 96.2939 71.7329C95.4879 72.4589 94.2349 72.4447 93.4659 71.696C93.3419 71.575 80.9159 59.5238 71.6649 52.5235C68.3629 50.0259 65.3669 49.3424 63.6479 50.6942C61.9299 52.0659 61.3289 55.5391 63.5259 59.4094C68.0279 67.3408 83.8019 85.2069 87.3189 88.266C90.3349 86.7497 100.548 78.5129 101.803 73.8807C101.946 73.3522 101.93 73.0006 101.755 72.8361C101.255 72.3672 100.367 71.4814 99.1649 70.2837C76.3139 47.5027 61.0409 36.0035 53.7679 36.1056C52.6999 36.1217 51.9339 36.4166 51.3469 37.0321C44.0369 44.7688 65.4279 72.9732 80.6289 88.9344C81.3679 89.7096 81.3009 90.9055 80.4809 91.605C79.6349 92.3291 78.3949 92.2403 77.6559 91.4651C73.3859 86.9823 36.2839 47.2976 48.3639 34.5137C49.7039 33.0957 51.5039 32.3564 53.7079 32.3261C65.1039 32.1654 86.7649 52.428 102.066 67.683C103.229 68.843 104.089 69.7004 104.572 70.1542C105.902 71.403 106.903 73.79 104.124 78.0724C102.45 80.656 98.3019 84.9157 94.3299 88.0836Z" fill="url(#paint0_linear_3653_26376)"/>
<g opacity="0.5">
<path d="M24.1532 78.0291C19.8192 78.0291 16.0962 77.5243 15.2492 76.2216C13.6072 73.6995 14.3292 45.1538 16.2522 36.553C17.4962 30.9906 21.6672 26.9672 26.1822 26.9672C26.1982 26.9672 26.2132 26.9672 26.2292 26.9672C30.5102 26.9946 33.7922 30.4839 35.0072 36.3006C37.3522 47.5228 38.6072 64.0125 38.6592 64.7092C38.7372 65.751 37.9072 66.6557 36.8052 66.7294C35.6932 66.7927 34.7462 66.0185 34.6682 64.9768C34.6552 64.8085 33.3782 48.0229 31.0822 37.0333C30.2622 33.112 28.4382 30.7628 26.2022 30.7486C23.9532 30.7496 21.1252 33.0382 20.1642 37.3358C18.1952 46.1417 18.0652 69.4142 18.6662 73.8961C22.0062 74.5758 35.4302 74.5058 39.5492 71.7303C40.0192 71.4136 40.2462 71.1347 40.2252 70.9031C40.1632 70.2404 40.0882 69.0219 39.9862 67.3741C38.0592 36.0331 34.2282 17.9335 28.6002 13.5783C27.7732 12.9392 26.9862 12.6972 26.1182 12.8107C15.2532 14.2684 12.3652 48.8652 13.0972 70.3312C13.1332 71.3739 12.2662 72.2474 11.1622 72.2824C10.0222 72.3202 9.13422 71.4968 9.09922 70.4531C8.89322 64.4237 7.60322 11.4749 25.5572 9.06711C27.5492 8.79957 29.4282 9.33275 31.1342 10.6525C39.9542 17.4769 42.6902 46.1681 43.9802 67.1548C44.0782 68.7506 44.1502 69.9294 44.2102 70.5713C44.3742 72.3363 43.5122 74.7715 38.4672 76.3502C35.4272 77.3012 29.3512 78.0291 24.1532 78.0291Z" fill="url(#paint1_linear_3653_26376)"/>
<g opacity="0.5">
<path d="M44.2068 70.5713C43.9268 71.6774 41.7618 71.9856 41.3608 70.5846C40.7248 68.3649 40.7498 59.9059 39.9908 51.9726C39.1828 43.5146 38.0298 34.2332 36.7298 29.0527C35.4198 23.8722 32.8328 14.1039 28.5448 12.113C24.8598 10.402 22.8348 14.5388 20.4258 14.7184C20.0958 14.7468 18.7788 14.3639 18.7268 13.2257C7.96681 26.2904 8.92681 65.3237 9.09681 70.4475C9.13681 71.4968 10.0268 72.3193 11.1668 72.2815C12.2668 72.2436 13.1368 71.3739 13.0968 70.3341C12.3668 48.8653 15.2568 14.2656 26.1168 12.8098C26.9868 12.6963 27.7768 12.9421 28.6068 13.5755C34.2268 17.9335 38.0568 36.0275 39.9868 67.3751C40.0868 69.02 40.1668 70.2395 40.2268 70.9013C40.2468 71.1376 40.0168 71.4117 39.5468 71.7332C39.5468 71.7332 37.6468 74.5408 31.6268 75.4578C25.6068 76.3842 18.1268 76.1101 17.5868 75.2309C17.0468 74.3518 18.6668 73.898 18.6668 73.898C18.0668 69.4171 18.1968 46.1427 20.1668 37.332C21.1268 33.0402 23.9568 30.7524 26.2068 30.7524C28.4368 30.7619 30.2668 33.1158 31.0868 37.0295C33.3768 48.0239 34.6568 64.8038 34.6668 64.9739C34.7468 66.0138 35.6968 66.789 36.8068 66.7323C37.9068 66.6567 38.7368 65.7491 38.6568 64.7092C38.0568 65.7491 36.2408 65.5506 35.9798 64.2252C35.7808 63.2156 34.5968 51.8629 33.5668 44.6499C32.5368 37.437 32.0658 32.8946 29.1078 31.002C26.6148 29.4062 24.1918 30.1247 22.1618 31.5342C20.9918 32.3472 18.8848 31.5106 19.5258 30.1569C17.9858 31.8112 16.8158 34.0233 16.2558 36.5568C14.3258 45.15 13.6058 73.6995 15.2458 76.2235C16.0958 77.5187 19.8158 78.0292 24.1558 78.0292C29.3458 78.0292 35.4258 77.3012 38.4658 76.3464C43.5168 74.7687 44.3768 72.3391 44.2068 70.5713Z" fill="url(#paint2_linear_3653_26376)"/>
</g>
<path d="M30.6486 10.7884C33.1436 12.4844 34.0846 14.7617 35.1326 16.8462C37.3646 21.2884 38.5846 26.9397 39.2086 29.7625C39.8116 32.4907 39.5486 33.835 39.0296 33.4304C38.4756 32.9993 37.6516 26.5483 35.6626 21.1542C34.1576 17.0722 33.2456 15.4896 31.2526 13.0544C29.4736 10.882 28.4806 10.9586 27.9916 10.3725C27.5016 9.78637 28.6496 9.42998 30.6486 10.7884Z" fill="url(#paint3_linear_3653_26376)"/>
<path d="M39.1424 35.4344C39.1424 35.4344 40.0304 41.2067 40.8054 47.2097C41.4924 52.532 41.3224 55.9985 42.2404 55.8719C43.1584 55.7461 41.5884 44.4048 41.0334 41.1679C40.4794 37.9311 40.2504 36.4516 40.0224 35.1565C39.7944 33.8623 38.9464 34.2291 39.1424 35.4344Z" fill="url(#paint4_linear_3653_26376)"/>
<path d="M26.0998 27.6042C27.3238 27.3858 29.3768 27.8821 30.7708 29.2453C32.7898 31.2211 34.0728 34.5393 34.5618 36.3203C35.0508 38.1004 35.4908 40.9213 35.4428 41.6842C35.3938 42.4471 34.6928 43.5144 33.9758 39.7888C33.3028 36.2957 31.7748 32.1825 30.4538 30.7947C29.1328 29.4079 27.2748 28.3907 25.8318 28.645C24.3878 28.8993 24.2668 27.9303 26.0998 27.6042Z" fill="url(#paint5_linear_3653_26376)"/>
<path d="M104.57 70.16C105.11 71.1762 103.666 72.7313 102.403 71.9051C100.403 70.5967 94.6515 64.1164 88.6605 58.5143C82.2735 52.5416 75.0625 46.1511 70.5345 42.9841C65.9995 39.8229 57.3595 33.9344 52.7245 35.0262C48.7415 35.965 50.0145 40.3599 48.2955 41.9669C48.0625 42.19 46.7955 42.6996 45.9785 41.862C46.6655 58.4065 74.0235 87.6565 77.6485 91.469C78.3945 92.2471 79.6365 92.3331 80.4815 91.609C81.2965 90.9094 81.3685 89.7145 80.6285 88.944C65.4265 72.979 44.0355 44.7718 51.3435 37.0389C51.9315 36.4216 52.7025 36.1285 53.7685 36.1068C61.0365 36.0122 76.3055 47.5076 99.1635 70.2904C100.362 71.4873 101.255 72.3702 101.753 72.8391C101.929 73.0074 101.941 73.3572 101.801 73.8894C101.801 73.8894 102.264 77.1934 98.2875 81.5637C94.3185 85.9416 88.4135 90.2911 87.4015 89.9489C86.3895 89.6058 87.3175 88.2719 87.3175 88.2719C83.8025 85.2128 68.0265 67.3438 63.5225 59.4086C61.3285 55.5431 61.9315 52.0689 63.6515 50.6982C65.3625 49.3463 68.3665 50.0298 71.6635 52.5208C80.9125 59.5286 93.3365 71.5733 93.4605 71.6971C94.2315 72.443 95.4855 72.4563 96.2955 71.7369C97.0845 71.0089 97.0995 69.8093 96.3295 69.0625C96.5805 70.2233 95.0575 71.1781 93.9535 70.3245C93.1125 69.6741 84.4645 61.719 78.7575 56.8335C73.0505 51.9479 69.5925 48.764 66.0395 49.1194C63.0465 49.4191 61.6845 51.4459 61.0935 53.7601C60.7535 55.095 58.5725 55.7397 58.1395 54.3141C58.0905 56.5177 58.7055 58.9217 60.0055 61.1991C64.3915 68.9434 83.3145 91.2043 86.2895 92.1336C87.8225 92.6054 91.0145 90.7279 94.3315 88.0828C98.2985 84.9187 102.45 80.6571 104.122 78.0735C106.906 73.7882 105.906 71.4069 104.57 70.16Z" fill="url(#paint6_linear_3653_26376)"/>
</g>
<path d="M53.4305 32.7294C56.4935 32.5044 58.7665 33.6709 60.9895 34.6267C65.7255 36.661 70.5126 40.2373 72.9156 42.0146C75.2376 43.7323 75.9525 44.9206 75.2805 44.9281C74.5625 44.9357 69.5336 40.5077 64.3335 37.597C60.3986 35.3943 58.6226 34.7401 55.4376 34.0944C52.5966 33.5187 51.8895 34.1814 51.1155 34.032C50.3415 33.8817 50.9765 32.909 53.4305 32.7294Z" fill="url(#paint7_linear_3653_26376)"/>
<path d="M76.7336 46.3894C76.7336 46.3894 81.3496 50.2596 86.0366 54.3766C90.1916 58.0257 92.4256 60.7795 93.0416 60.1234C93.6576 59.4673 84.7216 51.7561 82.0896 49.6196C79.4576 47.4832 78.2746 46.4915 77.2166 45.6416C76.1596 44.7908 75.7626 45.5877 76.7336 46.3894Z" fill="url(#paint8_linear_3653_26376)"/>
<path d="M61.4221 48.3558C62.2091 47.4426 64.1161 46.57 66.1121 46.7628C69.0021 47.0417 72.2471 48.7972 73.8351 49.8598C75.4231 50.9224 77.6841 52.8102 78.1671 53.4228C78.6501 54.0354 78.8421 55.2785 75.7521 52.8679C72.8551 50.6076 68.8811 48.3954 66.9261 48.1402C64.9701 47.885 62.8561 48.2404 61.9261 49.3143C60.9961 50.3892 60.2441 49.7227 61.4221 48.3558Z" fill="url(#paint9_linear_3653_26376)"/>
</g>
<defs>
<filter id="filter0_f_3653_26376" x="0" y="0" width="114.897" height="101.207" filterUnits="userSpaceOnUse" color-interpolation-filters="sRGB">
<feFlood flood-opacity="0" result="BackgroundImageFix"/>
<feBlend mode="normal" in="SourceGraphic" in2="BackgroundImageFix" result="shape"/>
<feGaussianBlur stdDeviation="4.5" result="effect1_foregroundBlur_3653_26376"/>
</filter>
<linearGradient id="paint0_linear_3653_26376" x1="59.1806" y1="71.94" x2="81.0686" y2="50.5525" gradientUnits="userSpaceOnUse">
<stop stop-color="#4C9273"/>
<stop offset="1" stop-color="#76AA41"/>
</linearGradient>
<linearGradient id="paint1_linear_3653_26376" x1="26.6154" y1="8.99942" x2="26.6154" y2="78.0291" gradientUnits="userSpaceOnUse">
<stop stop-color="#E3AE31"/>
<stop offset="1" stop-color="#D87C26"/>
</linearGradient>
<linearGradient id="paint2_linear_3653_26376" x1="26.6128" y1="11.7003" x2="26.6128" y2="78.0299" gradientUnits="userSpaceOnUse">
<stop stop-color="#E3AE31"/>
<stop offset="1" stop-color="#D87C26"/>
</linearGradient>
<linearGradient id="paint3_linear_3653_26376" x1="33.7166" y1="9.85122" x2="33.7166" y2="33.501" gradientUnits="userSpaceOnUse">
<stop stop-color="#E3AE31"/>
<stop offset="1" stop-color="#D87C26"/>
</linearGradient>
<linearGradient id="paint4_linear_3653_26376" x1="40.818" y1="34.3426" x2="40.818" y2="55.8754" gradientUnits="userSpaceOnUse">
<stop stop-color="#E3AE31"/>
<stop offset="1" stop-color="#D87C26"/>
</linearGradient>
<linearGradient id="paint5_linear_3653_26376" x1="30.0908" y1="27.5548" x2="30.0908" y2="42.4344" gradientUnits="userSpaceOnUse">
<stop stop-color="#E3AE31"/>
<stop offset="1" stop-color="#D87C26"/>
</linearGradient>
<linearGradient id="paint6_linear_3653_26376" x1="50.9659" y1="35.8874" x2="93.2695" y2="88.93" gradientUnits="userSpaceOnUse">
<stop stop-color="#4C9273"/>
<stop offset="1" stop-color="#76AA41"/>
</linearGradient>
<linearGradient id="paint7_linear_3653_26376" x1="90.6664" y1="60.2208" x2="60.5383" y2="34.1456" gradientUnits="userSpaceOnUse">
<stop stop-color="#4C9273"/>
<stop offset="1" stop-color="#76AA41"/>
</linearGradient>
<linearGradient id="paint8_linear_3653_26376" x1="92.118" y1="58.5443" x2="61.9901" y2="32.4691" gradientUnits="userSpaceOnUse">
<stop stop-color="#4C9273"/>
<stop offset="1" stop-color="#76AA41"/>
</linearGradient>
<linearGradient id="paint9_linear_3653_26376" x1="86.7358" y1="64.7613" x2="56.6078" y2="38.6861" gradientUnits="userSpaceOnUse">
<stop stop-color="#4C9273"/>
<stop offset="1" stop-color="#76AA41"/>
</linearGradient>
</defs>
</svg>
