<svg width="99" height="79" viewBox="0 0 99 79" fill="none" xmlns="http://www.w3.org/2000/svg">
<path d="M72.2304 47.3683C66.5436 34.4929 45.1638 36.8843 38.7562 30.5943C35.0611 26.9654 27.3724 23.3234 18.9801 25.4126C12.8905 26.9285 2.568 30.9383 0.32055 42.1538C-2.19707 54.718 10.1835 76.2168 35.0628 78.3968C60.9297 80.6675 79.621 64.0967 72.2304 47.3683ZM31.4492 36.8141C29.3299 39.7793 25.4989 41.2413 20.0102 41.8229C14.3588 42.4218 8.85815 39.6963 10.487 35.258C12.1159 30.8156 19.4521 29.0838 19.4521 29.0838C29.9423 26.0489 34.3087 32.8133 31.4492 36.8141Z" fill="url(#paint0_linear_3657_26466)"/>
<path d="M72.2304 45.7072C66.5436 32.8318 45.1638 35.2231 38.7563 28.9332C35.0612 25.3043 27.3724 21.6623 18.9802 23.7515C12.8906 25.2674 2.56804 29.2772 0.320592 40.4926C-2.19703 53.0569 10.1815 73.422 35.0612 75.602C60.9281 77.8726 79.621 62.4356 72.2304 45.7072ZM31.4493 35.1529C29.3299 38.1181 25.4989 39.5802 20.0102 40.1618C14.3588 40.7607 8.85819 38.0352 10.4871 33.5969C12.1159 29.1544 19.4522 27.4227 19.4522 27.4227C29.9423 24.3873 34.3087 31.1522 31.4493 35.1529Z" fill="url(#paint1_linear_3657_26466)"/>
<path d="M14.538 54.0083C12.6501 55.0024 8.69555 58.3186 11.3458 62.2849C13.996 66.2512 23.9389 69.4064 27.4845 62.9888C29.694 58.9893 23.4681 49.3056 14.538 54.0083Z" fill="url(#paint2_linear_3657_26466)"/>
<path d="M14.5353 53.5926C12.6474 54.5868 8.97374 57.6291 11.624 61.595C14.2742 65.5613 23.7051 68.8241 27.2507 62.4065C29.4603 58.4074 23.4654 48.8904 14.5353 53.5926Z" fill="url(#paint3_linear_3657_26466)"/>
<path opacity="0.3" d="M27.2495 62.4063C23.7043 68.8255 14.2767 65.5619 11.6228 61.5968C10.4811 59.886 10.5145 58.3501 11.073 57.0752V57.0793C10.5219 59.3405 13.2726 63.3943 19.7382 63.8844C26.2038 64.3703 27.3871 60.5046 27.2829 58.1588C27.8454 59.7198 27.8706 61.2812 27.2495 62.4063Z" fill="url(#paint4_linear_3657_26466)"/>
<path opacity="0.5" d="M23.8939 54.4049C22.9528 53.7231 20.0765 52.117 19.275 53.8364C18.5041 55.4906 22.7119 58.8597 24.3288 57.9792C26.2859 56.9141 24.5475 54.8786 23.8939 54.4049Z" fill="url(#paint5_linear_3657_26466)"/>
<path d="M41.2601 57.0641C40.756 57.1109 32.783 58.6128 32.8917 65.0648C33.0005 71.5169 41.9202 74.5498 49.8454 71.7434C56.9094 69.2421 57.2356 63.0683 52.9973 60.9023C48.759 58.7359 48.759 56.3671 41.2601 57.0641Z" fill="url(#paint6_linear_3657_26466)"/>
<path d="M41.2601 56.5782C40.756 56.625 32.783 58.1269 32.8917 64.579C33.0005 71.031 41.9202 74.0639 49.8454 71.2576C56.9094 68.7562 57.2356 62.5825 52.9973 60.4161C48.759 58.2501 48.759 55.8813 41.2601 56.5782Z" fill="url(#paint7_linear_3657_26466)"/>
<path opacity="0.3" d="M49.8432 71.2581C41.9193 74.0648 32.9999 71.0298 32.8916 64.5774C32.8706 63.2278 33.1996 62.0945 33.7457 61.1479C33.6667 61.3889 31.8348 67.5105 39.3296 69.8937C46.9908 72.331 56.5044 68.5051 55.0214 62.2147C56.8088 64.9886 55.4423 69.2776 49.8432 71.2581Z" fill="url(#paint8_linear_3657_26466)"/>
<path d="M51.1526 60.0628C50.7297 59.7271 50.2989 59.4032 49.9056 59.0334C49.2635 58.43 48.1107 57.5627 46.6573 57.3936C43.5425 57.0311 43.5228 59.7759 45.1879 60.8058C46.853 61.8352 48.0737 62.1328 50.2004 62.2617C51.8989 62.3647 52.4755 61.1128 51.1526 60.0628Z" fill="url(#paint9_linear_3657_26466)"/>
<path d="M41.4426 57.3583C40.5357 57.3871 38.2875 57.7774 38.1417 58.861C37.9448 60.3243 40.0671 60.4898 41.572 60.2558C43.6604 59.9311 44.071 57.2754 41.4426 57.3583Z" fill="url(#paint10_linear_3657_26466)"/>
<path d="M44.9515 37.8093C42.1596 37.1833 39.2157 37.4399 36.6478 38.6988C34.5902 39.7073 32.3942 41.501 31.8411 44.6422C30.7353 50.9244 42.3313 55.9887 50.873 50.9494C55.0327 48.4948 53.4187 39.7077 44.9515 37.8093Z" fill="url(#paint11_linear_3657_26466)"/>
<path d="M44.9515 37.1403C42.1596 36.5144 39.2157 36.7709 36.6478 38.0298C34.5902 39.0383 32.3942 40.832 31.8411 43.9733C30.7353 50.2554 42.3313 55.3197 50.873 50.2805C55.0327 47.8259 53.4187 39.0391 44.9515 37.1403Z" fill="url(#paint12_linear_3657_26466)"/>
<path opacity="0.4" d="M50.8753 50.2811C42.3307 55.3175 30.7368 50.2561 31.8409 43.9743C31.9867 43.144 32.2491 42.4047 32.595 41.7529C32.5407 41.9565 30.862 48.5124 40.652 50.1982C50.5796 51.9045 52.7084 46.6107 53.0169 45.0871C53.2875 47.2708 52.5503 49.2931 50.8753 50.2811Z" fill="url(#paint13_linear_3657_26466)"/>
<path opacity="0.5" d="M47.0818 38.5168C47.0818 38.5168 44.6095 37.1824 41.2945 37.4804C37.98 37.7784 36.3305 39.0389 36.3223 40.0807C36.3128 41.2993 38.0685 41.4619 42.1705 42.3555C46.2725 43.249 49.7238 45.8584 51.1636 45.2406C52.6039 44.6229 50.709 40.5478 47.0818 38.5168Z" fill="url(#paint14_linear_3657_26466)"/>
<path d="M96.1948 12.8571C99.1527 6.94232 97.8504 5.10837 96.8323 4.43562C95.8142 3.76287 93.6121 3.2814 89.2972 8.29931C84.9822 13.3172 71.4473 37.9466 71.4473 37.9466L73.252 39.8828L75.7441 40.7858C75.7441 40.7858 93.2365 18.7718 96.1948 12.8571Z" fill="url(#paint15_linear_3657_26466)"/>
<path opacity="0.3" d="M96.2599 4.15602C95.299 4.47988 93.2978 6.01131 89.3581 11.6942C83.8554 19.6276 75.4525 35.1968 73.0605 39.6816L71.4473 37.9457C71.4473 37.9457 84.9814 13.3143 89.2967 8.30046C92.9313 4.07064 95.07 3.7472 96.2599 4.15602Z" fill="url(#paint16_linear_3657_26466)"/>
<path d="M65.3125 45.7911C65.3125 45.7911 70.0776 38.129 71.3329 37.6192C72.5923 37.1077 76.0008 38.8017 76.0271 40.721C76.0498 42.3686 70.8724 49.4651 70.8724 49.4651C70.8724 49.4651 68.478 48.6737 65.3125 45.7911Z" fill="url(#paint17_linear_3657_26466)"/>
<path opacity="0.5" d="M75.1808 39.0524C75.1808 39.0524 74.0655 38.2368 73.2575 39.0077C72.4465 39.7736 68.5838 45.9503 67.7321 47.5864C67.7119 47.6237 67.6955 47.6619 67.679 47.7005C66.9669 47.2009 66.1675 46.5746 65.3125 45.7918C65.3125 45.7918 70.0759 38.1293 71.3308 37.6187C72.1961 37.2653 74.0824 37.9594 75.1808 39.0524Z" fill="url(#paint18_linear_3657_26466)"/>
<path d="M65.3096 45.7916C63.8258 45.3257 62.6574 45.693 61.1702 47.905C57.2893 53.6774 55.889 53.6966 53.9983 54.5562C53.2862 54.88 58.5282 61.0448 66.1366 57.4204C69.3869 55.8721 72.7361 52.6007 70.8696 49.4656C71.2576 46.9515 67.128 44.1386 65.3096 45.7916Z" fill="url(#paint19_linear_3657_26466)"/>
<path d="M65.3096 45.7916C63.8258 45.3257 62.6574 45.693 61.1702 47.905C57.2893 53.6774 55.889 53.6966 53.9983 54.5562C53.2862 54.88 58.5282 61.0448 66.1366 57.4204C69.3869 55.8721 72.7361 52.6007 70.8696 49.4656C71.2576 46.9515 67.128 44.1386 65.3096 45.7916Z" fill="url(#paint20_linear_3657_26466)"/>
<path opacity="0.5" d="M69.8844 54.6999C68.8803 55.8189 67.501 56.7695 66.137 57.4205C58.5297 61.0432 53.2865 54.8805 53.9982 54.5579C55.8902 53.6972 57.288 53.6783 61.1693 47.9035C62.6577 45.6952 63.8244 45.327 65.3108 45.7925C66.1637 45.018 67.5224 45.222 68.6838 45.9173C68.6142 45.9304 67.8713 46.0609 66.5414 47.1047C65.1922 48.1691 61.0725 53.2132 60.8163 53.5297C61.0943 53.3245 63.8417 51.7401 66.9009 48.2339C66.9009 48.2339 65.2807 51.5061 60.9905 55.1235C58.8971 56.8885 59.0421 57.1976 61.3789 57.4139C63.7116 57.6286 67.3412 57.198 69.8844 54.6999Z" fill="url(#paint21_linear_3657_26466)"/>
<path d="M56.4814 52.6317C54.6095 53.5679 53.3184 53.38 53.1203 53.829C52.9222 54.278 52.7373 55.7803 55.4748 57.3105C58.2124 58.8407 63.3893 59.7089 66.981 56.9814C66.981 56.9814 66.7825 56.8213 64.4164 57.1078C62.0504 57.3947 66.2261 54.5498 64.9477 53.5856C64.0569 52.9141 62.3518 54.425 62.0055 52.9843C61.6587 51.5435 62.8864 49.1029 60.9713 48.2036C60.9713 48.2036 58.7943 51.4746 56.4814 52.6317Z" fill="url(#paint22_linear_3657_26466)"/>
<path opacity="0.4" d="M66.9786 56.982C63.3869 59.7071 58.2083 58.8394 55.47 57.3112C52.7328 55.779 52.919 54.2758 53.1158 53.828C53.3164 53.3814 54.6063 53.5686 56.4786 52.6319C58.7903 51.4753 60.969 48.2026 60.969 48.2026C62.5558 48.9472 61.9829 50.7524 61.9413 52.1706C61.9413 52.1706 60.3232 54.5119 57.5827 55.261C55.6314 55.7946 59.0576 58.9424 65.9647 56.959C65.9688 56.9603 65.97 56.9562 65.975 56.9537C66.8782 56.8987 66.9786 56.982 66.9786 56.982Z" fill="url(#paint23_linear_3657_26466)"/>
<path d="M96.6193 7.97308C96.6193 7.97308 95.6461 7.05734 93.2067 10.7671C90.767 14.4769 89.419 16.7709 86.9673 21.3107C85.1444 24.6859 85.457 26.3946 87.1765 24.4659C91.0973 20.0674 97.9636 8.86133 96.6193 7.97308Z" fill="url(#paint24_linear_3657_26466)"/>
<path d="M33.791 10.9494C33.791 10.9494 43.8796 20.9458 54.0049 27.4591C54.0049 27.4591 60.7889 22.1021 61.1632 15.2527C61.1632 15.2527 48.8033 9.15981 39.7682 3.42236L33.791 10.9494Z" fill="url(#paint25_linear_3657_26466)"/>
<path d="M39.9023 16.5881C39.9023 16.5881 42.1461 15.4499 44.251 12.4769C45.9096 10.1344 46.5211 7.65764 46.202 7.28125C46.202 7.28125 49.6405 9.25106 52.5712 10.8051C52.5712 10.8051 53.4373 11.2262 52.6828 13.8355C51.7751 16.9751 47.5887 21.8892 46.2003 21.8383C46.2003 21.8383 42.2799 18.7459 39.9023 16.5881Z" fill="url(#paint26_linear_3657_26466)"/>
<path d="M61.1625 15.2547C60.7873 22.1016 54.005 27.4585 54.005 27.4585C43.8789 20.9449 33.7891 10.9493 33.7891 10.9493L36.3837 7.68164C39.6443 10.6912 47.4542 17.5504 54.804 21.4457C55.5976 21.8664 56.582 21.6226 57.0955 20.8875C58.1293 19.4086 59.6675 16.8547 59.8108 14.5795C60.6716 15.0109 61.1625 15.2547 61.1625 15.2547Z" fill="url(#paint27_linear_3657_26466)"/>
<path d="M37.8118 4.09535C37.2381 3.94019 36.7484 3.71772 36.7484 3.71772L33.4141 7.91717C33.6846 8.25908 33.8667 8.60551 33.9898 8.9191C33.5459 9.90504 33.4429 10.6742 33.7921 10.9501C34.4198 11.4451 36.2665 10.1612 37.9172 8.08258C39.5679 6.004 40.3969 3.91762 39.7693 3.4226C39.4176 3.14472 38.6816 3.42712 37.8118 4.09535Z" fill="url(#paint28_linear_3657_26466)"/>
<path opacity="0.5" d="M39.7689 3.42038C40.399 3.91745 39.5671 6.0026 37.9164 8.08118C36.2661 10.1598 34.4206 11.4462 33.7905 10.9491C33.4421 10.6741 33.5467 9.90528 33.989 8.92017C33.8671 8.60698 33.6855 8.25932 33.4141 7.91494L33.8955 7.30828C34.2225 7.77498 34.5606 8.27163 34.7625 8.58277C35.2406 9.32037 35.9968 9.15823 37.2006 7.85666C38.4061 6.55262 39.0259 4.86849 38.8855 4.43915L37.811 4.09559C38.682 3.42736 39.418 3.14332 39.7689 3.42038Z" fill="url(#paint29_linear_3657_26466)"/>
<path d="M33.2214 8.36682C33.2214 8.36682 28.7335 3.19581 28.6149 3.04846C28.1355 2.45288 30.2483 -0.247966 30.9975 0.0184243L37.1179 3.45933C37.9705 4.13126 34.0398 9.19965 33.2214 8.36682Z" fill="url(#paint30_linear_3657_26466)"/>
<path opacity="0.5" d="M37.1164 3.45906C37.9689 4.1314 34.037 9.19856 33.2191 8.36696C33.2191 8.36696 28.8012 3.27928 28.6191 3.05311C28.664 3.08841 29.1319 3.15573 29.8712 2.28883C29.9704 2.17226 30.1446 2.15092 30.2694 2.23999L35.7845 6.1595C35.7845 6.1595 37.333 4.21554 37.0855 3.44305L37.1164 3.45906Z" fill="url(#paint31_linear_3657_26466)"/>
<path opacity="0.5" d="M41.0899 7.00991C43.3422 8.79255 48.7844 12.1953 50.648 12.6308C52.4169 13.0441 52.573 11.832 51.2575 11.0378C49.9421 10.2435 45.6202 7.88419 42.0355 5.63075C40.4461 4.63128 39.7102 5.91808 41.0899 7.00991Z" fill="url(#paint32_linear_3657_26466)"/>
<path opacity="0.8" d="M31.145 0.897204C31.145 0.897204 36.0402 3.75566 36.2614 3.79917C36.4496 3.83612 36.7004 3.44043 36.2515 3.1999C35.803 2.95937 31.5321 0.463344 31.383 0.444874C31.1199 0.411216 31.0029 0.811828 31.145 0.897204Z" fill="url(#paint33_linear_3657_26466)"/>
<defs>
<linearGradient id="paint0_linear_3657_26466" x1="31.6727" y1="21.8046" x2="41.4993" y2="75.5562" gradientUnits="userSpaceOnUse">
<stop stop-color="#E3AE31"/>
<stop offset="1" stop-color="#D87C26"/>
</linearGradient>
<linearGradient id="paint1_linear_3657_26466" x1="31.6872" y1="20.1626" x2="41.3398" y2="72.9627" gradientUnits="userSpaceOnUse">
<stop stop-color="#FFE1A4"/>
<stop offset="1" stop-color="#F0C572"/>
</linearGradient>
<linearGradient id="paint2_linear_3657_26466" x1="18.2191" y1="66.2272" x2="20.7671" y2="50.805" gradientUnits="userSpaceOnUse">
<stop stop-color="#FFE1A4"/>
<stop offset="1" stop-color="#F0C572"/>
</linearGradient>
<linearGradient id="paint3_linear_3657_26466" x1="18.2177" y1="65.5882" x2="20.728" y2="50.3946" gradientUnits="userSpaceOnUse">
<stop stop-color="#4C9273"/>
<stop offset="1" stop-color="#76AA41"/>
</linearGradient>
<linearGradient id="paint4_linear_3657_26466" x1="18.2088" y1="65.6414" x2="19.8718" y2="55.5761" gradientUnits="userSpaceOnUse">
<stop stop-color="#4C9273"/>
<stop offset="1" stop-color="#76AA41"/>
</linearGradient>
<linearGradient id="paint5_linear_3657_26466" x1="21.8225" y1="57.7884" x2="22.6652" y2="52.6875" gradientUnits="userSpaceOnUse">
<stop stop-color="#4C9273"/>
<stop offset="1" stop-color="#76AA41"/>
</linearGradient>
<linearGradient id="paint6_linear_3657_26466" x1="43.916" y1="58.6295" x2="44.7308" y2="71.5929" gradientUnits="userSpaceOnUse">
<stop stop-color="#FFE1A4"/>
<stop offset="1" stop-color="#F0C572"/>
</linearGradient>
<linearGradient id="paint7_linear_3657_26466" x1="43.916" y1="58.1436" x2="44.7308" y2="71.107" gradientUnits="userSpaceOnUse">
<stop stop-color="#E3AE31"/>
<stop offset="1" stop-color="#D87C26"/>
</linearGradient>
<linearGradient id="paint8_linear_3657_26466" x1="44.1451" y1="61.7907" x2="44.7497" y2="71.4089" gradientUnits="userSpaceOnUse">
<stop stop-color="#E3AE31"/>
<stop offset="1" stop-color="#D87C26"/>
</linearGradient>
<linearGradient id="paint9_linear_3657_26466" x1="48.3583" y1="58.1939" x2="47.679" y2="61.6083" gradientUnits="userSpaceOnUse">
<stop stop-color="#E3AE31"/>
<stop offset="1" stop-color="#D87C26"/>
</linearGradient>
<linearGradient id="paint10_linear_3657_26466" x1="40.6342" y1="57.7294" x2="40.7844" y2="60.1198" gradientUnits="userSpaceOnUse">
<stop stop-color="#E3AE31"/>
<stop offset="1" stop-color="#D87C26"/>
</linearGradient>
<linearGradient id="paint11_linear_3657_26466" x1="66.0575" y1="106.339" x2="41.2169" y2="42.3021" gradientUnits="userSpaceOnUse">
<stop stop-color="#FFE1A4"/>
<stop offset="1" stop-color="#F0C572"/>
</linearGradient>
<linearGradient id="paint12_linear_3657_26466" x1="42.4201" y1="64.6518" x2="42.4201" y2="43.5301" gradientUnits="userSpaceOnUse">
<stop stop-color="#2D4A7D"/>
<stop offset="1" stop-color="#3CD3F5"/>
</linearGradient>
<linearGradient id="paint13_linear_3657_26466" x1="63.4222" y1="99.2514" x2="41.6083" y2="43.0174" gradientUnits="userSpaceOnUse">
<stop stop-color="#2D4A7D"/>
<stop offset="1" stop-color="#3CD3F5"/>
</linearGradient>
<linearGradient id="paint14_linear_3657_26466" x1="59.9004" y1="82.8177" x2="43.2387" y2="39.8655" gradientUnits="userSpaceOnUse">
<stop stop-color="#2D4A7D"/>
<stop offset="1" stop-color="#3CD3F5"/>
</linearGradient>
<linearGradient id="paint15_linear_3657_26466" x1="78.9746" y1="18.196" x2="88.8805" y2="24.7102" gradientUnits="userSpaceOnUse">
<stop stop-color="#544CC6"/>
<stop offset="1" stop-color="#8C54ED"/>
</linearGradient>
<linearGradient id="paint16_linear_3657_26466" x1="80.3504" y1="19.1035" x2="84.8032" y2="22.0316" gradientUnits="userSpaceOnUse">
<stop stop-color="#544CC6"/>
<stop offset="1" stop-color="#8C54ED"/>
</linearGradient>
<linearGradient id="paint17_linear_3657_26466" x1="76.3048" y1="45.8698" x2="66.2619" y2="40.6163" gradientUnits="userSpaceOnUse">
<stop stop-color="#D4D4DB"/>
<stop offset="1" stop-color="#909EAB"/>
</linearGradient>
<linearGradient id="paint18_linear_3657_26466" x1="76.9308" y1="44.0092" x2="64.379" y2="41.4958" gradientUnits="userSpaceOnUse">
<stop stop-color="#D4D4DB"/>
<stop offset="1" stop-color="#909EAB"/>
</linearGradient>
<linearGradient id="paint19_linear_3657_26466" x1="61.497" y1="58.6274" x2="64.9193" y2="42.658" gradientUnits="userSpaceOnUse">
<stop stop-color="#E9B798"/>
<stop offset="1" stop-color="#F3D0BC"/>
</linearGradient>
<linearGradient id="paint20_linear_3657_26466" x1="61.497" y1="58.6274" x2="64.9193" y2="42.658" gradientUnits="userSpaceOnUse">
<stop stop-color="#E9B798"/>
<stop offset="1" stop-color="#F3D0BC"/>
</linearGradient>
<linearGradient id="paint21_linear_3657_26466" x1="59.8604" y1="58.7255" x2="67.8168" y2="42.858" gradientUnits="userSpaceOnUse">
<stop stop-color="#E9B798"/>
<stop offset="1" stop-color="#F3D0BC"/>
</linearGradient>
<linearGradient id="paint22_linear_3657_26466" x1="68.7474" y1="51.7916" x2="54.5905" y2="55.2461" gradientUnits="userSpaceOnUse">
<stop stop-color="#D6494D"/>
<stop offset="1" stop-color="#6F213D"/>
</linearGradient>
<linearGradient id="paint23_linear_3657_26466" x1="56.9477" y1="49.5329" x2="61.3356" y2="58.742" gradientUnits="userSpaceOnUse">
<stop stop-color="#D6494D"/>
<stop offset="1" stop-color="#6F213D"/>
</linearGradient>
<linearGradient id="paint24_linear_3657_26466" x1="92.4254" y1="7.00115" x2="90.2982" y2="24.6362" gradientUnits="userSpaceOnUse">
<stop stop-color="#544CC6"/>
<stop offset="1" stop-color="#8C54ED"/>
</linearGradient>
<linearGradient id="paint25_linear_3657_26466" x1="44.5095" y1="19.5114" x2="56.4321" y2="-0.770151" gradientUnits="userSpaceOnUse">
<stop stop-color="#FFEEBE"/>
<stop offset="1" stop-color="white"/>
</linearGradient>
<linearGradient id="paint26_linear_3657_26466" x1="43.4614" y1="21.2912" x2="49.3896" y2="8.72008" gradientUnits="userSpaceOnUse">
<stop stop-color="#4C9273"/>
<stop offset="1" stop-color="#76AA41"/>
</linearGradient>
<linearGradient id="paint27_linear_3657_26466" x1="44.5085" y1="19.5109" x2="56.4289" y2="-0.767105" gradientUnits="userSpaceOnUse">
<stop stop-color="#FFEEBE"/>
<stop offset="1" stop-color="white"/>
</linearGradient>
<linearGradient id="paint28_linear_3657_26466" x1="33.5798" y1="4.66127" x2="38.3364" y2="8.43823" gradientUnits="userSpaceOnUse">
<stop stop-color="#D4D4DB"/>
<stop offset="1" stop-color="#909EAB"/>
</linearGradient>
<linearGradient id="paint29_linear_3657_26466" x1="33.5792" y1="4.66021" x2="38.3355" y2="8.43702" gradientUnits="userSpaceOnUse">
<stop stop-color="#D4D4DB"/>
<stop offset="1" stop-color="#909EAB"/>
</linearGradient>
<linearGradient id="paint30_linear_3657_26466" x1="35.7828" y1="6.58345" x2="29.3016" y2="-0.580982" gradientUnits="userSpaceOnUse">
<stop stop-color="#4C9273"/>
<stop offset="1" stop-color="#76AA41"/>
</linearGradient>
<linearGradient id="paint31_linear_3657_26466" x1="35.7883" y1="6.59157" x2="30.0474" y2="0.245587" gradientUnits="userSpaceOnUse">
<stop stop-color="#4C9273"/>
<stop offset="1" stop-color="#76AA41"/>
</linearGradient>
<linearGradient id="paint32_linear_3657_26466" x1="40.4929" y1="6.09078" x2="49.9914" y2="11.2712" gradientUnits="userSpaceOnUse">
<stop stop-color="#4C9273"/>
<stop offset="1" stop-color="#76AA41"/>
</linearGradient>
<linearGradient id="paint33_linear_3657_26466" x1="31.2206" y1="0.714266" x2="35.5628" y2="3.08247" gradientUnits="userSpaceOnUse">
<stop stop-color="#4C9273"/>
<stop offset="1" stop-color="#76AA41"/>
</linearGradient>
</defs>
</svg>
