<svg width="152" height="156" viewBox="0 0 152 156" fill="none" xmlns="http://www.w3.org/2000/svg">
<path d="M121.58 105.11C120.113 95.6384 96.1848 71.4126 84.3143 59.8932C79.9753 55.6824 76.5458 50.5179 74.9713 44.6837C74.0823 41.3895 71.9026 31.385 71.9026 31.385L51.5571 38.0919C51.5571 38.0919 55.1651 47.3682 56.2416 50.5059C58.1927 56.1909 58.3006 62.3441 57.0555 68.2306C53.7947 83.6478 47.9206 114.993 51.3685 126.359C52.5405 132.07 57.6896 136.662 66.3566 138.615C82.4968 142.251 104.707 135.365 115.963 123.233C121.835 116.904 123.558 110.402 121.58 105.11Z" fill="url(#paint0_linear_3657_26446)"/>
<path d="M117.754 101.587C109.63 87.728 92.8542 71.8882 92.8542 71.8882L56.88 83.8489C56.88 83.8489 51.6648 101.05 53.0612 122.129C53.4436 127.896 59.0572 134.395 67.5361 136.305C82.113 139.59 104.079 133.371 114.245 122.413C121.404 114.699 121.587 108.124 117.754 101.587Z" fill="url(#paint1_linear_3657_26446)"/>
<path opacity="0.2" d="M113.582 123.114C103.133 133.635 81.8023 139.519 67.5364 136.303C59.0597 134.395 53.4428 127.889 53.0604 122.121C51.6671 101.041 56.8835 83.8377 56.8835 83.8377L68.9022 79.8386C66.2177 93.0531 63.4119 114.565 71.3414 122.841C81.9309 133.895 101.244 129.485 113.582 123.114Z" fill="url(#paint2_linear_3657_26446)"/>
<path d="M85.9027 69.1192C94.1328 69.633 95.9268 74.6203 89.9096 80.26C83.8924 85.8998 72.3422 90.056 64.1118 89.5428C55.8815 89.0297 54.0884 84.042 60.1049 78.402C66.1221 72.7622 77.6723 68.606 85.9027 69.1192Z" fill="url(#paint3_linear_3657_26446)"/>
<path opacity="0.2" d="M115.971 123.23C104.71 135.361 82.5019 142.253 66.3623 138.612C57.6896 136.664 52.5387 132.068 51.372 126.357C47.9179 114.992 53.7944 83.6461 57.0541 68.2277C58.3018 62.3421 58.1952 56.1891 56.243 50.5042C55.1668 47.3658 51.5579 38.0835 51.5579 38.0835L59.2527 35.5511C61.5015 43.5305 64.3005 53.7157 65.2691 58.4451C66.9943 66.832 53.217 120.124 63.5769 128.693C74.7114 137.903 110.739 137.99 122.022 110.761C122.137 110.482 122.251 110.203 122.363 109.93C122.231 114.112 120.156 118.72 115.971 123.23Z" fill="url(#paint4_linear_3657_26446)"/>
<path opacity="0.8" d="M115.24 101.905C106.674 88.8782 94.9361 74.7582 80.545 60.2557C79.539 59.2421 75.239 55.074 73.4979 49.8176C72.4768 46.7339 69.9739 36.939 69.9739 36.939C69.9739 36.939 64.9633 37.193 65.1759 38.4266C67.6161 52.5402 70.6445 56.4611 73.4103 59.252C89.9155 75.2849 104.01 93.2683 117.12 111.724C119.392 106.867 115.24 101.905 115.24 101.905Z" fill="url(#paint5_linear_3657_26446)"/>
<path d="M50.4034 31.1985C46.262 35.9272 47.8065 41.0273 53.8567 42.5864C59.9093 44.1541 68.1774 41.5902 72.3076 36.8643C76.4622 32.1406 74.9049 27.0365 68.8567 25.4676C62.8032 23.9002 54.5385 26.4633 50.4034 31.1985Z" fill="url(#paint6_linear_3657_26446)"/>
<g opacity="0.5">
<path d="M53.2493 31.8663C50.162 35.2578 51.2519 38.8623 55.6872 39.9147C60.1245 40.9731 66.2275 39.0799 69.3067 35.691C72.4033 32.3028 71.3038 28.6956 66.87 27.6363C62.4328 26.5778 56.3316 28.4704 53.2493 31.8663Z" fill="url(#paint7_linear_3657_26446)"/>
</g>
<path d="M64.4149 27.5607C65.2854 29.8085 64.1624 32.3393 61.907 33.2123C59.6516 34.0854 57.1169 32.9707 56.2464 30.7228C55.3759 28.475 56.4987 25.9449 58.7543 25.0712C61.01 24.1975 63.5448 25.3122 64.4149 27.5607Z" fill="url(#paint8_linear_3657_26446)"/>
<path d="M63.2615 18.1869C63.8769 19.7774 63.0829 21.5666 61.4874 22.1847C59.8915 22.8019 58.0995 22.0138 57.4833 20.4236C56.8677 18.8337 57.6619 17.0439 59.2574 16.4258C60.8533 15.8086 62.6459 16.597 63.2615 18.1869Z" fill="url(#paint9_linear_3657_26446)"/>
<path d="M53.2228 16.2656C54.504 19.5742 52.8512 23.2973 49.532 24.5826C46.2122 25.8677 42.483 24.2276 41.2018 20.9189C39.9203 17.6109 41.5734 13.8872 44.8926 12.6019C48.2124 11.3168 51.9422 12.9571 53.2228 16.2656Z" fill="url(#paint10_linear_3657_26446)"/>
<path opacity="0.5" d="M58.2269 26.0771C58.7229 27.3579 58.083 28.7992 56.7979 29.2967C55.5128 29.7941 54.0692 29.159 53.5732 27.8782C53.0773 26.5974 53.7171 25.1561 55.0022 24.6586C56.2873 24.1612 57.7309 24.7963 58.2269 26.0771Z" fill="url(#paint11_linear_3657_26446)"/>
<path d="M70.9995 19.9911C71.2907 20.7429 70.9153 21.5883 70.1613 21.8796C69.4079 22.1713 68.5603 21.799 68.2698 21.0475C67.979 20.2967 68.3541 19.4504 69.1081 19.159C69.8617 18.8668 70.7084 19.2394 70.9995 19.9911Z" fill="url(#paint12_linear_3657_26446)"/>
<path opacity="0.3" d="M64.5395 7.93597C65.083 9.34073 64.382 10.9216 62.9722 11.4674C61.5625 12.0132 59.9788 11.3164 59.4352 9.91162C58.8911 8.50657 59.5928 6.92601 61.0025 6.38021C62.4123 5.83441 63.996 6.5312 64.5395 7.93597Z" fill="url(#paint13_linear_3657_26446)"/>
<defs>
<linearGradient id="paint0_linear_3657_26446" x1="121.969" y1="71.5264" x2="48.3266" y2="94.9553" gradientUnits="userSpaceOnUse">
<stop stop-color="#2D4A7D"/>
<stop offset="1" stop-color="#3CD3F5"/>
</linearGradient>
<linearGradient id="paint1_linear_3657_26446" x1="138.748" y1="87.6573" x2="74.9432" y2="109.206" gradientUnits="userSpaceOnUse">
<stop stop-color="#E3AE31"/>
<stop offset="1" stop-color="#D87C26"/>
</linearGradient>
<linearGradient id="paint2_linear_3657_26446" x1="124.335" y1="92.5253" x2="71.018" y2="110.533" gradientUnits="userSpaceOnUse">
<stop stop-color="#E3AE31"/>
<stop offset="1" stop-color="#D87C26"/>
</linearGradient>
<linearGradient id="paint3_linear_3657_26446" x1="96.3445" y1="62.7005" x2="38.7903" y2="131.659" gradientUnits="userSpaceOnUse">
<stop stop-color="#E3AE31"/>
<stop offset="1" stop-color="#D87C26"/>
</linearGradient>
<linearGradient id="paint4_linear_3657_26446" x1="42.3815" y1="100.998" x2="121.359" y2="65.8257" gradientUnits="userSpaceOnUse">
<stop stop-color="#2D4A7D"/>
<stop offset="1" stop-color="#3CD3F5"/>
</linearGradient>
<linearGradient id="paint5_linear_3657_26446" x1="126.7" y1="130.402" x2="83.5091" y2="64.1973" gradientUnits="userSpaceOnUse">
<stop stop-color="#2D4A7D" stop-opacity="0"/>
<stop offset="1" stop-color="#3CD3F5"/>
</linearGradient>
<linearGradient id="paint6_linear_3657_26446" x1="12.6498" y1="38.8968" x2="50.5016" y2="35.1782" gradientUnits="userSpaceOnUse">
<stop stop-color="#2D4A7D"/>
<stop offset="1" stop-color="#3CD3F5"/>
</linearGradient>
<linearGradient id="paint7_linear_3657_26446" x1="53.4415" y1="30.37" x2="69.0965" y2="37.2372" gradientUnits="userSpaceOnUse">
<stop stop-color="#2D4A7D"/>
<stop offset="1" stop-color="#3CD3F5"/>
</linearGradient>
<linearGradient id="paint8_linear_3657_26446" x1="68.0401" y1="34.6159" x2="39.0703" y2="13.9096" gradientUnits="userSpaceOnUse">
<stop stop-color="#FFE1A4"/>
<stop offset="1" stop-color="white"/>
</linearGradient>
<linearGradient id="paint9_linear_3657_26446" x1="75.5043" y1="30.0505" x2="46.5343" y2="9.34412" gradientUnits="userSpaceOnUse">
<stop stop-color="#FFE1A4"/>
<stop offset="1" stop-color="white"/>
</linearGradient>
<linearGradient id="paint10_linear_3657_26446" x1="71.4022" y1="35.7691" x2="42.4322" y2="15.0627" gradientUnits="userSpaceOnUse">
<stop stop-color="#FFE1A4"/>
<stop offset="1" stop-color="white"/>
</linearGradient>
<linearGradient id="paint11_linear_3657_26446" x1="80.0748" y1="44.1439" x2="30.6907" y2="8.8464" gradientUnits="userSpaceOnUse">
<stop stop-color="#FFE1A4"/>
<stop offset="1" stop-color="white"/>
</linearGradient>
<linearGradient id="paint12_linear_3657_26446" x1="78.0568" y1="26.4997" x2="49.087" y2="5.79346" gradientUnits="userSpaceOnUse">
<stop stop-color="#FFE1A4"/>
<stop offset="1" stop-color="white"/>
</linearGradient>
<linearGradient id="paint13_linear_3657_26446" x1="80.9661" y1="22.4002" x2="51.9959" y2="1.69371" gradientUnits="userSpaceOnUse">
<stop stop-color="#FFE1A4"/>
<stop offset="1" stop-color="white"/>
</linearGradient>
</defs>
</svg>
