<svg width="58" height="58" viewBox="0 0 58 58" fill="none" xmlns="http://www.w3.org/2000/svg">
<g clip-path="url(#clip0_3641_20587)">
<path d="M4.54258 0.181149C2.51484 0.724899 0.702344 2.54873 0.169922 4.58779C0.0226562 5.16552 0 6.84209 0 17.2753L0.0113281 29.2831L0.260547 30.0308C0.951562 32.0585 2.40156 33.4632 4.53125 34.1655C5.09766 34.3581 5.77734 34.3694 12.6988 34.4147L20.2434 34.4487L20.3113 31.5261C20.3566 29.0792 20.4133 28.4562 20.6059 27.6745C20.8891 26.5417 21.3422 25.5108 21.9652 24.6046C22.2145 24.2194 22.4297 23.8909 22.4297 23.8683C22.4297 23.8456 22.0785 23.789 21.6594 23.755C20.4812 23.653 19.541 23.3812 18.2609 22.7581L17.1055 22.1804L16.5617 22.5089C15.3496 23.2565 13.5258 23.789 12.2004 23.789C11.498 23.789 11.1016 23.4831 11.1016 22.9507C11.1016 22.2937 11.5547 21.9765 12.5062 21.9765C13.1406 21.9765 14.1828 21.6933 15.0324 21.2968L15.7461 20.9683L15.1797 20.2206C14.8625 19.8015 14.4547 19.1671 14.2734 18.7933C13.9109 18.0796 13.3672 16.3464 13.3672 15.9046C13.3672 15.644 13.3332 15.6327 12.6309 15.6327C11.8492 15.6327 11.2941 15.4401 11.1695 15.1229C11.0109 14.7038 11.1016 14.2847 11.3961 14.0581C11.6793 13.8315 11.8379 13.8202 14.0016 13.8202H16.3125V12.4608C16.3125 11.1581 16.3238 11.0788 16.5957 10.8183C16.9469 10.4558 17.3434 10.4558 17.7512 10.8069C18.057 11.0788 18.0684 11.1128 18.1137 12.4495L18.1477 13.8202H20.3906C22.475 13.8202 22.6449 13.8315 22.9281 14.0581C23.2227 14.2847 23.3133 14.7038 23.1547 15.1229C23.0301 15.4401 22.475 15.6327 21.6934 15.6327C20.9797 15.6327 20.957 15.644 20.957 15.9272C20.957 17.0601 19.8355 19.5522 18.8273 20.6397L18.5555 20.9343L19.1219 21.2288C19.8582 21.6026 21.2176 21.9765 21.8406 21.9765C22.5203 21.9765 23.0867 22.237 23.1773 22.5882C23.2113 22.7468 23.2906 22.8827 23.3359 22.8827C23.3926 22.8827 23.6418 22.7015 23.9023 22.4862C24.548 21.9425 25.7488 21.2515 26.5078 20.9683C27.9012 20.4585 28.5129 20.3792 31.5262 20.3112L34.4375 20.2433V18.2382V16.2444L37.3148 14.1827C38.9008 13.0499 40.2941 11.9964 40.4301 11.8265C40.9285 11.2034 40.8379 10.1726 40.2488 9.58349C40.0789 9.41357 38.7648 8.43935 37.3375 7.41982C35.8988 6.40029 34.6301 5.50537 34.5281 5.41474C34.4148 5.33545 34.2449 4.96162 34.1543 4.59912C33.6219 2.5374 31.8773 0.78154 29.7703 0.181149C29.2039 0.0225563 27.8445 -0.000102997 17.1395 0.0112267C7.04609 0.0112267 5.05234 0.0452118 4.54258 0.181149Z" fill="#08131E"/>
<path d="M15.2355 16.1084C15.4168 17.1619 16.0059 18.4307 16.7535 19.3596L17.15 19.8467L17.5238 19.4162C18.2828 18.5326 18.9398 17.1619 19.0871 16.165L19.1664 15.6326H17.1613H15.1562L15.2355 16.1084Z" fill="#08131E"/>
<path d="M28.9997 23.6755C26.6321 24.038 24.7517 25.6127 23.936 27.9349L23.6189 28.8298L23.5849 35.2982L23.5509 41.7666L20.6735 43.817C19.0989 44.9498 17.7056 46.0033 17.5696 46.1732C17.0712 46.7962 17.1618 47.8271 17.7509 48.4162C17.9208 48.5861 19.2349 49.5603 20.6622 50.5798C22.1009 51.5994 23.3696 52.4943 23.4716 52.5849C23.5849 52.6642 23.7548 53.038 23.8454 53.4005C24.3778 55.4623 26.1224 57.2181 28.2294 57.8185C28.7958 57.9771 30.1665 57.9998 40.8036 57.9998C53.9556 57.9998 53.3552 58.0337 54.7599 57.2861C55.6435 56.8216 56.8216 55.6435 57.286 54.7599C58.0337 53.3552 57.9997 53.967 57.9997 40.7244L57.9884 28.7166L57.7392 27.9689C57.0481 25.9412 55.6095 24.5478 53.4685 23.8341C52.8794 23.6416 52.1771 23.6189 41.2341 23.6076C34.845 23.5962 29.3396 23.6302 28.9997 23.6755ZM41.9817 34.5619C42.3669 34.947 45.9239 46.4904 45.754 46.8076C45.6067 47.0908 44.8364 47.4646 44.406 47.4646C43.8849 47.4646 43.6923 47.1701 43.3298 45.8447L43.0013 44.6326H40.8263H38.6626L38.3341 45.8447C38.1528 46.513 37.9149 47.1587 37.813 47.2607C37.4278 47.6459 36.329 47.408 35.9778 46.8755C35.8079 46.6037 35.8759 46.3431 37.4958 41.0529C38.4247 38.0056 39.2743 35.2982 39.3649 35.049C39.6028 34.4033 40.0446 34.188 40.9849 34.2447C41.5626 34.2673 41.7439 34.3353 41.9817 34.5619Z" fill="#9946FF"/>
<path d="M40.7246 37.2809C40.6453 37.5301 39.1953 42.6957 39.1953 42.7637C39.1953 42.7977 39.943 42.8203 40.8492 42.8203H42.4918L42.4125 42.5598C42.3672 42.4238 42.016 41.1664 41.6195 39.773C41.2344 38.391 40.8832 37.2242 40.8492 37.1902C40.8152 37.1563 40.7586 37.1902 40.7246 37.2809Z" fill="#9946FF"/>
</g>
<defs>
<clipPath id="clip0_3641_20587">
<rect width="58" height="58" fill="white"/>
</clipPath>
</defs>
</svg>
