<svg width="24" height="24" viewBox="0 0 24 24" fill="none" xmlns="http://www.w3.org/2000/svg">
<path d="M11.1325 0.065527C9.43564 0.463964 8.18876 1.73896 7.84657 3.42178C7.75282 3.90459 7.77626 4.93115 7.89814 5.36709C8.00126 5.7374 8.2872 6.34209 8.52157 6.68896C9.04657 7.4624 9.97001 8.10928 10.9216 8.37646C11.3575 8.49365 12.6419 8.49365 13.0778 8.37646C14.0294 8.10928 14.9528 7.4624 15.4778 6.68896C15.7122 6.34209 15.9981 5.7374 16.1013 5.36709C16.2231 4.93115 16.2466 3.90459 16.1528 3.42178C15.8388 1.87021 14.7372 0.646777 13.2185 0.159277C12.8716 0.0514641 12.7263 0.0327148 12.1169 0.018652C11.6294 0.00458908 11.3294 0.0233393 11.1325 0.065527Z" fill="white"/>
<path d="M7.96875 8.62969C6.22969 9.07969 4.86563 10.4438 4.425 12.1734C4.36406 12.4172 4.3125 12.6375 4.3125 12.6609C4.3125 12.6844 7.65938 12.7031 12 12.7031C16.3406 12.7031 19.6875 12.6844 19.6875 12.6609C19.6875 12.6375 19.6359 12.4172 19.575 12.1734C19.1203 10.3922 17.7047 9.01406 15.8953 8.59688C15.6 8.52656 15.5906 8.52656 15.45 8.63438C14.6719 9.21563 14.0156 9.52969 13.1578 9.74063C12.6375 9.8625 11.2641 9.85313 10.7531 9.71719C9.96563 9.50625 9.25781 9.16875 8.65313 8.70469C8.52656 8.61094 8.4 8.53125 8.37188 8.53594C8.34375 8.53594 8.16094 8.57813 7.96875 8.62969Z" fill="white"/>
<path d="M3.16406 14.175C2.6625 14.3344 2.175 14.7234 1.92188 15.1641C1.77188 15.4266 1.64062 15.9 1.64062 16.1953C1.64062 16.2984 1.91719 17.9953 2.25469 19.9688C2.90625 23.7984 2.89688 23.7469 3.19688 23.9203C3.32813 23.9953 3.95625 24 12 24C20.0438 24 20.6719 23.9953 20.8031 23.9203C21.1031 23.7469 21.0938 23.7984 21.7453 19.9688C22.0828 17.9953 22.3594 16.2984 22.3594 16.1953C22.3594 15.9 22.2281 15.4266 22.0781 15.1641C21.8859 14.8266 21.4828 14.4609 21.1078 14.2828L20.7891 14.1328L12.0703 14.1234C5.11875 14.1188 3.31406 14.1281 3.16406 14.175ZM12.7641 17.1047C13.2703 17.3063 13.725 17.7563 13.9313 18.2719C14.0859 18.6563 14.0859 19.4063 13.9313 19.7953C13.725 20.3063 13.275 20.7563 12.7594 20.9625C12.375 21.1172 11.625 21.1172 11.2406 20.9625C10.725 20.7563 10.275 20.3016 10.0734 19.7953C9.92813 19.425 9.9 18.8016 10.0078 18.4594C10.2375 17.7703 10.65 17.3297 11.3063 17.0813C11.7 16.9313 12.3516 16.9406 12.7641 17.1047Z" fill="white" fill-opacity="0.4"/>
<path d="M11.6063 18.4172C11.3906 18.5625 11.2969 18.7406 11.2969 19.0312C11.2969 19.3219 11.3906 19.5 11.6063 19.6453C11.7 19.7062 11.8266 19.7344 12 19.7344C12.4453 19.7344 12.7031 19.4766 12.7031 19.0312C12.7031 18.5859 12.4453 18.3281 12 18.3281C11.8266 18.3281 11.7 18.3562 11.6063 18.4172Z" fill="white" fill-opacity="0.4"/>
</svg>
