<svg width="24" height="24" viewBox="0 0 24 24" fill="none" xmlns="http://www.w3.org/2000/svg">
<path d="M11.1768 1.56562C9.56901 1.875 8.35963 2.77969 7.6612 4.19531C7.12682 5.28281 7.01432 6.43125 7.31901 7.61719C7.55338 8.52656 8.16745 9.50156 8.86588 10.0594L9.14245 10.2797V10.7203V11.1562H10.3378H11.5331V9.67031V8.18437L11.0409 7.6875C10.5815 7.21875 10.5487 7.17187 10.5487 6.99844C10.5487 6.67969 10.9049 6.43125 11.1674 6.5625C11.2284 6.59531 11.4393 6.77812 11.6409 6.975L12.0018 7.33594L12.3674 6.975C12.5643 6.77812 12.7753 6.59531 12.8362 6.5625C13.0987 6.43125 13.4549 6.67969 13.4549 6.99844C13.4549 7.17187 13.4221 7.21875 12.9628 7.6875L12.4706 8.18437V9.67031V11.1562H13.6659H14.8612V10.7203V10.2797L15.1378 10.0594C16.0706 9.30937 16.7034 8.08125 16.8253 6.78281C16.9143 5.87812 16.7549 5.03437 16.3424 4.19531C15.7237 2.93437 14.5893 2.00625 13.244 1.65937C12.6674 1.50937 11.6971 1.46719 11.1768 1.56562Z" fill="white"/>
<path d="M4.63594 3.13594C4.52813 3.24844 4.5 3.31406 4.5 3.47812C4.5 3.73594 4.54688 3.80625 5.12813 4.39687C5.63438 4.91719 5.775 5.01562 5.99531 5.01562C6.31406 5.01562 6.51562 4.80937 6.51562 4.47656C6.51562 4.32187 6.46406 4.25156 5.99063 3.75937C5.26875 3.00469 5.26875 3.00469 5.00156 3C4.80938 3 4.75313 3.02344 4.63594 3.13594Z" fill="white"/>
<path d="M18.6516 3.10781C18.5859 3.16406 18.2953 3.45469 18.0094 3.75937C17.5359 4.25156 17.4844 4.32187 17.4844 4.47656C17.4844 4.80937 17.6859 5.01562 18.0047 5.01562C18.2344 5.01562 18.3703 4.9125 18.9516 4.31719L19.5 3.75V3.51094C19.5 3.30937 19.4766 3.25312 19.3641 3.13594C19.2469 3.02344 19.1906 3 18.9984 3C18.8344 3.00469 18.7406 3.03281 18.6516 3.10781Z" fill="white"/>
<path d="M3.63837 6.13134C3.39462 6.39384 3.44619 6.80165 3.75087 6.96102C3.94306 7.05946 5.46181 7.06415 5.70087 6.96102C6.02431 6.82509 6.08525 6.35634 5.80869 6.12196L5.66337 6.00009H4.7165H3.76962L3.63837 6.13134Z" fill="white"/>
<path d="M18.1911 6.12196C17.9146 6.35634 17.9755 6.82509 18.299 6.96102C18.538 7.06415 20.0568 7.05946 20.249 6.96102C20.5536 6.80165 20.6052 6.39384 20.3615 6.13134L20.2302 6.00009H19.2833H18.3365L18.1911 6.12196Z" fill="white"/>
<path d="M5.78906 8.0109C5.7375 8.03434 5.42812 8.32496 5.1 8.65778L4.5 9.26715V9.49684C4.5 9.69371 4.52344 9.75465 4.63125 9.85309C4.78125 9.9984 4.96406 10.0547 5.14219 10.0078C5.2875 9.97496 6.34219 8.95778 6.45 8.75621C6.62344 8.41871 6.43125 8.02965 6.07031 7.99215C5.96719 7.97809 5.84062 7.98746 5.78906 8.0109Z" fill="white"/>
<path d="M17.7837 8.0109C17.5212 8.1234 17.4087 8.48434 17.5493 8.75621C17.6571 8.95778 18.7118 9.97496 18.8571 10.0078C19.0352 10.0547 19.218 9.9984 19.3727 9.85309C19.4759 9.75465 19.4993 9.69371 19.4993 9.49684V9.26246L18.8759 8.63903C18.318 8.07184 18.2337 8.00621 18.0696 7.98746C17.9665 7.97809 17.8352 7.98746 17.7837 8.0109Z" fill="white"/>
<path d="M9.16484 12.0797C9.24453 12.6422 9.43672 12.9937 9.80703 13.2422C9.95703 13.3406 10.032 13.425 10.0508 13.5234C10.1539 14.0297 10.5758 14.5406 11.1008 14.7984C11.4523 14.9719 11.4664 14.9766 12.0008 14.9766C12.5352 14.9766 12.5492 14.9719 12.9008 14.7984C13.4258 14.5406 13.8477 14.0297 13.9508 13.5234C13.9695 13.425 14.0445 13.3406 14.1945 13.2422C14.5648 12.9937 14.757 12.6422 14.8367 12.0797L14.8648 11.8594H12.0008H9.13672L9.16484 12.0797Z" fill="white"/>
<path d="M3.9141 15.0656C3.73597 15.1453 3.63285 15.2625 3.5391 15.4828C3.47816 15.6281 3.46879 16.0734 3.46879 18.7734C3.46879 22.1859 3.45941 22.064 3.74535 22.3359L3.89535 22.4765L5.19847 22.4906C6.48285 22.5047 6.49691 22.5047 6.6516 22.3968C6.74066 22.3359 6.85785 22.2281 6.90941 22.1578C7.00785 22.0265 7.00785 21.989 7.02191 18.8297L7.03129 15.6328L6.92816 15.4265C6.72191 15.0234 6.7266 15.0234 5.30629 15.014C4.33597 15.0047 4.02191 15.014 3.9141 15.0656Z" fill="white" fill-opacity="0.4"/>
<path d="M18.6609 15.2859C18.5484 15.3047 18.4031 15.3609 18.3328 15.4031C18.2672 15.45 17.3062 16.1578 16.2047 16.9781C15.0984 17.7984 14.1094 18.5156 14.0016 18.5765C13.8141 18.675 13.7391 18.6797 12.675 18.6937L11.5453 18.7125L11.4047 18.5906C11.1656 18.389 11.1609 18.1265 11.3953 17.9109C11.4937 17.8172 11.5547 17.8125 12.2531 17.8125C13.2844 17.8125 13.5562 17.7234 13.7391 17.325C13.9547 16.8515 13.7484 16.2984 13.2984 16.1297C13.2094 16.0968 12.2297 16.0781 10.3547 16.0781H7.54687L7.5375 19.0078L7.52344 21.9375H10.8984C14.6391 21.9375 14.5406 21.9468 15.1406 21.6281C15.375 21.5062 15.8156 21.1359 16.9031 20.1468C19.8141 17.4984 19.9687 17.3484 20.0906 17.0906C20.325 16.5937 20.1937 15.9047 19.8141 15.5812C19.5094 15.3234 19.0594 15.2062 18.6609 15.2859Z" fill="white" fill-opacity="0.4"/>
</svg>
