<svg width="24" height="24" viewBox="0 0 24 24" fill="none" xmlns="http://www.w3.org/2000/svg">
<path d="M11.3813 0.820312C10.8656 0.984375 10.3219 1.50469 10.1578 1.99219L10.0922 2.17969L8.95781 2.20312L7.81875 2.22656L7.70625 2.35781C7.59375 2.48906 7.59375 2.49844 7.59375 3.51094V4.53281L7.71563 4.65937L7.84219 4.78125H12H16.1578L16.2844 4.65937L16.4062 4.53281V3.51094C16.4062 2.49844 16.4062 2.48906 16.2938 2.35781L16.1813 2.22656L15.0469 2.20312L13.9125 2.17969L13.8281 1.96406C13.6547 1.49531 13.2984 1.12969 12.8063 0.9C12.5813 0.796875 12.4594 0.773438 12.0703 0.764062C11.7516 0.754687 11.5313 0.773438 11.3813 0.820312Z" fill="white" fill-opacity="0.4"/>
<path d="M3.98762 3.35625C3.82825 3.43594 3.697 3.54844 3.61731 3.67031L3.49075 3.8625L3.47669 13.2047C3.46731 22.3219 3.46731 22.5516 3.55637 22.725C3.6595 22.9266 3.80481 23.0672 4.01575 23.175C4.15169 23.2453 4.87825 23.25 11.9986 23.25C19.1189 23.25 19.8454 23.2453 19.9814 23.175C20.1923 23.0672 20.3376 22.9266 20.4408 22.725C20.5251 22.5562 20.5298 22.2984 20.5298 13.2516V3.95156L20.422 3.74531C20.347 3.60938 20.2345 3.49219 20.0845 3.39844L19.8595 3.25781L18.6454 3.24375L17.4361 3.22969V3.88125C17.4361 4.31719 17.4126 4.60312 17.3658 4.7625C17.2626 5.10938 16.9954 5.42344 16.6392 5.62031L16.3345 5.78906H11.9986H7.66262L7.35794 5.62031C7.00169 5.42344 6.7345 5.10938 6.63137 4.7625C6.5845 4.60312 6.56106 4.32187 6.56106 3.88125V3.23438H5.39856C4.23606 3.23438 4.23606 3.23438 3.98762 3.35625ZM9.81419 8.22187C10.0251 8.31094 10.1236 8.46562 10.1236 8.7C10.1236 8.89219 10.1048 8.91562 9.57512 9.4125C8.50637 10.4062 7.91106 10.9219 7.79856 10.95C7.58294 11.0062 7.42825 10.9125 6.96887 10.4625C6.49544 9.99844 6.37356 9.82969 6.37356 9.65625C6.37356 9.49219 6.50481 9.28594 6.66419 9.20625C6.89387 9.08906 7.06262 9.15 7.39075 9.47812L7.68137 9.76875L7.78919 9.675C7.85012 9.62812 8.21575 9.29531 8.6095 8.93906C9.247 8.3625 9.5095 8.15625 9.622 8.15625C9.64075 8.15625 9.72981 8.18437 9.81419 8.22187ZM17.1361 9.13594C17.2673 9.22031 17.3892 9.43125 17.3892 9.5625C17.3892 9.72187 17.2579 9.92812 17.1079 10.0078C16.9908 10.0687 16.6204 10.0781 14.5251 10.0781H12.0829L11.9236 9.91875C11.6564 9.65156 11.722 9.2625 12.0642 9.1125C12.2798 9.01875 16.9908 9.0375 17.1361 9.13594ZM9.88919 12.9234C10.0767 13.05 10.1189 13.1344 10.1236 13.35C10.1236 13.5891 10.1189 13.5938 9.04544 14.5594C7.77981 15.6984 7.897 15.6094 7.67669 15.6094C7.48919 15.6094 7.45637 15.5859 6.92669 15.0562C6.41575 14.5453 6.37356 14.4891 6.37356 14.325C6.37356 14.0625 6.61731 13.8281 6.88919 13.8281C7.06262 13.8281 7.11419 13.8562 7.37669 14.1094C7.54075 14.2641 7.68606 14.3906 7.7095 14.3906C7.72825 14.3906 8.05169 14.1094 8.43137 13.7672C9.44856 12.8438 9.45325 12.8438 9.622 12.8438C9.70637 12.8438 9.82825 12.8812 9.88919 12.9234ZM17.2111 13.8703C17.3423 13.9875 17.3658 14.0391 17.3658 14.2172C17.3658 14.4703 17.2251 14.6484 16.972 14.7188C16.7564 14.7797 12.4204 14.7797 12.1626 14.7188C11.9048 14.6625 11.7642 14.4844 11.7642 14.2359C11.7689 14.025 11.8158 13.9406 11.9986 13.8141C12.1017 13.7437 12.3314 13.7344 14.5861 13.7344H17.0611L17.2111 13.8703ZM9.84231 17.5547C10.0861 17.6812 10.1892 17.9578 10.0954 18.2109C10.0486 18.3281 7.98137 20.1984 7.84075 20.2547C7.60637 20.3438 7.447 20.2594 6.96887 19.7859C6.71575 19.5375 6.47669 19.2797 6.43919 19.2094C6.27044 18.8859 6.46262 18.5344 6.82825 18.4828C7.02044 18.4594 7.0345 18.4641 7.35325 18.7734L7.68137 19.0875L7.84075 18.9562C7.92981 18.8812 8.3095 18.5391 8.6845 18.2016C9.49075 17.4609 9.57512 17.4141 9.84231 17.5547ZM17.0892 18.45C17.3611 18.5812 17.4548 18.8625 17.3189 19.125C17.1689 19.4156 17.2111 19.4109 14.5017 19.3969L12.0361 19.3828L11.9001 19.2281C11.6751 18.975 11.722 18.6422 12.0126 18.4688C12.1579 18.3797 12.2704 18.375 14.5439 18.375C16.6532 18.375 16.9486 18.3844 17.0892 18.45Z" fill="white"/>
</svg>
