<svg width="24" height="24" viewBox="0 0 24 24" fill="none" xmlns="http://www.w3.org/2000/svg">
<path d="M11.5219 1.83291C10.1531 1.97822 8.87344 2.86416 8.26406 4.10166C7.94531 4.73447 7.82812 5.26416 7.82812 6.02353C7.83281 7.90322 9.09844 9.53447 10.9453 10.036C11.25 10.1204 11.4469 10.1392 12 10.1392C12.5531 10.1392 12.75 10.1204 13.0547 10.036C14.9016 9.53447 16.1672 7.90322 16.1719 6.02353C16.1719 5.4751 16.1109 5.07197 15.975 4.66885C15.4313 3.08447 14.0813 2.00635 12.4172 1.82822C12.1734 1.80478 11.9578 1.78603 11.9297 1.79072C11.9062 1.79072 11.7188 1.80947 11.5219 1.83291Z" fill="white"/>
<path d="M4.18917 5.71406C3.53292 5.82187 2.97511 6.10781 2.47823 6.60469C1.8923 7.19062 1.60636 7.8375 1.55948 8.67187C1.46105 10.4531 2.89073 11.9531 4.68605 11.9531C5.4548 11.9531 6.21417 11.6578 6.77667 11.1422C7.94855 10.0687 8.1548 8.39531 7.27823 7.06875C6.88448 6.47344 6.18136 5.97187 5.48761 5.78906C5.13136 5.7 4.5173 5.6625 4.18917 5.71406Z" fill="white" fill-opacity="0.4"/>
<path d="M18.9114 5.7001C17.4676 5.93448 16.3942 7.0126 16.2067 8.41885C16.1083 9.14073 16.2817 9.9001 16.6801 10.5142C17.5567 11.8548 19.2723 12.3329 20.6926 11.6298C21.3536 11.3017 21.8036 10.847 22.127 10.1907C22.3755 9.6751 22.4645 9.23916 22.4364 8.67198C22.3895 7.8376 22.1036 7.19073 21.5176 6.60479C20.9317 6.02354 20.2989 5.7376 19.4833 5.7001C19.2442 5.69073 18.9911 5.69073 18.9114 5.7001Z" fill="white" fill-opacity="0.4"/>
<path d="M9.43131 11.0156C8.62506 11.1281 8.02037 11.4281 7.42506 12.0234C7.0735 12.3703 6.961 12.5203 6.78756 12.8766C6.38443 13.6734 6.3985 13.5187 6.3985 17.8594C6.3985 21.6187 6.3985 21.6844 6.49225 21.8438C6.5485 21.9328 6.661 22.0453 6.75006 22.1016C6.91412 22.1953 6.97037 22.1953 12.0001 22.1953C17.0297 22.1953 17.086 22.1953 17.2501 22.1016C17.3391 22.0453 17.4516 21.9328 17.5079 21.8438C17.6016 21.6844 17.6016 21.6187 17.6016 17.8594C17.6016 13.5187 17.6157 13.6734 17.2126 12.8766C16.9219 12.2953 16.336 11.6953 15.7641 11.4C14.9907 11.0016 14.9813 10.9969 12.1876 10.9875C10.8329 10.9828 9.59537 10.9969 9.43131 11.0156Z" fill="white"/>
<path d="M2.81569 12.8484C1.73756 13.0594 0.846936 13.7391 0.350061 14.7281C-0.00150155 15.4312 -0.00618905 15.4875 0.00787345 18.2391L0.021936 20.6531L0.195373 21.0047C0.415686 21.4547 0.725061 21.7641 1.15631 21.9703C1.61569 22.1906 1.86412 22.2141 3.65006 22.2188H5.16412L5.12662 22.0406C5.10319 21.9469 5.08444 20.0297 5.08444 17.7891V13.7109L5.19225 13.3266C5.2485 13.1156 5.30944 12.9094 5.3235 12.8719C5.35162 12.8062 5.22975 12.7969 4.18912 12.8016C3.54694 12.8062 2.92819 12.825 2.81569 12.8484Z" fill="white" fill-opacity="0.4"/>
<path d="M18.6718 12.8672C18.6859 12.9094 18.7468 13.1156 18.8031 13.3266L18.9109 13.7109V17.7891C18.9109 20.0297 18.8921 21.9469 18.8687 22.0453L18.8312 22.2188H20.3452C22.1312 22.2141 22.3796 22.1906 22.839 21.9703C23.2702 21.7641 23.5796 21.4547 23.7999 21.0047L23.9734 20.6531L23.9874 18.2391C24.0015 15.4875 23.9968 15.4312 23.6452 14.7281C23.2046 13.8516 22.5015 13.2516 21.5359 12.9328C21.2312 12.8344 21.1093 12.825 19.9234 12.8062C18.7421 12.7922 18.6437 12.7969 18.6718 12.8672Z" fill="white" fill-opacity="0.4"/>
</svg>
