<svg width="24" height="24" viewBox="0 0 24 24" fill="none" xmlns="http://www.w3.org/2000/svg">
<g clip-path="url(#clip0_3520_117822)">
<path d="M12.5953 1.04062C11.9156 1.85624 11.5781 2.31561 11.5781 2.4328C11.5828 2.49843 11.7609 2.96718 11.9766 3.46874C12.3328 4.29843 12.3797 4.3828 12.4781 4.37343C12.5391 4.36405 12.9141 4.32655 13.3078 4.28905C13.7063 4.24686 14.0438 4.20936 14.0531 4.19999C14.0625 4.19061 13.9734 3.98905 13.8563 3.75468C13.5703 3.19218 13.575 2.98593 13.8703 2.85936C14.1281 2.75624 14.2359 2.85468 14.5781 3.53436L14.8828 4.13437L15.2719 4.10624C15.8391 4.06874 15.8766 4.01249 15.6984 3.47812C15.6141 3.22968 15.6094 3.17343 15.6656 3.06093C15.6984 2.99061 15.7875 2.90155 15.8625 2.86405C15.9797 2.8078 16.0172 2.81249 16.1484 2.87343C16.2797 2.93905 16.3219 2.99999 16.425 3.31405C16.6172 3.89061 16.5703 4.2328 16.2469 4.55155C16.0078 4.79062 15.8578 4.82343 14.1984 4.96405C12.7453 5.08593 12.6094 5.10468 12.4688 5.20311C12.075 5.48436 12.1078 6.0703 12.525 6.32811C12.675 6.42186 12.7453 6.42186 14.9297 6.41249L17.1797 6.39843L17.4188 6.27186C17.7938 6.07499 18.0094 5.79374 18.2578 5.16562C18.5016 4.54686 18.5859 4.43905 18.8016 4.43905C18.9703 4.43905 19.1719 4.62655 19.1719 4.78124C19.1719 4.89374 18.8297 5.76093 18.6656 6.06093C18.4266 6.50155 17.7797 6.99843 17.3109 7.09686L17.1656 7.12968L17.1422 8.26405C17.1281 9.26249 17.1094 9.44061 17.0203 9.7453C16.875 10.2375 16.6547 10.6969 16.3266 11.1844C15.75 12.0422 15.4031 12.8297 15.2578 13.6172C15.1922 13.95 15.1828 14.1937 15.2016 14.7656C15.2438 15.8812 15.4125 16.4859 15.7922 16.8844C16.0547 17.1562 16.0453 17.3766 15.7594 17.5266C15.3703 17.7328 14.8031 17.0062 14.5781 16.0078C14.5078 15.7078 14.4703 15.3469 14.4516 14.7656C14.4328 14.0484 14.4422 13.8891 14.5266 13.4766L14.625 13.0078L14.3859 12.7969C13.2656 11.8172 11.9344 11.1703 10.4672 10.8937C10.2188 10.8516 9.67969 10.8094 9.11719 10.7953C7.97344 10.7625 7.36406 10.8375 6.55781 11.1094C4.99688 11.6297 3.97031 12.4875 3.28125 13.8469C3.03281 14.3344 2.90625 14.4422 2.66719 14.3437C2.3625 14.2172 2.36719 13.9922 2.69063 13.3781C2.99531 12.7969 3.35156 12.3141 3.79219 11.8922C3.975 11.7141 4.125 11.5594 4.125 11.55C4.125 11.5125 3.57656 11.2594 3.23438 11.1328C2.68594 10.9359 2.1375 10.8281 1.51406 10.7953C1.08281 10.7766 0.923438 10.7812 0.867188 10.8281C0.80625 10.8797 0.796875 11.5453 0.796875 16.8047C0.796875 22.0547 0.80625 22.7297 0.867188 22.7812C0.923438 22.8281 1.05469 22.8328 1.38281 22.8094C2.20312 22.7531 3.08906 22.5281 3.67969 22.2281L3.94688 22.0969L3.58125 21.8437C3.375 21.7078 3.06094 21.4781 2.87344 21.3328C2.40938 20.9672 2.33438 20.7891 2.55938 20.5594C2.75625 20.3625 2.86875 20.4 3.45 20.8406C5.08125 22.0687 6.88125 22.8844 8.53125 23.1328C9.04688 23.2125 10.2844 23.2219 10.8984 23.1562C11.9344 23.0391 12.825 22.8094 13.575 22.4578C14.2313 22.1484 14.2266 22.1812 13.6734 21.9C13.0688 21.5906 12.8438 21.4125 12.8438 21.2344C12.8438 21.0375 12.8859 20.9578 13.0406 20.8781C13.2047 20.7937 13.2891 20.8172 13.6359 21.0375C14.5781 21.6422 15.7031 21.9094 17.2969 21.9094C18.6703 21.9094 19.8188 21.7172 20.7891 21.3328C21.3703 21.1031 21.6328 20.9016 21.7922 20.5594C21.9328 20.2641 22.0312 19.8469 22.0312 19.5375C22.0312 19.3312 22.0172 19.3266 21.8578 19.4531C21.6844 19.5891 21.45 19.575 21.3328 19.425C21.1781 19.2281 21.2109 19.1156 21.5297 18.7125C22.2469 17.8125 22.7812 16.6406 23.0484 15.3797C23.1703 14.8312 23.1797 14.7094 23.1797 13.6406C23.1797 12.6469 23.1656 12.4125 23.0719 11.8828C22.8563 10.6969 22.5094 9.45468 21.6797 6.93749C21.1641 5.37186 20.9344 4.56561 20.6719 3.37499C20.5453 2.81249 20.4469 2.47968 20.3953 2.42343C20.3297 2.3578 20.1188 2.31093 19.4953 2.22186C17.5031 1.9453 15.4453 1.49999 13.6781 0.960926C12.9188 0.731239 12.8531 0.735928 12.5953 1.04062ZM4.5 15.4969C5.62031 16.2328 7.07344 16.6969 8.46563 16.7625C9.83906 16.8281 11.2313 16.5328 12.6328 15.8719C13.1438 15.6281 13.2047 15.6094 13.3266 15.6609C13.4063 15.6937 13.4906 15.7828 13.5234 15.8625C13.6406 16.1391 13.5281 16.2562 12.8203 16.5984C11.7891 17.0953 10.6969 17.3859 9.46406 17.4891C7.66875 17.6437 5.65313 17.1281 4.13438 16.1297C3.74531 15.8719 3.60938 15.7266 3.60938 15.5625C3.60938 15.5391 3.66563 15.4594 3.73125 15.3797C3.90469 15.1734 4.03594 15.1922 4.5 15.4969Z" fill="white"/>
</g>
<defs>
<clipPath id="clip0_3520_117822">
<rect width="24" height="24" fill="white"/>
</clipPath>
</defs>
</svg>
