<svg width="24" height="24" viewBox="0 0 24 24" fill="none" xmlns="http://www.w3.org/2000/svg">
<g clip-path="url(#clip0_3533_20185)">
<path d="M11.5078 1.5094C10.8938 1.62659 10.3406 2.06253 10.0406 2.66721C9.87188 3.0094 9.86719 3.03284 9.86719 3.55784C9.86719 4.07346 9.87656 4.12034 10.0172 4.42034C10.6594 5.77034 12.4125 6.07971 13.4203 5.02034C13.8703 4.5469 14.0438 4.06409 14.0016 3.39378C13.9734 2.88753 13.7953 2.49846 13.4203 2.10471C12.9281 1.5844 12.2344 1.36878 11.5078 1.5094Z" fill="white"/>
<path d="M6.53095 5.38571C6.34814 5.41853 5.99189 5.59665 4.99345 6.16853C4.27626 6.57634 3.62939 6.97478 3.5497 7.04978C3.1372 7.46696 3.12783 8.2779 3.53095 8.70915C3.66689 8.85915 4.00908 9.0279 4.24345 9.0654C4.59033 9.12634 4.85283 9.01853 5.95439 8.38571L7.01845 7.77634L7.30439 7.7904L7.59032 7.80446L6.74658 9.11696C6.2872 9.83884 5.86064 10.5467 5.80908 10.6873C5.66376 11.0529 5.66376 11.6904 5.80908 12.0513C6.02939 12.6279 6.39033 13.0029 6.94345 13.2326C7.10751 13.3029 7.68876 13.5232 8.2372 13.7248L9.23095 14.0904L8.66376 14.9998C7.9372 16.1763 7.85751 16.3451 7.85751 16.7342C7.8622 17.5076 8.43407 18.0701 9.2122 18.0654C9.59657 18.0654 9.87782 17.9576 10.1309 17.7138C10.2716 17.5779 12.1841 14.5263 12.47 13.9779C12.6997 13.542 12.6247 12.8998 12.306 12.5248C12.0716 12.2576 11.8841 12.1592 10.8669 11.7888L9.99501 11.4701L10.1122 11.2826C10.1778 11.1795 10.5903 10.5326 11.031 9.84821C11.9731 8.37634 12.0294 8.27321 12.1044 7.83728C12.2075 7.21853 11.9872 6.53415 11.5325 6.09353C11.1481 5.71853 10.7544 5.5779 9.75126 5.46071C9.07626 5.37634 6.89189 5.32946 6.53095 5.38571Z" fill="white"/>
<path d="M20.0719 5.61093C19.9078 5.75156 17.6719 10.1062 17.6719 10.2844C17.6719 10.5656 18.0141 10.7391 18.2812 10.5937C18.3281 10.5656 18.5953 10.1156 18.8672 9.58593L19.3641 8.62499L19.8891 8.90624L20.4141 9.18281L20.4281 13.9922L20.4375 18.7969H12.9094C6.89063 18.7969 5.39062 18.7828 5.42344 18.7359C5.5125 18.6281 7.48594 15.4922 7.56094 15.3469C7.63125 15.2156 7.84219 14.3437 7.81406 14.3156C7.80938 14.3109 7.52344 14.1984 7.18125 14.0719C6.38906 13.7719 6.11719 13.6078 5.7 13.1672L5.3625 12.8062L5.22656 13.4719C5.15625 13.8328 5.07656 14.175 5.04844 14.2266C5.025 14.2781 4.55156 15.0375 3.99375 15.9141C3.44063 16.7906 2.94375 17.6016 2.89219 17.7187C2.78906 17.9484 2.76562 18.45 2.85 18.6609L2.90156 18.7875L2.32031 18.8062C1.76719 18.825 1.72969 18.8297 1.39219 18.9984C0.989063 19.2 0.73125 19.4578 0.529688 19.8703C0.407813 20.1094 0.398438 20.1797 0.398438 20.6719C0.398438 21.1875 0.403125 21.225 0.548438 21.4922C0.703125 21.7875 1.03125 22.1344 1.32188 22.3078C1.73438 22.5516 1.36406 22.5469 11.9813 22.5469C18.8672 22.5469 21.9094 22.5328 22.1063 22.4953C22.6781 22.3922 23.175 22.0219 23.4516 21.4922C23.5969 21.225 23.6016 21.1875 23.6016 20.6719C23.6016 20.1797 23.5922 20.1094 23.4703 19.8703C23.2734 19.4625 23.0109 19.2 22.6125 18.9984C22.2844 18.8391 22.2234 18.825 21.75 18.8062L21.2344 18.7828L21.225 13.7812C21.2109 8.84999 21.2109 8.77499 21.1172 8.67187C21.0656 8.61562 20.7328 8.42343 20.3766 8.24062L19.7297 7.91718L19.9594 7.48593C20.3953 6.67968 20.7188 6.01406 20.7188 5.93906C20.7188 5.61562 20.3063 5.40937 20.0719 5.61093Z" fill="white"/>
<path d="M15.5625 6.06563C15.4734 6.09844 14.925 6.41719 14.3437 6.77344C12.8859 7.66875 12.9937 7.6125 12.9234 7.55625C12.8766 7.51407 12.8484 7.58438 12.8062 7.88438C12.7406 8.33438 12.5859 8.68594 12.1641 9.35157C11.9953 9.61407 11.8594 9.84844 11.8594 9.87657C11.8594 9.95157 12.1266 10.1625 12.3141 10.2422C12.5062 10.3219 13.0125 10.3359 13.2 10.2656C13.4344 10.1766 16.6547 8.18438 16.8047 8.03438C17.1141 7.72969 17.2219 7.275 17.0906 6.82969C16.9125 6.21094 16.1766 5.84063 15.5625 6.06563Z" fill="white"/>
</g>
<defs>
<clipPath id="clip0_3533_20185">
<rect width="24" height="24" fill="white"/>
</clipPath>
</defs>
</svg>
