<svg width="24" height="24" viewBox="0 0 24 24" fill="none" xmlns="http://www.w3.org/2000/svg">
<path d="M6.18748 0.0657587C6.18748 0.0985718 6.35623 0.951696 6.55779 1.95482C6.76404 2.96263 6.95623 4.04545 6.98904 4.3642C7.15779 6.1267 6.73592 8.1517 5.87811 9.67045C5.73279 9.92357 5.62498 10.1392 5.63436 10.1486C5.67186 10.1861 6.39373 10.4579 6.86717 10.6079C8.29686 11.0673 9.72186 11.3204 11.2172 11.3861C13.3172 11.4704 15.2437 11.2173 17.1328 10.6079C17.7375 10.4111 18.375 10.172 18.375 10.1392C18.375 10.1298 18.2484 9.89545 18.0937 9.61888C17.2547 8.1142 16.8422 6.10795 17.0109 4.3642C17.0437 4.04545 17.2359 2.96263 17.4422 1.95482C17.6437 0.951696 17.8125 0.0985718 17.8125 0.0657587C17.8125 0.00950909 16.8515 0.000133514 12 0.000133514C7.14842 0.000133514 6.18748 0.00950909 6.18748 0.0657587ZM12.7031 7.99232V8.67201H12H11.2969V7.99232V7.31263H12H12.7031V7.99232Z" fill="white"/>
<path d="M2.61562 3.70781L2.0625 4.13437L2.47969 4.68281L2.89687 5.22656L1.44844 5.24062L0 5.25V5.97656V6.70312H1.45781H2.91094L2.52656 7.20469C2.31562 7.48594 2.12344 7.73437 2.1 7.7625C2.07656 7.79531 2.26406 7.96875 2.625 8.24062C2.93437 8.47969 3.20156 8.67188 3.225 8.67188C3.24844 8.67188 5.07656 6.30937 5.26875 6.02812C5.30156 5.98594 5.025 5.59219 4.29375 4.63594C3.73594 3.90469 3.25312 3.3 3.22031 3.29531C3.1875 3.28594 2.91562 3.47344 2.61562 3.70781Z" fill="white"/>
<path d="M19.7154 4.62188C18.9795 5.5875 18.6983 5.98594 18.7311 6.02813C18.9233 6.30938 20.7514 8.67188 20.7748 8.67188C20.7983 8.67188 21.0654 8.47969 21.3748 8.24063C21.7358 7.96875 21.9233 7.79531 21.8998 7.7625C21.8764 7.73438 21.6842 7.48594 21.4733 7.20469L21.0889 6.70313H22.542H23.9998V5.97656V5.25L22.5514 5.24063L21.1029 5.22656L21.5201 4.67813L21.9373 4.12969L21.3983 3.71719C21.0983 3.49219 20.8311 3.3 20.7983 3.29063C20.7654 3.28594 20.2779 3.88594 19.7154 4.62188Z" fill="white"/>
<path d="M4.79535 11.4234C4.76722 11.4984 4.65472 11.7516 4.5516 11.9906C3.89535 13.4766 3.69378 15.4688 4.03128 17.1562C4.13441 17.6625 4.18128 17.8125 5.39066 21.5953L6.15941 24H8.72816H11.2969V20.7891V17.5781H12H12.7032V20.7891V24H15.2719H17.8407L18.4922 21.9703C20.0344 17.1469 20.0297 17.1703 20.1094 16.0594C20.2172 14.5453 19.9594 13.1156 19.3266 11.6953C19.2328 11.4891 19.1532 11.3156 19.1485 11.3062C19.1438 11.3016 19.0266 11.3437 18.886 11.4094C18.7453 11.4703 18.3188 11.6297 17.9297 11.7609C14.5313 12.9375 11.0203 13.0875 7.54222 12.2109C6.9141 12.0516 5.8641 11.7094 5.29691 11.4797C5.05316 11.3766 4.85628 11.2969 4.8516 11.2969C4.8516 11.2969 4.82347 11.3531 4.79535 11.4234Z" fill="white"/>
</svg>
