<svg width="24" height="24" viewBox="0 0 24 24" fill="none" xmlns="http://www.w3.org/2000/svg">
<path d="M11.502 3.30495C9.91766 3.59089 9.09266 5.31589 9.80516 6.82995C10.363 8.02058 11.9239 8.50339 13.1755 7.87058C14.3427 7.28464 14.788 5.79402 14.1739 4.55652C13.8411 3.88152 13.2411 3.4362 12.4723 3.30027C12.0411 3.22527 11.9333 3.22527 11.502 3.30495Z" fill="white"/>
<path d="M10.3021 8.97676C9.01775 9.21582 7.89275 10.0455 7.26931 11.2127C7.02088 11.6721 6.92244 11.9814 6.75369 12.8439C6.59431 13.6361 6.449 14.0064 6.16306 14.3346C5.79744 14.7564 5.33338 14.9768 4.67713 15.0471C4.0115 15.1127 3.72088 15.3705 3.66931 15.9377C3.61775 16.4627 3.95056 16.8986 4.4615 16.9877C4.70994 17.0346 5.40369 16.9361 5.8115 16.8002C6.29431 16.6408 6.75838 16.3549 7.14275 15.9893C7.56931 15.5814 7.70994 15.3611 8.39431 14.0674C8.71306 13.4674 9.00369 12.9611 9.0365 12.9518C9.06931 12.9377 9.12556 12.9518 9.16306 12.9846C9.224 13.0361 9.23338 13.3643 9.23338 15.3518V17.6627L9.48181 17.7424C9.86619 17.8689 10.7334 18.2955 11.0662 18.5158C11.2303 18.6283 11.474 18.8346 11.6099 18.9705C11.9428 19.308 12.0553 19.308 12.3881 18.9705C12.524 18.8346 12.7678 18.6283 12.9318 18.5158C13.2646 18.2955 14.1318 17.8689 14.5209 17.7424L14.7646 17.6627V15.3283V12.9893L14.8678 12.9564C14.999 12.9143 14.9896 12.9002 15.6365 14.1283C16.2881 15.3611 16.4334 15.5814 16.8553 15.9893C17.2396 16.3549 17.7037 16.6408 18.1865 16.8002C18.5943 16.9361 19.2881 17.0346 19.5365 16.9877C20.0521 16.8986 20.3803 16.4627 20.3287 15.933C20.2771 15.3705 19.9865 15.1127 19.3162 15.0471C18.6693 14.9768 18.2193 14.7658 17.8396 14.3439C17.5584 14.0299 17.4037 13.6455 17.2443 12.8439C17.0756 11.9814 16.9771 11.6721 16.7287 11.2127C16.1568 10.1393 15.1771 9.36582 13.9771 9.0377C13.649 8.94863 13.4756 8.93457 12.1396 8.9252C11.0146 8.91582 10.5787 8.9252 10.3021 8.97676Z" fill="white"/>
<path d="M4.73244 17.4094C4.16994 17.5735 3.71994 17.925 3.48557 18.3844C3.29807 18.7407 3.29807 19.2282 3.47619 19.5938C3.74338 20.1329 4.33869 20.55 5.06057 20.7C5.35588 20.761 5.75901 20.7704 7.63869 20.7516C9.72463 20.7375 9.88869 20.7282 10.2449 20.6344C10.7746 20.4985 11.1121 20.3391 11.3559 20.1141C11.7731 19.7297 11.7543 19.5329 11.2668 19.0875C10.6246 18.4922 9.26526 17.9157 7.83088 17.625C6.70588 17.4 5.14026 17.2875 4.73244 17.4094Z" fill="white"/>
<path d="M17.7403 17.3953C15.5747 17.5969 13.6153 18.2625 12.706 19.1016C12.2419 19.5328 12.2278 19.7344 12.6403 20.1141C12.8841 20.3391 13.2216 20.4985 13.7513 20.6344C14.1075 20.7282 14.2669 20.7375 16.4091 20.7516C18.9263 20.775 19.0388 20.7657 19.6013 20.4797C19.9528 20.3016 20.3747 19.8891 20.5294 19.5703C20.6888 19.2422 20.6935 18.7266 20.5388 18.4125C20.2997 17.925 19.8356 17.5735 19.2403 17.4141C18.9403 17.3391 18.4294 17.3297 17.7403 17.3953Z" fill="white"/>
</svg>
