<svg width="50" height="51" viewBox="0 0 50 51" fill="none" xmlns="http://www.w3.org/2000/svg">
<path d="M1.00098 0.5H49.001L43.7407 7.5" stroke="#FF3C38"/>
<path d="M24.176 10.5938C23.4885 10.8125 22.7635 11.5062 22.5447 12.1562L22.4572 12.4062L20.9447 12.4375L19.426 12.4688L19.276 12.6437C19.126 12.8187 19.126 12.8312 19.126 14.1812V15.5437L19.2885 15.7125L19.4572 15.875H25.001H30.5447L30.7135 15.7125L30.876 15.5437V14.1812C30.876 12.8312 30.876 12.8187 30.726 12.6437L30.576 12.4688L29.0635 12.4375L27.551 12.4062L27.4385 12.1187C27.2072 11.4938 26.7322 11.0062 26.076 10.7C25.776 10.5625 25.6135 10.5312 25.0947 10.5187C24.6697 10.5062 24.376 10.5312 24.176 10.5938Z" fill="#FF3C38"/>
<path d="M14.3194 13.975C14.1069 14.0812 13.9319 14.2312 13.8257 14.3937L13.6569 14.65L13.6382 27.1062C13.6257 39.2625 13.6257 39.5687 13.7444 39.8C13.8819 40.0687 14.0757 40.2562 14.3569 40.4C14.5382 40.4937 15.5069 40.5 25.0007 40.5C34.4944 40.5 35.4632 40.4937 35.6444 40.4C35.9257 40.2562 36.1194 40.0687 36.2569 39.8C36.3694 39.575 36.3757 39.2312 36.3757 27.1687V14.7687L36.2319 14.4937C36.1319 14.3125 35.9819 14.1562 35.7819 14.0312L35.4819 13.8438L33.8632 13.825L32.2507 13.8062V14.675C32.2507 15.2563 32.2194 15.6375 32.1569 15.85C32.0194 16.3125 31.6632 16.7312 31.1882 16.9937L30.7819 17.2188H25.0007H19.2194L18.8132 16.9937C18.3382 16.7312 17.9819 16.3125 17.8444 15.85C17.7819 15.6375 17.7507 15.2625 17.7507 14.675V13.8125H16.2007C14.6507 13.8125 14.6507 13.8125 14.3194 13.975ZM22.0882 20.4625C22.3694 20.5812 22.5007 20.7875 22.5007 21.1C22.5007 21.3562 22.4757 21.3875 21.7694 22.05C20.3444 23.375 19.5507 24.0625 19.4007 24.1C19.1132 24.175 18.9069 24.05 18.2944 23.45C17.6632 22.8312 17.5007 22.6062 17.5007 22.375C17.5007 22.1562 17.6757 21.8813 17.8882 21.775C18.1944 21.6187 18.4194 21.7 18.8569 22.1375L19.2444 22.525L19.3882 22.4C19.4694 22.3375 19.9569 21.8937 20.4819 21.4187C21.3319 20.65 21.6819 20.375 21.8319 20.375C21.8569 20.375 21.9757 20.4125 22.0882 20.4625ZM31.8507 21.6812C32.0257 21.7937 32.1882 22.075 32.1882 22.25C32.1882 22.4625 32.0132 22.7375 31.8132 22.8438C31.6569 22.925 31.1632 22.9375 28.3694 22.9375H25.1132L24.9007 22.725C24.5444 22.3687 24.6319 21.85 25.0882 21.65C25.3757 21.525 31.6569 21.55 31.8507 21.6812ZM22.1882 26.7312C22.4382 26.9 22.4944 27.0125 22.5007 27.3C22.5007 27.6187 22.4944 27.625 21.0632 28.9125C19.3757 30.4312 19.5319 30.3125 19.2382 30.3125C18.9882 30.3125 18.9444 30.2812 18.2382 29.575C17.5569 28.8938 17.5007 28.8187 17.5007 28.6C17.5007 28.25 17.8257 27.9375 18.1882 27.9375C18.4194 27.9375 18.4882 27.975 18.8382 28.3125C19.0569 28.5188 19.2507 28.6875 19.2819 28.6875C19.3069 28.6875 19.7382 28.3125 20.2444 27.8562C21.6007 26.625 21.6069 26.625 21.8319 26.625C21.9444 26.625 22.1069 26.675 22.1882 26.7312ZM31.9507 27.9937C32.1257 28.15 32.1569 28.2188 32.1569 28.4563C32.1569 28.7937 31.9694 29.0312 31.6319 29.125C31.3444 29.2063 25.5632 29.2063 25.2194 29.125C24.8757 29.05 24.6882 28.8125 24.6882 28.4812C24.6944 28.2 24.7569 28.0875 25.0007 27.9187C25.1382 27.825 25.4444 27.8125 28.4507 27.8125H31.7507L31.9507 27.9937ZM22.1257 32.9062C22.4507 33.075 22.5882 33.4437 22.4632 33.7812C22.4007 33.9375 19.6444 36.4313 19.4569 36.5062C19.1444 36.625 18.9319 36.5125 18.2944 35.8812C17.9569 35.55 17.6382 35.2062 17.5882 35.1125C17.3632 34.6813 17.6194 34.2125 18.1069 34.1437C18.3632 34.1125 18.3819 34.1188 18.8069 34.5312L19.2444 34.95L19.4569 34.775C19.5757 34.675 20.0819 34.2188 20.5819 33.7687C21.6569 32.7812 21.7694 32.7188 22.1257 32.9062ZM31.7882 34.1C32.1507 34.275 32.2757 34.65 32.0944 35C31.8944 35.3875 31.9507 35.3812 28.3382 35.3625L25.0507 35.3438L24.8694 35.1375C24.5694 34.8 24.6319 34.3562 25.0194 34.125C25.2132 34.0062 25.3632 34 28.3944 34C31.2069 34 31.6007 34.0125 31.7882 34.1Z" fill="#FF3C38"/>
<path d="M49.001 50.5H1.00098L6.26125 43.5" stroke="#FF3C38"/>
</svg>
