<svg width="50" height="51" viewBox="0 0 50 51" fill="none" xmlns="http://www.w3.org/2000/svg">
<path d="M1.00098 0.5H49.001L43.7407 7.5" stroke="#FF3C38"/>
<path d="M12.6135 11.25C12.326 11.3375 12.051 11.5688 11.9322 11.8375C11.8197 12.0813 11.8135 12.4125 11.8135 19.5437C11.8135 24.6562 11.8322 27.05 11.8822 27.1687C11.9135 27.2625 12.0197 27.425 12.1135 27.5187C12.4447 27.8687 12.4885 27.875 14.2197 27.875C15.926 27.875 16.0072 27.8625 16.2885 27.55C16.601 27.2125 16.5947 27.2812 16.626 23.9375L16.6572 20.7812L17.0322 20.75L17.4072 20.7188L17.4447 20.1875C17.4697 19.8937 17.5197 19.575 17.5572 19.4688C17.7572 18.975 18.151 18.675 18.7072 18.5938C18.9385 18.5562 19.001 18.525 18.9885 18.4437C18.9697 18.3562 18.8197 18.3438 17.801 18.325L16.6322 18.3125L16.6135 15.1687C16.5947 12.3125 16.5822 12.0125 16.4822 11.8312C16.3197 11.5312 16.076 11.3312 15.776 11.2563C15.4635 11.175 12.8697 11.175 12.6135 11.25Z" fill="#FF3C38"/>
<path d="M34.1689 11.2687C33.8377 11.375 33.5252 11.7 33.4439 12.0312C33.4002 12.2125 33.3752 13.3125 33.3752 15.3062V18.3062L32.9252 18.325L32.4689 18.3438L32.4314 19.25C32.4127 19.75 32.3689 20.2875 32.3439 20.45L32.2939 20.7438L32.8189 20.7625L33.3439 20.7812L33.3752 23.9375C33.4064 27.2812 33.4002 27.2125 33.7127 27.55C33.9939 27.8625 34.0752 27.875 35.7814 27.875C37.5127 27.875 37.5564 27.8687 37.8877 27.5187C37.9814 27.425 38.0877 27.2625 38.1189 27.1687C38.1689 27.05 38.1877 24.6562 38.1877 19.5437C38.1877 12.3625 38.1814 12.0875 38.0689 11.8312C37.9939 11.6687 37.8502 11.5063 37.6814 11.3937L37.4189 11.2188L35.9127 11.2062C34.8752 11.2 34.3314 11.2188 34.1689 11.2687Z" fill="#FF3C38"/>
<path d="M10.0635 14.8812C9.98223 14.9187 9.85723 14.9875 9.80098 15.0437C9.69473 15.1375 9.68848 15.4125 9.68848 19.5687V23.9937L9.85098 24.1187C9.99473 24.2312 10.1072 24.25 10.601 24.25H11.1885L11.176 19.5437L11.1572 14.8437L10.6885 14.8312C10.4322 14.825 10.151 14.8437 10.0635 14.8812Z" fill="#FF3C38"/>
<path d="M38.8635 14.85C38.8322 14.875 38.8135 17 38.8135 19.575V24.25H39.401C39.8947 24.25 40.0072 24.2312 40.151 24.1187L40.3135 23.9875L40.301 19.55L40.2822 15.1062L40.1072 14.975C39.9697 14.875 39.8197 14.8375 39.4197 14.825C39.1385 14.8125 38.8885 14.825 38.8635 14.85Z" fill="#FF3C38"/>
<path d="M23.9697 15.2874C23.901 15.3062 23.7822 15.3312 23.7072 15.3499C23.501 15.3874 23.1197 15.7437 23.026 15.9812C22.9635 16.1249 22.9385 16.5124 22.9385 17.3749V18.5624H23.676C24.501 18.5624 24.876 18.6437 25.251 18.9062C25.3885 18.9999 25.526 19.0562 25.5572 19.0312C25.601 19.0062 25.626 18.5062 25.626 17.5812C25.626 16.2687 25.6135 16.1437 25.4947 15.8937C25.3197 15.5374 24.9572 15.3249 24.4635 15.2874C24.2635 15.2687 24.0385 15.2687 23.9697 15.2874Z" fill="#FF3C38"/>
<path d="M27.2822 15.2874C27.2135 15.3061 27.0947 15.3311 27.0197 15.3499C26.8135 15.3874 26.4322 15.7436 26.3385 15.9811C26.2697 16.1374 26.251 16.6311 26.251 18.0936C26.251 20.2124 26.2572 20.2686 26.6447 20.6061C26.9385 20.8686 27.301 20.9624 27.8072 20.9124C28.2947 20.8686 28.6322 20.6686 28.8135 20.3124C28.9322 20.0811 28.9385 19.9499 28.9385 18.0874V16.1061L28.7822 15.8311C28.6822 15.6624 28.526 15.5124 28.376 15.4374C28.1322 15.3124 27.526 15.2311 27.2822 15.2874Z" fill="#FF3C38"/>
<path d="M20.2197 15.8687C19.9697 16.0187 19.776 16.2437 19.6947 16.4562C19.6572 16.5562 19.626 17.0688 19.626 17.6V18.5625H20.9697H22.3135V17.6C22.3135 16.5688 22.276 16.3812 22.0135 16.1063C21.7322 15.8125 21.5572 15.75 20.9572 15.75C20.5322 15.75 20.3635 15.775 20.2197 15.8687Z" fill="#FF3C38"/>
<path d="M30.001 16.325C29.576 16.6188 29.5572 16.7062 29.576 18.6063C29.5947 20.2063 29.601 20.3125 29.726 20.475C29.9885 20.8312 30.1572 20.9062 30.6885 20.9062C31.2197 20.9062 31.3885 20.8312 31.651 20.475C31.776 20.3125 31.7822 20.2063 31.801 18.6063C31.8135 17.0438 31.8072 16.8875 31.701 16.6875C31.501 16.3125 31.2447 16.1875 30.6885 16.1875C30.2947 16.1875 30.1697 16.2125 30.001 16.325Z" fill="#FF3C38"/>
<path d="M18.4027 19.3062C18.2964 19.375 18.1714 19.5187 18.1277 19.6375C18.0089 19.95 17.9027 23.5 17.9902 24.2063C18.0777 24.8938 18.2964 25.3687 19.4714 27.4062C19.9464 28.2312 20.3964 29.0312 20.4652 29.1875C20.5964 29.4625 20.5964 29.5625 20.6277 34.3125C20.6652 39.7 20.6339 39.4062 21.0839 39.6812C21.2964 39.8125 21.3464 39.8125 25.4527 39.8125H29.6089L29.9027 39.5375L30.2027 39.2625L30.1464 35.3937C30.0777 29.9437 30.0277 30.675 30.5152 29.75C31.6089 27.6937 31.8964 26.1312 31.7652 22.9812C31.7339 22.125 31.6839 21.4125 31.6652 21.3937C31.6464 21.375 31.5214 21.3875 31.3839 21.425C31.0464 21.5312 30.3214 21.5187 30.0027 21.4062C29.8589 21.3562 29.6277 21.2125 29.4964 21.0938C29.3589 20.975 29.2402 20.875 29.2214 20.875C29.2089 20.875 29.0464 20.9812 28.8714 21.1187C28.4652 21.425 28.2089 21.5 27.5714 21.5C27.0277 21.5 26.7652 21.425 26.3652 21.1437C26.2339 21.0562 26.0964 21 26.0464 21.0187C26.0027 21.0375 25.9277 21.1687 25.8839 21.3125C25.7839 21.65 25.3339 22.1375 24.9527 22.3188C24.7277 22.425 24.4964 22.4625 23.9714 22.4937C23.4027 22.525 23.2839 22.55 23.2652 22.6313C23.2527 22.6938 23.5839 23.0938 24.1089 23.6437C25.0589 24.6312 25.3152 25.025 25.4402 25.6687C25.5089 26.0125 25.5027 26.0813 25.4152 26.2188C25.3089 26.3812 25.1652 26.4125 25.0089 26.3187C24.9589 26.2875 24.8964 26.0875 24.8652 25.875C24.7902 25.3 24.5589 24.9437 23.6714 24.0125C23.2339 23.55 22.7839 23.025 22.6839 22.8375L22.4902 22.5H22.0902C21.7714 22.5 21.6652 22.475 21.5652 22.375C21.4964 22.3062 21.4402 22.2188 21.4402 22.1875C21.4402 22.15 21.4964 22.0688 21.5652 22C21.6839 21.8813 21.7714 21.875 23.0902 21.875C23.9339 21.875 24.5652 21.85 24.6714 21.8062C24.8902 21.725 25.1714 21.4625 25.3027 21.2188C25.4339 20.9688 25.4339 20.1 25.2964 19.8438C25.1714 19.6 24.8902 19.3375 24.6714 19.2563C24.5527 19.2125 23.4777 19.1875 21.5464 19.1875C18.7589 19.1875 18.5839 19.1938 18.4027 19.3062Z" fill="#FF3C38"/>
<path d="M49.001 50.5H1.00098L6.26125 43.5" stroke="#FF3C38"/>
</svg>
