<svg width="50" height="51" viewBox="0 0 50 51" fill="none" xmlns="http://www.w3.org/2000/svg">
<path d="M1.00098 0.5H49.001L43.7407 7.5" stroke="#FF3C38"/>
<path d="M33.6571 11.8686C33.3509 12.0123 28.9134 16.4498 28.8196 16.7061C28.7759 16.8123 28.7509 17.5123 28.7446 18.4561V20.0311L27.3571 21.4498L25.9696 22.8686L25.5321 22.7186C24.9071 22.4998 24.0134 22.4998 23.3259 22.7186C20.8446 23.4998 20.0571 26.7248 21.8946 28.5873C22.6009 29.3061 23.4259 29.6436 24.4384 29.6436C25.4509 29.6436 26.2259 29.3311 26.9446 28.6248C27.9134 27.6748 28.2571 26.1686 27.8009 24.9248L27.6446 24.5123L29.0571 23.0998L30.4696 21.6873H32.0696H33.6634L33.9446 21.5061C34.3821 21.2248 38.4759 17.0748 38.5946 16.7998C38.7509 16.4248 38.7196 16.0061 38.5071 15.6811C38.2384 15.2498 38.0384 15.1873 36.7259 15.0873C36.1009 15.0373 35.5634 14.9873 35.5259 14.9748C35.4884 14.9623 35.4321 14.4936 35.3821 13.8061C35.2946 12.4873 35.2134 12.2248 34.8009 11.9561C34.4759 11.7373 34.0009 11.6998 33.6571 11.8686Z" fill="#FF3C38"/>
<path d="M23.2635 13.0062C19.3448 13.3312 15.6198 15.5749 13.426 18.9374C10.9323 22.7562 10.6198 27.6937 12.6135 31.8187C13.576 33.8124 15.0885 35.5812 16.9385 36.8874C19.6135 38.7749 23.0948 39.5812 26.4073 39.0937C32.1948 38.2312 36.6885 33.6437 37.4698 27.7874C37.601 26.7999 37.5698 24.7937 37.4135 23.9062C37.301 23.2874 36.9635 22.0187 36.876 21.8749C36.8323 21.8062 36.6448 21.9562 36.0198 22.5687C34.7885 23.7812 34.376 23.9374 32.426 23.9374C31.6635 23.9374 31.3135 23.9562 31.3135 24.0062C31.3135 24.0437 31.3698 24.3624 31.4448 24.7062C31.626 25.6062 31.5885 27.0062 31.3573 27.8937C30.426 31.4249 26.8698 33.7624 23.3385 33.1562C20.8135 32.7249 18.6948 31.0249 17.8073 28.7249C17.4073 27.6874 17.3573 27.3874 17.351 26.1249C17.3448 25.1187 17.3635 24.8999 17.4885 24.4437C17.8198 23.1874 18.3948 22.1374 19.2448 21.2374C19.926 20.5187 20.4385 20.1374 21.2823 19.7187C22.126 19.2999 22.8573 19.0874 23.7885 18.9874C24.5448 18.9124 25.4323 18.9687 26.1073 19.1499C26.2823 19.1999 26.4448 19.2187 26.4635 19.1999C26.4823 19.1812 26.501 18.6562 26.501 18.0374C26.501 16.0999 26.676 15.6499 27.8635 14.4249L28.6385 13.6312L28.2073 13.4999C27.176 13.1812 25.401 12.9249 24.3448 12.9437C24.1073 12.9499 23.6198 12.9812 23.2635 13.0062Z" fill="#FF3C38"/>
<path d="M49.001 50.5H1.00098L6.26125 43.5" stroke="#FF3C38"/>
</svg>
