<svg width="50" height="51" viewBox="0 0 50 51" fill="none" xmlns="http://www.w3.org/2000/svg">
<path d="M1.00098 0.5H49.001L43.7407 7.5" stroke="#FF3C38"/>
<g clip-path="url(#clip0_3546_21017)">
<path d="M24.1761 9.59364C20.9448 10.0374 18.0886 11.3749 15.8636 13.4999C15.4136 13.9311 15.2948 14.0811 15.2511 14.2811C15.0886 15.0124 15.6698 15.6124 16.4011 15.4749C16.5511 15.4436 16.7761 15.2874 17.1386 14.9561C18.6198 13.6061 20.1573 12.6936 21.9698 12.0874C23.3823 11.6186 24.5323 11.4374 26.0948 11.4374C29.2198 11.4374 32.0511 12.4874 34.5011 14.5499C34.8261 14.8249 35.1761 15.1374 35.2761 15.2436L35.4636 15.4374H34.4323C33.5573 15.4374 33.3698 15.4561 33.1448 15.5624C32.4698 15.8624 32.4323 16.8561 33.0761 17.2499C33.2761 17.3749 33.3761 17.3749 35.6073 17.3624C37.8573 17.3436 37.9323 17.3374 38.1073 17.2124C38.2011 17.1374 38.3386 16.9874 38.4073 16.8686C38.5261 16.6686 38.5323 16.5436 38.5323 14.4061C38.5323 12.2624 38.5261 12.1436 38.4073 11.9374C38.2698 11.6999 37.8261 11.4374 37.5636 11.4374C37.2948 11.4436 36.8886 11.6686 36.7511 11.8874C36.6448 12.0686 36.6261 12.1999 36.6261 12.9624V13.8249L36.1886 13.4311C33.8198 11.2936 31.0698 10.0124 27.9386 9.59364C27.0636 9.48114 25.0386 9.47489 24.1761 9.59364Z" fill="#FF3C38"/>
<path d="M25.151 16.0626C21.3322 16.4626 18.3135 19.3439 17.651 23.2376C17.526 23.9689 17.5635 25.5939 17.7197 26.3126C18.8447 31.4126 24.0635 34.3626 28.876 32.6126C29.451 32.4064 30.426 31.8751 30.9635 31.4814C32.4135 30.4064 33.6072 28.7064 34.0947 27.0314C34.6135 25.2251 34.5572 23.1876 33.9385 21.5689C33.0197 19.1751 31.0885 17.2814 28.751 16.4813C27.701 16.1189 26.2322 15.9501 25.151 16.0626ZM26.3385 19.9001C26.451 19.9501 26.626 20.0939 26.726 20.2251L26.9072 20.4564L26.926 22.0376L26.951 23.6189L28.501 23.6376C29.9697 23.6564 30.0635 23.6626 30.2322 23.7876C30.4885 23.9814 30.6385 24.2814 30.6385 24.5751C30.6322 24.8689 30.4947 25.0876 30.1885 25.2939C29.9822 25.4376 29.9572 25.4376 27.8822 25.4376C25.8947 25.4376 25.7697 25.4314 25.576 25.3126C25.4635 25.2439 25.3197 25.1001 25.251 24.9876C25.1322 24.7939 25.126 24.6689 25.126 22.6189C25.126 20.4814 25.126 20.4564 25.2697 20.2501C25.4197 20.0189 25.7635 19.8126 25.9885 19.8126C26.0635 19.8126 26.226 19.8501 26.3385 19.9001Z" fill="#FF3C38"/>
<path d="M12.8447 17.6812C12.6385 17.7812 11.751 18.2812 10.876 18.7937C9.09473 19.8312 9.00098 19.9125 9.00098 20.4688C9.00098 20.8562 9.16973 21.1437 9.50098 21.325C9.86348 21.525 10.1822 21.4562 10.9385 21.0187C11.301 20.8062 11.601 20.6437 11.6072 20.65C11.6135 20.6562 11.5635 20.9062 11.501 21.2125C11.151 22.7937 11.0572 25.025 11.2697 26.5687C11.5385 28.5 12.1447 30.3625 13.0135 31.9062C14.426 34.4062 16.4697 36.4188 18.976 37.7875C20.1135 38.4062 21.901 39.0625 22.451 39.0625C22.9822 39.0625 23.3072 38.7812 23.4072 38.2375C23.4572 37.9625 23.2697 37.4937 23.051 37.3562C22.976 37.3 22.526 37.1313 22.0635 36.9813C20.1072 36.3375 18.5385 35.3937 17.0697 33.9688C14.7385 31.7 13.4635 29.0312 13.1197 25.6875C12.9947 24.425 13.151 22.5375 13.4885 21.2188L13.601 20.7875L14.1322 21.7188C14.7385 22.7937 14.8885 22.9375 15.401 22.9375C16.0135 22.9375 16.451 22.4187 16.351 21.8062C16.3072 21.525 14.3635 18.0938 14.076 17.7937C13.9197 17.6313 13.601 17.5 13.3447 17.5C13.276 17.5 13.051 17.5812 12.8447 17.6812Z" fill="#FF3C38"/>
<path d="M39.2885 19.875C39.076 19.9438 38.8322 20.1562 38.7135 20.3875C38.5947 20.6187 38.601 20.8937 38.751 21.5187C38.9697 22.425 39.0635 23.3 39.0635 24.4062C39.0635 26.0437 38.8822 27.2125 38.401 28.6812C37.3322 31.9375 35.0635 34.5875 31.9947 36.1562C31.2635 36.5312 30.3197 36.9062 29.5885 37.1125L29.1447 37.2375L29.6635 36.325C30.126 35.525 30.1885 35.375 30.1885 35.1125C30.1885 34.5125 29.8385 34.1625 29.251 34.1562C28.6822 34.1562 28.6135 34.2312 27.3947 36.3562C26.4072 38.0687 26.3135 38.2562 26.3135 38.525C26.3135 39.0125 26.4885 39.2437 27.151 39.6313C30.0385 41.3187 30.3822 41.5 30.7135 41.5C31.1385 41.5 31.4072 41.3312 31.576 40.9563C31.726 40.6125 31.6947 40.2563 31.476 39.9688C31.3947 39.8687 31.0322 39.6125 30.6697 39.4062L30.0072 39.0312L30.676 38.8062C33.1197 37.975 34.951 36.8562 36.6635 35.1437C38.876 32.925 40.2447 30.25 40.8197 27.0188C40.9885 26.0687 41.0572 23.8062 40.9385 22.8188C40.8572 22.0938 40.6697 21.0812 40.5322 20.5938C40.4322 20.2375 40.201 19.9937 39.8822 19.8813C39.6385 19.8 39.5447 19.8 39.2885 19.875Z" fill="#FF3C38"/>
</g>
<path d="M49.001 50.5H1.00098L6.26125 43.5" stroke="#FF3C38"/>
<defs>
<clipPath id="clip0_3546_21017">
<rect width="32" height="32" fill="white" transform="translate(9.00098 9.5)"/>
</clipPath>
</defs>
</svg>
