<svg width="50" height="51" viewBox="0 0 50 51" fill="none" xmlns="http://www.w3.org/2000/svg">
<path d="M1.00098 0.5H49.001L43.7407 7.5" stroke="#FF3C38"/>
<path d="M19.176 10.5811C18.551 10.8186 18.1385 11.1811 17.826 11.7686C17.6697 12.0686 17.6572 12.1498 17.6572 12.7811C17.6572 13.4436 17.6635 13.4811 17.8697 13.8623C18.4572 14.9498 19.7635 15.3873 20.9072 14.8811C21.3322 14.6936 21.8322 14.1873 22.0385 13.7311C22.1947 13.3998 22.2197 13.2686 22.2197 12.7811C22.2197 12.2998 22.1947 12.1686 22.051 11.8623C21.8322 11.3873 21.3822 10.9186 20.951 10.7061C20.6572 10.5623 20.501 10.5311 20.001 10.5186C19.6135 10.5061 19.326 10.5248 19.176 10.5811Z" fill="#FF3C38"/>
<path d="M18.4821 15.8373C17.9696 16.0248 17.6196 16.3748 17.4508 16.8685C17.4008 17.006 17.3571 18.2185 17.3133 20.431L17.2508 23.781L16.1133 27.4373C14.8883 31.3748 14.8633 31.4998 15.0821 32.0748C15.2321 32.456 15.7008 32.8873 16.0946 32.9998C16.5133 33.1185 17.1196 33.0498 17.4633 32.8498C17.9821 32.5498 18.0258 32.4498 19.0571 29.1123C19.5883 27.4185 20.0258 26.0248 20.0321 26.0123C20.0571 25.9873 22.2446 26.4748 22.2883 26.5185C22.3071 26.5373 22.4633 27.1185 22.6258 27.8123C23.0071 29.3873 23.0196 29.4248 23.2883 29.7435C23.7196 30.2435 24.3508 30.4185 25.0258 30.2248C25.6821 30.031 26.1883 29.3498 26.1883 28.6623C26.1883 28.381 25.2633 24.5748 25.1258 24.3123C24.9883 24.0435 24.6258 23.706 24.3446 23.5935C24.2383 23.5435 23.4071 23.3498 22.5008 23.156C21.5883 22.9623 20.7821 22.7935 20.7071 22.7685C20.5696 22.7373 20.5633 22.7123 20.5696 22.006C20.5758 21.606 20.5946 20.956 20.6196 20.5498L20.6571 19.8248L22.2133 20.4498C23.6071 21.006 23.8196 21.0748 24.1696 21.0748C25.1571 21.081 25.8883 20.2873 25.7946 19.3123C25.7821 19.1185 25.7071 18.8498 25.6383 18.7123C25.3633 18.1748 25.2196 18.0998 22.2446 16.9123C19.2633 15.7123 19.0071 15.6435 18.4821 15.8373Z" fill="#FF3C38"/>
<path d="M30.0385 28.3187L29.876 28.4437V34.3375C29.876 40.175 29.876 40.225 30.001 40.3625L30.1322 40.5H33.2197H36.3072L36.4322 40.3312C36.5635 40.1687 36.5635 40.1687 36.551 34.3L36.5322 28.425L36.3822 28.3062C36.2447 28.1937 36.0947 28.1875 33.2197 28.1875C30.2635 28.1875 30.201 28.1875 30.0385 28.3187Z" fill="#FF3C38"/>
<path d="M21.8572 31.2624C21.801 31.3062 21.726 31.4249 21.6885 31.5187C21.651 31.6374 21.626 33.1249 21.626 35.8812C21.626 40.3124 21.626 40.3562 21.9072 40.4624C22.0822 40.5249 28.001 40.5062 28.126 40.4374C28.3635 40.3124 28.376 40.1124 28.376 35.8437C28.376 31.5749 28.3635 31.3749 28.126 31.2499C27.9385 31.1499 21.9885 31.1687 21.8572 31.2624Z" fill="#FF3C38"/>
<path d="M13.5947 34.3438L13.4385 34.4938V37.3312C13.4385 40.1062 13.4385 40.175 13.5697 40.3375L13.6947 40.5H16.7822H19.8697L20.001 40.3625C20.126 40.2312 20.126 40.1562 20.126 37.3438V34.4562L19.9822 34.325C19.8385 34.1875 19.8322 34.1875 16.7885 34.1875H13.7447L13.5947 34.3438Z" fill="#FF3C38"/>
<path d="M49.001 50.5H1.00098L6.26125 43.5" stroke="#FF3C38"/>
</svg>
