<svg width="50" height="51" viewBox="0 0 50 51" fill="none" xmlns="http://www.w3.org/2000/svg">
<path d="M1.00098 0.5H49.001L43.7407 7.5" stroke="#FF3C38"/>
<path d="M24.1574 13.8125C22.4449 13.9375 20.7449 14.4688 19.3199 15.325C17.6387 16.3312 16.2199 17.7812 15.2699 19.45C14.9324 20.0562 14.4074 21.2688 14.3387 21.6187C14.3012 21.7875 14.2824 21.8 13.9137 21.825C12.8824 21.8875 11.7199 22.8625 11.2574 24.0625C10.9574 24.8313 10.8574 25.425 10.8574 26.4062C10.8574 27.6687 11.1449 28.7937 11.6949 29.725C12.0324 30.3 12.7199 30.9625 13.2262 31.2C13.6137 31.3875 13.7137 31.4062 14.2199 31.4C14.6074 31.4 14.9387 31.3562 15.2824 31.2562C16.1699 31.0062 16.4074 30.7625 16.3949 30.0938C16.3949 29.8875 16.2199 28.5813 16.0012 27.1875C15.7887 25.7937 15.6199 24.475 15.6199 24.2562C15.6199 24.0375 15.6637 23.6125 15.7199 23.3187C16.4387 19.4062 19.4324 16.4125 23.3762 15.65C24.2637 15.4812 25.8762 15.4937 26.7512 15.6812C28.8887 16.1313 30.5574 17.0812 31.9887 18.6562C33.3012 20.1 34.1574 21.9875 34.3637 23.9062C34.4137 24.35 34.3887 24.6187 34.1262 26.3438L33.8324 28.2812L33.5199 28.9375C32.2074 31.6813 29.7762 33.5812 26.8074 34.1875C26.3074 34.2875 25.9512 34.3125 24.8012 34.3125C23.9762 34.3125 23.3074 34.3438 23.1574 34.3812C22.8387 34.4688 22.4699 34.8375 22.3824 35.1562C22.2949 35.4688 22.2949 36.0812 22.3762 36.3875C22.4574 36.6687 22.6949 36.9688 22.9637 37.1125C23.1324 37.2062 23.3762 37.2188 25.0012 37.2188C26.6262 37.2188 26.8699 37.2062 27.0387 37.1125C27.4324 36.9 27.6887 36.45 27.6887 35.9688C27.6887 35.7875 27.7074 35.775 28.2012 35.6375C29.3887 35.3062 30.8262 34.5687 31.8824 33.7375C32.5137 33.2437 33.4699 32.2687 33.9574 31.6188L34.3199 31.1375L34.9262 31.2937C35.7137 31.4938 36.1949 31.4688 36.7762 31.2C38.0137 30.6188 38.9262 29.0188 39.1324 27.0562C39.3449 25.0375 38.6137 23.0562 37.3574 22.2437C36.9887 22.0062 36.3449 21.8125 35.9137 21.8125C35.7199 21.8125 35.6949 21.7937 35.6574 21.6125C35.5824 21.2937 35.0887 20.0938 34.8324 19.6375C33.7824 17.7312 32.2074 16.15 30.3137 15.1062C28.5699 14.15 26.2637 13.6625 24.1574 13.8125Z" fill="#FF3C38"/>
<path d="M24.3633 17.2562C21.5633 17.4437 19.0383 19.2125 17.932 21.7625C17.0633 23.7625 17.057 26.1125 17.9258 28.1062C18.1883 28.7187 18.8633 29.7875 19.1758 30.0812L19.357 30.2562L19.1133 31.3312C18.8383 32.525 18.832 32.85 19.0695 33.1C19.3383 33.3812 19.5758 33.3187 20.7883 32.65L21.8695 32.0562L22.4195 32.2437C24.7508 33.0375 27.3383 32.7062 29.357 31.3562C31.0195 30.2437 32.1508 28.5625 32.5695 26.5562C32.7383 25.7312 32.757 24.3687 32.607 23.5312C32.1758 21.1437 30.7195 19.1687 28.5883 18.0812C27.2883 17.4125 25.9508 17.1562 24.3633 17.2562ZM21.4633 23.5875C21.8758 23.7125 22.1508 23.9437 22.3383 24.325C22.5445 24.7375 22.5508 25.1125 22.3508 25.5437C22.0133 26.2687 21.1633 26.5562 20.4508 26.1937C19.3258 25.6125 19.4758 23.975 20.6883 23.5937C21.0508 23.4812 21.1133 23.4812 21.4633 23.5875ZM25.5945 23.6687C26.2758 24.0125 26.6008 24.8687 26.2883 25.5062C26.057 25.9937 25.4883 26.375 25.0008 26.375C24.4258 26.375 23.8195 25.9 23.6508 25.3312C23.3195 24.1812 24.5383 23.1437 25.5945 23.6687ZM29.2883 23.5937C30.5195 23.9625 30.6883 25.6062 29.5508 26.1937C28.8383 26.5562 27.9883 26.2687 27.6508 25.5437C27.4508 25.1125 27.457 24.7375 27.6633 24.325C27.8508 23.95 28.1258 23.7125 28.5133 23.5937C28.8633 23.4812 28.9195 23.4812 29.2883 23.5937Z" fill="#FF3C38"/>
<path d="M49.001 50.5H1.00098L6.26125 43.5" stroke="#FF3C38"/>
</svg>
