<svg width="72" height="118" viewBox="0 0 72 118" fill="none" xmlns="http://www.w3.org/2000/svg">
<path fill-rule="evenodd" clip-rule="evenodd" d="M32.1702 113.572C32.1702 113.572 57.5515 105.414 67.3741 85.0076C77.1967 64.6016 67.7412 39.6749 67.7412 39.6749C67.7412 39.6749 67.6104 39.7167 67.3642 39.8023C67.4681 39.7659 67.5508 39.7358 67.612 39.7138C67.6956 39.6834 67.7383 39.6668 67.7383 39.6668C67.7383 39.6668 59.5806 14.2857 39.1746 4.46278C18.7684 -5.35976 -6.15831 4.09582 -6.15831 4.09582C-6.15831 4.09582 1.99962 29.4771 22.4056 39.2995C41.0571 48.2781 63.4856 41.1506 67.2043 39.8583C63.4918 41.1683 41.5155 49.5873 32.5375 68.2387C22.7148 88.6447 32.1702 113.572 32.1702 113.572ZM-41.3702 32.6623C-31.5475 12.2563 -6.16641 4.09866 -6.16641 4.09866C-6.16641 4.09866 3.28911 29.0257 -6.53365 49.4314C-15.5115 68.0833 -37.4878 76.5024 -41.2007 77.812C-37.4816 76.5201 -15.0531 69.3926 3.59825 78.3706C24.0043 88.1933 32.1621 113.574 32.1621 113.574C32.1621 113.574 7.23554 123.03 -13.1707 113.207C-33.5767 103.384 -41.7345 78.0034 -41.7345 78.0034C-41.7345 78.0034 -41.606 77.9544 -41.3604 77.8679C-41.6064 77.9534 -41.7374 77.9953 -41.7374 77.9953C-41.7374 77.9953 -51.1928 53.0685 -41.3702 32.6623Z" fill="#9946FF"/>
</svg>
