<svg width="88" height="116" viewBox="0 0 88 116" fill="none" xmlns="http://www.w3.org/2000/svg">
<path fill-rule="evenodd" clip-rule="evenodd" d="M115.996 57.9957C115.996 57.9957 116.684 31.3447 100.669 15.3306C84.6553 -0.683267 58.0043 0.00429989 58.0043 0.00429989C58.0043 0.00429989 58.0005 0.141567 58 0.402245C58 0.292152 57.9989 0.204078 57.9984 0.139043C57.9973 0.0501093 57.9957 0.00429989 57.9957 0.00429989C57.9957 0.00429989 31.3447 -0.683267 15.3306 15.3306C-0.683267 31.3447 0.00429989 57.9957 0.00429989 57.9957C0.00429989 57.9957 26.6556 58.6831 42.6692 42.6692C57.3067 28.0323 57.9909 4.50848 58 0.571626C58.0097 4.50848 58.6938 28.0323 73.3308 42.6692C89.3447 58.6831 115.996 57.9957 115.996 57.9957ZM15.3306 100.669C-0.683267 84.6553 0.00429989 58.0043 0.00429989 58.0043C0.00429989 58.0043 26.6556 57.3169 42.6692 73.3308C57.3067 87.9677 57.9909 111.492 58 115.429C58.0097 111.492 58.6938 87.9677 73.3308 73.3308C89.3447 57.3169 115.996 58.0043 115.996 58.0043C115.996 58.0043 116.684 84.6553 100.669 100.669C84.6553 116.683 58.0043 115.996 58.0043 115.996C58.0043 115.996 58.0005 115.858 58 115.598C57.9995 115.858 57.9957 115.996 57.9957 115.996C57.9957 115.996 31.3447 116.683 15.3306 100.669Z" fill="#9946FF"/>
</svg>
