<svg width="33" height="33" viewBox="0 0 33 33" fill="none" xmlns="http://www.w3.org/2000/svg">
<g clip-path="url(#clip0_3557_71411)">
<path d="M15.6041 1.62674C15.5356 3.16317 15.446 3.57394 14.9643 4.52068C14.6064 5.21985 14.0256 5.81452 13.4004 6.12698C11.828 6.91419 10.8304 8.02556 10.382 9.49182C10.2615 9.88322 10.2314 10.1389 10.2183 10.7888C10.1986 11.7636 10.3018 12.2283 10.7572 13.2064C11.1583 14.0834 11.1501 14.4896 10.7111 14.8683C10.2274 15.2961 9.50017 15.4002 8.9557 15.1205C8.28139 14.7693 7.81259 14.1472 7.2148 12.7911C7.01754 12.3433 6.83139 11.9645 6.80027 11.9576C6.72579 11.9311 5.55622 13.8204 5.17179 14.5941C4.37682 16.1971 3.97425 17.8706 3.93595 19.7702C3.86931 23.0758 5.07569 26.182 7.35347 28.5471C9.05559 30.3193 11.1139 31.4798 13.5778 32.0546C14.5112 32.2672 16.5341 32.3892 17.4676 32.2893C21.1579 31.8761 24.3085 30.0205 26.388 27.0243C28.8345 23.5041 29.2602 18.8243 27.4817 14.9501C26.859 13.5873 26.1855 12.5735 25.2245 11.5602C24.6125 10.9102 23.2606 9.75148 23.1968 9.81271C23.1712 9.84345 23.0468 10.1222 22.9153 10.4447C22.4156 11.6661 21.8371 12.4546 21.2313 12.7362C20.6761 12.9875 20.0555 12.7625 19.8039 12.2198C19.7322 12.0558 19.6937 11.7925 19.6834 11.3734C19.6669 10.6417 19.7841 10.1002 20.1859 9.08311C20.588 8.05351 20.6497 7.78595 20.6668 6.93612C20.6771 6.11741 20.6101 5.71598 20.301 4.92834C19.9023 3.92635 18.9582 2.69457 17.9008 1.81057C17.4767 1.45195 15.9659 0.421286 15.7304 0.322768C15.6745 0.302886 15.6433 0.608572 15.6041 1.62674ZM18.1061 4.9591C18.5974 5.70665 18.8186 6.51753 18.7237 7.197C18.7008 7.40283 18.5471 7.89359 18.3825 8.30285C17.9346 9.4378 17.8183 9.93556 17.7599 10.9721C17.7015 12.0086 17.7732 12.4789 18.0731 13.1101C18.4273 13.8361 18.9737 14.3285 19.7495 14.6067C21.0778 15.0773 22.5191 14.5938 23.507 13.3447C23.6673 13.1416 23.8145 12.9758 23.8395 12.9763C23.8583 12.9704 24.0298 13.1489 24.2129 13.3652C25.3422 14.7132 26.1273 16.3919 26.4782 18.2118C26.6539 19.1093 26.6323 21.1093 26.432 22.0554C25.9607 24.3464 24.7442 26.391 22.925 27.9484C22.5242 28.2904 21.4651 29.0442 21.3712 29.0486C21.3525 29.0482 21.4196 28.8182 21.5191 28.5327C21.7838 27.8066 21.8709 27.2083 21.8497 26.4014C21.8219 25.6069 21.6733 24.9163 21.4093 24.3671C21.3074 24.1525 20.9143 23.4945 20.5385 22.9118C20.1565 22.3227 19.745 21.6518 19.6245 21.4243C19.1427 20.5207 18.8372 19.2392 18.7533 17.8185C18.7355 17.4618 18.6962 17.2422 18.6524 17.2414C18.5274 17.2388 17.4188 17.6541 16.9897 17.858C15.7018 18.4821 14.5484 19.5716 13.9242 20.7655C13.7226 21.149 13.4918 21.7445 13.3505 22.2417C13.3372 22.2852 13.0634 22.2235 12.5105 22.0498C12.0571 21.9031 11.6842 21.7956 11.6715 21.8078C11.6588 21.8138 11.5476 22.0616 11.4168 22.3465C10.7824 23.734 10.4723 24.853 10.392 26.0454C10.3356 26.9819 10.3929 27.552 10.6339 28.3132C10.7218 28.6026 10.7796 28.835 10.7609 28.8346C10.6673 28.8265 9.63935 28.0306 9.25273 27.6727C7.84148 26.3565 6.86005 24.8052 6.31457 23.0251C5.95134 21.8175 5.87596 21.2159 5.91206 19.735C5.94117 18.2916 6.04674 17.7061 6.48398 16.4834L6.72254 15.8131L7.01681 16.1003C7.43378 16.5026 7.99524 16.8702 8.47924 17.0487C9.03159 17.2474 10.0311 17.2801 10.5533 17.1156C11.5537 16.7982 12.2967 16.2193 12.6935 15.4521C12.9018 15.0437 12.9356 14.9194 12.9705 14.4262C13.0229 13.6897 12.9428 13.3192 12.5423 12.411C12.351 11.9758 12.1916 11.51 12.1527 11.2716C11.9765 10.0866 12.7102 8.73235 13.8796 8.09329C14.815 7.58704 14.9734 7.48396 15.3552 7.14784C15.8643 6.70176 16.2617 6.21592 16.6052 5.61023C16.8581 5.15898 17.2529 4.17924 17.2571 3.97303C17.2661 3.83569 17.7243 4.36378 18.1061 4.9591ZM17.1926 20.5063C17.4346 21.5239 17.8792 22.4143 19.0251 24.1815C19.8255 25.4104 19.9023 25.6308 19.8888 26.6119C19.8823 27.2432 19.8535 27.4301 19.7206 27.8213C19.3824 28.7834 18.6217 29.6183 17.7005 30.0373C17.0885 30.3187 16.6994 30.3922 15.9808 30.3777C14.1749 30.3413 12.6275 28.9598 12.3452 27.1475C12.2571 26.5581 12.339 25.597 12.5479 24.8448C12.6422 24.5092 12.7356 24.2173 12.7485 24.1988C12.7675 24.1866 13.2647 24.3279 13.8611 24.515C14.4574 24.7021 14.9732 24.8562 15.0107 24.857C15.0419 24.8576 15.094 24.4461 15.1243 23.8716C15.1871 22.6163 15.3939 21.9704 15.9857 21.1446C16.1723 20.8796 16.976 20.0831 17.051 20.0847C17.076 20.0852 17.1347 20.2739 17.1926 20.5063Z" fill="white"/>
</g>
<defs>
<clipPath id="clip0_3557_71411">
<rect width="32" height="32" fill="white" transform="translate(0.645057) rotate(1.15505)"/>
</clipPath>
</defs>
</svg>
