<svg width="48" height="48" viewBox="0 0 48 48" fill="none" xmlns="http://www.w3.org/2000/svg">
<g clip-path="url(#clip0_3787_20604)">
<path d="M35.5594 0.140642C30.6281 1.03127 27 5.39064 27 10.4063C27 13.0219 28.5844 16.4344 31.95 21.0563C33.825 23.6438 36.3094 26.6344 36.7594 26.8688C37.0969 27.0375 37.9031 27.0375 38.2406 26.8688C38.6906 26.6344 41.175 23.6438 43.05 21.0563C46.4156 16.4344 48 13.0219 48 10.4063C48 5.36252 44.3438 1.00314 39.3844 0.140642C38.4375 -0.0281086 36.4875 -0.0281086 35.5594 0.140642ZM38.7281 6.24377C40.1156 6.64689 41.3438 7.88439 41.7563 9.27189C41.8406 9.55314 41.9063 10.1063 41.9063 10.5C41.9063 12.0844 41.1 13.4813 39.7031 14.325C38.4 15.1125 36.6 15.1125 35.2969 14.325C33.9 13.4813 33.0938 12.0844 33.0938 10.5C33.0938 8.93439 33.8813 7.54689 35.25 6.69377C36.1875 6.11252 37.6406 5.92502 38.7281 6.24377Z" fill="#9946FF"/>
<path d="M7.71592 14.85C3.84404 16.4063 0.581541 17.7656 0.469041 17.8594C-0.0278341 18.3094 0.000290865 17.4844 0.000290865 32.7844V47.0157L0.234666 47.3719C0.365916 47.5594 0.600291 47.7844 0.750291 47.8594C1.40654 48.1969 1.50967 48.1688 8.43779 45.3938L14.9534 42.7875L14.9815 27.3938C15.0003 15.1031 14.9815 12 14.8878 12.0094C14.8222 12.0094 11.5972 13.2938 7.71592 14.85Z" fill="#EDDDFF"/>
<path d="M18.019 27.3938L18.0471 42.7875L23.8596 45.1125C27.0565 46.3969 29.7471 47.4656 29.8409 47.4938C29.9909 47.5406 30.0002 46.9219 30.0002 35.4281V23.3156L29.3534 22.4156C28.6034 21.3563 27.4784 19.6313 26.9346 18.7031C26.4565 17.8781 25.3971 15.75 25.1815 15.1781L25.0221 14.7469L21.5815 13.3781C19.6877 12.6188 18.1127 12 18.0659 12C18.0284 12 18.0096 18.9281 18.019 27.3938Z" fill="#EDDDFF"/>
<path d="M47.1281 20.2125C45.6 22.6219 42.7312 26.3625 40.9781 28.2375C39.8344 29.4562 38.8969 29.9062 37.5 29.9062C36.0469 29.9062 35.175 29.4656 33.8906 28.0969L33 27.1406V37.5656C33 43.3031 33.0281 48 33.075 48C33.3 48 47.3156 42.3094 47.5312 42.1312C47.6719 42.0094 47.8406 41.7937 47.8969 41.6531C47.9719 41.4562 48 38.4 47.9812 30.15L47.9531 18.9094L47.1281 20.2125Z" fill="#EDDDFF"/>
</g>
<defs>
<clipPath id="clip0_3787_20604">
<rect width="48" height="48" fill="white"/>
</clipPath>
</defs>
</svg>
