<svg width="48" height="48" viewBox="0 0 48 48" fill="none" xmlns="http://www.w3.org/2000/svg">
<path d="M22.1248 4.8375C21.9935 4.85625 21.5716 4.92188 21.1873 4.97813C18.9466 5.29688 16.256 6.30938 14.2966 7.575C11.5591 9.3375 9.22476 11.9344 7.82788 14.775L7.46226 15.5438L6.87163 15.5906C4.43413 15.825 2.37163 17.2688 1.34976 19.4719C0.777882 20.6906 0.731007 21.0563 0.768507 24.4125L0.796632 27.4219L1.05913 28.1719C1.82788 30.3469 3.68413 32.0531 5.84976 32.5781C7.15288 32.8969 9.10288 32.7281 10.1248 32.2219C10.5935 31.9875 10.9685 31.3969 10.9685 30.9C10.9685 30.75 10.7248 30.0938 10.4154 29.4469C9.19663 26.8406 8.72788 24.4406 8.91538 21.7781C9.16851 18.0281 10.631 14.85 13.3498 12.1313C15.1029 10.3781 16.8466 9.28125 19.106 8.49375C20.6716 7.95 21.6841 7.77188 23.531 7.71563C26.2685 7.63125 28.2841 8.0625 30.7029 9.25313C33.6185 10.6969 36.2435 13.3406 37.6404 16.2563C39.3091 19.7438 39.581 23.8031 38.381 27.5531C38.0341 28.6313 36.9279 30.7875 36.2341 31.7156C34.1998 34.4531 31.2841 36.4875 28.1716 37.3406C26.7748 37.7344 26.8966 37.7438 26.5498 37.1625C25.781 35.9063 24.1404 35.1656 22.6498 35.4188C21.3091 35.6344 20.306 36.375 19.7154 37.575C19.3685 38.2688 19.3591 38.3156 19.3591 39.3281C19.3591 40.3031 19.3779 40.3969 19.6685 40.9969C20.0623 41.7938 20.7279 42.4594 21.5341 42.8625C22.1435 43.1625 22.2091 43.1719 23.2498 43.1719C24.2716 43.1719 24.356 43.1531 24.9466 42.8719C25.6591 42.5156 26.3904 41.7938 26.756 41.0813C26.9904 40.6219 27.0185 40.6031 27.5341 40.5C31.1248 39.7875 34.5279 37.9125 37.0404 35.2688C37.7341 34.5469 38.831 33.1969 39.0654 32.775C39.1216 32.6625 39.2716 32.6531 39.8435 32.7188C40.6966 32.8125 41.8404 32.7 42.656 32.4281C44.4279 31.8563 46.0216 30.3844 46.7623 28.6219C47.1935 27.6 47.2498 27.1219 47.2498 24.1406C47.2498 20.9531 47.1935 20.5969 46.5935 19.3594C45.5435 17.2031 43.5373 15.8156 41.1091 15.5906L40.5185 15.5344L40.3216 15.075C39.7498 13.7063 38.1654 11.4563 36.806 10.0875C35.2779 8.55 33.7404 7.47188 31.7435 6.51563C29.9154 5.63438 28.1716 5.12813 26.156 4.875C25.4248 4.79063 22.6591 4.7625 22.1248 4.8375Z" fill="#EDDDFF"/>
<path d="M22.2746 11.0625C17.8403 11.7656 14.1746 14.8594 12.759 19.0875C11.4934 22.8563 12.3465 27.375 14.8778 30.3469L15.2903 30.8438L14.6809 33.1313C14.0621 35.4094 13.9871 35.8875 14.1465 36.3C14.3809 36.9188 15.2153 37.3219 15.8434 37.1344C16.0309 37.0781 17.2496 36.4125 18.5621 35.6625L20.9434 34.2844L21.8903 34.4438C23.0809 34.6406 24.909 34.6406 26.0621 34.4438C28.4996 34.0219 30.5434 32.9531 32.3528 31.1344C34.6496 28.8375 35.8121 26.0531 35.8121 22.8375C35.8121 20.7938 35.409 19.125 34.4996 17.3531C32.9621 14.3719 30.1965 12.1688 26.934 11.3344C25.9778 11.0813 25.6309 11.0438 24.3278 11.0156C23.5028 10.9969 22.584 11.0156 22.2746 11.0625ZM20.0903 21.7125C20.4465 21.9844 20.6246 22.3406 20.6246 22.8094C20.6246 23.3719 20.3246 23.8031 19.7528 24.0375C19.3121 24.225 19.3121 24.225 18.8715 24.0375C18.2996 23.8031 17.9996 23.3719 17.9996 22.8C17.9996 22.2938 18.2809 21.825 18.7028 21.6094C19.0684 21.4219 19.7715 21.4781 20.0903 21.7125ZM24.6184 21.6188C25.0403 21.825 25.3121 22.275 25.3121 22.8C25.3121 23.3719 25.0121 23.8031 24.4403 24.0375C23.9996 24.225 23.9996 24.225 23.559 24.0375C22.9871 23.8031 22.6871 23.3719 22.6871 22.8C22.6871 21.7875 23.6809 21.1781 24.6184 21.6188ZM29.4653 21.7125C29.8215 21.9844 29.9996 22.3406 29.9996 22.8094C29.9996 23.3719 29.6996 23.8031 29.1278 24.0375C28.6871 24.225 28.6871 24.225 28.2465 24.0375C27.6746 23.8031 27.3746 23.3719 27.3746 22.8C27.3746 22.2844 27.6371 21.8344 28.059 21.6188C28.4434 21.4219 29.1371 21.4688 29.4653 21.7125Z" fill="#9946FF"/>
</svg>
