<svg width="81" height="84" viewBox="0 0 81 84" fill="none" xmlns="http://www.w3.org/2000/svg">
<path d="M-1.07236 69.0291C-5.40636 69.0291 -9.12936 68.5243 -9.97636 67.2216C-11.6184 64.6995 -10.8964 36.1538 -8.97336 27.553C-7.72936 21.9906 -3.55836 17.9672 0.956636 17.9672C0.972637 17.9672 0.987637 17.9672 1.00364 17.9672C5.28464 17.9946 8.56664 21.4839 9.78164 27.3006C12.1266 38.5228 13.3816 55.0125 13.4336 55.7092C13.5116 56.751 12.6816 57.6557 11.5796 57.7294C10.4676 57.7927 9.52064 57.0185 9.44264 55.9768C9.42964 55.8085 8.15264 39.0229 5.85664 28.0333C5.03664 24.112 3.21264 21.7628 0.976637 21.7486C-1.27236 21.7496 -4.10036 24.0382 -5.06136 28.3358C-7.03036 37.1417 -7.16036 60.4142 -6.55936 64.8961C-3.21936 65.5758 10.2046 65.5058 14.3236 62.7303C14.7936 62.4136 15.0206 62.1347 14.9996 61.9031C14.9376 61.2404 14.8626 60.0219 14.7606 58.3741C12.8336 27.0331 9.00264 8.93351 3.37464 4.5783C2.54764 3.93925 1.76064 3.69724 0.892637 3.81068C-9.97236 5.26841 -12.8604 39.8652 -12.1284 61.3312C-12.0924 62.3739 -12.9594 63.2474 -14.0634 63.2824C-15.2034 63.3202 -16.0914 62.4968 -16.1264 61.4531C-16.3324 55.4237 -17.6224 2.4749 0.331636 0.0671073C2.32364 -0.200426 4.20264 0.332751 5.90864 1.65245C14.7286 8.47691 17.4646 37.1681 18.7546 58.1548C18.8526 59.7506 18.9246 60.9294 18.9846 61.5713C19.1486 63.3363 18.2866 65.7715 13.2416 67.3502C10.2016 68.3012 4.12564 69.0291 -1.07236 69.0291Z" fill="url(#paint0_linear_3708_21406)"/>
<g opacity="0.5">
<path d="M18.9812 61.5715C18.7012 62.6775 16.5362 62.9857 16.1352 61.5847C15.4992 59.365 15.5242 50.9061 14.7652 42.9727C13.9572 34.5147 12.8042 25.2333 11.5042 20.0528C10.1942 14.8723 7.60723 5.10405 3.31923 3.11316C-0.365772 1.40208 -2.39078 5.53891 -4.79978 5.71853C-5.12978 5.74689 -6.44677 5.36403 -6.49877 4.22583C-17.2588 17.2905 -16.2988 56.3238 -16.1288 61.4476C-16.0888 62.4969 -15.1988 63.3194 -14.0588 63.2816C-12.9588 63.2438 -12.0888 62.3741 -12.1288 61.3342C-12.8588 39.8654 -9.96877 5.26571 0.891226 3.80987C1.76123 3.69643 2.55122 3.94222 3.38122 4.5756C9.00122 8.93365 12.8312 27.0276 14.7612 58.3752C14.8612 60.0201 14.9412 61.2397 15.0012 61.9014C15.0212 62.1377 14.7912 62.4119 14.3212 62.7333C14.3212 62.7333 12.4212 65.5409 6.40122 66.4579C0.381224 67.3844 -7.09877 67.1102 -7.63877 66.2311C-8.17877 65.3519 -6.55877 64.8981 -6.55877 64.8981C-7.15878 60.4172 -7.02878 37.1428 -5.05877 28.3321C-4.09877 24.0403 -1.26877 21.7525 0.981226 21.7525C3.21123 21.762 5.04123 24.1159 5.86123 28.0296C8.15123 39.024 9.43122 55.8039 9.44123 55.9741C9.52122 57.0139 10.4712 57.7891 11.5812 57.7324C12.6812 57.6568 13.5112 56.7492 13.4312 55.7094C12.8312 56.7492 11.0152 56.5507 10.7542 55.2253C10.5552 54.2157 9.37123 42.8631 8.34123 35.6501C7.31123 28.4371 6.84023 23.8947 3.88223 22.0021C1.38923 20.4064 -1.03378 21.1248 -3.06378 22.5343C-4.23378 23.3473 -6.34077 22.5107 -5.69977 21.157C-7.23977 22.8113 -8.40977 25.0234 -8.96977 27.557C-10.8998 36.1502 -11.6198 64.6996 -9.97977 67.2237C-9.12977 68.5188 -5.40977 69.0293 -1.06977 69.0293C4.12023 69.0293 10.2002 68.3014 13.2402 67.3466C18.2912 65.7688 19.1512 63.3393 18.9812 61.5715Z" fill="url(#paint1_linear_3708_21406)"/>
</g>
<path d="M5.42304 1.78856C7.91804 3.48451 8.85904 5.76186 9.90704 7.84634C12.139 12.2885 13.359 17.9398 13.983 20.7626C14.586 23.4909 14.323 24.8352 13.804 24.4305C13.25 23.9995 12.426 17.5484 10.437 12.1543C8.93204 8.07227 8.02004 6.48977 6.02704 4.05456C4.24804 1.88215 3.25504 1.95872 2.76604 1.37261C2.27604 0.786493 3.42404 0.430099 5.42304 1.78856Z" fill="url(#paint2_linear_3708_21406)"/>
<path d="M13.9169 26.4345C13.9169 26.4345 14.8049 32.2068 15.5799 38.2098C16.2669 43.5321 16.0969 46.9987 17.0149 46.872C17.9329 46.7462 16.3629 35.4049 15.8079 32.1681C15.2539 28.9312 15.0248 27.4517 14.7968 26.1566C14.5688 24.8624 13.7209 25.2292 13.9169 26.4345Z" fill="url(#paint3_linear_3708_21406)"/>
<path d="M0.874235 18.6042C2.09824 18.3858 4.15124 18.8821 5.54524 20.2453C7.56424 22.2211 8.84724 25.5393 9.33624 27.3203C9.82524 29.1004 10.2652 31.9213 10.2172 32.6842C10.1682 33.4471 9.46724 34.5144 8.75024 30.7888C8.07724 27.2957 6.54924 23.1825 5.22824 21.7947C3.90724 20.4079 2.04924 19.3907 0.606237 19.645C-0.837763 19.8993 -0.958765 18.9303 0.874235 18.6042Z" fill="url(#paint4_linear_3708_21406)"/>
<path d="M79.3439 61.16C79.8839 62.1762 78.4399 63.7313 77.1769 62.9051C75.1769 61.5967 69.4259 55.1164 63.4349 49.5143C57.0479 43.5416 49.8369 37.1511 45.3089 33.9841C40.7739 30.8229 32.1339 24.9344 27.4989 26.0262C23.5159 26.965 24.7889 31.3599 23.0699 32.9669C22.8369 33.19 21.5699 33.6996 20.7529 32.862C21.4399 49.4065 48.7979 78.6565 52.4229 82.469C53.1689 83.2471 54.4109 83.3331 55.2559 82.609C56.0709 81.9094 56.1429 80.7145 55.4029 79.944C40.2009 63.979 18.8099 35.7718 26.1179 28.0389C26.7059 27.4216 27.4769 27.1285 28.5429 27.1068C35.8109 27.0122 51.0799 38.5076 73.9379 61.2904C75.1359 62.4873 76.0289 63.3702 76.5269 63.8391C76.7029 64.0074 76.7149 64.3572 76.5749 64.8894C76.5749 64.8894 77.0379 68.1934 73.0619 72.5637C69.0929 76.9416 63.1879 81.2911 62.1759 80.9489C61.1639 80.6058 62.0919 79.2719 62.0919 79.2719C58.5769 76.2128 42.8009 58.3438 38.2969 50.4086C36.1029 46.5431 36.7059 43.0689 38.4259 41.6982C40.1369 40.3463 43.1409 41.0298 46.4379 43.5208C55.6869 50.5286 68.1109 62.5733 68.2349 62.6971C69.0059 63.443 70.2599 63.4563 71.0699 62.7369C71.8589 62.0089 71.8739 60.8093 71.1039 60.0625C71.3549 61.2233 69.8319 62.1781 68.7279 61.3245C67.8869 60.6741 59.2389 52.719 53.5319 47.8335C47.8249 42.9479 44.3669 39.764 40.8139 40.1194C37.8209 40.4191 36.4589 42.4459 35.8679 44.7601C35.5279 46.095 33.3469 46.7397 32.9139 45.3141C32.8649 47.5177 33.4799 49.9217 34.7799 52.1991C39.1659 59.9434 58.0889 82.2043 61.0639 83.1336C62.5969 83.6054 65.7889 81.7279 69.1059 79.0828C73.0729 75.9187 77.2239 71.6571 78.8959 69.0735C81.6799 64.7882 80.6799 62.4069 79.3439 61.16Z" fill="url(#paint5_linear_3708_21406)"/>
<defs>
<linearGradient id="paint0_linear_3708_21406" x1="1.38984" y1="-0.000579352" x2="1.38984" y2="69.0291" gradientUnits="userSpaceOnUse">
<stop stop-color="#E3AE31"/>
<stop offset="1" stop-color="#D87C26"/>
</linearGradient>
<linearGradient id="paint1_linear_3708_21406" x1="1.38722" y1="2.70042" x2="1.38722" y2="69.03" gradientUnits="userSpaceOnUse">
<stop stop-color="#E3AE31"/>
<stop offset="1" stop-color="#D87C26"/>
</linearGradient>
<linearGradient id="paint2_linear_3708_21406" x1="8.49104" y1="0.851344" x2="8.49104" y2="24.5012" gradientUnits="userSpaceOnUse">
<stop stop-color="#E3AE31"/>
<stop offset="1" stop-color="#D87C26"/>
</linearGradient>
<linearGradient id="paint3_linear_3708_21406" x1="15.5925" y1="25.3428" x2="15.5925" y2="46.8755" gradientUnits="userSpaceOnUse">
<stop stop-color="#E3AE31"/>
<stop offset="1" stop-color="#D87C26"/>
</linearGradient>
<linearGradient id="paint4_linear_3708_21406" x1="4.86524" y1="18.5548" x2="4.86524" y2="33.4344" gradientUnits="userSpaceOnUse">
<stop stop-color="#E3AE31"/>
<stop offset="1" stop-color="#D87C26"/>
</linearGradient>
<linearGradient id="paint5_linear_3708_21406" x1="25.7403" y1="26.8874" x2="68.0439" y2="79.93" gradientUnits="userSpaceOnUse">
<stop stop-color="#4C9273"/>
<stop offset="1" stop-color="#76AA41"/>
</linearGradient>
</defs>
</svg>
