<svg width="48" height="48" viewBox="0 0 48 48" fill="none" xmlns="http://www.w3.org/2000/svg">
<path d="M23.1473 0.16875C23.016 0.253125 22.0785 1.02187 21.066 1.875L19.2285 3.42188L21.5723 3.45C22.8566 3.45938 24.9566 3.45938 26.241 3.45L28.5848 3.42188L26.7473 1.875C25.7348 1.02187 24.7973 0.253125 24.666 0.16875C24.5066 0.0562499 24.2441 -2.38419e-07 23.9066 -2.38419e-07C23.5691 -2.38419e-07 23.3066 0.0562499 23.1473 0.16875Z" fill="#EDDDFF"/>
<path d="M9.52497 6.45937C9.37497 6.5625 9.17809 6.76875 9.07497 6.91875C8.91559 7.18125 8.90622 7.54687 8.92497 15.8531L8.95309 24.5062L13.8093 28.2844L18.6562 32.0625H23.9062H29.1562L34.0031 28.2844L38.8593 24.5062L38.8875 15.8906C38.9156 6.3 38.9531 6.87187 38.2968 6.46875C37.9968 6.28125 37.7718 6.28125 23.8968 6.28125C10.1812 6.28125 9.78747 6.29062 9.52497 6.45937ZM25.8656 9.80625C26.8125 9.975 27.9093 10.3687 28.8281 10.8656C32.4375 12.8156 34.6312 16.8937 33.9937 20.4937C33.5343 23.1469 32.4937 24.9 30.9375 25.6594C29.3156 26.4469 27.7875 26.2594 26.6812 25.1344L26.2218 24.675L25.8562 24.9469C25.3218 25.3312 24.525 25.6031 23.7562 25.6594C21.075 25.8656 18.7125 23.4187 18.4968 20.2125C18.2718 16.7719 20.8031 13.875 23.8593 14.0906C24.2156 14.1094 24.7031 14.2031 24.9375 14.2875C25.6687 14.5687 25.65 14.5687 25.7812 14.25C25.9781 13.7812 26.4843 13.4531 27.0093 13.4531C27.4875 13.4531 27.825 13.6406 28.1625 14.1C28.3593 14.3531 28.3593 14.4375 28.3218 18.5531C28.2937 22.2844 28.3125 22.7906 28.4437 23.0437C28.5281 23.2125 28.6968 23.3625 28.8375 23.4C29.4093 23.5406 30.3 23.0062 30.6562 22.3031C30.7593 22.1062 30.9562 21.5812 31.0875 21.1219C31.2937 20.4375 31.3406 20.1094 31.3406 19.2187C31.35 18.2812 31.3125 18.0375 31.0875 17.3906C30.2718 15.0094 28.2937 13.1906 25.8 12.5531C24.825 12.3094 23.1937 12.3094 22.1437 12.5625C18.0656 13.5375 15.5718 17.7844 16.6968 21.8438C17.5406 24.9 20.0437 27.0094 23.2687 27.375C24.2531 27.4875 24.5625 27.6281 24.8343 28.0594C25.2187 28.6875 25.0406 29.5219 24.4406 29.8969C24.0375 30.1406 23.1 30.1594 22.05 29.9437C17.5312 29.0156 14.2687 25.425 13.7625 20.8312C13.2937 16.6031 15.9 12.2062 19.8843 10.4906C21.8625 9.6375 23.7 9.42188 25.8656 9.80625Z" fill="#9946FF"/>
<path d="M22.7344 16.9594C22.2187 17.1938 21.7781 17.6625 21.4781 18.2813C21.2625 18.7406 21.2344 18.9094 21.2437 19.7813C21.2437 20.9531 21.45 21.5813 22.0406 22.2469C23.2031 23.5781 24.9 22.9688 25.4719 21.0094C25.6594 20.3438 25.6031 18.6938 25.3594 18.15C24.8531 16.9688 23.775 16.4813 22.7344 16.9594Z" fill="#9946FF"/>
<path d="M3.68462 16.5094C2.3815 17.6062 1.34087 18.525 1.35962 18.5719C1.444 18.7031 6.019 22.2281 6.0565 22.1906C6.07525 22.1719 6.08462 20.4375 6.07525 18.3375L6.04712 14.5219L3.68462 16.5094Z" fill="#EDDDFF"/>
<path d="M41.7188 18.3656C41.7188 20.4844 41.7375 22.2188 41.7656 22.2188C41.8219 22.2188 46.3875 18.6656 46.4531 18.5719C46.4812 18.5062 42.4875 15.0656 41.8875 14.6437C41.7281 14.5219 41.7188 14.6531 41.7188 18.3656Z" fill="#EDDDFF"/>
<path d="M0 33.4688C0 43.2844 0.028125 45.9375 0.1125 45.8813C0.525 45.6281 15.9844 33.5344 15.9844 33.4688C15.9844 33.4031 0.525 21.3094 0.1125 21.0563C0.028125 21 0 23.6531 0 33.4688Z" fill="#EDDDFF"/>
<path d="M39.7969 27.1875C35.4188 30.6 31.8281 33.4219 31.8281 33.4687C31.8281 33.5156 35.4188 36.3375 39.7969 39.75L47.7656 45.9469L47.7938 39.7125C47.8031 36.2812 47.8031 30.6562 47.7938 27.225L47.7656 20.9906L39.7969 27.1875Z" fill="#EDDDFF"/>
<path d="M10.2279 41.4187L1.84668 47.9531L12.8811 47.9812C18.9467 47.9906 28.8654 47.9906 34.9311 47.9812L45.9654 47.9531L37.5561 41.4094L29.1467 34.875L23.8779 34.8844L18.6092 34.8937L10.2279 41.4187Z" fill="#EDDDFF"/>
</svg>
