<svg width="32" height="32" viewBox="0 0 32 32" fill="none" xmlns="http://www.w3.org/2000/svg">
<path d="M23.4937 14.3335C22.9203 14.3335 22.467 13.8668 22.467 13.3068C22.467 12.8135 21.9737 11.7868 21.147 10.8935C20.3337 10.0268 19.4403 9.52013 18.6937 9.52013C18.1203 9.52013 17.667 9.05346 17.667 8.49346C17.667 7.93346 18.1337 7.4668 18.6937 7.4668C20.027 7.4668 21.427 8.1868 22.6537 9.48013C23.8003 10.6935 24.5337 12.2001 24.5337 13.2935C24.5337 13.8668 24.067 14.3335 23.4937 14.3335Z" fill="#9946FF"/>
<path d="M28.3064 14.3332C27.733 14.3332 27.2797 13.8665 27.2797 13.3065C27.2797 8.57317 23.4264 4.73317 18.7064 4.73317C18.133 4.73317 17.6797 4.2665 17.6797 3.7065C17.6797 3.1465 18.133 2.6665 18.693 2.6665C24.5597 2.6665 29.333 7.43984 29.333 13.3065C29.333 13.8665 28.8664 14.3332 28.3064 14.3332Z" fill="#9946FF" fill-opacity="0.4"/>
<path d="M14.7337 19.9332L12.267 22.3998C11.747 22.9198 10.9203 22.9198 10.387 22.4132C10.2403 22.2665 10.0937 22.1332 9.94699 21.9865C8.57366 20.5998 7.33366 19.1465 6.22699 17.6265C5.13366 16.1065 4.25366 14.5865 3.61366 13.0798C2.98699 11.5598 2.66699 10.1065 2.66699 8.71984C2.66699 7.81317 2.82699 6.9465 3.14699 6.1465C3.46699 5.33317 3.97366 4.5865 4.68033 3.91984C5.53366 3.07984 6.46699 2.6665 7.45366 2.6665C7.82699 2.6665 8.20033 2.7465 8.53366 2.9065C8.88033 3.0665 9.18699 3.3065 9.42699 3.65317L12.5203 8.01317C12.7603 8.3465 12.9337 8.65317 13.0537 8.9465C13.1737 9.2265 13.2403 9.5065 13.2403 9.75984C13.2403 10.0798 13.147 10.3998 12.9603 10.7065C12.787 11.0132 12.5337 11.3332 12.2137 11.6532L11.2003 12.7065C11.0537 12.8532 10.987 13.0265 10.987 13.2398C10.987 13.3465 11.0003 13.4398 11.027 13.5465C11.067 13.6532 11.107 13.7332 11.1337 13.8132C11.3737 14.2532 11.787 14.8265 12.3737 15.5198C12.9737 16.2132 13.6137 16.9198 14.307 17.6265C14.4403 17.7598 14.587 17.8932 14.7203 18.0265C15.2537 18.5465 15.267 19.3998 14.7337 19.9332Z" fill="#9946FF"/>
<path d="M29.2931 24.4402C29.2931 24.8135 29.2265 25.2002 29.0931 25.5735C29.0531 25.6802 29.0131 25.7869 28.9598 25.8935C28.7331 26.3735 28.4398 26.8269 28.0531 27.2535C27.3998 27.9735 26.6798 28.4935 25.8665 28.8269C25.8531 28.8269 25.8398 28.8402 25.8265 28.8402C25.0398 29.1602 24.1865 29.3335 23.2665 29.3335C21.9065 29.3335 20.4531 29.0135 18.9198 28.3602C17.3865 27.7069 15.8531 26.8269 14.3331 25.7202C13.8131 25.3335 13.2931 24.9469 12.7998 24.5335L17.1598 20.1735C17.5331 20.4535 17.8665 20.6669 18.1465 20.8135C18.2131 20.8402 18.2931 20.8802 18.3865 20.9202C18.4931 20.9602 18.5998 20.9735 18.7198 20.9735C18.9465 20.9735 19.1198 20.8935 19.2665 20.7469L20.2798 19.7469C20.6131 19.4135 20.9331 19.1602 21.2398 19.0002C21.5465 18.8135 21.8531 18.7202 22.1865 18.7202C22.4398 18.7202 22.7065 18.7735 22.9998 18.8935C23.2931 19.0135 23.5998 19.1869 23.9331 19.4135L28.3465 22.5469C28.6931 22.7869 28.9331 23.0669 29.0798 23.4002C29.2131 23.7335 29.2931 24.0669 29.2931 24.4402Z" fill="#9946FF" fill-opacity="0.4"/>
</svg>
