<svg width="24" height="24" viewBox="0 0 24 24" fill="none" xmlns="http://www.w3.org/2000/svg">
<path d="M5.32038 4.08288C3.11725 4.35944 1.28913 6.05163 0.843817 8.24069C0.72663 8.81725 0.717255 9.75006 0.82038 10.2985C1.00788 11.2922 1.48132 12.2063 2.17507 12.9329C2.8735 13.6547 3.57194 14.0766 4.54694 14.3579L4.92194 14.4657L4.57507 15.1688C4.08757 16.1485 3.47819 17.0579 2.74225 17.9063C2.44225 18.2532 2.34382 18.4782 2.34382 18.8251C2.34382 19.3829 2.68132 19.8094 3.22038 19.9266C3.52507 19.9969 3.75475 19.9501 4.53288 19.6641C7.91725 18.4079 10.1766 15.8391 10.9876 12.3235C11.2407 11.2126 11.3579 9.50631 11.236 8.69538C11.0532 7.51881 10.5563 6.50163 9.76413 5.67194C9.27663 5.15631 8.88757 4.87038 8.2735 4.57038C7.32194 4.10631 6.38913 3.95163 5.32038 4.08288Z" fill="#9946FF" fill-opacity="0.3"/>
<path d="M17.3065 4.07816C14.3394 4.49535 12.3237 7.18128 12.7737 10.125C13.0784 12.1313 14.5784 13.8375 16.4956 14.3485C16.7019 14.4047 16.8753 14.4657 16.8753 14.4797C16.8753 14.4938 16.7394 14.7844 16.5753 15.1266C16.1159 16.0735 15.5487 16.9266 14.7519 17.8782C14.3909 18.3141 14.2737 18.6 14.3112 18.9422C14.3815 19.5375 14.8269 19.936 15.4222 19.9407C16.2003 19.9453 18.305 18.9422 19.4769 18.0094C21.9097 16.0735 23.2503 13.0875 23.2503 9.61878C23.2503 8.70003 23.1519 8.13753 22.8706 7.43441C22.0644 5.41878 20.2737 4.12503 18.1878 4.05472C17.8644 4.04535 17.4706 4.05472 17.3065 4.07816Z" fill="#9946FF" fill-opacity="0.3"/>
</svg>
