<svg width="16" height="16" viewBox="0 0 16 16" fill="none" xmlns="http://www.w3.org/2000/svg">
<path d="M9.33333 6.2V8.13333H11.0667C11.2 8.13333 11.2667 8.26667 11.2667 8.4L11 9.66667C11 9.73333 10.8667 9.8 10.8 9.8H9.33333V14.6667H7.33333V9.86667H6.2C6.06667 9.86667 6 9.8 6 9.66667V8.4C6 8.26667 6.06667 8.2 6.2 8.2H7.33333V6C7.33333 4.86667 8.2 4 9.33333 4H11.1333C11.2667 4 11.3333 4.06667 11.3333 4.2V5.8C11.3333 5.93333 11.2667 6 11.1333 6H9.53333C9.4 6 9.33333 6.06667 9.33333 6.2Z" stroke="white" stroke-miterlimit="10" stroke-linecap="round"/>
<path d="M9.99967 14.6667H5.99967C2.66634 14.6667 1.33301 13.3333 1.33301 9.99999V5.99999C1.33301 2.66666 2.66634 1.33333 5.99967 1.33333H9.99967C13.333 1.33333 14.6663 2.66666 14.6663 5.99999V9.99999C14.6663 13.3333 13.333 14.6667 9.99967 14.6667Z" stroke="white" stroke-linecap="round" stroke-linejoin="round"/>
</svg>
