<svg width="16" height="15" viewBox="0 0 16 15" fill="none" xmlns="http://www.w3.org/2000/svg">
<path d="M11.343 3.05176e-05H3.78614C1.69841 3.05176e-05 0 1.69845 0 3.78617V10.6996C0 12.7873 1.69841 14.4858 3.78614 14.4858H11.343C13.4307 14.4858 15.1292 12.7873 15.1292 10.6996V3.78617C15.1292 1.69845 13.4307 3.05176e-05 11.343 3.05176e-05ZM1.33563 3.78617C1.33563 2.43514 2.43511 1.33566 3.78614 1.33566H11.343C12.694 1.33566 13.7935 2.43514 13.7935 3.78617V10.6996C13.7935 12.0506 12.694 13.1501 11.343 13.1501H3.78614C2.43511 13.1501 1.33563 12.0506 1.33563 10.6996V3.78617Z" fill="white"/>
<path d="M7.56472 10.764C9.50614 10.764 11.0865 9.18449 11.0865 7.24222C11.0865 5.29995 9.50699 3.72047 7.56472 3.72047C5.62245 3.72047 4.04297 5.29995 4.04297 7.24222C4.04297 9.18449 5.62245 10.764 7.56472 10.764ZM7.56472 5.05696C8.7703 5.05696 9.75084 6.0375 9.75084 7.24308C9.75084 8.44866 8.7703 9.4292 7.56472 9.4292C6.35915 9.4292 5.3786 8.44866 5.3786 7.24308C5.3786 6.0375 6.35915 5.05696 7.56472 5.05696Z" fill="white"/>
<path d="M11.4121 4.29017C11.935 4.29017 12.3612 3.8648 12.3612 3.341C12.3612 2.8172 11.9359 2.39183 11.4121 2.39183C10.8883 2.39183 10.4629 2.8172 10.4629 3.341C10.4629 3.8648 10.8883 4.29017 11.4121 4.29017Z" fill="white"/>
</svg>
