<svg width="87" height="107" viewBox="0 0 87 107" fill="none" xmlns="http://www.w3.org/2000/svg">
<ellipse cx="24.5" cy="43" rx="43.5" ry="43" fill="#08131E"/>
<path d="M17.7406 43.3959C15.6449 44.066 13.8527 45.8768 13.2313 47.9584C13.0289 48.6428 13 50.1541 13 60.2344C13 70.3146 13.0289 71.826 13.2313 72.5104C13.8527 74.6205 15.6594 76.417 17.784 77.0729C18.5789 77.3152 19.1715 77.3438 23.941 77.3438H29.2164L29.1441 77.6574C28.6961 79.4396 25.7188 95.1375 25.7188 95.665C25.7188 96.5062 26.0801 97.1764 26.7594 97.5898C27.2074 97.8607 27.4965 97.875 31.8758 97.875C35.7492 97.875 36.6164 97.8322 37.1945 97.6469C38.0328 97.3617 39.3336 96.2211 39.7094 95.4084C40.7066 93.3268 46.8348 78.684 47.0227 77.9568C47.6586 75.5187 47.6875 74.8914 47.6875 61.4891C47.6875 49.3414 47.673 48.6713 47.4129 47.8443C46.748 45.7484 44.927 43.9662 42.7879 43.3531C42.0941 43.1535 40.5621 43.125 30.2859 43.1393C19.3305 43.1393 18.5066 43.1535 17.7406 43.3959Z" fill="#FF3C38"/>
<path d="M57.0531 43.3959C54.9574 44.066 53.1652 45.8768 52.5438 47.9584C52.3414 48.6428 52.3125 50.1541 52.3125 60.2344C52.3125 70.3146 52.3414 71.826 52.5438 72.5104C53.1652 74.6205 54.9719 76.417 57.0965 77.0729C57.8914 77.3152 58.484 77.3438 63.2535 77.3438H68.5289L68.4566 77.6574C68.0086 79.4396 65.0312 95.1375 65.0312 95.665C65.0312 96.5062 65.3926 97.1764 66.0719 97.5898C66.5199 97.8607 66.809 97.875 71.1883 97.875C75.0617 97.875 75.9289 97.8322 76.507 97.6469C77.3453 97.3617 78.6461 96.2211 79.0219 95.4084C80.0191 93.3268 86.1473 78.684 86.3352 77.9568C86.9711 75.5187 87 74.8914 87 61.4891C87 49.3414 86.9855 48.6713 86.7254 47.8443C86.0605 45.7484 84.2395 43.9662 82.1004 43.3531C81.4066 43.1535 79.8746 43.125 69.5984 43.1393C58.643 43.1393 57.8191 43.1535 57.0531 43.3959Z" fill="#FF3C38"/>
</svg>
