<svg width="34" height="34" viewBox="0 0 34 34" fill="none" xmlns="http://www.w3.org/2000/svg">
<g clip-path="url(#clip0_3557_71353)">
<path d="M21.2425 0.525044C20.4958 0.807968 19.8653 1.36819 19.5931 1.97824L19.471 2.23899L19.1576 2.04373C18.1791 1.43432 16.7182 1.50495 15.7365 2.21524C14.3888 3.18242 14.0841 5.16948 15.076 6.51013C15.1944 6.67478 15.9793 7.46618 16.821 8.27432C17.6627 9.08246 18.3561 9.76454 18.3694 9.78908C18.3904 9.85088 10.1063 18.7254 10.0251 18.7283C9.98766 18.7296 9.26996 18.0672 8.42825 17.259C7.58654 16.4509 6.75955 15.7048 6.59338 15.6044C5.43065 14.9139 3.85461 15.0887 2.86152 16.0058C2.50432 16.3374 2.1446 16.9506 2.01266 17.4618C1.79745 18.27 1.98058 19.3767 2.44065 20.0045L2.58538 20.2057L2.27862 20.373C1.85518 20.6006 1.21705 21.2987 1.02668 21.7495C0.790108 22.3083 0.74476 22.6163 0.806188 23.2896C0.869613 24.019 0.933146 24.2231 1.25717 24.7182C1.58721 25.2068 8.67212 32.0535 9.17085 32.361C9.66935 32.6622 10.2181 32.7928 10.8802 32.7693C12.0482 32.7278 13.0459 32.117 13.5119 31.1499L13.646 30.8762L13.9596 31.0777C14.9378 31.6809 16.405 31.61 17.3804 30.9C18.7039 29.9524 19.0231 28.0211 18.0871 26.6722C17.9685 26.5013 17.1703 25.6854 16.3089 24.8529L14.7419 23.3451L18.942 18.8682L23.142 14.3914L24.7922 15.9526C26.6105 17.6704 26.7129 17.7355 27.6505 17.8961C28.0658 17.9689 28.2282 17.9631 28.6447 17.8921C30.2043 17.6053 31.2472 16.33 31.1913 14.756C31.1702 14.1626 31.0001 13.5995 30.71 13.1783L30.5253 12.9097L30.8261 12.7489C31.3414 12.468 31.8104 11.9385 32.0889 11.3282L32.3322 10.7817L32.3032 9.96351L32.2741 9.14528L32.013 8.66049C31.819 8.30465 31.6031 8.03714 31.1948 7.63263C27.0362 3.59014 24.2532 0.949729 23.9655 0.772327C23.2172 0.304838 22.0878 0.201095 21.2425 0.525044ZM22.5743 2.27889C22.7068 2.31171 22.9364 2.43489 23.0782 2.55494C23.7292 3.10093 30.1678 9.35765 30.2811 9.55376C30.4613 9.87256 30.4304 10.4115 30.2101 10.7258C29.8944 11.1685 29.3374 11.3321 28.8422 11.1246C28.6644 11.0496 27.5522 10.0196 25.0005 7.55237C23.0316 5.64604 21.3725 4.01013 21.3128 3.91219C21.0724 3.48295 21.2532 2.76358 21.6686 2.48616C22.0352 2.24175 22.2337 2.19718 22.5743 2.27889ZM18.039 3.65319C18.2299 3.74647 19.0647 4.5361 24.6404 9.91664C27.0103 12.1965 29.0126 14.1642 29.0923 14.2927C29.4223 14.7813 29.2249 15.5638 28.6911 15.8516C28.3781 16.0191 27.8844 16.0304 27.6103 15.8838C27.3486 15.7367 16.6895 5.45221 16.5497 5.21327C16.4962 5.11511 16.4447 4.89805 16.4389 4.73565C16.4092 3.89868 17.2824 3.30482 18.039 3.65319ZM17.5423 17.492L13.3422 21.9689L12.3906 21.0583L11.4389 20.1478L15.6077 15.672L19.7763 11.19L20.7594 12.1057L21.7488 13.0212L17.5423 17.492ZM5.40519 17.1913C5.5765 17.2602 7.26505 18.8451 11.0536 22.5067C14.0324 25.3778 16.5075 27.804 16.5608 27.8959C16.6206 27.9939 16.6656 28.2049 16.678 28.3796C16.7 28.9979 16.2123 29.5281 15.5877 29.5502C15.038 29.5698 15.5739 30.0448 8.47654 23.1986C6.10665 20.9187 4.10432 18.951 4.02471 18.8225C3.81374 18.5173 3.80424 18.0736 3.99817 17.7228C4.28559 17.1872 4.86563 16.9665 5.40519 17.1913ZM4.27478 21.9907C4.45256 22.0656 5.5648 23.0956 8.11646 25.5628C10.0853 27.4692 11.7444 29.1051 11.798 29.2032C12.058 29.6568 11.8526 30.3896 11.387 30.6625C10.8848 30.9618 10.4835 30.9322 10.0387 30.5603C9.38771 30.0143 2.94914 23.7576 2.83586 23.5615C2.65569 23.2426 2.68658 22.7037 2.90682 22.3894C3.22256 21.9467 3.77961 21.7831 4.27478 21.9907Z" fill="white"/>
</g>
<defs>
<clipPath id="clip0_3557_71353">
<rect width="32" height="32" fill="white" transform="translate(0 1.1355) rotate(-2.03352)"/>
</clipPath>
</defs>
</svg>
