<svg width="83" height="28" viewBox="0 0 83 28" fill="none" xmlns="http://www.w3.org/2000/svg">
<g clip-path="url(#clip0_3785_20595)">
<path d="M7.31816 23.9272C7.31816 25.8999 5.72728 27.4908 3.75456 27.4908C1.78183 27.4908 0.190918 25.8999 0.190918 23.9272C0.190918 21.9544 1.78183 20.3635 3.75456 20.3635C5.72728 20.3635 7.31816 21.9544 7.31816 23.9272Z" fill="white"/>
<path d="M19.2184 23.991C19.2184 25.391 18.0729 26.5365 16.6729 26.5365C15.2729 26.5365 14.1274 25.391 14.1274 23.991C14.1274 22.591 15.2729 21.4456 16.6729 21.4456C18.0729 21.4456 19.2184 22.591 19.2184 23.991Z" fill="white"/>
<path d="M28.4457 23.9909C28.4457 24.6273 27.9366 25.1364 27.3002 25.1364C26.6639 25.1364 26.1548 24.6273 26.1548 23.9909C26.1548 23.3546 26.6639 22.8455 27.3002 22.8455C27.9366 22.8455 28.4457 23.3546 28.4457 23.9909Z" fill="white"/>
<path d="M15.9726 16.4183C15.3362 16.4183 14.8907 15.9092 14.8907 15.3365V10.6274C14.8907 9.03647 14.1271 7.76374 12.4089 7.76374C10.6907 7.76374 9.60893 9.10011 9.60893 10.6274V15.2728C9.60893 15.9092 9.16348 16.3547 8.52711 16.3547C7.89075 16.3547 7.4453 15.8456 7.4453 15.2728V10.5637C7.4453 8.97283 6.61802 7.70011 4.89984 7.70011C3.11802 7.70011 2.22711 9.03647 2.22711 10.5637V15.2092C2.22711 15.8456 1.78166 16.291 1.1453 16.291C0.508931 16.291 0.0634766 15.7819 0.0634766 15.2092V7.00011C0.0634766 6.36374 0.508931 5.85465 1.1453 5.85465C1.90893 5.85465 2.22711 6.36374 2.22711 7.00011V7.76374C2.86348 6.55465 4.1362 5.79102 5.5362 5.79102C7.19075 5.79102 8.46348 6.61829 9.09984 7.89102C9.99075 6.49102 11.3271 5.79102 12.9817 5.79102C15.7817 5.79102 17.1817 7.76374 17.1817 10.5001V15.3365C17.118 15.9092 16.6726 16.4183 15.9726 16.4183Z" fill="white"/>
<path d="M20.1726 16.4183C19.5363 16.4183 19.0908 15.9092 19.0908 15.3364V7.00008C19.0908 6.36372 19.5363 5.91826 20.1726 5.91826C20.809 5.91826 21.2544 6.42735 21.2544 7.00008V15.3364C21.2544 15.9092 20.809 16.4183 20.1726 16.4183ZM20.1726 1.71826C20.8726 1.71826 21.4454 2.29099 21.4454 2.99099C21.4454 3.69099 20.8726 4.26372 20.1726 4.26372C19.4726 4.26372 18.8999 3.69099 18.8999 2.99099C18.8999 2.29099 19.4726 1.71826 20.1726 1.71826Z" fill="white"/>
<path d="M27.4272 9.67251L30.2272 6.23615C30.4181 6.04524 30.6727 5.91797 30.9272 5.91797C31.5636 5.91797 31.9454 6.29979 31.9454 6.87251C31.9454 7.06342 31.8817 7.31797 31.6908 7.50888L28.6363 11.1362L31.7545 14.8271C31.9454 15.018 32.009 15.2089 32.009 15.4634C32.009 15.9725 31.5636 16.418 31.0545 16.418C30.7363 16.418 30.4817 16.2907 30.2908 16.0362L27.4908 12.5362L24.6908 16.0362C24.4999 16.2907 24.2454 16.418 23.9272 16.418C23.4181 16.418 22.9727 15.9725 22.9727 15.4634C22.9727 15.2089 23.0363 15.018 23.2272 14.8271L26.3454 11.1362L23.2908 7.50888C23.0999 7.31797 23.0363 7.06342 23.0363 6.87251C23.0363 6.29979 23.4181 5.91797 24.0545 5.91797C24.3727 5.91797 24.5636 6.04524 24.7545 6.23615L27.4272 9.67251Z" fill="white"/>
<path d="M38.9454 7.63655C37.0363 7.63655 35.8272 9.2911 35.8272 11.2002C35.8272 13.0456 37.0999 14.7638 38.9454 14.7638C40.8545 14.7638 42.0636 13.3638 42.0636 11.2002C42.0636 9.03655 40.8545 7.63655 38.9454 7.63655ZM39.3908 16.5456C37.7999 16.5456 36.5272 15.7184 35.8272 14.5093V19.7275C35.8272 20.3638 35.3818 20.8093 34.7454 20.8093C34.109 20.8093 33.6636 20.3002 33.6636 19.7275V7.00019C33.6636 6.36383 34.0454 5.91837 34.6818 5.91837C35.3181 5.91837 35.7636 6.42746 35.7636 7.06383V7.8911C36.4636 6.68201 37.8636 5.85474 39.3908 5.85474C42.0636 5.85474 44.2272 8.08201 44.2272 11.2002C44.2272 14.382 42.0636 16.5456 39.3908 16.5456Z" fill="white"/>
<path d="M50.4636 7.70019C48.6182 7.70019 47.2818 9.2911 47.2818 11.2002C47.2818 13.2366 48.3636 14.7002 50.4636 14.7002C52.3727 14.7002 53.6454 13.0456 53.6454 11.2002C53.5818 8.97292 52.3091 7.70019 50.4636 7.70019ZM55.8091 15.3366C55.8091 15.9729 55.3636 16.4184 54.7273 16.4184C54.0909 16.4184 53.6454 15.9093 53.6454 15.3366V14.8275C53.0091 15.782 51.7363 16.5456 50.2727 16.5456C47.0273 16.5456 45.1182 14.1275 45.1182 11.2002C45.1182 8.27292 47.2182 5.85474 50.5273 5.85474C53.9 5.85474 55.8727 8.08201 55.8727 11.2002V15.3366H55.8091Z" fill="white"/>
<path d="M62.3635 5.79102C65.1635 5.79102 67.2635 7.95465 67.2635 10.691V15.3365C67.2635 15.9728 66.7544 16.4183 66.1817 16.4183C65.5453 16.4183 65.0998 15.9092 65.0998 15.3365V10.4365C65.0998 8.97283 63.9544 7.82738 62.4272 7.82738C60.8999 7.82738 59.7544 8.97283 59.7544 10.4365V15.3365C59.7544 15.9728 59.2454 16.4183 58.6726 16.4183C58.0363 16.4183 57.5908 15.9092 57.5908 15.3365V10.691C57.5272 7.95465 59.5635 5.79102 62.3635 5.79102Z" fill="white"/>
<path d="M73.8183 7.57283C72.2274 7.57283 71.1456 8.71829 70.891 10.1819H76.6183C76.4274 8.71829 75.4092 7.57283 73.8183 7.57283ZM78.6546 11.2001C78.6546 11.5819 78.4637 11.9637 77.8274 11.9637H70.891C71.0183 13.5547 72.1001 14.7637 74.0092 14.7637C75.2183 14.7637 75.9183 14.3183 76.6819 13.6183C76.8728 13.4274 77.1274 13.2365 77.3819 13.2365C77.891 13.2365 78.2728 13.6183 78.2728 14.1274C78.2728 14.3819 78.1455 14.5728 78.0183 14.7637C77.1274 15.7819 75.5365 16.4819 73.8819 16.4819C70.3819 16.4819 68.6001 14.0637 68.6001 11.1365C68.6001 8.08192 70.8274 5.79102 73.8183 5.79102C76.7456 5.79102 78.6546 8.2092 78.6546 11.2001Z" fill="white"/>
<path d="M81.2635 16.4181C80.6271 16.4181 80.1816 15.909 80.1816 15.3363V1.59085C80.1816 0.954485 80.6271 0.509033 81.2635 0.509033C81.8998 0.509033 82.3453 1.01812 82.3453 1.59085V15.3363C82.3453 15.909 81.8998 16.4181 81.2635 16.4181Z" fill="white"/>
</g>
<defs>
<clipPath id="clip0_3785_20595">
<rect width="82.7273" height="28" fill="white"/>
</clipPath>
</defs>
</svg>
