<svg width="116" height="28" viewBox="0 0 116 28" fill="none" xmlns="http://www.w3.org/2000/svg">
<g clip-path="url(#clip0_3785_20592)">
<path d="M68.7875 11.0342C70.5848 11.0342 72.2868 12.1337 72.646 14.5093H64.6418C64.9767 12.4247 66.5351 11.0342 68.7875 11.0342ZM72.3901 18.024C71.7788 18.9768 70.5973 19.7098 68.9796 19.7098C66.7506 19.7098 65.0486 18.4879 64.6418 16.3308H74.6837C74.732 16.0216 74.757 15.7091 74.757 15.3962C74.757 12.0413 72.4114 9.06909 68.789 9.06909C65.0508 9.06909 62.5103 11.8251 62.5103 15.3728C62.5103 18.9644 65.0757 21.6764 68.9327 21.6764C71.3295 21.6764 73.151 20.5975 74.205 18.9644L72.3901 18.024Z" fill="white"/>
<path d="M61.5236 3.86865H59.439V21.3643H61.5236V3.86865Z" fill="white"/>
<path d="M86.3565 14.0065V21.3634H84.2712V14.1259C84.2712 12.1608 83.1453 11.0584 81.2997 11.0584C79.3822 11.0584 77.8246 12.185 77.8246 15.0129V21.3634H75.7393V9.38207H77.8246V11.1075C78.7115 9.69359 80.0294 9.07056 81.7094 9.07056C84.5131 9.07056 86.3587 10.9397 86.3587 14.0079" fill="white"/>
<path d="M97.8533 15.3721C97.8533 12.9276 96.0077 11.082 93.5874 11.082C91.1905 11.082 89.3456 12.9276 89.3456 15.3721C89.3456 17.8166 91.1905 19.6623 93.5874 19.6623C96.0062 19.6623 97.8533 17.8166 97.8533 15.3721ZM99.9379 3.86865V21.3643H97.8533V19.3024C96.8946 20.7683 95.3612 21.6758 93.3235 21.6758C89.9921 21.6758 87.2603 18.919 87.2603 15.3721C87.2603 11.8252 89.9921 9.06844 93.3235 9.06844C95.3605 9.06844 96.8946 9.97881 97.8533 11.4411V3.86865H99.9379Z" fill="white"/>
<path d="M103.704 3.86865H101.62V21.3643H103.704V3.86865Z" fill="white"/>
<path d="M55.723 15.372C55.723 12.9275 53.878 11.0819 51.457 11.0819C49.0609 11.0819 47.2152 12.9275 47.2152 15.372C47.2152 17.8165 49.0609 19.6622 51.457 19.6622C53.8759 19.6622 55.723 17.8165 55.723 15.372ZM57.8083 9.38208V21.3634H55.723V19.3023C54.7642 20.7683 53.2308 21.6757 51.1939 21.6757C47.8624 21.6757 45.1299 18.9189 45.1299 15.372C45.1299 11.8251 47.8624 9.06836 51.1939 9.06836C53.2308 9.06836 54.7642 9.97873 55.723 11.441V9.38208H57.8083Z" fill="white"/>
<path d="M42.0372 19.0575C40.9699 19.4513 39.8178 19.5576 38.6965 19.3658C37.5752 19.1739 36.5239 18.6907 35.6482 17.9644C34.7726 17.2382 34.1032 16.2945 33.7073 15.228C33.3114 14.1615 33.2028 13.0096 33.3924 11.8878C33.5821 10.7662 34.0633 9.71404 34.7878 8.83695C35.5123 7.95979 36.4547 7.28862 37.5205 6.8906C38.5862 6.49259 39.7378 6.38175 40.86 6.5692C41.9821 6.75666 43.0352 7.23581 43.9136 7.95861C44.28 8.2609 44.6114 8.60313 44.9017 8.97893L46.7056 7.65955C45.6547 6.28572 44.2195 5.25482 42.5821 4.69751C40.9446 4.1402 39.1786 4.08159 37.5078 4.5291C35.837 4.9766 34.3366 5.91008 33.197 7.21122C32.0573 8.51238 31.3295 10.1226 31.106 11.8378C30.8824 13.553 31.1731 15.2959 31.9412 16.8457C32.7094 18.3955 33.9204 19.6823 35.4206 20.5431C36.9209 21.404 38.643 21.7999 40.3686 21.681C42.0942 21.5619 43.7456 20.9333 45.1135 19.8747L43.9129 17.9763C43.352 18.4383 42.7181 18.8037 42.0372 19.0575Z" fill="white"/>
<path d="M113.768 9.38208V16.1827C113.768 18.3817 112.489 19.7743 110.536 19.7743C108.584 19.7743 107.17 18.3817 107.17 16.1827V9.38208H105.06V15.9789C105.06 19.4357 107.214 21.6801 110.536 21.6801C113.409 21.6801 113.858 19.8623 113.858 19.8168V22.2635C113.858 24.6875 112.803 26.0567 110.604 26.0567C109.818 26.0606 109.058 25.7787 108.464 25.2636C107.871 24.7485 107.485 24.0352 107.378 23.2567L105.493 23.9164C105.762 25.0698 106.415 26.0977 107.344 26.8328C108.273 27.5679 109.423 27.9669 110.607 27.9647C114.019 27.9647 115.885 25.7196 115.885 22.2635V9.38208H113.768Z" fill="white"/>
<path d="M16.9745 16.3624C16.1734 17.0734 15.1728 17.9581 13.3587 17.9581H12.2739C10.9611 17.9581 9.76708 17.4809 8.91242 16.616C8.07755 15.7709 7.61797 14.6142 7.61797 13.3586V11.8743C7.61797 10.6187 8.07755 9.46208 8.91242 8.61695C9.76708 7.75203 10.9611 7.27559 12.2739 7.27559H13.3587C15.175 7.27559 16.1734 8.15957 16.9745 8.87057C17.8065 9.60355 18.524 10.2442 20.4379 10.2442C20.7297 10.2441 21.0212 10.2208 21.3094 10.1745L21.3028 10.1577C21.1881 9.873 21.0536 9.59673 20.9004 9.33088L19.6213 7.11507C19.0445 6.11618 18.2149 5.28671 17.216 4.71004C16.217 4.13336 15.0839 3.82978 13.9304 3.82983H11.3716C10.2181 3.82978 9.08497 4.13336 8.08598 4.71004C7.08705 5.28671 6.25749 6.11618 5.68069 7.11507L4.40164 9.33088C3.82504 10.3299 3.52148 11.4631 3.52148 12.6165C3.52148 13.7699 3.82504 14.9031 4.40164 15.9021L5.68069 18.1179C6.25749 19.1168 7.08705 19.9463 8.08598 20.523C9.08497 21.0996 10.2181 21.4032 11.3716 21.4031H13.9304C15.0839 21.4032 16.217 21.0996 17.216 20.523C18.2149 19.9463 19.0445 19.1168 19.6213 18.1179L20.9004 15.9057C21.0536 15.6399 21.1881 15.3636 21.3028 15.0789L21.3094 15.0628C21.0213 15.015 20.7299 14.9905 20.4379 14.9895C18.524 14.9895 17.8065 15.6265 16.9745 16.3631" fill="white"/>
<path d="M13.3586 8.62061H12.2738C10.2757 8.62061 8.96289 10.0477 8.96289 11.8743V13.3586C8.96289 15.1852 10.2757 16.6123 12.2738 16.6123H13.3586C16.27 16.6123 16.0413 13.6437 20.4378 13.6437C20.8543 13.6433 21.27 13.6816 21.6794 13.7581C21.8128 13.0029 21.8128 12.2301 21.6794 11.4748C21.2699 11.551 20.8543 11.5893 20.4378 11.5892C16.0399 11.5892 16.27 8.62061 13.3586 8.62061Z" fill="#EF690D"/>
<path d="M24.2053 14.8428C23.4566 14.2945 22.5932 13.9233 21.6802 13.7573C21.6802 13.7654 21.6802 13.7719 21.6802 13.7793C21.6016 14.2169 21.4787 14.6454 21.3137 15.0583C22.0679 15.1752 22.7835 15.4698 23.4012 15.9181C23.4012 15.924 23.3975 15.9313 23.3953 15.9379C22.6003 18.5123 20.9083 20.7161 18.6265 22.149C16.3448 23.5819 13.6247 24.1489 10.9606 23.7468C8.29638 23.3448 5.86474 22.0005 4.10743 19.9581C2.35011 17.9157 1.38367 15.3108 1.38367 12.6164C1.38367 9.92202 2.35011 7.31708 4.10743 5.27469C5.86474 3.23229 8.29638 1.88799 10.9606 1.48597C13.6247 1.08395 16.3448 1.65088 18.6265 3.08378C20.9083 4.51669 22.6003 6.7205 23.3953 9.29488C23.3953 9.30148 23.399 9.30881 23.4012 9.31467C22.7836 9.76296 22.0679 10.0575 21.3137 10.1737C21.4786 10.5871 21.6014 11.0161 21.6802 11.4543C21.6797 11.4611 21.6797 11.468 21.6802 11.4748C22.5932 11.309 23.4565 10.9381 24.2053 10.39C24.9251 9.85708 24.7858 9.2553 24.6766 8.89907C23.7867 6.01266 21.8907 3.54129 19.3334 1.93405C16.7761 0.326806 13.7269 -0.309648 10.7401 0.14034C7.75338 0.590327 5.02713 2.09689 3.05683 4.38627C1.08653 6.67566 0.00292969 9.59592 0.00292969 12.6164C0.00292969 15.6369 1.08653 18.5572 3.05683 20.8465C5.02713 23.1359 7.75338 24.6425 10.7401 25.0925C13.7269 25.5424 16.7761 24.906 19.3334 23.2988C21.8907 21.6915 23.7867 19.2201 24.6766 16.3337C24.7858 15.9775 24.9251 15.3757 24.2053 14.8428Z" fill="white"/>
<path d="M21.3091 10.1736C21.021 10.2215 20.7296 10.246 20.4376 10.2469C18.5237 10.2469 17.8062 9.60994 16.975 8.87329C16.1731 8.1623 15.1747 7.27759 13.3584 7.27759H12.2736C10.9601 7.27759 9.76679 7.75476 8.91213 8.61968C8.07726 9.46481 7.61768 10.6215 7.61768 11.8771V13.3614C7.61768 14.617 8.07726 15.7736 8.91213 16.6187C9.76679 17.4837 10.9601 17.9601 12.2736 17.9601H13.3584C15.1747 17.9601 16.1731 17.0761 16.975 16.3651C17.8062 15.6321 18.5237 14.9915 20.4376 14.9915C20.7294 14.9916 21.0209 15.0149 21.3091 15.0611C21.4745 14.6484 21.5973 14.2198 21.6756 13.7821C21.676 13.7748 21.676 13.7674 21.6756 13.7601C21.2661 13.6842 20.8504 13.6461 20.4339 13.6465C16.036 13.6465 16.2662 16.6158 13.3547 16.6158H12.2699C10.2718 16.6158 8.95904 15.188 8.95904 13.3614V11.8741C8.95904 10.0475 10.2718 8.62042 12.2699 8.62042H13.3547C16.2662 8.62042 16.0375 11.5883 20.4339 11.5883C20.8505 11.589 21.2661 11.551 21.6756 11.4747C21.6756 11.4681 21.6756 11.4615 21.6756 11.4541C21.5968 11.016 21.474 10.587 21.3091 10.1736Z" fill="white"/>
<path d="M21.3091 10.1736C21.021 10.2215 20.7296 10.246 20.4376 10.2469C18.5237 10.2469 17.8062 9.60994 16.975 8.87329C16.1731 8.1623 15.1747 7.27759 13.3584 7.27759H12.2736C10.9601 7.27759 9.76679 7.75476 8.91213 8.61968C8.07726 9.46481 7.61768 10.6215 7.61768 11.8771V13.3614C7.61768 14.617 8.07726 15.7736 8.91213 16.6187C9.76679 17.4837 10.9601 17.9601 12.2736 17.9601H13.3584C15.1747 17.9601 16.1731 17.0761 16.975 16.3651C17.8062 15.6321 18.5237 14.9915 20.4376 14.9915C20.7294 14.9916 21.0209 15.0149 21.3091 15.0611C21.4745 14.6484 21.5973 14.2198 21.6756 13.7821C21.676 13.7748 21.676 13.7674 21.6756 13.7601C21.2661 13.6842 20.8504 13.6461 20.4339 13.6465C16.036 13.6465 16.2662 16.6158 13.3547 16.6158H12.2699C10.2718 16.6158 8.95904 15.188 8.95904 13.3614V11.8741C8.95904 10.0475 10.2718 8.62042 12.2699 8.62042H13.3547C16.2662 8.62042 16.0375 11.5883 20.4339 11.5883C20.8505 11.589 21.2661 11.551 21.6756 11.4747C21.6756 11.4681 21.6756 11.4615 21.6756 11.4541C21.5968 11.016 21.474 10.587 21.3091 10.1736Z" fill="white"/>
</g>
<defs>
<clipPath id="clip0_3785_20592">
<rect width="115.885" height="28" fill="white"/>
</clipPath>
</defs>
</svg>
