<svg width="126" height="28" viewBox="0 0 126 28" fill="none" xmlns="http://www.w3.org/2000/svg">
<g clip-path="url(#clip0_3785_20593)">
<path d="M21.4431 4.80711C16.6705 4.46429 11.3545 4.4643 6.58178 4.80711C5.58271 4.87887 4.82573 5.64387 4.75062 6.57894C4.50971 9.57768 4.47766 14.0704 4.69856 17.0661C4.77153 18.0556 5.64028 18.9049 6.81559 18.9049H10.5V23.45L6.8231 23.4474C3.45005 23.4474 0.422408 20.9473 0.160878 17.4007C-0.0772199 14.1719 -0.0443343 9.44552 0.215223 6.21458C0.475348 2.97658 3.0791 0.496979 6.25581 0.268802C11.2455 -0.0895997 16.7795 -0.0896012 21.7692 0.268801C24.9459 0.496977 27.5497 2.97658 27.8098 6.21458C28.0693 9.44552 28.058 14.1719 27.8199 17.4007C27.5583 20.9473 24.5377 23.4576 21.1646 23.4576L17.5258 23.4549L10.5 28V23.45L17.5258 18.9049H21.1652C22.3405 18.9049 23.2092 18.0556 23.2822 17.0661C23.5031 14.0704 23.5152 9.57768 23.2743 6.57894C23.1992 5.64387 22.4423 4.87887 21.4431 4.80711Z" fill="white"/>
<path d="M34.9644 19.9773H45.96V17.2165H38.2964V3.31738H34.9644V19.9773Z" fill="white"/>
<path d="M47.5538 19.9776H50.7906V7.60162H47.5538V19.9776ZM47.292 4.36482C47.292 5.43582 48.0774 6.24502 49.1722 6.24502C50.267 6.24502 51.0524 5.43582 51.0524 4.36482C51.0524 3.29382 50.267 2.48462 49.1722 2.48462C48.0774 2.48462 47.292 3.29382 47.292 4.36482Z" fill="white"/>
<path d="M63.482 7.60156H60.2452L57.5796 16.6693L54.914 7.60156H51.6772L55.8898 19.9775H59.2694L63.482 7.60156Z" fill="white"/>
<path d="M69.2581 20.2631C71.9951 20.2631 74.2085 18.6209 74.6369 16.3599H71.8047C71.4953 17.2167 70.6385 17.9307 69.2581 17.9307C67.3779 17.9307 66.6401 16.6693 66.6401 15.2175V14.9081H74.7321V12.7423C74.7321 9.76734 72.8757 7.31592 69.2105 7.31592C65.4977 7.31592 63.4985 9.69594 63.4985 13.0517V14.7415C63.4985 18.2163 65.7595 20.2631 69.2581 20.2631ZM66.6401 12.5043C66.6401 10.8383 67.3541 9.60074 69.2105 9.60074C70.9479 9.60074 71.7571 10.7669 71.7571 12.3139V12.6233H66.6401V12.5043Z" fill="white"/>
<path d="M83.3346 20.3108C87.5472 20.3108 90.1414 17.4548 90.308 14.0514H87.214C86.9998 15.9316 85.8098 17.5738 83.3346 17.5738C80.55 17.5738 79.36 15.6698 79.36 13.0042V10.291C79.36 7.62537 80.55 5.72137 83.3346 5.72137C85.8098 5.72137 86.9998 7.36357 87.214 9.24377H90.308C90.1414 5.84037 87.5472 2.98438 83.3346 2.98438C78.3128 2.98438 76.0518 6.19738 76.0518 10.4576V12.8376C76.0518 17.0978 78.3128 20.3108 83.3346 20.3108Z" fill="white"/>
<path d="M92.0674 19.9776H95.3044V12.6472C95.3044 10.9812 96.2321 10.1244 97.6844 10.1244C99.2552 10.1244 99.9449 11.1478 99.9449 12.5758V19.9776H103.182V12.0522C103.182 9.12472 101.492 7.31592 98.8025 7.31592C97.2084 7.31592 95.9465 8.00612 95.3044 9.07712V2.60352H92.0674V19.9776Z" fill="white"/>
<path d="M109.36 20.2631C110.788 20.2631 112.359 19.6681 112.93 18.8351V19.9775H116.048V12.0759C116.048 9.19612 113.93 7.31592 110.836 7.31592C108.17 7.31592 106.242 8.60112 105.528 11.0049H108.527C108.86 10.3385 109.551 9.83874 110.669 9.83874C112.002 9.83874 112.811 10.6955 112.811 11.8379V13.5277C112.24 13.0517 111.145 12.4805 109.669 12.4805C106.695 12.4805 104.671 13.7181 104.671 16.4075C104.671 18.8113 106.575 20.2631 109.36 20.2631ZM110.193 18.1211C108.837 18.1211 107.813 17.4547 107.813 16.3123C107.813 15.1699 108.765 14.5511 110.288 14.5511C111.74 14.5511 112.811 15.1937 112.811 16.2885C112.811 17.3357 111.621 18.1211 110.193 18.1211Z" fill="white"/>
<path d="M122.097 19.9775H124.334V17.3595H123.024C122.168 17.3595 121.859 17.0263 121.859 16.2171V10.2195H124.5V7.60152H121.859V4.22192H118.598V7.60152H116.836V10.2195H118.598V16.4551C118.598 18.6447 119.717 19.9775 122.097 19.9775Z" fill="white"/>
</g>
<defs>
<clipPath id="clip0_3785_20593">
<rect width="125.067" height="28" fill="white"/>
</clipPath>
</defs>
</svg>
