<svg width="147" height="28" viewBox="0 0 147 28" fill="none" xmlns="http://www.w3.org/2000/svg">
<g clip-path="url(#clip0_3785_20594)">
<path fill-rule="evenodd" clip-rule="evenodd" d="M131.043 21.4991L136.455 14.2185L131.463 7.33936H135.738L138.629 11.6314L141.546 7.33936H145.796L140.73 14.1939L146.067 21.4991H141.867L138.58 16.8794L135.392 21.4991H131.043Z" fill="white"/>
<path fill-rule="evenodd" clip-rule="evenodd" d="M117.437 14.7022C117.437 19.3755 119.989 21.8599 124.51 21.8599C128.742 21.8599 131.61 19.3755 131.61 14.7022V14.3086C131.61 9.58603 128.693 6.97876 124.51 6.97876C120.427 6.97876 117.437 9.53684 117.437 14.3086V14.7022ZM127.925 14.7032C127.925 17.2958 126.633 18.7033 124.51 18.7033C122.414 18.7033 121.121 17.2712 121.121 14.7032V14.3576C121.121 11.5922 122.487 10.1354 124.535 10.1354C126.608 10.1354 127.925 11.691 127.925 14.3576V14.7032Z" fill="white"/>
<path fill-rule="evenodd" clip-rule="evenodd" d="M105.073 18.9094C105.84 20.7288 107.374 21.8598 109.724 21.8598C113.36 21.8598 115.735 19.2044 115.735 14.4838V14.0658C115.735 9.3452 113.212 7.00948 109.823 6.98489C107.571 6.98489 105.988 7.99294 105.197 9.83693V2.55933H101.561V21.491H104.776L105.073 18.9094ZM112.049 14.5176C112.049 17.3243 110.752 18.7032 108.623 18.7032C106.592 18.7032 105.246 17.1766 105.246 14.5176V14.2222C105.246 11.7848 106.641 10.1352 108.672 10.1352C110.63 10.1352 112.049 11.5632 112.049 14.173V14.5176Z" fill="white"/>
<path fill-rule="evenodd" clip-rule="evenodd" d="M85.4023 7.35619V26.3694H89.0323V19.249C89.7978 20.9032 91.3042 21.9153 93.576 21.9153C96.9343 21.9153 99.5765 19.4712 99.5765 14.7804V14.3854C99.5765 9.59576 97.2059 6.97876 93.576 6.97876C91.23 6.97876 89.6496 8.18851 88.8842 10.0155L88.5137 7.35619H85.4023ZM95.8913 14.6901C95.8913 17.2999 94.5451 18.7033 92.4404 18.7033C90.4092 18.7033 89.0876 17.1276 89.0876 14.6163V14.3454C89.0876 11.711 90.4581 10.1354 92.5139 10.1354C94.4472 10.1354 95.8913 11.5388 95.8913 14.37V14.6901Z" fill="white"/>
<path fill-rule="evenodd" clip-rule="evenodd" d="M69.2437 14.7022C69.2437 19.3755 71.8208 21.8599 76.3429 21.8599C80.5732 21.8599 83.4177 19.3755 83.4177 14.7022V14.3086C83.4177 9.58603 80.5245 6.97876 76.3429 6.97876C72.2584 6.97876 69.2437 9.53684 69.2437 14.3086V14.7022ZM79.7324 14.7032C79.7324 17.2958 78.4157 18.7033 76.3185 18.7033C74.2214 18.7033 72.9289 17.2712 72.9289 14.7032V14.3576C72.9289 11.5922 74.2945 10.1354 76.3429 10.1354C78.4157 10.1354 79.7324 11.691 79.7324 14.3576V14.7032Z" fill="white"/>
<path fill-rule="evenodd" clip-rule="evenodd" d="M59.3218 21.4992H63.0396V14.9944C63.0396 11.9884 63.7832 10.929 66.8566 10.929H68.3932V7.15918H67.4762C64.8242 7.15918 63.3618 8.31722 62.7918 10.584L62.3208 7.33873H59.3218V21.4992Z" fill="white"/>
<path fill-rule="evenodd" clip-rule="evenodd" d="M42.8799 4.0022V21.4988H49.6302C54.0274 21.4988 57.3376 18.9447 57.3376 13.2963V12.0929C57.3376 6.46898 53.8298 4.0022 49.5315 4.0022H42.8799ZM46.5652 7.15881H49.3773C51.9172 7.15881 53.6523 8.76348 53.6523 12.2938V13.2073C53.6523 16.7375 51.9675 18.3422 49.5031 18.3422H46.5652V7.15881Z" fill="white"/>
<path d="M8.62505 0.358643L0.536133 5.50281L8.62505 10.647L16.7153 5.50281L24.8043 10.647L32.8931 5.50281L24.8043 0.358643L16.7153 5.50281L8.62505 0.358643Z" fill="white"/>
<path d="M8.62505 20.9357L0.536133 15.7914L8.62505 10.6472L16.7153 15.7914L8.62505 20.9357Z" fill="white"/>
<path d="M16.7153 15.7914L24.8043 10.6472L32.8932 15.7914L24.8043 20.9357L16.7153 15.7914Z" fill="white"/>
<path d="M16.7152 27.7944L8.625 22.6503L16.7152 17.5061L24.8042 22.6503L16.7152 27.7944Z" fill="white"/>
</g>
<defs>
<clipPath id="clip0_3785_20594">
<rect width="146.72" height="28" fill="white"/>
</clipPath>
</defs>
</svg>
