<svg width="136" height="28" viewBox="0 0 136 28" fill="none" xmlns="http://www.w3.org/2000/svg">
<g clip-path="url(#clip0_3785_20596)">
<path d="M46.3988 14.5355V26.6995C46.399 26.7936 46.3806 26.8867 46.3446 26.9738C46.3088 27.0607 46.256 27.1396 46.1895 27.2062C46.1229 27.2728 46.044 27.3256 45.9571 27.3614C45.87 27.3973 45.7768 27.4157 45.6827 27.4155H40.427C40.3329 27.4155 40.2399 27.397 40.153 27.361C40.0661 27.3251 39.9871 27.2723 39.9207 27.2057C39.8542 27.1393 39.8014 27.0604 39.7654 26.9735C39.7294 26.8866 39.7109 26.7936 39.7109 26.6995V7.48809C39.7109 7.39405 39.7294 7.30093 39.7654 7.21405C39.8014 7.12718 39.8542 7.04824 39.9207 6.98175C39.9871 6.91526 40.0661 6.86251 40.153 6.82652C40.2399 6.79055 40.3329 6.77202 40.427 6.77202H45.6827C45.7768 6.77182 45.87 6.7902 45.9571 6.82612C46.044 6.86203 46.1229 6.91478 46.1895 6.9813C46.256 7.04783 46.3088 7.12686 46.3446 7.21382C46.3806 7.30079 46.399 7.39399 46.3988 7.48809V9.00131C47.7208 7.34426 49.5737 6.3176 52.1748 6.3176C54.6091 6.3176 56.7144 7.30754 57.989 9.16656C59.5573 7.30754 61.7866 6.3176 64.5116 6.3176C69.1354 6.3176 72.3149 9.04262 72.3149 14.2433V26.6964C72.315 26.7905 72.2967 26.8837 72.2607 26.9707C72.2249 27.0576 72.1721 27.1366 72.1056 27.2031C72.039 27.2697 71.9601 27.3225 71.8731 27.3583C71.7861 27.3942 71.6929 27.4126 71.5988 27.4125H66.3522C66.1624 27.4125 65.9801 27.337 65.846 27.2027C65.7116 27.0685 65.6362 26.8863 65.6362 26.6964V15.6479C65.6362 13.3773 64.3571 12.2619 62.6235 12.2619C61.1776 12.2619 60.0224 13.1707 59.3614 14.5325V26.6964C59.3616 26.7905 59.3432 26.8837 59.3073 26.9707C59.2715 27.0576 59.2187 27.1366 59.1521 27.2031C59.0856 27.2697 59.0066 27.3225 58.9197 27.3583C58.8326 27.3942 58.7395 27.4126 58.6454 27.4125H53.3896C53.1997 27.4125 53.0175 27.337 52.8833 27.2027C52.749 27.0685 52.6736 26.8863 52.6736 26.6964V15.6479C52.6736 13.3773 51.3944 12.2619 49.6609 12.2619C48.1737 12.2619 47.0598 13.1707 46.3988 14.5355ZM81.1127 27.8256C77.2325 27.8256 73.9704 25.2658 73.9704 21.3029C73.9704 17.6706 76.3649 15.9768 80.8235 14.8216L86.5214 13.336C86.3562 11.9727 85.2821 11.3132 83.5485 11.3132C82.0185 11.3132 80.9077 11.9008 80.3982 13.0758C80.3337 13.2362 80.2142 13.3683 80.0611 13.4486C79.9079 13.5287 79.7314 13.5518 79.5627 13.5134L75.046 12.4424C74.9475 12.4189 74.8551 12.3749 74.7747 12.3132C74.6944 12.2515 74.628 12.1736 74.58 12.0844C74.5319 11.9953 74.5032 11.897 74.4957 11.796C74.4882 11.695 74.5021 11.5936 74.5365 11.4984C75.8325 7.99148 79.4327 6.15388 83.7918 6.15388C89.6535 6.15388 93.0395 8.92022 93.0395 13.7904V26.6979C93.0395 26.8878 92.964 27.07 92.8297 27.2042C92.6955 27.3386 92.5133 27.414 92.3234 27.414H87.3446C87.1576 27.414 86.978 27.3408 86.8441 27.2102C86.7104 27.0795 86.633 26.9017 86.6285 26.7148L86.6041 25.6437L86.5627 25.685C84.869 27.1233 83.218 27.8256 81.1127 27.8256ZM82.8049 22.6647C83.6725 22.6647 84.335 22.4184 85.3234 21.84L86.4801 21.1377L86.5214 17.7945L83.5485 18.6192C81.5258 19.1976 80.617 19.6903 80.617 20.8485C80.617 22.1292 81.7324 22.6647 82.8049 22.6647ZM103.721 17.6706L101.698 19.5281V26.6964C101.698 26.7905 101.68 26.8837 101.644 26.9707C101.608 27.0576 101.555 27.1366 101.489 27.2031C101.422 27.2697 101.343 27.3225 101.256 27.3583C101.169 27.3942 101.076 27.4126 100.982 27.4125H95.8502C95.6603 27.4125 95.4781 27.337 95.3439 27.2027C95.2095 27.0685 95.1341 26.8863 95.1341 26.6964V0.716065C95.1346 0.526278 95.2101 0.344379 95.3443 0.210177C95.4785 0.0759764 95.6604 0.000404236 95.8502 0H100.984C101.173 0 101.356 0.0754424 101.49 0.209731C101.624 0.344019 101.7 0.526154 101.7 0.716065V12.4684L107.687 6.96022C107.82 6.8387 107.994 6.77155 108.175 6.77202H114.511C114.655 6.77207 114.796 6.8158 114.915 6.89747C115.034 6.97914 115.126 7.09494 115.178 7.22966C115.23 7.36438 115.241 7.51171 115.208 7.65232C115.174 7.79292 115.099 7.92022 114.993 8.01749L108.84 13.6251L115.851 26.3506C115.911 26.4597 115.942 26.5826 115.94 26.7069C115.938 26.8315 115.904 26.9534 115.84 27.0605C115.777 27.1678 115.687 27.2567 115.579 27.3184C115.471 27.38 115.348 27.4125 115.224 27.4125H109.234C109.103 27.4123 108.974 27.3762 108.862 27.3083C108.75 27.2403 108.659 27.143 108.599 27.0269L103.721 17.6706Z" fill="white"/>
<path d="M125.498 27.8668C119.761 27.8668 114.517 24.2757 114.517 17.0034C114.517 10.1503 119.554 6.1875 125.085 6.1875C130.824 6.1875 134.994 10.1917 135.159 16.5077C135.177 17.1748 135.188 17.6399 135.194 17.9704C135.196 18.0653 135.178 18.1595 135.143 18.2475C135.107 18.3356 135.055 18.4156 134.988 18.4833C134.922 18.5507 134.842 18.6043 134.755 18.6407C134.667 18.6773 134.573 18.6959 134.478 18.6956H121.122C121.329 21.1728 123.31 22.7411 125.829 22.7411C127.62 22.7411 129.089 21.996 130.113 20.6495C130.223 20.5066 130.384 20.4111 130.562 20.3827C130.741 20.3544 130.923 20.3951 131.072 20.4965L134.409 22.7304C134.488 22.7841 134.556 22.8526 134.608 22.9325C134.66 23.0122 134.696 23.1014 134.714 23.1952C134.731 23.2889 134.73 23.3851 134.711 23.4784C134.691 23.5718 134.653 23.6602 134.599 23.7387C132.82 26.3704 129.871 27.8668 125.498 27.8668ZM121.246 14.6564H128.471C128.43 12.3031 126.696 11.2719 124.88 11.2719C123.186 11.2719 121.453 12.2618 121.246 14.6564Z" fill="white"/>
<path d="M29.2071 27.3527H24.0217C23.8318 27.3527 23.6496 27.2773 23.5154 27.143C23.3811 27.0086 23.3057 26.8265 23.3057 26.6367V7.49719C23.3069 7.30792 23.3828 7.12681 23.517 6.99326C23.651 6.85972 23.8325 6.78458 24.0217 6.78418H29.2056C29.3951 6.78377 29.5772 6.8586 29.7118 6.99228C29.8463 7.12595 29.9224 7.30754 29.9232 7.49719V26.6367C29.9233 26.7308 29.9049 26.8239 29.869 26.9108C29.8332 26.9979 29.7804 27.0769 29.7138 27.1434C29.6473 27.21 29.5683 27.2628 29.4814 27.2986C29.3944 27.3345 29.3012 27.3529 29.2071 27.3527Z" fill="white"/>
<path d="M5.17471 27.4248L0.543242 25.093C0.373681 25.0078 0.244917 24.8586 0.185241 24.6784C0.125565 24.4983 0.139862 24.3018 0.224991 24.1321L8.81777 7.03836C8.90306 6.8688 9.05218 6.74003 9.23234 6.68036C9.41252 6.62069 9.60901 6.63498 9.77865 6.72011L14.4117 9.04732C14.5812 9.13261 14.71 9.28171 14.7697 9.46189C14.8293 9.64205 14.815 9.83856 14.7299 10.0082L6.13559 27.1066C6.05032 27.2761 5.9012 27.4049 5.72102 27.4646C5.54085 27.5243 5.34435 27.5099 5.17471 27.4248Z" fill="white"/>
<path d="M18.8548 27.0392L22.5269 8.40163C22.5635 8.21604 22.5251 8.02353 22.4201 7.86615C22.3152 7.70877 22.1522 7.5993 21.9669 7.56163L16.8856 6.53496C16.7932 6.51646 16.698 6.51634 16.6056 6.53462C16.513 6.55291 16.4251 6.58923 16.3467 6.64151C16.2682 6.69381 16.2009 6.76104 16.1484 6.83936C16.096 6.91769 16.0595 7.00559 16.041 7.09802L12.3689 25.7371C12.3324 25.923 12.371 26.1156 12.4762 26.2731C12.5815 26.4305 12.7448 26.5399 12.9304 26.5771L18.0102 27.6022C18.1026 27.6212 18.1979 27.6217 18.2905 27.6036C18.3832 27.5854 18.4714 27.5491 18.5499 27.4968C18.6283 27.4445 18.6958 27.377 18.7481 27.2985C18.8005 27.22 18.8367 27.1319 18.8548 27.0392Z" fill="white"/>
</g>
<defs>
<clipPath id="clip0_3785_20596">
<rect width="135.257" height="28" fill="white"/>
</clipPath>
</defs>
</svg>
