<svg width="1244" height="1302" viewBox="0 0 1244 1302" fill="none" xmlns="http://www.w3.org/2000/svg">
<g filter="url(#filter0_f_4598_23736)">
<path d="M659.65 687.565C660.874 701.195 635.258 708.658 621.98 687.565C607.629 668.932 618.181 625.664 659.65 613.172C698.709 598.384 760.513 626.772 772.66 687.565C788.137 746.021 741.402 824.88 659.65 836.361C580.438 852.16 482.28 788.176 471.3 687.565C454.656 589.409 537.745 474.724 659.65 464.377C779.191 447.444 913.393 547.228 923.34 687.565C941.042 825.447 821.884 975.942 659.65 985.151C499.812 1003.22 329.447 867.607 320.621 687.565C301.822 509.866 457.119 323.757 659.65 315.585C859.626 296.502 1066.37 467.705 1074.02 687.565C1093.97 904.97 902.391 1126.91 659.65 1133.94C419.351 1154.16 176.542 947.151 169.941 687.565C148.965 430.44 376.591 172.72 659.65 166.793C940.18 145.442 1219.25 388.281 1224.7 687.565C1246.85 984.513 982.92 1277.85 659.65 1282.74C338.918 1305.13 23.566 1026.67 19.2611 687.565C-3.93874 350.917 296.106 21.7551 659.65 18" stroke="white" stroke-opacity="0.2" stroke-width="4" stroke-linecap="round"/>
</g>
<defs>
<filter id="filter0_f_4598_23736" x="0" y="0" width="1244" height="1302" filterUnits="userSpaceOnUse" color-interpolation-filters="sRGB">
<feFlood flood-opacity="0" result="BackgroundImageFix"/>
<feBlend mode="normal" in="SourceGraphic" in2="BackgroundImageFix" result="shape"/>
<feGaussianBlur stdDeviation="8" result="effect1_foregroundBlur_4598_23736"/>
</filter>
</defs>
</svg>
