<svg width="872" height="912" viewBox="0 0 872 912" fill="none" xmlns="http://www.w3.org/2000/svg">
<g filter="url(#filter0_f_4598_23735)">
<path d="M462.056 481.301C462.903 490.732 445.175 495.896 435.986 481.301C426.054 468.408 433.357 438.469 462.056 429.825C489.087 419.593 531.858 439.235 540.265 481.301C550.976 521.749 518.632 576.315 462.056 584.259C407.237 595.191 339.307 550.918 331.708 481.301C320.189 413.383 377.691 334.027 462.056 326.867C544.784 315.151 637.659 384.196 644.544 481.301C656.794 576.707 574.33 680.842 462.056 687.214C351.439 699.714 233.538 605.88 227.43 481.301C214.42 358.343 321.894 229.566 462.056 223.912C600.45 210.707 743.528 329.17 748.822 481.301C762.627 631.733 630.046 785.301 462.056 790.168C295.756 804.16 127.72 660.92 123.151 481.301C108.635 303.385 266.164 125.058 462.056 120.956C656.198 106.183 849.328 274.213 853.101 481.301C868.427 686.772 685.776 889.743 462.056 893.126C240.092 908.619 21.852 715.942 18.8727 481.301C2.81723 248.36 210.464 20.5983 462.056 18" stroke="white" stroke-opacity="0.2" stroke-width="4" stroke-linecap="round"/>
</g>
<defs>
<filter id="filter0_f_4598_23735" x="0" y="0" width="872" height="912" filterUnits="userSpaceOnUse" color-interpolation-filters="sRGB">
<feFlood flood-opacity="0" result="BackgroundImageFix"/>
<feBlend mode="normal" in="SourceGraphic" in2="BackgroundImageFix" result="shape"/>
<feGaussianBlur stdDeviation="8" result="effect1_foregroundBlur_4598_23735"/>
</filter>
</defs>
</svg>
