<svg width="181" height="42" viewBox="0 0 181 42" fill="none" xmlns="http://www.w3.org/2000/svg">
<path d="M61.7267 34.0147C61.0484 34.0147 60.5398 33.897 60.2007 33.6617C59.8616 33.4525 59.6398 33.1649 59.5355 32.7989C59.4312 32.4328 59.379 32.0406 59.379 31.6222V8.95278C59.379 8.53443 59.4181 8.1553 59.4964 7.81538C59.6007 7.44933 59.8224 7.16171 60.1615 6.95253C60.5007 6.71721 61.0354 6.59955 61.7658 6.59955L69.1218 6.63877C71.026 6.63877 72.7737 6.96561 74.3649 7.61928C75.9822 8.27296 77.3778 9.20117 78.5516 10.4039C79.7254 11.6067 80.6254 13.0448 81.2514 14.7182C81.9035 16.3655 82.2296 18.1827 82.2296 20.1698C82.2296 22.2093 81.9035 24.0788 81.2514 25.7784C80.5993 27.4779 79.6863 28.9422 78.5125 30.1711C77.3386 31.4 75.9431 32.3544 74.3258 33.0342C72.7346 33.6879 70.9608 34.0147 69.0044 34.0147H61.7267ZM64.1135 29.269H69.1218C70.7913 29.269 72.252 28.903 73.5041 28.1708C74.7562 27.4126 75.7214 26.3667 76.3996 25.0332C77.1039 23.6997 77.456 22.1439 77.456 20.366C77.456 18.5618 77.1039 16.993 76.3996 15.6595C75.7214 14.2998 74.7432 13.254 73.465 12.5218C72.2129 11.7636 70.7521 11.3845 69.0827 11.3845H64.1135V29.269Z" fill="#9A2DFF"/>
<path d="M86.2867 34.0539C85.5824 34.0539 85.0607 33.9363 84.7215 33.7009C84.4085 33.4918 84.2129 33.2041 84.1346 32.8381C84.0564 32.472 84.0173 32.0667 84.0173 31.6222V17.0714C84.0173 16.6008 84.0564 16.1955 84.1346 15.8556C84.2129 15.4895 84.4085 15.215 84.7215 15.032C85.0607 14.8228 85.5954 14.7182 86.3258 14.7182C87.0301 14.7182 87.5387 14.8097 87.8518 14.9927C88.1909 15.1758 88.3996 15.4111 88.4778 15.6987C88.5822 15.9602 88.6343 16.2217 88.6343 16.4831L88.3213 17.1891C88.4517 16.9799 88.6343 16.7315 88.8691 16.4439C89.1039 16.1301 89.4169 15.8294 89.8082 15.5418C90.1994 15.2281 90.669 14.9797 91.2168 14.7966C91.7645 14.5875 92.4167 14.4829 93.1731 14.4829C93.4862 14.4829 93.8122 14.5221 94.1513 14.6005C94.5165 14.6528 94.8687 14.7443 95.2078 14.8751C95.573 14.9797 95.899 15.1235 96.186 15.3065C96.4729 15.4895 96.6946 15.7118 96.8512 15.9733C97.0077 16.2086 97.0859 16.4831 97.0859 16.7969C97.0859 17.6336 96.8772 18.3396 96.4599 18.9148C96.0425 19.49 95.5469 19.7776 94.973 19.7776C94.5817 19.7776 94.2948 19.7384 94.1122 19.66C93.9296 19.5815 93.7731 19.49 93.6427 19.3854C93.5383 19.2809 93.3688 19.1893 93.134 19.1109C92.9253 19.0325 92.5862 18.9932 92.1167 18.9932C91.7254 18.9932 91.3211 19.0586 90.9037 19.1893C90.5125 19.3201 90.1473 19.5162 89.8082 19.7776C89.4691 20.0391 89.1952 20.379 88.9865 20.7974C88.7778 21.1896 88.6734 21.6472 88.6734 22.1701V31.7007C88.6734 32.1452 88.6343 32.5505 88.5561 32.9165C88.4778 33.2564 88.2691 33.531 87.93 33.7402C87.5909 33.9493 87.0431 34.0539 86.2867 34.0539Z" fill="#9A2DFF"/>
<path d="M106.389 34.2892C104.694 34.2892 103.207 34.0147 101.929 33.4656C100.677 32.9165 99.6201 32.1713 98.7592 31.23C97.9245 30.2626 97.2854 29.1906 96.842 28.014C96.4246 26.8112 96.216 25.5692 96.216 24.288C96.216 22.4054 96.6463 20.732 97.5072 19.2678C98.368 17.8035 99.5548 16.6531 101.068 15.8164C102.607 14.9797 104.368 14.5613 106.35 14.5613C107.759 14.5613 108.998 14.7836 110.067 15.2281C111.137 15.6726 112.024 16.2609 112.728 16.993C113.458 17.699 114.006 18.4834 114.371 19.3462C114.762 20.2091 114.958 21.0458 114.958 21.8563C114.958 23.2421 114.619 24.2488 113.941 24.8763C113.289 25.5038 112.467 25.8176 111.476 25.8176H101.146C101.172 26.7066 101.446 27.4779 101.968 28.1316C102.516 28.7853 103.194 29.2952 104.002 29.6612C104.837 30.0011 105.685 30.1711 106.546 30.1711C107.198 30.1711 107.772 30.1319 108.267 30.0534C108.789 29.975 109.232 29.8835 109.598 29.7789C109.963 29.6481 110.276 29.5174 110.537 29.3867C110.824 29.2559 111.085 29.1383 111.319 29.0337C111.554 28.9291 111.776 28.8637 111.984 28.8376C112.271 28.8114 112.558 28.8768 112.845 29.0337C113.132 29.1906 113.367 29.4651 113.55 29.8573C113.706 30.1188 113.81 30.3672 113.863 30.6025C113.941 30.8117 113.98 31.0209 113.98 31.23C113.98 31.753 113.667 32.2498 113.041 32.7204C112.415 33.1649 111.528 33.531 110.38 33.8186C109.259 34.1324 107.928 34.2892 106.389 34.2892ZM101.146 23.0329H109.167C109.611 23.0329 109.95 22.9676 110.185 22.8368C110.419 22.68 110.537 22.3662 110.537 21.8956C110.537 21.2942 110.354 20.7582 109.989 20.2875C109.624 19.7907 109.128 19.4116 108.502 19.1501C107.876 18.8625 107.146 18.7187 106.311 18.7187C105.346 18.7187 104.472 18.9148 103.689 19.307C102.907 19.6731 102.281 20.1829 101.811 20.8366C101.368 21.4903 101.146 22.2224 101.146 23.0329Z" fill="#9A2DFF"/>
<path d="M132.255 33.9755C131.499 33.9755 130.938 33.8317 130.573 33.5441C130.207 33.2564 130.025 32.8642 130.025 32.3674L130.299 31.0732C130.09 31.4131 129.738 31.8183 129.242 32.289C128.747 32.7335 128.094 33.1388 127.286 33.5048C126.477 33.8447 125.499 34.0147 124.351 34.0147C123.125 34.0147 121.964 33.7663 120.869 33.2695C119.799 32.7466 118.847 32.0406 118.013 31.1516C117.204 30.2365 116.552 29.2036 116.056 28.0532C115.587 26.8766 115.352 25.6215 115.352 24.288C115.352 23.0068 115.587 21.804 116.056 20.6797C116.552 19.5292 117.217 18.5095 118.052 17.6205C118.886 16.7315 119.839 16.0386 120.908 15.5418C122.004 15.0189 123.151 14.7574 124.351 14.7574C125.421 14.7574 126.321 14.9012 127.051 15.1888C127.808 15.4765 128.447 15.8425 128.968 16.287C129.49 16.7054 129.92 17.1499 130.26 17.6205L130.025 16.4831C130.025 15.9079 130.207 15.4765 130.573 15.1888C130.938 14.8751 131.512 14.7182 132.294 14.7182C133.025 14.7182 133.546 14.8359 133.859 15.0712C134.172 15.2804 134.368 15.581 134.446 15.9733C134.524 16.3393 134.564 16.7577 134.564 17.2283V31.583C134.564 32.0275 134.524 32.4328 134.446 32.7989C134.368 33.1649 134.159 33.4525 133.82 33.6617C133.507 33.8709 132.985 33.9755 132.255 33.9755ZM125.056 29.4259C125.942 29.4259 126.738 29.2036 127.442 28.7591C128.147 28.3146 128.707 27.7133 129.125 26.955C129.568 26.1706 129.79 25.3077 129.79 24.3664C129.79 23.3467 129.568 22.4577 129.125 21.6995C128.681 20.9412 128.094 20.3529 127.364 19.9345C126.66 19.49 125.864 19.2678 124.977 19.2678C124.012 19.2678 123.151 19.5031 122.395 19.9737C121.638 20.4182 121.038 21.0327 120.595 21.8171C120.178 22.5754 119.969 23.4382 119.969 24.4057C119.969 25.347 120.191 26.1967 120.634 26.955C121.078 27.7133 121.678 28.3146 122.434 28.7591C123.217 29.2036 124.09 29.4259 125.056 29.4259Z" fill="#9A2DFF"/>
<path d="M138.803 34.0147C138.098 34.0147 137.577 33.9101 137.237 33.7009C136.924 33.4918 136.729 33.2041 136.651 32.8381C136.572 32.472 136.533 32.0798 136.533 31.6615V16.993C136.533 16.5746 136.572 16.1955 136.651 15.8556C136.729 15.5157 136.937 15.2411 137.277 15.032C137.616 14.8228 138.15 14.7182 138.881 14.7182C139.637 14.7182 140.185 14.8751 140.524 15.1888C140.889 15.5026 141.072 15.9994 141.072 16.6792L140.72 17.7774C140.85 17.4898 141.072 17.176 141.385 16.8361C141.698 16.4962 142.076 16.1563 142.52 15.8164C142.989 15.4765 143.511 15.2019 144.085 14.9927C144.659 14.7836 145.259 14.679 145.885 14.679C146.745 14.679 147.528 14.8228 148.232 15.1104C148.963 15.398 149.602 15.8164 150.15 16.3655C150.723 16.9145 151.219 17.5813 151.636 18.3657C152.08 17.6859 152.576 17.0714 153.123 16.5223C153.671 15.9471 154.31 15.5026 155.041 15.1888C155.771 14.8489 156.593 14.679 157.506 14.679C159.019 14.679 160.284 15.0581 161.301 15.8164C162.344 16.5746 163.127 17.6597 163.649 19.0717C164.196 20.4575 164.47 22.1178 164.47 24.0527V31.6615C164.47 32.106 164.418 32.5112 164.314 32.8773C164.236 33.2172 164.027 33.4918 163.688 33.7009C163.375 33.9101 162.853 34.0147 162.123 34.0147C161.392 34.0147 160.858 33.897 160.518 33.6617C160.179 33.4525 159.971 33.178 159.892 32.8381C159.814 32.472 159.775 32.0667 159.775 31.6222V24.0135C159.775 23.046 159.658 22.2093 159.423 21.5033C159.188 20.7974 158.836 20.2483 158.366 19.8561C157.923 19.4639 157.336 19.2678 156.606 19.2678C155.823 19.2678 155.145 19.4639 154.571 19.8561C154.023 20.2221 153.593 20.7582 153.28 21.4641C152.967 22.1701 152.81 23.0329 152.81 24.0527V31.7007C152.81 32.1452 152.745 32.5635 152.615 32.9557C152.484 33.3218 152.223 33.5963 151.832 33.7794C151.467 33.9885 150.932 34.067 150.228 34.0147C149.576 33.9885 149.093 33.8578 148.78 33.6225C148.493 33.3872 148.311 33.0996 148.232 32.7596C148.18 32.3936 148.154 32.0145 148.154 31.6222V24.0135C148.154 23.046 148.037 22.2093 147.802 21.5033C147.567 20.7712 147.215 20.2221 146.745 19.8561C146.302 19.4639 145.702 19.2678 144.946 19.2678C144.137 19.2678 143.446 19.477 142.872 19.8953C142.324 20.3137 141.907 20.8758 141.62 21.5818C141.333 22.2878 141.189 23.0983 141.189 24.0135V31.7007C141.189 32.119 141.137 32.5112 141.033 32.8773C140.955 33.2434 140.746 33.5179 140.407 33.7009C140.094 33.9101 139.559 34.0147 138.803 34.0147Z" fill="#9A2DFF"/>
<path d="M173.135 34.2892C172.457 34.2892 171.74 34.2108 170.983 34.0539C170.227 33.9232 169.496 33.7271 168.792 33.4656C168.088 33.178 167.475 32.8512 166.953 32.4851C166.458 32.0929 166.144 31.6615 166.014 31.1908C165.91 30.9293 165.871 30.681 165.897 30.4456C165.923 30.1842 166.001 29.9227 166.131 29.6612C166.262 29.3736 166.458 29.086 166.718 28.7984C166.953 28.5107 167.188 28.3539 167.423 28.3277C167.684 28.2754 168.01 28.3539 168.401 28.563C168.74 28.6938 169.105 28.8637 169.496 29.0729C169.914 29.2821 170.331 29.4913 170.749 29.7004C171.192 29.9096 171.635 30.0796 172.079 30.2103C172.548 30.341 173.005 30.4064 173.448 30.4064C174.413 30.4064 175.183 30.2495 175.757 29.9358C176.331 29.5958 176.618 29.1252 176.618 28.5238C176.618 28.1839 176.526 27.8832 176.344 27.6218C176.161 27.3603 175.913 27.1511 175.6 26.9942C175.313 26.8112 174.961 26.6543 174.544 26.5236C174.153 26.3667 173.722 26.236 173.253 26.1314C172.809 26.0006 172.34 25.8568 171.844 25.6999C171.192 25.5169 170.54 25.2947 169.888 25.0332C169.236 24.7717 168.649 24.4318 168.127 24.0135C167.631 23.5951 167.227 23.0722 166.914 22.4446C166.601 21.8171 166.444 21.0327 166.444 20.0914C166.444 18.9148 166.718 17.9212 167.266 17.1106C167.84 16.2739 168.662 15.6333 169.731 15.1888C170.801 14.7443 172.092 14.5221 173.605 14.5221C174.127 14.5221 174.622 14.5613 175.092 14.6398C175.587 14.7182 176.057 14.8359 176.5 14.9927C176.97 15.1235 177.413 15.2934 177.831 15.5026C178.274 15.7118 178.691 15.9471 179.083 16.2086C179.735 16.5746 180.074 17.0061 180.1 17.5029C180.126 17.9735 179.944 18.4834 179.552 19.0325C179.265 19.3985 178.978 19.66 178.691 19.8169C178.405 19.9476 178.105 19.9476 177.792 19.8169C177.374 19.6077 176.918 19.3854 176.422 19.1501C175.952 18.8886 175.457 18.6664 174.935 18.4834C174.44 18.3003 173.918 18.2088 173.37 18.2088C172.848 18.2088 172.379 18.2873 171.961 18.4441C171.544 18.601 171.231 18.8233 171.022 19.1109C170.814 19.3985 170.709 19.7384 170.709 20.1306C170.709 20.4967 170.814 20.7974 171.022 21.0327C171.231 21.268 171.505 21.4641 171.844 21.621C172.183 21.7779 172.588 21.9217 173.057 22.0524C173.527 22.157 174.022 22.2616 174.544 22.3662C175.274 22.5231 176.018 22.7192 176.774 22.9545C177.531 23.1898 178.222 23.5167 178.848 23.935C179.5 24.3534 180.022 24.9155 180.413 25.6215C180.804 26.3013 181 27.1903 181 28.2885C181 30.1972 180.296 31.6745 178.887 32.7204C177.505 33.7663 175.587 34.2892 173.135 34.2892Z" fill="#9A2DFF"/>
<path d="M155.959 11.8465C155.663 11.8465 155.45 11.8053 155.318 11.7229C155.187 11.6323 155.105 11.5129 155.072 11.3647C155.039 11.2165 155.023 11.0641 155.023 10.9076V4.15058C155.023 3.98588 155.035 3.83352 155.06 3.69352C155.092 3.55352 155.175 3.43823 155.306 3.34764C155.437 3.25705 155.655 3.21176 155.959 3.21176C156.271 3.21176 156.489 3.25705 156.612 3.34764C156.744 3.43823 156.822 3.55352 156.846 3.69352C156.879 3.83352 156.896 3.98588 156.896 4.15058V10.2159H160.272C160.412 10.2159 160.544 10.2282 160.667 10.2529C160.79 10.2776 160.889 10.3476 160.963 10.4629C161.045 10.5782 161.086 10.7676 161.086 11.0312C161.086 11.2865 161.045 11.4759 160.963 11.5994C160.88 11.7147 160.778 11.7847 160.654 11.8094C160.539 11.8341 160.412 11.8465 160.272 11.8465H155.959Z" fill="#F8B102"/>
<path d="M163.987 11.8465C163.691 11.8465 163.478 11.8012 163.346 11.7106C163.223 11.62 163.145 11.5047 163.112 11.3647C163.079 11.2165 163.063 11.06 163.063 10.8953V4.13823C163.063 3.98176 163.079 3.83764 163.112 3.70588C163.145 3.56588 163.227 3.45058 163.359 3.35999C163.49 3.26941 163.708 3.22411 164.012 3.22411C164.217 3.22411 164.373 3.23647 164.48 3.26117C164.587 3.28588 164.665 3.32294 164.714 3.37235C164.764 3.41352 164.817 3.46294 164.874 3.52058L167.647 7.27587H167.462L170.248 3.52058C170.313 3.43823 170.379 3.37647 170.445 3.33529C170.511 3.29411 170.593 3.26529 170.691 3.24882C170.798 3.23235 170.946 3.22411 171.135 3.22411C171.431 3.22411 171.644 3.26941 171.776 3.35999C171.907 3.45058 171.989 3.56999 172.022 3.71823C172.055 3.85823 172.072 4.00646 172.072 4.16293V10.92C172.072 11.0765 172.055 11.2247 172.022 11.3647C171.989 11.5047 171.907 11.62 171.776 11.7106C171.644 11.8012 171.427 11.8465 171.123 11.8465C170.827 11.8465 170.613 11.8012 170.482 11.7106C170.35 11.62 170.268 11.5006 170.235 11.3523C170.202 11.2041 170.186 11.0517 170.186 10.8953V6.48528L168.35 9.09175C168.317 9.13293 168.272 9.19057 168.214 9.26469C168.157 9.33057 168.075 9.38822 167.968 9.43763C167.869 9.48704 167.734 9.51175 167.561 9.51175C167.38 9.51175 167.237 9.48704 167.13 9.43763C167.031 9.38822 166.953 9.33057 166.896 9.26469C166.838 9.19881 166.789 9.14116 166.748 9.09175L164.924 6.49764V10.92C164.924 11.0765 164.907 11.2247 164.874 11.3647C164.842 11.5047 164.759 11.62 164.628 11.7106C164.505 11.8012 164.291 11.8465 163.987 11.8465Z" fill="#F8B102"/>
<path d="M177.154 11.97C176.719 11.97 176.337 11.9165 176.008 11.8094C175.688 11.7023 175.413 11.5747 175.183 11.4265C174.961 11.27 174.784 11.1176 174.653 10.9694C174.521 10.8212 174.431 10.71 174.382 10.6359C174.242 10.4547 174.156 10.2982 174.123 10.1665C174.09 10.0265 174.106 9.88646 174.172 9.74646C174.246 9.60646 174.369 9.4541 174.542 9.2894C174.714 9.14116 174.875 9.06293 175.022 9.05469C175.179 9.03822 175.331 9.07528 175.478 9.16587C175.626 9.25646 175.77 9.3841 175.91 9.54881C176.107 9.78763 176.3 9.95646 176.489 10.0553C176.686 10.1459 176.892 10.1912 177.105 10.1912C177.376 10.1912 177.606 10.1582 177.795 10.0923C177.984 10.0265 178.128 9.92351 178.227 9.78351C178.325 9.63528 178.375 9.44999 178.375 9.22763C178.375 9.04646 178.305 8.90234 178.165 8.79528C178.034 8.67999 177.853 8.58116 177.623 8.49881C177.401 8.41646 177.15 8.33822 176.871 8.2641C176.6 8.18175 176.329 8.08705 176.058 7.97999C175.869 7.91411 175.688 7.83175 175.515 7.73293C175.343 7.63411 175.179 7.52293 175.022 7.3994C174.866 7.27587 174.731 7.12764 174.616 6.95469C174.509 6.78175 174.423 6.58411 174.357 6.36175C174.3 6.1394 174.271 5.88411 174.271 5.59587C174.271 5.10999 174.39 4.67764 174.628 4.29882C174.866 3.91999 175.195 3.62352 175.614 3.40941C176.041 3.18705 176.53 3.07588 177.081 3.07588C177.45 3.07588 177.771 3.10882 178.042 3.1747C178.321 3.24058 178.555 3.31882 178.744 3.40941C178.933 3.49999 179.081 3.59058 179.188 3.68117C179.303 3.76352 179.381 3.82941 179.422 3.87882C179.652 4.09293 179.779 4.27823 179.804 4.4347C179.829 4.58293 179.742 4.79293 179.545 5.0647C179.34 5.35293 179.134 5.51352 178.929 5.54646C178.732 5.5794 178.506 5.5094 178.251 5.33646C178.153 5.24587 178.054 5.16352 177.956 5.0894C177.857 5.01529 177.738 4.95764 177.598 4.91646C177.467 4.86705 177.29 4.84234 177.068 4.84234C176.937 4.84234 176.814 4.86293 176.699 4.90411C176.583 4.93705 176.485 4.98646 176.403 5.05235C176.321 5.11823 176.255 5.20058 176.206 5.2994C176.156 5.38999 176.132 5.49293 176.132 5.60823C176.132 5.79764 176.193 5.94999 176.316 6.06528C176.448 6.18058 176.616 6.27528 176.822 6.3494C177.035 6.41528 177.27 6.48117 177.524 6.54705C177.787 6.6047 178.054 6.6747 178.325 6.75705C178.572 6.8394 178.81 6.94234 179.04 7.06587C179.27 7.18117 179.475 7.3294 179.656 7.51058C179.837 7.69175 179.981 7.91822 180.088 8.18999C180.203 8.46175 180.26 8.79528 180.26 9.19057C180.26 9.68469 180.166 10.1088 179.977 10.4629C179.788 10.817 179.537 11.1053 179.225 11.3276C178.913 11.55 178.576 11.7106 178.214 11.8094C177.853 11.9165 177.5 11.97 177.154 11.97Z" fill="#F8B102"/>
<path d="M41.2021 16.7708V24.9404C41.2021 26.1337 40.6428 27.2427 39.7218 27.8681C38.9475 28.394 37.9052 29.0639 36.6733 29.762V16.7708H41.2021Z" fill="#F8B102"/>
<path d="M36.4422 16.7708V29.8193C33.1222 31.7132 28.434 33.8134 23.9838 33.8134C17.8846 33.8134 11.3381 29.8667 8.4769 27.9178C7.55589 27.2899 6.99658 26.1763 6.99658 24.9782V16.7708H36.4422Z" fill="#F8B102"/>
<path d="M40.9764 16.6004V24.5795C40.9764 25.7487 40.417 26.8349 39.4962 27.447C36.6352 29.3488 30.0891 33.1995 23.9893 33.1995C17.8895 33.1995 11.3436 29.3488 8.48244 27.447C7.56167 26.8349 7.00225 25.7487 7.00225 24.5795V16.6004H40.9764ZM41.9009 15.6728H6.07789V24.5795C6.07789 26.0708 6.78592 27.4319 7.9719 28.2203C9.47926 29.2223 11.8621 30.6718 14.6533 31.8873C18.0662 33.3735 21.2072 34.1271 23.9893 34.1271C26.7714 34.1271 29.9124 33.3735 33.3253 31.8873C36.1166 30.6718 38.4994 29.2222 40.0067 28.2203C41.1927 27.4319 41.9009 26.0708 41.9009 24.5795V15.6728Z" fill="#F8B102"/>
<path d="M36.0138 31.7118C35.1484 31.8167 34.3513 32.2359 33.7726 32.8901C33.194 33.5442 32.874 34.3883 32.8731 35.263V38.4187C32.8731 39.6981 33.5532 40.8805 34.6577 41.5201C35.762 42.16 37.1226 42.16 38.2269 41.5201C39.3313 40.8805 40.0116 39.6981 40.0116 38.4187V35.263C40.0107 34.3883 39.6906 33.5442 39.1121 32.8901C38.5335 32.2359 37.7362 31.8167 36.8708 31.7118" fill="#9A2DFF"/>
<path d="M39.1546 35.6843H33.7299V35.3017C33.7299 33.7986 34.9443 32.5802 36.4422 32.5802C37.9402 32.5802 39.1545 33.7987 39.1545 35.3017L39.1546 35.6843Z" fill="white"/>
<path d="M45.5715 15.5425L25.0268 25.3564C24.335 25.6869 23.5314 25.6861 22.8402 25.3541L2.18332 15.4337C0.268273 14.514 0.258104 11.7821 2.16622 10.8481L22.8119 0.741708C23.5189 0.3956 24.3459 0.398035 25.051 0.748317L45.6069 10.9612C47.5054 11.9045 47.4843 14.6288 45.5715 15.5425Z" fill="#9A2DFF"/>
<path d="M23.9248 0.911132C24.2079 0.911132 24.4909 0.974684 24.7513 1.10179L45.7939 11.3709C47.1872 12.0509 47.1719 14.0147 45.768 14.6734L24.7337 24.5431C24.4805 24.6618 24.2068 24.7213 23.9331 24.7213C23.6581 24.7213 23.3833 24.6614 23.1291 24.5415L1.9829 14.5663C0.57747 13.9033 0.570074 11.934 1.9703 11.2607L23.108 1.097C23.3659 0.973089 23.6454 0.911132 23.9248 0.911132ZM23.9248 0C23.5036 0 23.0811 0.0962383 22.7028 0.278123L1.56504 10.4418C0.595612 10.908 -0.00402424 11.8578 2.03323e-05 12.9208C0.0040649 13.9837 0.610866 14.9291 1.58376 15.3881L22.7298 25.3632C23.1032 25.5393 23.5192 25.6323 23.933 25.6323C24.3449 25.6323 24.7592 25.5401 25.131 25.3656L46.1653 15.496C47.1371 15.0399 47.7459 14.0978 47.7543 13.037C47.7626 11.9764 47.1686 11.025 46.204 10.5543L25.1615 0.285298C24.7791 0.0986301 24.3515 0 23.9248 0Z" fill="#9A2DFF"/>
</svg>
