<svg width="172" height="40" viewBox="0 0 172 40" fill="none" xmlns="http://www.w3.org/2000/svg">
<path d="M58.6574 32.395C58.0129 32.395 57.5295 32.2829 57.2073 32.0588C56.885 31.8596 56.6743 31.5856 56.5752 31.237C56.476 30.8884 56.4264 30.5149 56.4264 30.1164V8.52646C56.4264 8.12803 56.4636 7.76695 56.538 7.44322C56.6371 7.0946 56.8478 6.82067 57.1701 6.62146C57.4923 6.39734 58.0005 6.28528 58.6946 6.28528L65.6848 6.32264C67.4943 6.32264 69.1552 6.63391 70.6672 7.25646C72.2041 7.87901 73.5303 8.76302 74.6457 9.90851C75.7612 11.054 76.6164 12.4236 77.2113 14.0173C77.831 15.5862 78.1408 17.3168 78.1408 19.2094C78.1408 21.1517 77.831 22.9322 77.2113 24.5508C76.5916 26.1695 75.724 27.564 74.6085 28.7344C73.4931 29.9048 72.1669 30.8137 70.63 31.4611C69.118 32.0837 67.4324 32.395 65.5733 32.395H58.6574ZM60.9255 27.8753H65.6848C67.2713 27.8753 68.6594 27.5266 69.8492 26.8294C71.039 26.1072 71.9562 25.1111 72.6007 23.8411C73.27 22.5711 73.6046 21.0895 73.6046 19.3961C73.6046 17.6779 73.27 16.1838 72.6007 14.9138C71.9562 13.6189 71.0266 12.6228 69.812 11.9256C68.6222 11.2034 67.2341 10.8423 65.6476 10.8423H60.9255V27.8753Z" fill="white"/>
<path d="M81.9962 32.4323C81.3269 32.4323 80.8311 32.3202 80.5089 32.0961C80.2114 31.8969 80.0255 31.623 79.9511 31.2744C79.8768 30.9257 79.8396 30.5398 79.8396 30.1164V16.2585C79.8396 15.8103 79.8768 15.4243 79.9511 15.1006C80.0255 14.7519 80.2114 14.4905 80.5089 14.3162C80.8311 14.1169 81.3393 14.0173 82.0333 14.0173C82.7026 14.0173 83.186 14.1045 83.4835 14.2788C83.8057 14.4531 84.004 14.6772 84.0784 14.9512C84.1775 15.2002 84.2271 15.4492 84.2271 15.6982L83.9296 16.3706C84.0536 16.1713 84.2271 15.9348 84.4502 15.6609C84.6733 15.362 84.9707 15.0757 85.3426 14.8017C85.7144 14.5029 86.1606 14.2663 86.6811 14.092C87.2017 13.8928 87.8214 13.7932 88.5402 13.7932C88.8377 13.7932 89.1476 13.8306 89.4698 13.9053C89.8168 13.9551 90.1515 14.0422 90.4737 14.1667C90.8207 14.2664 91.1306 14.4033 91.4033 14.5776C91.6759 14.7519 91.8866 14.9636 92.0354 15.2126C92.1841 15.4367 92.2585 15.6982 92.2585 15.997C92.2585 16.7939 92.0601 17.4662 91.6635 18.0141C91.2669 18.5619 90.796 18.8359 90.2506 18.8359C89.8788 18.8359 89.6061 18.7985 89.4326 18.7238C89.2591 18.6491 89.1104 18.5619 88.9864 18.4623C88.8873 18.3627 88.7262 18.2756 88.5031 18.2009C88.3048 18.1261 87.9825 18.0888 87.5363 18.0888C87.1645 18.0888 86.7803 18.1511 86.3837 18.2756C86.0119 18.4001 85.6648 18.5868 85.3426 18.8359C85.0203 19.0849 84.76 19.4086 84.5617 19.807C84.3634 20.1806 84.2643 20.6163 84.2643 21.1144V30.1911C84.2643 30.6145 84.2271 31.0004 84.1527 31.3491C84.0784 31.6728 83.8801 31.9343 83.5578 32.1335C83.2356 32.3327 82.715 32.4323 81.9962 32.4323Z" fill="white"/>
<path d="M101.099 32.6564C99.4879 32.6564 98.0749 32.395 96.8603 31.872C95.6705 31.3491 94.6666 30.6394 93.8486 29.7429C93.0554 28.8215 92.448 27.8005 92.0266 26.68C91.63 25.5345 91.4317 24.3516 91.4317 23.1314C91.4317 21.3385 91.8407 19.7448 92.6587 18.3503C93.4768 16.9558 94.6046 15.8601 96.0423 15.0632C97.5048 14.2664 99.178 13.8679 101.062 13.8679C102.4 13.8679 103.578 14.0796 104.594 14.5029C105.611 14.9263 106.453 15.4865 107.123 16.1838C107.817 16.8562 108.337 17.6032 108.684 18.425C109.056 19.2467 109.242 20.0436 109.242 20.8156C109.242 22.1354 108.92 23.0941 108.275 23.6917C107.656 24.2894 106.875 24.5882 105.933 24.5882H96.1167C96.1415 25.4349 96.4017 26.1695 96.8975 26.792C97.4181 27.4146 98.0626 27.9002 98.831 28.2488C99.6242 28.5725 100.43 28.7344 101.248 28.7344C101.868 28.7344 102.413 28.697 102.884 28.6223C103.38 28.5476 103.801 28.4604 104.148 28.3608C104.495 28.2363 104.793 28.1118 105.04 27.9873C105.313 27.8628 105.561 27.7507 105.784 27.6511C106.007 27.5515 106.218 27.4893 106.416 27.4644C106.689 27.4395 106.961 27.5017 107.234 27.6511C107.507 27.8005 107.73 28.062 107.903 28.4355C108.052 28.6846 108.151 28.9211 108.201 29.1453C108.275 29.3445 108.312 29.5437 108.312 29.7429C108.312 30.2409 108.015 30.7141 107.42 31.1623C106.825 31.5856 105.982 31.9343 104.892 32.2082C103.826 32.507 102.562 32.6564 101.099 32.6564ZM96.1167 21.9361H103.739C104.16 21.9361 104.483 21.8739 104.706 21.7494C104.929 21.6 105.04 21.3011 105.04 20.8529C105.04 20.2802 104.867 19.7697 104.52 19.3214C104.173 18.8483 103.702 18.4872 103.107 18.2382C102.512 17.9643 101.818 17.8273 101.025 17.8273C100.108 17.8273 99.2772 18.0141 98.5335 18.3876C97.7899 18.7362 97.195 19.2218 96.7488 19.8444C96.3274 20.4669 96.1167 21.1642 96.1167 21.9361Z" fill="white"/>
<path d="M125.679 32.3576C124.96 32.3576 124.427 32.2206 124.08 31.9467C123.733 31.6728 123.559 31.2993 123.559 30.8261L123.82 29.5935C123.621 29.9172 123.287 30.3032 122.816 30.7514C122.345 31.1748 121.725 31.5607 120.957 31.9094C120.188 32.2331 119.259 32.395 118.168 32.395C117.003 32.395 115.9 32.1584 114.859 31.6852C113.843 31.1872 112.938 30.5149 112.145 29.6682C111.376 28.7966 110.756 27.813 110.285 26.7173C109.839 25.5967 109.616 24.4014 109.616 23.1314C109.616 21.9112 109.839 20.7658 110.285 19.695C110.756 18.5993 111.388 17.6281 112.182 16.7814C112.975 15.9348 113.88 15.2749 114.896 14.8017C115.937 14.3037 117.028 14.0547 118.168 14.0547C119.184 14.0547 120.04 14.1916 120.734 14.4656C121.452 14.7395 122.06 15.0881 122.556 15.5114C123.051 15.9099 123.46 16.3332 123.783 16.7814L123.559 15.6982C123.559 15.1504 123.733 14.7395 124.08 14.4656C124.427 14.1667 124.972 14.0173 125.716 14.0173C126.41 14.0173 126.906 14.1294 127.203 14.3535C127.501 14.5527 127.687 14.8391 127.761 15.2126C127.835 15.5613 127.873 15.9597 127.873 16.4079V30.0791C127.873 30.5024 127.835 30.8884 127.761 31.237C127.687 31.5856 127.488 31.8596 127.166 32.0588C126.869 32.258 126.373 32.3576 125.679 32.3576ZM118.837 28.0247C119.68 28.0247 120.436 27.813 121.105 27.3897C121.775 26.9663 122.308 26.3936 122.704 25.6714C123.126 24.9244 123.336 24.1026 123.336 23.2061C123.336 22.235 123.126 21.3883 122.704 20.6661C122.283 19.944 121.725 19.3837 121.031 18.9853C120.362 18.5619 119.606 18.3503 118.763 18.3503C117.846 18.3503 117.028 18.5744 116.309 19.0226C115.59 19.446 115.02 20.0311 114.599 20.7782C114.202 21.5004 114.004 22.3221 114.004 23.2435C114.004 24.14 114.214 24.9493 114.636 25.6714C115.057 26.3936 115.627 26.9663 116.346 27.3897C117.09 27.813 117.92 28.0247 118.837 28.0247Z" fill="white"/>
<path d="M131.901 32.395C131.231 32.395 130.736 32.2953 130.413 32.0961C130.116 31.8969 129.93 31.623 129.856 31.2744C129.781 30.9257 129.744 30.5522 129.744 30.1538V16.1838C129.744 15.7854 129.781 15.4243 129.856 15.1006C129.93 14.7768 130.128 14.5154 130.451 14.3162C130.773 14.1169 131.281 14.0173 131.975 14.0173C132.694 14.0173 133.215 14.1667 133.537 14.4656C133.884 14.7644 134.057 15.2375 134.057 15.885L133.723 16.9309C133.847 16.6569 134.057 16.3581 134.355 16.0344C134.652 15.7107 135.012 15.3869 135.433 15.0632C135.879 14.7395 136.375 14.478 136.92 14.2788C137.466 14.0796 138.036 13.98 138.631 13.98C139.449 13.98 140.192 14.1169 140.862 14.3909C141.556 14.6648 142.163 15.0632 142.684 15.5862C143.229 16.1091 143.7 16.7441 144.097 17.4911C144.518 16.8437 144.989 16.2585 145.509 15.7356C146.03 15.1877 146.637 14.7644 147.331 14.4656C148.025 14.1418 148.806 13.98 149.674 13.98C151.112 13.98 152.314 14.3411 153.281 15.0632C154.272 15.7854 155.016 16.8188 155.511 18.1635C156.032 19.4833 156.292 21.0646 156.292 22.9073V30.1538C156.292 30.5771 156.243 30.9631 156.144 31.3117C156.069 31.6354 155.871 31.8969 155.549 32.0961C155.251 32.2953 154.755 32.395 154.061 32.395C153.367 32.395 152.859 32.2829 152.537 32.0588C152.215 31.8596 152.016 31.5981 151.942 31.2744C151.868 30.9257 151.83 30.5398 151.83 30.1164V22.87C151.83 21.9486 151.719 21.1517 151.496 20.4794C151.273 19.807 150.938 19.2841 150.492 18.9106C150.07 18.537 149.513 18.3503 148.819 18.3503C148.075 18.3503 147.431 18.537 146.885 18.9106C146.365 19.2592 145.956 19.7697 145.658 20.442C145.361 21.1144 145.212 21.9361 145.212 22.9073V30.1911C145.212 30.6145 145.15 31.0129 145.026 31.3864C144.902 31.7351 144.654 31.9965 144.282 32.1708C143.935 32.37 143.427 32.4448 142.758 32.395C142.138 32.37 141.68 32.2455 141.382 32.0214C141.11 31.7973 140.936 31.5234 140.862 31.1997C140.812 30.851 140.787 30.49 140.787 30.1164V22.87C140.787 21.9486 140.676 21.1517 140.453 20.4794C140.23 19.7821 139.895 19.2592 139.449 18.9106C139.027 18.537 138.457 18.3503 137.738 18.3503C136.97 18.3503 136.313 18.5495 135.768 18.9479C135.247 19.3463 134.851 19.8817 134.578 20.5541C134.305 21.2264 134.169 21.9984 134.169 22.87V30.1911C134.169 30.5896 134.119 30.9631 134.02 31.3117C133.946 31.6603 133.747 31.9218 133.425 32.0961C133.128 32.2953 132.62 32.395 131.901 32.395Z" fill="white"/>
<path d="M164.526 32.6564C163.882 32.6564 163.2 32.5817 162.481 32.4323C161.762 32.3078 161.068 32.121 160.399 31.872C159.73 31.5981 159.147 31.2868 158.652 30.9382C158.181 30.5647 157.883 30.1538 157.759 29.7055C157.66 29.4565 157.623 29.22 157.648 28.9958C157.672 28.7468 157.747 28.4978 157.871 28.2488C157.995 27.9749 158.181 27.7009 158.428 27.427C158.652 27.1531 158.875 27.0037 159.098 26.9788C159.346 26.929 159.656 27.0037 160.027 27.2029C160.35 27.3274 160.697 27.4893 161.068 27.6885C161.465 27.8877 161.862 28.0869 162.258 28.2861C162.68 28.4853 163.101 28.6472 163.522 28.7717C163.969 28.8962 164.402 28.9585 164.824 28.9585C165.741 28.9585 166.472 28.8091 167.018 28.5103C167.563 28.1865 167.836 27.7383 167.836 27.1655C167.836 26.8418 167.749 26.5555 167.575 26.3064C167.402 26.0574 167.166 25.8582 166.869 25.7088C166.596 25.5345 166.262 25.3851 165.865 25.2606C165.493 25.1111 165.084 24.9866 164.638 24.887C164.217 24.7625 163.77 24.6256 163.299 24.4761C162.68 24.3018 162.06 24.0902 161.44 23.8411C160.821 23.5921 160.263 23.2684 159.767 22.87C159.296 22.4715 158.912 21.9735 158.614 21.3759C158.317 20.7782 158.168 20.0311 158.168 19.1347C158.168 18.0141 158.428 17.0678 158.949 16.2959C159.494 15.499 160.275 14.8889 161.292 14.4656C162.308 14.0422 163.535 13.8306 164.973 13.8306C165.468 13.8306 165.939 13.8679 166.385 13.9426C166.856 14.0173 167.303 14.1294 167.724 14.2788C168.17 14.4033 168.592 14.5652 168.988 14.7644C169.41 14.9636 169.806 15.1877 170.178 15.4367C170.798 15.7854 171.12 16.1962 171.145 16.6694C171.17 17.1176 170.996 17.6032 170.624 18.1262C170.352 18.4748 170.079 18.7238 169.806 18.8732C169.534 18.9977 169.249 18.9977 168.951 18.8732C168.554 18.674 168.121 18.4623 167.65 18.2382C167.203 17.9892 166.733 17.7775 166.237 17.6032C165.766 17.4289 165.27 17.3417 164.749 17.3417C164.254 17.3417 163.808 17.4164 163.411 17.5659C163.014 17.7153 162.717 17.9269 162.519 18.2009C162.32 18.4748 162.221 18.7985 162.221 19.172C162.221 19.5207 162.32 19.807 162.519 20.0311C162.717 20.2553 162.977 20.442 163.299 20.5914C163.622 20.7409 164.006 20.8778 164.452 21.0023C164.898 21.1019 165.369 21.2015 165.865 21.3011C166.559 21.4506 167.265 21.6373 167.984 21.8614C168.703 22.0856 169.36 22.3968 169.955 22.7953C170.575 23.1937 171.07 23.7291 171.442 24.4014C171.814 25.0489 172 25.8955 172 26.9414C172 28.7593 171.331 30.1662 169.992 31.1623C168.678 32.1584 166.856 32.6564 164.526 32.6564Z" fill="white"/>
<path d="M148.204 11.2823C147.923 11.2823 147.72 11.2431 147.595 11.1647C147.47 11.0784 147.392 10.9647 147.361 10.8235C147.33 10.6823 147.314 10.5372 147.314 10.3882V3.95293C147.314 3.79607 147.326 3.65097 147.349 3.51764C147.381 3.38431 147.459 3.2745 147.584 3.18823C147.709 3.10196 147.915 3.05882 148.204 3.05882C148.501 3.05882 148.708 3.10196 148.825 3.18823C148.95 3.2745 149.024 3.38431 149.047 3.51764C149.079 3.65097 149.094 3.79607 149.094 3.95293V9.7294H152.303C152.436 9.7294 152.561 9.74116 152.678 9.76469C152.795 9.78822 152.889 9.85489 152.959 9.96469C153.037 10.0745 153.076 10.2549 153.076 10.5059C153.076 10.749 153.037 10.9294 152.959 11.047C152.881 11.1568 152.783 11.2235 152.666 11.247C152.557 11.2706 152.436 11.2823 152.303 11.2823H148.204Z" fill="#FF3C38"/>
<path d="M155.833 11.2823C155.552 11.2823 155.349 11.2392 155.224 11.1529C155.107 11.0666 155.033 10.9568 155.002 10.8235C154.97 10.6823 154.955 10.5333 154.955 10.3765V3.94117C154.955 3.79215 154.97 3.6549 155.002 3.52941C155.033 3.39607 155.111 3.28627 155.236 3.2C155.361 3.11372 155.568 3.07058 155.857 3.07058C156.052 3.07058 156.2 3.08235 156.302 3.10588C156.403 3.12941 156.477 3.1647 156.524 3.21176C156.571 3.25098 156.622 3.29803 156.676 3.35294L159.311 6.9294H159.136L161.782 3.35294C161.845 3.27451 161.907 3.21568 161.97 3.17647C162.032 3.13725 162.11 3.1098 162.204 3.09411C162.305 3.07843 162.446 3.07058 162.625 3.07058C162.907 3.07058 163.11 3.11372 163.234 3.2C163.359 3.28627 163.437 3.39999 163.469 3.54117C163.5 3.6745 163.516 3.81568 163.516 3.9647V10.4C163.516 10.549 163.5 10.6902 163.469 10.8235C163.437 10.9568 163.359 11.0666 163.234 11.1529C163.11 11.2392 162.903 11.2823 162.614 11.2823C162.333 11.2823 162.13 11.2392 162.005 11.1529C161.88 11.0666 161.802 10.9529 161.771 10.8117C161.739 10.6706 161.724 10.5255 161.724 10.3765V6.17646L159.979 8.65881C159.948 8.69803 159.905 8.75293 159.85 8.82352C159.795 8.88626 159.717 8.94116 159.616 8.98822C159.522 9.03528 159.393 9.05881 159.229 9.05881C159.058 9.05881 158.921 9.03528 158.819 8.98822C158.726 8.94116 158.652 8.88626 158.597 8.82352C158.542 8.76077 158.495 8.70587 158.456 8.65881L156.723 6.18823V10.4C156.723 10.549 156.708 10.6902 156.676 10.8235C156.645 10.9568 156.567 11.0666 156.442 11.1529C156.325 11.2392 156.122 11.2823 155.833 11.2823Z" fill="#FF3C38"/>
<path d="M168.346 11.4C167.932 11.4 167.569 11.349 167.257 11.247C166.952 11.1451 166.691 11.0235 166.472 10.8823C166.261 10.7333 166.093 10.5882 165.968 10.447C165.843 10.3059 165.758 10.2 165.711 10.1294C165.578 9.95685 165.496 9.80783 165.465 9.68234C165.434 9.549 165.449 9.41567 165.512 9.28234C165.582 9.14901 165.699 9.00391 165.863 8.84705C166.027 8.70587 166.179 8.63136 166.32 8.62352C166.468 8.60783 166.612 8.64312 166.753 8.7294C166.894 8.81567 167.03 8.93724 167.163 9.0941C167.35 9.32155 167.534 9.48234 167.713 9.57646C167.901 9.66273 168.096 9.70587 168.299 9.70587C168.557 9.70587 168.775 9.6745 168.955 9.61175C169.134 9.54901 169.271 9.45097 169.365 9.31763C169.458 9.17646 169.505 8.99999 169.505 8.78822C169.505 8.61567 169.439 8.47842 169.306 8.37646C169.181 8.26665 169.009 8.17254 168.791 8.0941C168.58 8.01567 168.342 7.94116 168.076 7.87058C167.819 7.79215 167.561 7.70195 167.303 7.59999C167.124 7.53724 166.952 7.45881 166.788 7.3647C166.624 7.27058 166.468 7.16469 166.32 7.04705C166.171 6.9294 166.043 6.78823 165.933 6.62352C165.832 6.45881 165.75 6.27058 165.687 6.05881C165.633 5.84705 165.605 5.60391 165.605 5.3294C165.605 4.86666 165.719 4.4549 165.945 4.09411C166.171 3.73333 166.484 3.45097 166.882 3.24705C167.288 3.03529 167.752 2.92941 168.275 2.92941C168.627 2.92941 168.931 2.96078 169.189 3.02352C169.454 3.08627 169.677 3.16078 169.856 3.24705C170.036 3.33333 170.177 3.4196 170.278 3.50588C170.387 3.58431 170.461 3.64705 170.501 3.69411C170.719 3.89803 170.84 4.0745 170.864 4.22352C170.887 4.3647 170.805 4.5647 170.618 4.82352C170.422 5.09803 170.227 5.25097 170.032 5.28234C169.845 5.31372 169.63 5.24705 169.388 5.08235C169.294 4.99607 169.201 4.91764 169.107 4.84705C169.013 4.77646 168.9 4.72156 168.767 4.68235C168.642 4.63529 168.475 4.61176 168.264 4.61176C168.139 4.61176 168.022 4.63137 167.912 4.67058C167.803 4.70195 167.709 4.74901 167.631 4.81176C167.553 4.8745 167.491 4.95293 167.444 5.04705C167.397 5.13333 167.374 5.23136 167.374 5.34117C167.374 5.52156 167.432 5.66666 167.549 5.77646C167.674 5.88627 167.834 5.97646 168.03 6.04705C168.233 6.1098 168.455 6.17254 168.697 6.23528C168.947 6.29019 169.201 6.35685 169.458 6.43528C169.692 6.51372 169.919 6.61175 170.137 6.7294C170.356 6.83921 170.551 6.98038 170.723 7.15293C170.895 7.32548 171.031 7.54117 171.133 7.79999C171.242 8.05881 171.297 8.37646 171.297 8.75293C171.297 9.22352 171.207 9.62744 171.028 9.96469C170.848 10.3019 170.61 10.5765 170.313 10.7882C170.016 11 169.696 11.1529 169.353 11.247C169.009 11.349 168.674 11.4 168.346 11.4Z" fill="#FF3C38"/>
<path d="M39.1534 15.9722V23.7528C39.1534 24.8892 38.6219 25.9454 37.7467 26.5411C37.0109 27.0419 36.0204 27.6799 34.8498 28.3448V15.9722H39.1534Z" fill="#FF3C38"/>
<path d="M34.6302 15.9722V28.3994C31.4752 30.2031 27.0201 32.2033 22.7912 32.2033C16.9953 32.2033 10.7744 28.4445 8.05539 26.5883C7.18018 25.9904 6.64869 24.9298 6.64869 23.7888V15.9722H34.6302Z" fill="#FF3C38"/>
<path d="M38.9389 15.8099V23.409C38.9389 24.5226 38.4073 25.5571 37.5323 26.14C34.8136 27.9512 28.593 31.6185 22.7965 31.6185C17 31.6185 10.7795 27.9512 8.06067 26.14C7.18567 25.5571 6.65407 24.5226 6.65407 23.409V15.8099H38.9389ZM39.8174 14.9265H5.77567V23.409C5.77567 24.8293 6.4485 26.1257 7.57551 26.8764C9.00791 27.8308 11.2723 29.2112 13.9247 30.3688C17.1679 31.7843 20.1527 32.502 22.7965 32.502C25.4402 32.502 28.4251 31.7843 31.6683 30.3688C34.3207 29.2112 36.5851 27.8307 38.0175 26.8764C39.1445 26.1257 39.8174 24.8293 39.8174 23.409V14.9265Z" fill="#FF3C38"/>
<path d="M34.2231 30.2017C33.4007 30.3016 32.6432 30.7008 32.0933 31.3239C31.5434 31.9469 31.2394 32.7508 31.2385 33.5838V36.5893C31.2385 37.8077 31.8848 38.9338 32.9344 39.543C33.9838 40.1523 35.2767 40.1523 36.3261 39.543C37.3756 38.9338 38.0221 37.8077 38.0221 36.5893V33.5838C38.0212 32.7508 37.717 31.9469 37.1673 31.3239C36.6175 30.7008 35.8599 30.3016 35.0375 30.2017" fill="white"/>
<path d="M37.2077 33.9851H32.0527V33.6206C32.0527 32.1892 33.2068 31.0288 34.6302 31.0288C36.0537 31.0288 37.2076 32.1893 37.2076 33.6206L37.2077 33.9851Z" fill="white"/>
<path d="M43.3055 14.8024L23.7824 24.149C23.1249 24.4637 22.3613 24.4629 21.7045 24.1468L2.07476 14.6988C0.254934 13.8229 0.245271 11.2211 2.0585 10.3315L21.6776 0.706389C22.3494 0.376762 23.1354 0.379081 23.8053 0.712683L43.3391 10.4393C45.1432 11.3376 45.1232 13.9322 43.3055 14.8024Z" fill="white"/>
<path d="M22.7352 0.867745C23.0042 0.867745 23.2732 0.92827 23.5206 1.04932L43.5169 10.8295C44.8409 11.477 44.8263 13.3473 43.4923 13.9747L23.5039 23.3743C23.2633 23.4875 23.0031 23.5441 22.7431 23.5441C22.4817 23.5441 22.2206 23.487 21.979 23.3728L1.8843 13.8726C0.548756 13.2412 0.541728 11.3657 1.87233 10.7245L21.959 1.04476C22.204 0.926752 22.4697 0.867745 22.7352 0.867745ZM22.7352 0C22.3349 0 21.9334 0.0916556 21.5739 0.264879L1.48722 9.94458C0.565996 10.3885 -0.00382414 11.2932 1.93213e-05 12.3055C0.00386278 13.3178 0.580491 14.2182 1.50501 14.6553L21.5996 24.1554C21.9544 24.3231 22.3497 24.4117 22.743 24.4117C23.1344 24.4117 23.528 24.3239 23.8814 24.1577L43.8698 14.7581C44.7932 14.3238 45.3718 13.4265 45.3797 12.4162C45.3877 11.4061 44.8232 10.5 43.9066 10.0517L23.9104 0.271713C23.547 0.0939334 23.1406 0 22.7352 0Z" fill="white"/>
</svg>
