<svg width="141" height="41" viewBox="0 0 141 41" fill="none" xmlns="http://www.w3.org/2000/svg">
<rect width="141" height="41" rx="8" fill="white"/>
<path d="M34.1304 20.3492C34.1021 17.2665 36.7024 15.7668 36.8213 15.6969C35.3486 13.5898 33.0661 13.3019 32.264 13.279C30.3469 13.081 28.4874 14.4048 27.5108 14.4048C26.5147 14.4048 25.0109 13.2981 23.3901 13.3306C21.3045 13.3622 19.3533 14.5473 18.2832 16.3875C16.0747 20.1397 17.7218 25.6538 19.8377 28.6868C20.8961 30.1721 22.1329 31.8307 23.7517 31.7723C25.3355 31.7082 25.9271 30.7814 27.8383 30.7814C29.7319 30.7814 30.2875 31.7723 31.9385 31.735C33.6382 31.7082 34.7083 30.2429 35.7297 28.7441C36.9529 27.0416 37.4441 25.3649 37.4636 25.2789C37.4236 25.2655 34.1625 24.0441 34.1304 20.3492Z" fill="#08131E"/>
<path d="M31.0116 11.2838C31.8634 10.2384 32.4462 8.8161 32.2845 7.37279C31.0516 7.42635 29.5097 8.2097 28.6219 9.23216C27.8363 10.1332 27.1346 11.6099 27.3159 12.9987C28.7008 13.1001 30.1228 12.313 31.0116 11.2838Z" fill="#08131E"/>
<path d="M56.9967 31.5591H54.7833L53.5709 27.8203H49.3567L48.2017 31.5591H46.0469L50.2221 18.8304H52.8009L56.9967 31.5591ZM53.2054 26.2517L52.109 22.9279C51.993 22.5884 51.7757 21.7888 51.455 20.5301H51.416C51.2883 21.0714 51.0827 21.871 50.8001 22.9279L49.7231 26.2517H53.2054Z" fill="#08131E"/>
<path d="M67.734 26.8571C67.734 28.4181 67.3042 29.6519 66.4446 30.5577C65.6746 31.364 64.7185 31.7667 63.5773 31.7667C62.3453 31.7667 61.4604 31.3325 60.9214 30.464H60.8824V35.2989H58.8046V25.4023C58.8046 24.421 58.7783 23.4138 58.7276 22.3809H60.555L60.671 23.8356H60.7099C61.4029 22.7395 62.4545 22.1924 63.8657 22.1924C64.969 22.1924 65.89 22.62 66.6268 23.476C67.3656 24.333 67.734 25.4597 67.734 26.8571ZM65.6171 26.9317C65.6171 26.0384 65.4125 25.3019 65.0012 24.7223C64.5519 24.1178 63.9486 23.8156 63.1923 23.8156C62.6796 23.8156 62.2138 23.9839 61.7976 24.3158C61.3805 24.6506 61.1076 25.0877 60.9799 25.629C60.9156 25.8815 60.8834 26.0881 60.8834 26.2507V27.7811C60.8834 28.4487 61.092 29.0121 61.5091 29.4721C61.9263 29.9322 62.4681 30.1617 63.1348 30.1617C63.9174 30.1617 64.5265 29.8652 64.9622 29.2741C65.3988 28.6821 65.6171 27.9016 65.6171 26.9317Z" fill="#08131E"/>
<path d="M78.4908 26.8571C78.4908 28.4181 78.061 29.6519 77.2004 30.5577C76.4314 31.364 75.4753 31.7667 74.3341 31.7667C73.1022 31.7667 72.2172 31.3325 71.6792 30.464H71.6402V35.2989H69.5624V25.4023C69.5624 24.421 69.5361 23.4138 69.4854 22.3809H71.3128L71.4288 23.8356H71.4677C72.1597 22.7395 73.2113 22.1924 74.6235 22.1924C75.7258 22.1924 76.6468 22.62 77.3856 23.476C78.1214 24.333 78.4908 25.4597 78.4908 26.8571ZM76.3739 26.9317C76.3739 26.0384 76.1683 25.3019 75.757 24.7223C75.3077 24.1178 74.7064 23.8156 73.9491 23.8156C73.4355 23.8156 72.9706 23.9839 72.5535 24.3158C72.1363 24.6506 71.8644 25.0877 71.7367 25.629C71.6734 25.8815 71.6402 26.0881 71.6402 26.2507V27.7811C71.6402 28.4487 71.8488 29.0121 72.264 29.4721C72.6811 29.9312 73.223 30.1617 73.8916 30.1617C74.6742 30.1617 75.2834 29.8652 75.719 29.2741C76.1556 28.6821 76.3739 27.9016 76.3739 26.9317Z" fill="#08131E"/>
<path d="M90.5175 27.9896C90.5175 29.0723 90.1345 29.9532 89.3656 30.6333C88.5206 31.3764 87.3442 31.7476 85.8326 31.7476C84.4369 31.7476 83.3181 31.4836 82.4711 30.9546L82.9526 29.255C83.8648 29.7964 84.8658 30.068 85.9563 30.068C86.739 30.068 87.3481 29.8939 87.7857 29.5477C88.2213 29.2014 88.4387 28.7366 88.4387 28.157C88.4387 27.6405 88.2594 27.2053 87.8997 26.8523C87.542 26.4994 86.9446 26.1713 86.1103 25.8681C83.8395 25.037 82.705 23.8194 82.705 22.2182C82.705 21.1719 83.1027 20.3139 83.8989 19.6463C84.6923 18.9777 85.7507 18.6439 87.0742 18.6439C88.2545 18.6439 89.2349 18.8457 90.0176 19.2484L89.4981 20.9108C88.7671 20.5205 87.9407 20.3254 87.0158 20.3254C86.2848 20.3254 85.7137 20.5023 85.3043 20.8543C84.9583 21.169 84.7849 21.5525 84.7849 22.0069C84.7849 22.51 84.9827 22.926 85.3803 23.2531C85.7263 23.5554 86.355 23.8825 87.2672 24.2354C88.3831 24.6764 89.2028 25.1919 89.7301 25.783C90.2554 26.3722 90.5175 27.1096 90.5175 27.9896Z" fill="#08131E"/>
<path d="M97.3876 23.9112H95.0973V28.3674C95.0973 29.5008 95.5007 30.067 96.3097 30.067C96.681 30.067 96.989 30.0355 97.2326 29.9723L97.2901 31.5209C96.8808 31.671 96.3418 31.7466 95.6742 31.7466C94.8536 31.7466 94.2123 31.5008 93.7494 31.0101C93.2884 30.5185 93.0564 29.694 93.0564 28.5357V23.9093H91.692V22.3789H93.0564V20.6984L95.0973 20.0939V22.3789H97.3876V23.9112Z" fill="#08131E"/>
<path d="M107.721 26.8944C107.721 28.3052 107.31 29.4635 106.49 30.3693C105.629 31.3018 104.487 31.7667 103.063 31.7667C101.691 31.7667 100.598 31.32 99.7832 30.4267C98.9684 29.5333 98.561 28.4056 98.561 27.0465C98.561 25.6242 98.9801 24.4593 99.8212 23.5535C100.66 22.6467 101.793 22.1934 103.217 22.1934C104.589 22.1934 105.693 22.64 106.527 23.5343C107.324 24.4019 107.721 25.5219 107.721 26.8944ZM105.566 26.9604C105.566 26.1139 105.381 25.388 105.008 24.7825C104.572 24.0499 103.95 23.6845 103.143 23.6845C102.307 23.6845 101.673 24.0508 101.237 24.7825C100.864 25.3889 100.68 26.1264 100.68 26.9987C100.68 27.8452 100.864 28.5711 101.237 29.1756C101.687 29.9083 102.314 30.2736 103.124 30.2736C103.917 30.2736 104.54 29.9006 104.99 29.1565C105.373 28.5396 105.566 27.8059 105.566 26.9604Z" fill="#08131E"/>
<path d="M114.476 24.1742C114.27 24.1369 114.051 24.1178 113.821 24.1178C113.09 24.1178 112.524 24.3885 112.127 24.9308C111.781 25.409 111.607 26.0135 111.607 26.7433V31.5591H109.53L109.55 25.2713C109.55 24.2135 109.523 23.2503 109.472 22.3818H111.282L111.358 24.1379H111.415C111.635 23.5344 111.98 23.0485 112.454 22.6841C112.917 22.356 113.417 22.1924 113.956 22.1924C114.148 22.1924 114.322 22.2058 114.476 22.2297V24.1742Z" fill="#08131E"/>
<path d="M123.768 26.5357C123.768 26.9011 123.744 27.2091 123.692 27.4607H117.459C117.483 28.3674 117.784 29.0608 118.363 29.5391C118.889 29.9666 119.568 30.1809 120.402 30.1809C121.325 30.1809 122.167 30.0364 122.924 29.7466L123.25 31.1622C122.365 31.541 121.32 31.7294 120.115 31.7294C118.664 31.7294 117.526 31.3104 116.698 30.4735C115.871 29.6366 115.457 28.5128 115.457 27.1029C115.457 25.7189 115.842 24.5664 116.613 23.6472C117.42 22.6659 118.51 22.1752 119.883 22.1752C121.231 22.1752 122.251 22.6659 122.944 23.6472C123.493 24.4267 123.768 25.3909 123.768 26.5357ZM121.787 26.0068C121.801 25.4023 121.665 24.8801 121.384 24.4392C121.024 23.872 120.471 23.5889 119.728 23.5889C119.048 23.5889 118.496 23.8653 118.074 24.42C117.728 24.861 117.522 25.3899 117.459 26.0059H121.787V26.0068Z" fill="#08131E"/>
<path d="M52.5169 11C52.5169 12.1257 52.1728 12.9732 51.4857 13.5423C50.8493 14.0674 49.9449 14.3304 48.7734 14.3304C48.1925 14.3304 47.6955 14.3055 47.2793 14.2558V8.10473C47.8222 8.01864 48.4069 7.97465 49.0385 7.97465C50.1544 7.97465 50.9955 8.21281 51.5627 8.68913C52.1982 9.22762 52.5169 9.99758 52.5169 11ZM51.4399 11.0277C51.4399 10.2979 51.2431 9.73838 50.8493 9.34814C50.4556 8.95885 49.8805 8.76373 49.1233 8.76373C48.8016 8.76373 48.5278 8.78478 48.3007 8.82877V13.505C48.4264 13.5241 48.6564 13.5327 48.9907 13.5327C49.7724 13.5327 50.3757 13.3194 50.8006 12.8928C51.2255 12.4662 51.4399 11.8445 51.4399 11.0277Z" fill="#08131E"/>
<path d="M58.2271 11.9832C58.2271 12.6766 58.0254 13.2448 57.6219 13.6905C57.1989 14.1487 56.6385 14.3773 55.9387 14.3773C55.2643 14.3773 54.7273 14.1582 54.3267 13.7182C53.9271 13.2792 53.7273 12.7254 53.7273 12.0578C53.7273 11.3596 53.933 10.7867 54.3462 10.3419C54.7595 9.89715 55.315 9.67429 56.0148 9.67429C56.6892 9.67429 57.2311 9.89332 57.6414 10.3323C58.0312 10.7589 58.2271 11.3099 58.2271 11.9832ZM57.1677 12.0157C57.1677 11.5997 57.0761 11.2429 56.8939 10.9454C56.6795 10.5858 56.3744 10.406 55.9777 10.406C55.5674 10.406 55.2555 10.5858 55.0411 10.9454C54.8579 11.2429 54.7673 11.6054 54.7673 12.0339C54.7673 12.45 54.8589 12.8067 55.0411 13.1042C55.2624 13.4638 55.5703 13.6436 55.968 13.6436C56.3578 13.6436 56.6639 13.461 56.8841 13.0946C57.0732 12.7914 57.1677 12.4318 57.1677 12.0157Z" fill="#08131E"/>
<path d="M65.8837 9.76611L64.4461 14.2749H63.5105L62.915 12.317C62.764 11.8283 62.6412 11.3424 62.5457 10.8603H62.5271C62.4384 11.3558 62.3156 11.8407 62.1578 12.317L61.5252 14.2749H60.5789L59.2271 9.76611H60.2768L60.7962 11.9096C60.9219 12.4165 61.0253 12.8995 61.1081 13.3567H61.1266C61.2026 12.9798 61.3284 12.4997 61.5057 11.9191L62.1578 9.76707H62.9901L63.6148 11.8732C63.7659 12.3868 63.8887 12.8813 63.9832 13.3577H64.0115C64.0807 12.8938 64.185 12.3993 64.3233 11.8732L64.8808 9.76707H65.8837V9.76611Z" fill="#08131E"/>
<path d="M71.1788 14.2749H70.1574V11.6924C70.1574 10.8967 69.8494 10.4988 69.2315 10.4988C68.9284 10.4988 68.6838 10.6078 68.4937 10.8268C68.3056 11.0459 68.2101 11.3041 68.2101 11.5997V14.274H67.1887V11.0545C67.1887 10.6585 67.1761 10.2291 67.1517 9.76421H68.0493L68.0971 10.4691H68.1253C68.2442 10.2501 68.4216 10.0693 68.6545 9.92489C68.9313 9.75655 69.2412 9.67143 69.5804 9.67143C70.0092 9.67143 70.366 9.80725 70.6496 10.0798C71.0024 10.4136 71.1788 10.912 71.1788 11.5738V14.2749Z" fill="#08131E"/>
<path d="M73.9954 14.2749H72.975V7.69727H73.9954V14.2749Z" fill="#08131E"/>
<path d="M80.0088 11.9832C80.0088 12.6766 79.8071 13.2448 79.4036 13.6905C78.9806 14.1487 78.4192 14.3773 77.7204 14.3773C77.045 14.3773 76.508 14.1582 76.1084 13.7182C75.7088 13.2792 75.509 12.7254 75.509 12.0578C75.509 11.3596 75.7146 10.7867 76.1279 10.3419C76.5411 9.89715 77.0966 9.67429 77.7954 9.67429C78.4709 9.67429 79.0118 9.89332 79.423 10.3323C79.8129 10.7589 80.0088 11.3099 80.0088 11.9832ZM78.9484 12.0157C78.9484 11.5997 78.8568 11.2429 78.6745 10.9454C78.4611 10.5858 78.1551 10.406 77.7594 10.406C77.3481 10.406 77.0362 10.5858 76.8228 10.9454C76.6396 11.2429 76.5489 11.6054 76.5489 12.0339C76.5489 12.45 76.6405 12.8067 76.8228 13.1042C77.044 13.4638 77.352 13.6436 77.7496 13.6436C78.1395 13.6436 78.4445 13.461 78.6648 13.0946C78.8549 12.7914 78.9484 12.4318 78.9484 12.0157Z" fill="#08131E"/>
<path d="M84.952 14.2749H84.0349L83.9589 13.7555H83.9306C83.6168 14.1697 83.1695 14.3773 82.5886 14.3773C82.1549 14.3773 81.804 14.2405 81.5399 13.9688C81.3002 13.7221 81.1803 13.415 81.1803 13.0506C81.1803 12.4997 81.4142 12.0798 81.8849 11.789C82.3547 11.4983 83.0155 11.3558 83.8663 11.3625V11.2783C83.8663 10.6843 83.5486 10.3878 82.9122 10.3878C82.459 10.3878 82.0594 10.4997 81.7144 10.7216L81.5068 10.0636C81.9337 9.80437 82.4609 9.67429 83.0827 9.67429C84.2835 9.67429 84.8858 10.296 84.8858 11.5394V13.1998C84.8858 13.6503 84.9082 14.009 84.952 14.2749ZM83.8917 12.7254V12.0301C82.765 12.0109 82.2017 12.3141 82.2017 12.9387C82.2017 13.174 82.266 13.35 82.3976 13.4676C82.5291 13.5853 82.6968 13.6436 82.8966 13.6436C83.1207 13.6436 83.3303 13.5738 83.5213 13.4351C83.7133 13.2955 83.8312 13.1185 83.8751 12.9014C83.8858 12.8526 83.8917 12.7933 83.8917 12.7254Z" fill="#08131E"/>
<path d="M90.7559 14.2749H89.8495L89.8017 13.5509H89.7734C89.484 14.1018 88.9908 14.3772 88.2979 14.3772C87.7443 14.3772 87.2833 14.164 86.9178 13.7374C86.5524 13.3108 86.3701 12.757 86.3701 12.0769C86.3701 11.3472 86.568 10.7561 86.9656 10.3046C87.3506 9.88375 87.8223 9.67333 88.3836 9.67333C89.0006 9.67333 89.4323 9.87706 89.6779 10.2855H89.6974V7.69727H90.7198V13.0602C90.7198 13.4992 90.7315 13.9038 90.7559 14.2749ZM89.6974 12.3734V11.6217C89.6974 11.4916 89.6877 11.3864 89.6692 11.306C89.6117 11.065 89.4879 10.8622 89.2998 10.6987C89.1097 10.5351 88.8807 10.4529 88.6166 10.4529C88.2355 10.4529 87.9373 10.6011 87.718 10.8986C87.5006 11.196 87.3905 11.5757 87.3905 12.0396C87.3905 12.4854 87.4948 12.8469 87.7043 13.1252C87.9256 13.4217 88.2238 13.57 88.5971 13.57C88.9324 13.57 89.2004 13.4466 89.4041 13.1989C89.6009 12.9703 89.6974 12.6948 89.6974 12.3734Z" fill="#08131E"/>
<path d="M99.4913 11.9832C99.4913 12.6766 99.2896 13.2448 98.8861 13.6905C98.4631 14.1487 97.9037 14.3773 97.2029 14.3773C96.5295 14.3773 95.9925 14.1582 95.5909 13.7182C95.1913 13.2792 94.9915 12.7254 94.9915 12.0578C94.9915 11.3596 95.1972 10.7867 95.6104 10.3419C96.0237 9.89715 96.5792 9.67429 97.2799 9.67429C97.9534 9.67429 98.4963 9.89332 98.9056 10.3323C99.2954 10.7589 99.4913 11.3099 99.4913 11.9832ZM98.4329 12.0157C98.4329 11.5997 98.3413 11.2429 98.159 10.9454C97.9436 10.5858 97.6396 10.406 97.2419 10.406C96.8326 10.406 96.5207 10.5858 96.3053 10.9454C96.1221 11.2429 96.0315 11.6054 96.0315 12.0339C96.0315 12.45 96.1231 12.8067 96.3053 13.1042C96.5266 13.4638 96.8345 13.6436 97.2322 13.6436C97.622 13.6436 97.929 13.461 98.1493 13.0946C98.3374 12.7914 98.4329 12.4318 98.4329 12.0157Z" fill="#08131E"/>
<path d="M104.983 14.2749H103.963V11.6924C103.963 10.8967 103.655 10.4988 103.036 10.4988C102.733 10.4988 102.488 10.6078 102.299 10.8268C102.11 11.0459 102.016 11.3041 102.016 11.5997V14.274H100.993V11.0545C100.993 10.6585 100.982 10.2291 100.957 9.76421H101.854L101.902 10.4691H101.93C102.05 10.2501 102.227 10.0693 102.459 9.92489C102.737 9.75655 103.046 9.67143 103.386 9.67143C103.814 9.67143 104.17 9.80725 104.454 10.0798C104.808 10.4136 104.983 10.912 104.983 11.5738V14.2749Z" fill="#08131E"/>
<path d="M111.857 10.5169H110.733V12.7073C110.733 13.2639 110.932 13.5423 111.328 13.5423C111.511 13.5423 111.663 13.527 111.783 13.4954L111.809 14.2558C111.608 14.3304 111.343 14.3677 111.016 14.3677C110.613 14.3677 110.299 14.2472 110.072 14.0061C109.844 13.7651 109.731 13.3596 109.731 12.7905V10.5169H109.059V9.76612H109.731V8.93973L110.732 8.64322V9.76516H111.856V10.5169H111.857Z" fill="#08131E"/>
<path d="M117.264 14.2749H116.242V11.7116C116.242 10.9034 115.934 10.4988 115.317 10.4988C114.843 10.4988 114.52 10.7331 114.342 11.2018C114.312 11.3003 114.295 11.4208 114.295 11.5624V14.274H113.274V7.69727H114.295V10.4146H114.314C114.636 9.9201 115.097 9.67333 115.694 9.67333C116.117 9.67333 116.467 9.80915 116.745 10.0817C117.091 10.4213 117.264 10.9263 117.264 11.5939V14.2749Z" fill="#08131E"/>
<path d="M122.842 11.8072C122.842 11.987 122.828 12.1382 122.804 12.2615H119.741C119.755 12.7073 119.901 13.0468 120.184 13.2821C120.444 13.4925 120.778 13.5977 121.187 13.5977C121.64 13.5977 122.054 13.5269 122.426 13.3844L122.586 14.0807C122.15 14.2663 121.637 14.3591 121.044 14.3591C120.332 14.3591 119.772 14.1534 119.367 13.7422C118.959 13.3309 118.757 12.779 118.757 12.0865C118.757 11.4065 118.946 10.8402 119.325 10.3888C119.72 9.90671 120.255 9.66568 120.931 9.66568C121.592 9.66568 122.094 9.90671 122.433 10.3888C122.707 10.7714 122.842 11.2448 122.842 11.8072ZM121.867 11.548C121.875 11.2505 121.808 10.9942 121.67 10.7781C121.492 10.4997 121.222 10.3601 120.857 10.3601C120.523 10.3601 120.252 10.4959 120.044 10.7685C119.874 10.9856 119.774 11.2448 119.741 11.548H121.867Z" fill="#08131E"/>
</svg>
