<svg width="24" height="24" viewBox="0 0 24 24" fill="none" xmlns="http://www.w3.org/2000/svg">
<g clip-path="url(#clip0_3784_22467)">
<path d="M10.6164 0.0703125C9.91797 0.164062 9.19141 0.3375 9.03203 0.440624C8.84453 0.5625 8.71797 0.810937 8.71797 1.04531C8.71797 1.17188 9.05078 1.96406 9.98359 4.05C11.3242 7.04531 11.3477 7.11094 11.1742 7.39687C11.0383 7.62656 10.8742 7.71094 10.5836 7.71094C10.1336 7.71094 10.1477 7.72969 8.89609 4.92656C8.29609 3.57656 7.78047 2.46094 7.74766 2.45156C7.67734 2.42344 7.03516 2.80781 6.51484 3.19219C6.01797 3.5625 5.17422 4.40156 4.78516 4.9125C4.21797 5.6625 3.76328 6.48281 3.44922 7.32656C3.28047 7.77187 3.03672 8.6625 2.98516 9.00937L2.95703 9.1875H11.9992H21.0414L21.0133 9.00937C20.9617 8.6625 20.718 7.77187 20.5492 7.32656C19.9727 5.77969 18.9555 4.36875 17.6898 3.35625C17.1555 2.92969 16.3398 2.41875 16.2508 2.45156C16.2227 2.46094 15.6977 3.58125 15.093 4.94062C13.8461 7.74375 13.8648 7.71094 13.4148 7.71094C13.1242 7.71094 12.9555 7.62187 12.8242 7.39687C12.6555 7.11562 12.6789 7.04531 14.0148 4.05469C14.9477 1.96406 15.2805 1.17656 15.2805 1.04531C15.2805 0.810937 15.1539 0.567187 14.9664 0.440624C14.8023 0.332812 14.1039 0.16875 13.3586 0.0703125C12.7539 -0.0140629 11.207 -0.0140629 10.6164 0.0703125Z" fill="white"/>
<path d="M1.82784 10.6502C1.67315 10.7299 1.58878 10.8143 1.50909 10.969C1.41065 11.1565 1.40128 11.2315 1.41534 11.6955C1.43409 12.2862 1.51847 12.4924 1.79972 12.6284C2.00128 12.7221 3.6044 13.1159 4.68722 13.3315C9.52003 14.3018 13.4435 14.3627 18.1872 13.5424C19.6591 13.2893 21.8716 12.783 22.2044 12.6237C22.481 12.4924 22.5653 12.2815 22.5841 11.6955C22.5982 11.2315 22.5888 11.1565 22.4903 10.969C22.4107 10.8143 22.3263 10.7299 22.1716 10.6502L21.9653 10.5471H11.9997H2.03409L1.82784 10.6502Z" fill="white"/>
<path d="M2.82093 15.3844C2.83499 16.3734 2.83968 16.4391 2.94281 16.5984C3.10687 16.8703 3.27562 16.9219 3.94593 16.9219H4.52249L4.65374 17.3109C4.72874 17.5219 4.87874 17.8922 4.99593 18.1359L5.20218 18.5766L4.78499 19.0031C4.33499 19.4625 4.26937 19.6031 4.33499 19.9547C4.35843 20.1094 4.52718 20.2969 5.52093 21.2906C6.51468 22.2844 6.70218 22.4531 6.85218 22.4766C7.20843 22.5422 7.34906 22.4766 7.80843 22.0266L8.23499 21.6047L8.62406 21.7922C8.83499 21.8953 9.19593 22.0453 9.42093 22.1297L9.83343 22.275L9.85218 22.8937C9.86624 23.4234 9.88031 23.5312 9.96937 23.6719C10.1756 24.0047 10.1569 24 11.9991 24C13.5506 24 13.6631 23.9953 13.7991 23.9109C14.0709 23.7422 14.1272 23.5781 14.1459 22.8891L14.1647 22.275L14.5772 22.1297C14.8022 22.0453 15.1631 21.8953 15.3741 21.7922L15.7631 21.6094L16.1944 22.0266C16.6584 22.4766 16.7944 22.5422 17.1459 22.4766C17.2959 22.4531 17.4834 22.2844 18.4772 21.2906C19.4709 20.2969 19.6397 20.1094 19.6631 19.9547C19.7287 19.6031 19.6631 19.4625 19.2131 19.0031L18.7912 18.5766L19.0022 18.1406C19.1194 17.9016 19.2741 17.5266 19.3444 17.3109L19.4709 16.9219H20.0522C20.7225 16.9219 20.8912 16.8703 21.0553 16.5984C21.1584 16.4391 21.1631 16.3734 21.1772 15.3844C21.1959 14.1844 21.2522 14.2875 20.6475 14.4328C19.8272 14.6297 17.8678 14.9906 17.1881 15.0703C16.8787 15.1078 16.86 15.1312 16.8084 15.5719C16.7662 15.9469 16.5694 16.5469 16.335 17.0156C15.7209 18.2391 14.6756 19.1016 13.2834 19.5328C12.8944 19.65 12.81 19.6594 11.9991 19.6594C11.1881 19.6594 11.1037 19.65 10.7147 19.5328C9.32249 19.1016 8.27718 18.2391 7.66312 17.0156C7.41468 16.5234 7.24124 15.9797 7.17562 15.4922C7.14749 15.2906 7.11937 15.1219 7.10999 15.1172C7.10531 15.1125 6.84749 15.075 6.53812 15.0281C5.82093 14.925 4.37249 14.6578 3.57562 14.4797C3.23343 14.4047 2.91937 14.3437 2.87718 14.3437C2.81156 14.3437 2.80687 14.4609 2.82093 15.3844Z" fill="white" fill-opacity="0.4"/>
</g>
<defs>
<clipPath id="clip0_3784_22467">
<rect width="24" height="24" fill="white"/>
</clipPath>
</defs>
</svg>
