<svg width="24" height="24" viewBox="0 0 24 24" fill="none" xmlns="http://www.w3.org/2000/svg">
<path d="M8.57812 2.02031C7.99688 2.13281 7.43438 2.59219 7.15781 3.17344C7.0125 3.48281 7.00781 3.51563 6.99375 4.22813L6.975 4.96875H4.40156C2.67656 4.96875 1.75313 4.9875 1.58438 5.02031C0.979688 5.15156 0.459375 5.55469 0.182813 6.11719L0.0234375 6.44531V8.50781V10.5703L0.182813 10.8844C0.375 11.2688 0.759375 11.6484 1.14844 11.8406L1.42969 11.9766L5.73281 11.9906L10.0312 12V11.6719C10.0312 11.3766 10.0453 11.3297 10.1672 11.1938L10.3031 11.0391H12H13.6969L13.8328 11.1938C13.9547 11.3297 13.9688 11.3766 13.9688 11.6719V12L18.2719 11.9906L22.5703 11.9766L22.8516 11.8406C23.2406 11.6484 23.625 11.2688 23.8172 10.8844L23.9766 10.5703V8.50781V6.44531L23.8172 6.11719C23.5406 5.55469 23.0203 5.15156 22.4156 5.02031C22.2469 4.9875 21.3234 4.96875 19.5984 4.96875H17.025L17.0063 4.22813C16.9922 3.51563 16.9875 3.48281 16.8422 3.17344C16.5563 2.57344 15.9984 2.13281 15.3797 2.01563C15.0656 1.95938 8.87813 1.95938 8.57812 2.02031ZM15 4.5V4.96875H12H9V4.5V4.03125H12H15V4.5Z" fill="white"/>
<path d="M0.201758 12.5627C0.117383 12.6143 0.0376953 12.7034 0.0236328 12.7596C0.00957031 12.8205 0.00488281 14.5971 0.00957031 16.7112L0.0236328 20.5549L0.17832 20.8737C0.45957 21.4409 0.979883 21.8487 1.58457 21.9799C1.7627 22.0174 4.6502 22.0315 12.0143 22.0315C23.1236 22.0315 22.4252 22.0502 22.9783 21.769C23.3018 21.6049 23.6346 21.2534 23.8221 20.8737L23.9768 20.5549L23.9908 16.7112C23.9955 14.5971 23.9908 12.8205 23.9768 12.7596C23.9439 12.6237 23.6908 12.469 23.4939 12.469C23.3955 12.469 23.2221 12.5393 23.0252 12.6565C22.8564 12.7596 22.6408 12.8721 22.5471 12.9002C22.4252 12.9424 21.3283 12.9612 18.1783 12.9752L13.9689 12.9893V13.8237C13.9689 14.5924 13.9596 14.6674 13.8752 14.7799C13.8189 14.8502 13.6971 14.9252 13.6033 14.9534C13.5002 14.9815 12.8346 15.0002 12.0002 15.0002C11.1658 15.0002 10.5002 14.9815 10.3971 14.9534C10.3033 14.9252 10.1814 14.8502 10.1252 14.7799C10.0408 14.6674 10.0314 14.5924 10.0314 13.8237V12.9893L5.82676 12.9752C2.67207 12.9612 1.5752 12.9424 1.45332 12.9002C1.35957 12.8721 1.14395 12.7596 0.975195 12.6565C0.618945 12.4455 0.431445 12.4221 0.201758 12.5627Z" fill="white" fill-opacity="0.4"/>
</svg>
