<svg width="24" height="24" viewBox="0 0 24 24" fill="none" xmlns="http://www.w3.org/2000/svg">
<path d="M6.14037 1.20469C4.96381 1.39688 4.01694 1.76719 3.07006 2.40469C2.48412 2.80313 1.55131 3.74063 1.17631 4.3125C0.665374 5.08594 0.309124 5.925 0.116936 6.79688C-0.00493881 7.34531 -0.0330638 8.68594 0.0653737 9.29063C0.196624 10.0875 0.613811 11.1984 1.04037 11.8969L1.13412 12.0469L3.76381 12.0375L6.3935 12.0234L6.87162 11.2266C7.18569 10.6969 7.40131 10.3922 7.49975 10.3219C7.68725 10.1953 8.01069 10.1859 8.21225 10.2984C8.306 10.3594 8.65756 10.8609 9.36069 11.9625C9.91381 12.8344 10.3826 13.5469 10.4013 13.5469C10.4201 13.5469 11.0904 12.1734 11.8872 10.4906C13.1669 7.78594 13.3544 7.42031 13.4951 7.32656C13.7013 7.19063 14.0154 7.18125 14.2263 7.3125C14.3857 7.41094 14.3529 7.35 16.0497 10.5L16.8701 12.0234L19.8607 12.0375L22.856 12.0469L23.0576 11.6953C23.6997 10.5797 23.9997 9.45469 23.9997 8.17969C23.9997 7.04531 23.8122 6.22031 23.3247 5.22656C22.9451 4.45781 22.556 3.90469 21.9607 3.3C20.8263 2.15156 19.4341 1.43906 17.8685 1.21406C17.2357 1.125 15.9747 1.18125 15.3982 1.32656C14.2497 1.61719 13.1951 2.14688 12.2482 2.91094C12.0279 3.08438 11.9904 3.09844 11.9107 3.04219C11.8638 3.00469 11.6388 2.84063 11.4185 2.67188C10.4247 1.92656 9.281 1.425 8.13256 1.24219C7.7435 1.17656 6.44975 1.15313 6.14037 1.20469Z" fill="white"/>
<path d="M13.7383 9.7126C13.6117 9.98916 11.7039 14.0251 11.2305 15.0095C11.0664 15.3517 10.9773 15.4829 10.8555 15.5579C10.6586 15.6845 10.3398 15.6892 10.143 15.5673C10.0445 15.5063 9.68828 14.9907 8.95703 13.8329C8.38047 12.9282 7.89297 12.197 7.87422 12.211C7.86016 12.2204 7.71016 12.4548 7.54141 12.7267C7.08203 13.4907 7.35391 13.4251 4.58359 13.4532L2.25391 13.4767L6.93203 18.1267C9.99297 21.1688 11.657 22.786 11.7367 22.8095C11.9852 22.8704 12.3086 22.8048 12.5008 22.6501C12.5992 22.5704 14.7133 20.4704 17.2023 17.9813L21.7258 13.4532H19.1477C17.7273 13.4532 16.4852 13.4298 16.3867 13.4063C16.2836 13.3829 16.1477 13.3267 16.082 13.2798C16.0117 13.2235 15.5664 12.4407 14.957 11.3063C14.3992 10.2704 13.9305 9.42197 13.9117 9.42197C13.893 9.42197 13.8133 9.55322 13.7383 9.7126Z" fill="white" fill-opacity="0.4"/>
</svg>
