<svg width="24" height="24" viewBox="0 0 24 24" fill="none" xmlns="http://www.w3.org/2000/svg">
<path d="M11.1982 1.23801C10.7717 1.38801 10.5092 1.73488 10.467 2.19426C10.4201 2.71926 10.3826 2.67238 13.0451 5.33488C14.6951 6.98488 15.5013 7.75363 15.6185 7.80519C16.0076 7.96457 16.5513 7.85676 16.8467 7.56613C17.1513 7.26144 17.2498 6.69894 17.067 6.30519C17.006 6.17863 16.1951 5.33488 14.5498 3.69894C12.4685 1.63176 12.0888 1.27551 11.9248 1.22863C11.6763 1.15832 11.4138 1.15832 11.1982 1.23801Z" fill="white"/>
<path d="M8.23594 5.75625L5.90625 8.08594L8.08594 10.2656L10.2656 12.4453L12.6 10.1109L14.9297 7.78125L12.75 5.60156L10.5703 3.42188L8.23594 5.75625Z" fill="white"/>
<path d="M4.39302 8.03918C3.83052 8.2548 3.54458 8.82199 3.70396 9.40793C3.76021 9.61886 3.93833 9.81105 6.18364 12.0657C7.81958 13.7064 8.66333 14.522 8.78989 14.5829C9.18364 14.7657 9.74614 14.6673 10.0508 14.3626C10.3415 14.0673 10.4493 13.5236 10.2899 13.1345C10.1961 12.9095 5.54614 8.24074 5.27896 8.10011C5.03989 7.97824 4.62739 7.95011 4.39302 8.03918Z" fill="white"/>
<path d="M12.8714 10.4016C12.1448 11.1282 12.0839 11.2032 12.1448 11.2829C12.3652 11.5594 19.2605 19.3172 19.4011 19.4438C19.9542 19.9454 20.737 20.0485 21.4214 19.7063C21.8058 19.5141 22.0402 19.2657 22.2323 18.8485C22.3589 18.5766 22.3777 18.4922 22.3777 18.1407C22.3777 17.6625 22.2605 17.325 21.9933 17.0157C21.8245 16.8141 13.7433 9.60942 13.687 9.60942C13.673 9.60942 13.3073 9.96568 12.8714 10.4016Z" fill="white"/>
<path d="M4.15273 17.1844C3.80586 17.3109 3.54336 17.5547 3.3418 17.9297C3.23398 18.1359 3.21523 18.2344 3.19648 18.7125L3.17773 19.2656H7.66367H12.1543L12.1262 18.7594C12.1121 18.4828 12.0652 18.1594 12.023 18.0375C11.9105 17.7187 11.6105 17.4047 11.273 17.2453L10.9918 17.1094L7.66367 17.1141C4.89805 17.1141 4.30273 17.1281 4.15273 17.1844Z" fill="white" fill-opacity="0.4"/>
<path d="M2.78002 19.6879C2.33471 19.7769 1.94096 20.0957 1.7394 20.5269C1.6269 20.7707 1.61752 20.8457 1.60346 21.5675C1.5894 22.1816 1.59877 22.3738 1.65502 22.5097C1.80034 22.8519 1.3644 22.8332 7.71596 22.8191L13.416 22.805L13.5519 22.6504L13.6878 22.5004V21.6425C13.6878 20.8035 13.6878 20.7847 13.5519 20.5082C13.3972 20.1754 13.0831 19.8754 12.7597 19.7488C12.5535 19.6691 12.2675 19.6644 7.75815 19.655C5.12846 19.655 2.88784 19.6691 2.78002 19.6879Z" fill="white" fill-opacity="0.4"/>
</svg>
