<svg width="24" height="24" viewBox="0 0 24 24" fill="none" xmlns="http://www.w3.org/2000/svg">
<g clip-path="url(#clip0_3784_22263)">
<path d="M8.50002 0C9.88102 0 11 1.119 11 2.5C11 3.881 9.88102 5 8.50002 5C7.11902 5 6.00002 3.881 6.00002 2.5C6.00002 1.119 7.11902 0 8.50002 0ZM12.444 8.33C12.584 7.929 12.456 7.482 12.123 7.218C11.138 6.433 9.85102 6 8.50002 6C7.14902 6 5.86202 6.433 4.87702 7.218C4.54402 7.483 4.41602 7.929 4.55602 8.33C4.69702 8.731 5.07602 9 5.50002 9H11.5C11.925 9 12.304 8.731 12.444 8.33ZM23.148 8.681C22.633 8.212 21.962 7.969 21.27 8.003C20.573 8.035 19.931 8.337 19.476 8.838L15.935 12.575C15.967 12.785 16 12.995 16 13.213C16 15.296 14.445 17.089 12.383 17.383L8.13102 17.979C7.58402 18.057 7.07802 17.677 7.00002 17.131C6.92202 16.584 7.30202 16.078 7.84802 16L12.01 15.417C12.946 15.283 13.758 14.611 13.95 13.685C14.246 12.26 13.16 11 11.786 11H3.99902C1.79002 11 -0.000976562 12.791 -0.000976562 15V20C-0.000976562 22.209 1.79002 24 3.99902 24H8.26102C11.066 24 13.741 22.822 15.635 20.754L23.337 12.345C24.285 11.283 24.199 9.639 23.148 8.681Z" fill="#196164"/>
</g>
<defs>
<clipPath id="clip0_3784_22263">
<rect width="24" height="24" fill="white"/>
</clipPath>
</defs>
</svg>
