<svg width="28" height="28" viewBox="0 0 28 28" fill="none" xmlns="http://www.w3.org/2000/svg">
<g clip-path="url(#clip0_3793_20848)">
<path d="M6.27813 1.23636C5.76953 1.35667 5.31562 1.61917 4.92188 2.01839C4.50078 2.44495 4.30391 2.79495 4.15625 3.36917C4.04688 3.7848 4.04688 4.00902 4.04688 14.0004C4.04688 23.9918 4.04688 24.216 4.15625 24.6317C4.21641 24.8668 4.33125 25.184 4.41328 25.3371C4.63203 25.7418 5.21172 26.3106 5.62187 26.5184C6.30547 26.8629 6.04844 26.852 12.6602 26.8465C16.4609 26.841 18.5062 26.8192 18.2109 26.7918C14.2023 26.3762 11.7852 22.3621 13.3383 18.709C13.9672 17.2325 15.318 15.9965 16.882 15.4825C18.0687 15.0887 19.5617 15.127 20.7266 15.5864C22.0172 16.0895 23.2422 17.1778 23.7672 18.277C23.8219 18.3918 23.882 18.4848 23.9094 18.4848C23.9312 18.4848 23.9531 16.1606 23.9531 13.3168V8.14886H21.8039C20.5078 8.14886 19.5234 8.12699 19.3266 8.08871C18.2602 7.8973 17.3141 7.00589 17.0352 5.92308C16.9695 5.67152 16.9531 5.17933 16.9531 3.38011V1.14886L11.7742 1.15433C7.55234 1.1598 6.52969 1.17073 6.27813 1.23636ZM14.9406 6.61214C15.0883 6.74339 15.1211 6.80902 15.1211 7.00042C15.1211 7.19183 15.0883 7.25745 14.9406 7.3887L14.7656 7.5473H11.375H7.98438L7.80938 7.3887C7.66172 7.25745 7.62891 7.19183 7.62891 7.00042C7.62891 6.80902 7.66172 6.74339 7.80938 6.61214L7.98438 6.45355H11.375H14.7656L14.9406 6.61214ZM20.1906 10.1121C20.3383 10.2434 20.3711 10.309 20.3711 10.5004C20.3711 10.6918 20.3383 10.7575 20.1906 10.8887L20.0156 11.0473H14.875H9.73438L9.55937 10.8887C9.41172 10.7575 9.37891 10.6918 9.37891 10.5004C9.37891 10.309 9.41172 10.2434 9.55937 10.1121L9.73438 9.95355H14.875H20.0156L20.1906 10.1121ZM20.0703 12.934C20.2781 13.0434 20.4148 13.3059 20.3711 13.5082C20.3273 13.716 20.1086 13.9239 19.9008 13.9676C19.6766 14.0114 8.32344 14.0114 8.09922 13.9676C7.73828 13.891 7.51953 13.4918 7.67812 13.1856C7.85859 12.8356 7.48672 12.8575 13.9891 12.852C19.1789 12.852 19.9336 12.8629 20.0703 12.934ZM11.7687 15.8051C12.3047 15.9582 12.3484 16.6528 11.8289 16.8496C11.7578 16.877 10.8828 16.8989 9.89297 16.8989C8.38906 16.8989 8.06094 16.8825 7.92969 16.8168C7.72187 16.7075 7.58516 16.445 7.62891 16.2426C7.66719 16.0567 7.89141 15.8215 8.05547 15.7887C8.32344 15.7395 11.5773 15.7559 11.7687 15.8051ZM10.768 18.7801C11.1289 18.9715 11.1289 19.5293 10.768 19.7207C10.6477 19.7809 10.3305 19.7973 9.30234 19.7973H7.98438L7.80938 19.6387C7.66172 19.5075 7.62891 19.4418 7.62891 19.2504C7.62891 19.059 7.66172 18.9934 7.80938 18.8621L7.98438 18.7035H9.30234C10.3305 18.7035 10.6477 18.72 10.768 18.7801ZM11.3203 21.684C11.5281 21.7934 11.6648 22.0559 11.6211 22.2582C11.5773 22.466 11.3586 22.6739 11.1508 22.7176C10.9266 22.7614 8.32344 22.7614 8.09922 22.7176C7.73828 22.641 7.51953 22.2418 7.67812 21.9356C7.84219 21.6184 7.91328 21.6075 9.61406 21.602C10.8937 21.602 11.1891 21.6184 11.3203 21.684Z" fill="white"/>
<path d="M18.0469 3.34687C18.0469 5.68203 18.0633 5.83516 18.4078 6.30547C18.6156 6.58984 18.993 6.85781 19.3047 6.94531C19.4141 6.97813 20.4148 7 21.6727 7H23.8492L23.7836 6.87422C23.6961 6.70469 18.4352 1.43281 18.2547 1.33437C18.1727 1.29063 18.0961 1.25781 18.0742 1.25781C18.0578 1.25781 18.0469 2.19844 18.0469 3.34687Z" fill="white"/>
<path d="M17.8002 16.3572C16.7721 16.5596 15.9627 17.008 15.2244 17.79C13.0752 20.0486 13.7479 23.8057 16.5424 25.1893C17.2862 25.5557 17.7619 25.665 18.6479 25.665C19.4901 25.665 19.9768 25.5611 20.6494 25.2439L21.0377 25.058L22.3721 26.3978C23.2198 27.251 23.7885 27.776 23.9252 27.8416C24.3354 28.033 24.9424 27.951 25.2541 27.6557C25.6041 27.3275 25.7299 26.6713 25.5166 26.2502C25.4619 26.1463 24.8166 25.4572 24.0838 24.7135L22.744 23.3736L22.908 23.0127C23.4166 21.8916 23.4877 20.5955 23.0994 19.458C22.8205 18.6268 22.2846 17.8611 21.6119 17.3252C21.169 16.9752 20.3924 16.5705 19.8784 16.4338C19.4846 16.3244 18.1994 16.2752 17.8002 16.3572ZM19.5229 18.2549C20.0151 18.4244 20.2666 18.5721 20.633 18.9221C21.3877 19.6221 21.7159 20.7158 21.4643 21.6783C21.3221 22.2143 21.1088 22.5861 20.6987 23.0018C19.7799 23.9314 18.544 24.1393 17.3901 23.565C16.3948 23.0619 15.8041 22.1103 15.8041 21.0002C15.8041 20.4643 15.8971 20.0869 16.1487 19.6111C16.4987 18.9494 17.2971 18.3533 18.0627 18.1783C18.4893 18.0853 19.1182 18.1182 19.5229 18.2549Z" fill="white" fill-opacity="0.4"/>
</g>
<defs>
<clipPath id="clip0_3793_20848">
<rect width="28" height="28" fill="white"/>
</clipPath>
</defs>
</svg>
