<svg width="28" height="28" viewBox="0 0 28 28" fill="none" xmlns="http://www.w3.org/2000/svg">
<g clip-path="url(#clip0_3793_20769)">
<path d="M13.0758 0.0546885C11.3805 0.410157 10.0406 1.64609 9.50469 3.33594C9.39531 3.69688 9.37891 3.85547 9.37891 4.64844C9.37891 5.44141 9.39531 5.6 9.50469 5.96094C9.99687 7.51953 11.1289 8.65156 12.6875 9.14375C13.0484 9.25313 13.207 9.26953 14 9.26953C14.793 9.26953 14.9516 9.25313 15.3125 9.14375C16.8711 8.65156 18.0031 7.51953 18.4953 5.96094C18.6047 5.6 18.6211 5.44141 18.6211 4.64844C18.6211 3.85547 18.6047 3.69688 18.4953 3.33594C18.0086 1.78828 16.8875 0.661719 15.3398 0.164063C15.0281 0.0656261 14.8039 0.0382824 14.1367 0.0218763C13.6883 0.0109386 13.207 0.0273447 13.0758 0.0546885Z" fill="white"/>
<path d="M10.0625 10.1115C9.06168 10.56 7.45387 11.6592 7.63981 11.774C7.66715 11.7904 9.10543 12.3373 10.8445 12.9881L14.0109 14.1748L17.1882 12.9826C18.9382 12.3318 20.382 11.785 20.3984 11.7686C20.4531 11.7248 19.8843 11.26 19.3211 10.8771C18.8125 10.5381 17.85 10.035 17.5218 9.93105C17.4398 9.90371 17.3031 9.95293 17.0734 10.0896C16.3461 10.5162 15.4 10.8061 14.5359 10.8717C13.2398 10.9701 12.0531 10.7186 10.9757 10.1115C10.7679 9.99121 10.582 9.89824 10.5656 9.90371C10.5437 9.90371 10.3195 9.99668 10.0625 10.1115Z" fill="white"/>
<path d="M4.86719 12.7312C4.76328 12.7805 4.62109 12.9062 4.55547 13.0102C4.43516 13.1852 4.42969 13.2453 4.42969 14.2516V15.307L4.74687 15.3398C5.51797 15.4219 5.93906 15.6078 6.40937 16.0836C7.02187 16.6961 7.15859 17.2047 7.15859 18.8672C7.15859 20.5297 7.02187 21.0383 6.40937 21.6508C5.93906 22.1266 5.51797 22.3125 4.74687 22.3945L4.42969 22.4273V23.4227C4.42969 24.3141 4.44062 24.4344 4.53906 24.593C4.59375 24.6914 4.69766 24.8063 4.76875 24.85C4.89453 24.9266 13.043 28 13.1359 28C13.1578 28 13.1797 25.1945 13.1797 21.7711V15.5422L9.29141 14.0875C7.15313 13.2891 5.32656 12.6328 5.23359 12.6328C5.13516 12.6328 4.97109 12.6766 4.86719 12.7312Z" fill="white" fill-opacity="0.4"/>
<path d="M18.6922 14.0984L14.8203 15.5531V21.7766C14.8203 25.2 14.8422 28 14.8641 28C14.957 28 23.1055 24.9266 23.2312 24.85C23.3023 24.8062 23.4062 24.6914 23.4609 24.593C23.5594 24.4344 23.5703 24.3141 23.5703 23.4227V22.4273L23.2586 22.3945C22.482 22.3125 22.0609 22.1266 21.5906 21.6508C20.9781 21.0383 20.8414 20.5297 20.8414 18.8672C20.8414 17.2047 20.9781 16.6961 21.5906 16.0836C22.0609 15.6078 22.482 15.4219 23.2586 15.3398L23.5703 15.307V14.2516C23.5703 13.2453 23.5648 13.1852 23.4445 13.0102C23.2969 12.7859 23.007 12.6328 22.75 12.6383C22.6406 12.6383 20.8906 13.2672 18.6922 14.0984Z" fill="white" fill-opacity="0.4"/>
<path d="M3.48881 17.035C2.96928 17.2264 2.4935 17.7131 2.3185 18.2272C2.18725 18.6209 2.231 19.3592 2.406 19.7147C2.57553 20.0647 2.95835 20.4475 3.30835 20.617C3.5435 20.7373 3.67475 20.7537 4.26538 20.7702C5.03647 20.792 5.22241 20.7373 5.41381 20.4256C5.51772 20.2616 5.52319 20.1467 5.52319 18.8616C5.52319 17.5928 5.51225 17.4616 5.41928 17.3139C5.21147 17.0022 5.06928 16.953 4.34741 16.9584C3.93725 16.9584 3.6146 16.9912 3.48881 17.035Z" fill="white"/>
<path d="M22.8375 17.0572C22.4875 17.2924 22.4766 17.3306 22.4766 18.8619C22.4766 20.147 22.482 20.2619 22.5859 20.4259C22.7773 20.7377 22.9633 20.7978 23.7344 20.7705C24.325 20.7541 24.4562 20.7322 24.6914 20.6174C25.0414 20.4478 25.4242 20.065 25.5938 19.715C25.7141 19.4799 25.7305 19.365 25.7305 18.8674C25.7305 18.3697 25.7141 18.2549 25.5938 18.0197C25.4242 17.6697 25.0414 17.2869 24.6914 17.1174C24.4508 16.997 24.3305 16.9806 23.707 16.9642C23.0781 16.9533 22.9797 16.9642 22.8375 17.0572Z" fill="white"/>
</g>
<defs>
<clipPath id="clip0_3793_20769">
<rect width="28" height="28" fill="white"/>
</clipPath>
</defs>
</svg>
