<svg width="28" height="28" viewBox="0 0 28 28" fill="none" xmlns="http://www.w3.org/2000/svg">
<path d="M12.9059 4.48984C11.3418 4.89453 10.1332 6.11406 9.73398 7.67813C9.58086 8.27422 9.58086 9.22578 9.73398 9.82188C10.0512 11.0688 10.877 12.1023 12.0035 12.6602C12.6926 13.0047 13.2121 13.125 13.9996 13.125C14.7871 13.125 15.3066 13.0047 15.9957 12.6602C17.1113 12.1078 17.959 11.0469 18.2652 9.82188C18.4184 9.22578 18.4129 8.27422 18.2652 7.67813C17.866 6.10313 16.6465 4.88359 15.0715 4.48438C14.4863 4.33672 13.4855 4.33672 12.9059 4.48984Z" fill="white"/>
<path d="M10.9703 14.0875C10.0953 14.2461 9.1 14.6562 8.28516 15.1922C7.79297 15.5203 6.77031 16.543 6.44219 17.0352C5.88984 17.8719 5.49609 18.8508 5.33203 19.7641C5.27187 20.1141 5.25 20.6281 5.25 21.6508C5.25 22.9523 5.25547 23.0617 5.35938 23.2312C5.41953 23.3297 5.54531 23.4555 5.64375 23.5156C5.81875 23.6195 5.92812 23.625 9.76172 23.625H13.6992L12.1844 22.1047C11.3531 21.2734 10.6477 20.5352 10.6148 20.4695C10.582 20.4039 10.5547 20.2562 10.5547 20.1414C10.5547 20.0156 10.9484 18.7523 11.5391 16.9805C12.0805 15.3562 12.5234 14.0219 12.5234 14.0164C12.5234 13.9672 11.3312 14.0219 10.9703 14.0875Z" fill="white"/>
<path d="M15.4766 14.0164C15.4766 14.0219 15.9195 15.3562 16.4609 16.9805C17.0516 18.7523 17.4453 20.0156 17.4453 20.1414C17.4453 20.2563 17.418 20.4039 17.3852 20.4695C17.3523 20.5352 16.6469 21.2734 15.8156 22.1047L14.3008 23.625H18.2383C22.0719 23.625 22.1813 23.6195 22.3562 23.5156C22.4547 23.4555 22.5805 23.3297 22.6406 23.2313C22.7445 23.0617 22.75 22.9523 22.75 21.6508C22.75 20.6281 22.7281 20.1141 22.668 19.7641C22.5039 18.8508 22.1102 17.8719 21.5578 17.0352C21.2297 16.543 20.207 15.5203 19.7148 15.1922C18.55 14.4266 17.2266 14 15.9906 14C15.7062 14 15.4766 14.0055 15.4766 14.0164Z" fill="white"/>
<path d="M13.1523 17.4453L12.332 19.9062L13.1687 20.743L14 21.5742L14.8312 20.743L15.668 19.9062L14.8477 17.4453C14.3992 16.0945 14.0164 14.9844 14 14.9844C13.9836 14.9844 13.6008 16.0945 13.1523 17.4453Z" fill="white" fill-opacity="0.4"/>
</svg>
