<svg width="28" height="28" viewBox="0 0 28 28" fill="none" xmlns="http://www.w3.org/2000/svg">
<path d="M13.037 1.82656C11.1612 2.1875 9.7503 3.24297 8.93546 4.89453C8.31202 6.16328 8.18077 7.50312 8.53624 8.88672C8.80968 9.94766 9.52608 11.0852 10.3409 11.7359L10.6636 11.993V12.507V13.0156H12.0581H13.4526V11.282V9.54844L12.8784 8.96875C12.3425 8.42187 12.3042 8.36719 12.3042 8.16484C12.3042 7.79297 12.7198 7.50312 13.0261 7.65625C13.0972 7.69453 13.3433 7.90781 13.5784 8.1375L13.9995 8.55859L14.4261 8.1375C14.6558 7.90781 14.9019 7.69453 14.973 7.65625C15.2792 7.50312 15.6948 7.79297 15.6948 8.16484C15.6948 8.36719 15.6566 8.42187 15.1206 8.96875L14.5464 9.54844V11.282V13.0156H15.9409H17.3355V12.507V11.993L17.6581 11.7359C18.7464 10.8609 19.4847 9.42812 19.6269 7.91328C19.7308 6.85781 19.5448 5.87344 19.0636 4.89453C18.3417 3.42344 17.0183 2.34062 15.4487 1.93594C14.7761 1.76094 13.6441 1.71172 13.037 1.82656Z" fill="white" fill-opacity="0.4"/>
<path d="M5.40859 3.65859C5.28281 3.78984 5.25 3.86641 5.25 4.05781C5.25 4.35859 5.30469 4.44063 5.98281 5.12969C6.57344 5.73672 6.7375 5.85156 6.99453 5.85156C7.36641 5.85156 7.60156 5.61094 7.60156 5.22266C7.60156 5.04219 7.54141 4.96016 6.98906 4.38594C6.14687 3.50547 6.14687 3.50547 5.83516 3.5C5.61094 3.5 5.54531 3.52734 5.40859 3.65859Z" fill="white"/>
<path d="M21.7602 3.62578C21.6836 3.69141 21.3445 4.03047 21.0109 4.38594C20.4586 4.96016 20.3984 5.04219 20.3984 5.22266C20.3984 5.61094 20.6336 5.85156 21.0055 5.85156C21.2734 5.85156 21.432 5.73125 22.1102 5.03672L22.75 4.375V4.09609C22.75 3.86094 22.7227 3.79531 22.5914 3.65859C22.4547 3.52734 22.3891 3.5 22.1648 3.5C21.9734 3.50547 21.8641 3.53828 21.7602 3.62578Z" fill="white"/>
<path d="M4.24412 7.15282C3.95974 7.45907 4.0199 7.93485 4.37537 8.12079C4.59959 8.23563 6.37146 8.2411 6.65037 8.12079C7.02771 7.9622 7.0988 7.41532 6.77615 7.14188L6.60662 6.9997H5.50193H4.39724L4.24412 7.15282Z" fill="white"/>
<path d="M21.2243 7.14237C20.9016 7.41581 20.9727 7.96268 21.3501 8.12128C21.629 8.24159 23.4009 8.23612 23.6251 8.12128C23.9806 7.93534 24.0407 7.45956 23.7563 7.15331L23.6032 7.00018H22.4985H21.3938L21.2243 7.14237Z" fill="white"/>
<path d="M6.75391 9.3463C6.69375 9.37364 6.33281 9.7127 5.95 10.101L5.25 10.8119V11.0799C5.25 11.3096 5.27734 11.3807 5.40313 11.4955C5.57812 11.665 5.79141 11.7307 5.99922 11.676C6.16875 11.6377 7.39922 10.451 7.525 10.2158C7.72734 9.82208 7.50312 9.36817 7.08203 9.32442C6.96172 9.30801 6.81406 9.31895 6.75391 9.3463Z" fill="white"/>
<path d="M20.7489 9.34581C20.4427 9.47706 20.3114 9.89815 20.4755 10.2153C20.6013 10.4505 21.8317 11.6372 22.0013 11.6755C22.2091 11.7302 22.4224 11.6646 22.6028 11.495C22.7231 11.3802 22.7505 11.3091 22.7505 11.0794V10.806L22.0231 10.0786C21.3724 9.4169 21.2739 9.34034 21.0825 9.31846C20.9622 9.30753 20.8091 9.31846 20.7489 9.34581Z" fill="white"/>
<path d="M10.691 14.093C10.784 14.7492 11.0082 15.1594 11.4402 15.4492C11.6152 15.5641 11.7027 15.6625 11.7246 15.7773C11.8449 16.368 12.3371 16.9641 12.9496 17.2648C13.3598 17.4672 13.3762 17.4727 13.9996 17.4727C14.623 17.4727 14.6395 17.4672 15.0496 17.2648C15.6621 16.9641 16.1543 16.368 16.2746 15.7773C16.2965 15.6625 16.384 15.5641 16.559 15.4492C16.991 15.1594 17.2152 14.7492 17.3082 14.093L17.341 13.8359H13.9996H10.6582L10.691 14.093Z" fill="white" fill-opacity="0.4"/>
<path d="M4.56645 17.5765C4.35864 17.6695 4.23832 17.8062 4.12895 18.0632C4.05785 18.2328 4.04692 18.7523 4.04692 21.9023C4.04692 25.8836 4.03598 25.7414 4.36957 26.0586L4.54457 26.2226L6.06489 26.239C7.56332 26.2554 7.57973 26.2554 7.7602 26.1297C7.8641 26.0586 8.00082 25.9328 8.06098 25.8507C8.17582 25.6976 8.17582 25.6539 8.19223 21.9679L8.20317 18.2382L8.08285 17.9976C7.84223 17.5273 7.8477 17.5273 6.19067 17.5164C5.05864 17.5054 4.69223 17.5164 4.56645 17.5765Z" fill="white"/>
<path d="M21.7711 17.8336C21.6398 17.8554 21.4703 17.9211 21.3883 17.9703C21.3117 18.025 20.1906 18.8507 18.9055 19.8078C17.6148 20.7648 16.4609 21.6015 16.3352 21.6726C16.1164 21.7875 16.0289 21.7929 14.7875 21.8093L13.4695 21.8312L13.3055 21.689C13.0266 21.4539 13.0211 21.1476 13.2945 20.8961C13.4094 20.7867 13.4805 20.7812 14.2953 20.7812C15.4984 20.7812 15.8156 20.6773 16.0289 20.2125C16.2805 19.6601 16.0398 19.0148 15.5148 18.8179C15.4109 18.7797 14.268 18.7578 12.0805 18.7578H8.80469L8.79375 22.1757L8.77734 25.5937H12.7148C17.0789 25.5937 16.9641 25.6047 17.6641 25.2328C17.9375 25.0906 18.4516 24.6586 19.7203 23.5047C23.1164 20.4148 23.2969 20.2398 23.4391 19.939C23.7125 19.3593 23.5594 18.5554 23.1164 18.1781C22.7609 17.8773 22.2359 17.7406 21.7711 17.8336Z" fill="white"/>
</svg>
