<svg width="28" height="28" viewBox="0 0 28 28" fill="none" xmlns="http://www.w3.org/2000/svg">
<g clip-path="url(#clip0_3708_21787)">
<path d="M12.1999 0.087595C12.1288 0.136814 12.0413 0.257126 12.003 0.350096C11.9647 0.443064 11.3577 2.65791 10.6577 5.27744C9.95768 7.8915 9.37799 10.0462 9.36705 10.0571C9.36158 10.0681 9.06627 9.80556 8.72174 9.4665C7.93971 8.70088 7.67174 8.55869 7.08658 8.59697C6.63268 8.62978 6.3319 8.76103 6.08033 9.05088C5.76862 9.40088 5.71393 9.554 5.71393 10.0735C5.71393 10.5165 5.70299 10.5548 5.60455 10.5548C5.39127 10.5548 4.94283 10.8173 4.74049 11.0524C4.48346 11.3478 4.35221 11.7798 4.39049 12.1626L4.41783 12.4415L4.08971 12.5399C3.84362 12.6165 3.70143 12.6985 3.50455 12.8954C3.16002 13.2399 3.03424 13.6009 3.07799 14.1204C3.1108 14.4759 3.10533 14.4923 2.99049 14.4923C2.62955 14.4978 2.13737 14.897 1.92408 15.3618C1.74362 15.7556 1.77096 16.3243 1.98424 16.6853C2.0608 16.8165 3.08346 17.8829 4.25924 19.0532L6.39752 21.1806L5.96002 22.8103C5.7194 23.7071 5.52252 24.5274 5.52252 24.6313C5.52252 25.0196 5.97643 25.3423 6.37565 25.2438C6.71471 25.1563 6.7858 25.0032 7.19049 23.4829L7.56783 22.0556L7.93971 22.2962C8.14752 22.4274 8.48112 22.6134 8.68346 22.7063C8.94049 22.8267 9.17018 22.9907 9.44908 23.2642L9.84283 23.6524L12.6046 20.8907C14.1249 19.3704 15.3663 18.1071 15.3663 18.0798C15.3663 18.0524 15.2569 17.9103 15.1202 17.7681C14.8139 17.4399 14.6499 17.079 14.6171 16.6524C14.5952 16.3845 14.6335 16.1603 14.8194 15.4493C15.0327 14.6399 15.0491 14.536 15.0272 14.0274C14.9944 13.3384 14.8686 12.9938 14.4256 12.4087C14.0428 11.9001 13.6819 11.6376 13.2061 11.5118C12.6428 11.3696 11.8717 11.4407 11.2975 11.6923L11.0569 11.8017L10.7671 11.5063L10.4772 11.2165L11.8936 5.93369C13.228 0.946188 13.2991 0.639938 13.2389 0.437595C13.1514 0.147751 12.9327 9.53674e-05 12.5936 9.53674e-05C12.435 9.53674e-05 12.2764 0.0383759 12.1999 0.087595Z" fill="white"/>
<path d="M13.8686 0.721605C13.8467 0.852855 13.3873 2.60285 12.8514 4.62082C12.31 6.63332 11.8779 8.28489 11.8889 8.29582C11.8998 8.30676 12.124 8.37785 12.392 8.45442C13.0537 8.64582 14.1201 9.06692 15.6131 9.72864C18.6428 11.0739 20.0756 11.5279 21.8748 11.7083C22.5967 11.7794 23.8928 11.7357 24.1115 11.6318C24.4014 11.495 24.3576 11.3638 23.3842 9.31848C22.8865 8.27942 22.4764 7.40989 22.4764 7.39348C22.4818 7.3716 23.0834 6.87395 23.8272 6.28879C26.0584 4.51692 26.1951 4.39661 26.1951 4.2216C26.1951 4.1341 26.1623 4.01926 26.1186 3.96457C26.0475 3.86614 25.9873 3.86067 25.5553 3.88254C23.4061 4.00285 21.6725 3.62004 18.8834 2.41145C18.4076 2.20364 17.5272 1.82082 16.9256 1.55832C15.9412 1.13176 14.5248 0.617699 14.0764 0.519261C13.9123 0.486448 13.9068 0.491918 13.8686 0.721605Z" fill="white" fill-opacity="0.4"/>
<path d="M16.16 18.211C16.0998 18.2328 14.667 19.6438 12.9826 21.3391C9.55373 24.7735 9.7506 24.5328 9.9256 25.1453C10.0131 25.4407 10.0842 25.5227 11.1725 26.6219C11.8889 27.3438 12.4139 27.825 12.5506 27.8907C12.8186 28.0219 13.2834 28.0328 13.4967 27.9235C13.5787 27.8797 15.0006 26.4797 16.6631 24.8172C18.7248 22.75 19.6928 21.7438 19.7201 21.6399C19.7912 21.3282 19.7147 20.9563 19.5069 20.6555C19.1951 20.2016 17.3412 18.3969 17.0569 18.2657C16.8053 18.1563 16.3569 18.1235 16.16 18.211Z" fill="white"/>
</g>
<defs>
<clipPath id="clip0_3708_21787">
<rect width="28" height="28" fill="white"/>
</clipPath>
</defs>
</svg>
