<svg width="28" height="28" viewBox="0 0 28 28" fill="none" xmlns="http://www.w3.org/2000/svg">
<g clip-path="url(#clip0_3793_20871)">
<path d="M13.6459 1.03379C13.5858 1.06113 13.4655 1.15957 13.3725 1.25801L13.2084 1.42754L13.192 2.96973C13.1756 4.34785 13.1866 4.52832 13.2686 4.69238C13.5584 5.23926 14.4444 5.23926 14.7342 4.69238C14.8217 4.52832 14.8272 4.34785 14.8108 2.96973L14.7944 1.42207L14.592 1.21973C14.4116 1.03926 14.3569 1.01738 14.0725 1.00098C13.8975 0.995508 13.7061 1.00645 13.6459 1.03379Z" fill="white"/>
<path d="M7.07656 4.32022C7.01641 4.3421 6.89062 4.45147 6.79219 4.56085C6.63906 4.73585 6.61719 4.80147 6.61719 5.08038C6.61719 5.34288 6.64453 5.43585 6.77578 5.61085C6.98359 5.89522 8.52031 7.4046 8.68984 7.4921C8.89766 7.596 9.31875 7.57413 9.52656 7.44835C9.78906 7.28429 9.89844 7.06554 9.89844 6.71007C9.89844 6.4421 9.87656 6.37647 9.68516 6.14132C9.35156 5.72569 7.9625 4.38585 7.79844 4.32022C7.62344 4.2546 7.24062 4.2546 7.07656 4.32022Z" fill="white"/>
<path d="M20.1852 4.32013C20.032 4.38575 18.6156 5.76388 18.3148 6.14122C18.1234 6.37638 18.1016 6.442 18.1016 6.70997C18.1016 7.06544 18.2219 7.3006 18.4844 7.45919C18.6867 7.57404 19.1133 7.59044 19.3102 7.492C19.4797 7.4045 21.0164 5.89513 21.2242 5.61075C21.3555 5.43029 21.3828 5.34279 21.3828 5.07482C21.3828 4.7795 21.3664 4.73575 21.1695 4.52794C20.9781 4.32013 20.9344 4.29825 20.6391 4.28185C20.4641 4.27638 20.2562 4.29279 20.1852 4.32013Z" fill="white"/>
<path d="M9.51563 9.22578C9.43906 9.24219 9.20391 9.33516 8.99063 9.43906C8.38906 9.72344 8.09375 10.0844 7.53047 11.1945C7.27344 11.7031 7.00547 12.168 6.93438 12.2336C6.74297 12.4086 6.43672 12.4687 5.67656 12.4687H4.97656V18.2383V24.0078H6.84688H8.71172L10.0023 25.282C11.1781 26.4469 11.3313 26.5781 11.725 26.775C12.1516 26.9828 12.1734 26.9883 12.7641 26.9883H13.3711L17.0516 25.8234C19.0805 25.1836 20.8578 24.5984 21.0055 24.5273C21.1477 24.4508 21.3609 24.3141 21.4648 24.2156L21.6672 24.0461L18.7469 21.1258L15.832 18.2109H15.5039L15.1758 18.2164L14.9297 18.6375C14.607 19.1898 13.732 20.0703 13.207 20.3766C12.7203 20.6609 12.1789 20.8797 11.6813 20.9836C11.2109 21.082 10.3195 21.093 9.87109 21.0055C9.47734 20.9289 8.46016 20.5625 8.03906 20.3547C7.70547 20.1852 7.49219 19.8953 7.49219 19.5945C7.49219 19.3594 10.4398 13.4531 10.7898 12.9828C11.0797 12.6 11.5773 12.1898 11.9875 12.0039C12.6109 11.7195 12.7805 11.7031 14.9352 11.7031H16.9367L17.0242 11.468C17.2211 10.9211 17.2484 10.7734 17.2539 10.2156V9.625L17.0461 9.42266L16.8438 9.21484L13.2453 9.20937C11.2711 9.20391 9.59219 9.21484 9.51563 9.22578Z" fill="white"/>
<path d="M0.465456 12.5232C0.4053 12.5451 0.284987 12.6436 0.192018 12.742L0.0279558 12.9115L0.0115496 18.1451C-0.00485669 23.9967 -0.0322004 23.6029 0.377956 23.86C0.563893 23.9748 0.640456 23.9803 1.95842 23.9967L3.33655 24.0186V18.2436V12.4686L1.95842 12.474C1.19827 12.474 0.525612 12.4959 0.465456 12.5232Z" fill="white"/>
<path d="M24.6641 18.2381V24.0186L26.0477 23.9967C27.3602 23.9803 27.4367 23.9748 27.6227 23.86C28.0328 23.6029 28.0055 23.9967 27.9891 18.1451L27.9727 12.9061L27.7648 12.7037L27.5625 12.4959L26.1133 12.4795L24.6641 12.4631V18.2381Z" fill="white" fill-opacity="0.4"/>
<path d="M12.7586 13.3766C12.6328 13.4258 12.4195 13.5625 12.2773 13.6828C12.0477 13.8852 11.8945 14.1641 10.7133 16.5211C9.99687 17.9648 9.40625 19.1625 9.40625 19.1898C9.40625 19.2664 9.87656 19.4086 10.325 19.4633C10.5602 19.4906 10.8773 19.4906 11.118 19.4633C11.9328 19.3594 12.4742 19.0914 13.0703 18.4898C13.4148 18.1398 13.5406 17.9594 13.8523 17.3469L14.2242 16.625H15.143C15.843 16.625 16.1219 16.6469 16.3297 16.7125C16.5703 16.7945 16.8984 17.1063 19.8133 20.0102L23.0234 23.2148V18.2492V13.2891L18.0086 13.2945C13.7211 13.2945 12.9555 13.3109 12.7586 13.3766Z" fill="white" fill-opacity="0.4"/>
</g>
<defs>
<clipPath id="clip0_3793_20871">
<rect width="28" height="28" fill="white"/>
</clipPath>
</defs>
</svg>
