<svg width="75" height="75" viewBox="0 0 75 75" fill="none" xmlns="http://www.w3.org/2000/svg">
<g clip-path="url(#clip0_2355_22579)">
<path d="M0 27.8965C0 12.7424 12.4366 0.45752 27.7778 0.45752H37.963C58.418 0.45752 75 16.8373 75 37.0429V47.1039C75 62.258 62.5634 74.5429 47.2222 74.5429H27.7778C12.4366 74.5429 0 62.258 0 47.1039V27.8965Z" fill="#EAFDFF"/>
<path d="M37.5101 49.1665C34.3767 49.1465 32.5567 47.3365 32.4984 44.1982V44.1365C32.5551 41.0448 34.4201 39.1848 37.4901 39.1682C40.5351 39.1865 42.4484 41.0915 42.5017 44.1382C42.4434 47.3382 40.6234 49.1465 37.5101 49.1665ZM49.1767 49.1665C46.0417 49.1465 44.2217 47.3348 44.1651 44.1982V44.1382C44.2201 41.0448 46.0851 39.1848 49.1567 39.1682C52.2017 39.1865 54.1151 41.0915 54.1684 44.1382C54.1101 47.3382 52.2901 49.1465 49.1767 49.1665ZM25.8434 49.1665C22.7101 49.1465 20.8901 47.3365 20.8317 44.1982V44.1365C20.8884 41.0448 22.7534 39.1848 25.8234 39.1682C28.8684 39.1865 30.7817 41.0915 30.8351 44.1382C30.7767 47.3382 28.9584 49.1465 25.8434 49.1665ZM55.6134 54.9948C55.9101 54.4748 55.9067 53.8382 55.6034 53.3215C54.8317 52.0098 53.4167 51.1348 51.8184 50.9815C49.8067 50.7865 47.6967 50.7865 45.6817 50.9815C44.8084 51.0648 43.9867 51.3648 43.2984 51.8348C42.5684 51.3632 41.7034 51.0632 40.7784 50.9798C38.6234 50.7848 36.3684 50.7848 34.2184 50.9798C33.2951 51.0632 32.4284 51.3615 31.7001 51.8348C31.0101 51.3665 30.1917 51.0648 29.3167 50.9815C27.3017 50.7865 25.1901 50.7865 23.1817 50.9815C21.5801 51.1348 20.1634 52.0098 19.3951 53.3232C19.0934 53.8398 19.0901 54.4765 19.3867 54.9948C19.6834 55.5148 20.2351 55.8332 20.8334 55.8332H54.1667C54.7634 55.8332 55.3151 55.5132 55.6134 54.9948ZM25.8034 35.8332C28.1584 35.8465 30.1651 36.6632 31.6284 38.0398C33.0767 36.6548 35.0851 35.8465 37.4701 35.8332C39.8251 35.8465 41.8317 36.6632 43.2951 38.0398C44.7434 36.6548 46.7517 35.8465 49.1367 35.8332C51.8667 35.8482 54.1151 36.9548 55.6017 38.7565C55.7401 37.3798 55.8334 35.8498 55.8334 34.1665C55.8334 26.8382 54.1317 22.2182 54.0617 22.0248C53.8884 21.5665 53.5217 21.2048 53.0584 21.0398C52.8434 20.9632 47.6717 19.1665 37.5001 19.1665C27.3284 19.1665 22.1567 20.9632 21.9417 21.0398C21.4784 21.2048 21.1117 21.5648 20.9384 22.0248C20.8667 22.2182 19.1667 26.8382 19.1667 34.1665C19.1667 35.8232 19.2567 37.3348 19.3917 38.6948C20.8567 36.9198 23.0751 35.8498 25.8034 35.8332Z" fill="#0DCAF0"/>
</g>
<defs>
<clipPath id="clip0_2355_22579">
<rect width="75" height="75" fill="white"/>
</clipPath>
</defs>
</svg>
