<svg width="75" height="75" viewBox="0 0 75 75" fill="none" xmlns="http://www.w3.org/2000/svg">
<g clip-path="url(#clip0_2355_22550)">
<path d="M0 27.7778C0 12.4366 12.4366 0 27.7778 0H37.963C58.418 0 75 16.582 75 37.037V47.2222C75 62.5634 62.5634 75 47.2222 75H27.7778C12.4366 75 0 62.5634 0 47.2222V27.7778Z" fill="#FFF0EE"/>
<g clip-path="url(#clip1_2355_22550)">
<path d="M49.1667 43.3167C49.1667 43.4783 49.1667 52.5 49.1667 52.5C49.1667 53.4217 48.4217 54.1667 47.5 54.1667C46.5783 54.1667 45.8333 53.4217 45.8333 52.5V46.465L39.9433 48.7183C39.1617 49.0183 38.3233 49.1667 37.485 49.1667C36.6417 49.1667 35.8 49.0167 35.015 48.715L27.7717 45.9317C26.5733 45.47 25.83 44.4683 25.8317 43.3183C25.8317 42.1667 26.58 41.1667 27.78 40.7083L35.025 37.945C36.5783 37.3517 38.3633 37.35 39.9183 37.94L47.21 40.7067C48.3933 41.1533 49.1617 42.1783 49.1633 43.315L49.1667 43.3167ZM57.5 25.8333V29.1667H17.5V25.8333C17.5 21.2383 21.2383 17.5 25.8333 17.5H49.1667C53.7617 17.5 57.5 21.2383 57.5 25.8333ZM27.5 23.3333C27.5 21.9533 26.38 20.8333 25 20.8333C23.62 20.8333 22.5 21.9533 22.5 23.3333C22.5 24.7133 23.62 25.8333 25 25.8333C26.38 25.8333 27.5 24.7133 27.5 23.3333ZM34.1667 23.3333C34.1667 21.9533 33.0467 20.8333 31.6667 20.8333C30.2867 20.8333 29.1667 21.9533 29.1667 23.3333C29.1667 24.7133 30.2867 25.8333 31.6667 25.8333C33.0467 25.8333 34.1667 24.7133 34.1667 23.3333ZM37.4767 52.5C36.2083 52.5 34.9767 52.275 33.8117 51.8333L30.8333 50.6967V52.8233C30.8333 54.4467 31.7833 55.9333 33.2567 56.6117C34.5383 57.2017 35.965 57.5 37.5 57.5C39.035 57.5 40.4617 57.2 41.7467 56.6117C43.2167 55.9333 44.1667 54.445 44.1667 52.8233V50.6833L41.1283 51.8367C39.975 52.2767 38.745 52.5 37.4767 52.5ZM17.5 45.8333C17.5 50.4283 21.2383 54.1667 25.8333 54.1667H27.6367C27.555 53.7267 27.5 53.28 27.5 52.8217V49.3967L26.5767 49.0417C24.0967 48.0883 22.4967 45.84 22.5 43.3117C22.5033 40.7833 24.11 38.54 26.5933 37.5933L33.8383 34.83C36.1467 33.9517 38.7933 33.9483 41.1033 34.8233L48.3967 37.5917C50.6567 38.4433 52.5367 40.8317 52.5367 43.31C52.5367 43.4867 52.5 52.4983 52.5 52.4983C52.5 52.845 52.4633 53.185 52.395 53.5133C55.39 52.2483 57.5 49.2833 57.5 45.8317V32.4983H17.5V45.8333Z" fill="#FF4667"/>
</g>
</g>
<defs>
<clipPath id="clip0_2355_22550">
<rect width="75" height="75" fill="white"/>
</clipPath>
<clipPath id="clip1_2355_22550">
<rect width="40" height="40" fill="white" transform="translate(17.5 17.5)"/>
</clipPath>
</defs>
</svg>
