<svg width="75" height="75" viewBox="0 0 75 75" fill="none" xmlns="http://www.w3.org/2000/svg">
<g clip-path="url(#clip0_2355_22558)">
<path d="M0 27.7778C0 12.4366 12.4366 0 27.7778 0H37.963C58.418 0 75 16.582 75 37.037V47.2222C75 62.5634 62.5634 75 47.2222 75H27.7778C12.4366 75 0 62.5634 0 47.2222V27.7778Z" fill="#ECEDFE"/>
<g clip-path="url(#clip1_2355_22558)">
<path d="M20.8333 21.6667C20.8333 19.365 22.6983 17.5 25 17.5C27.3017 17.5 29.1667 19.365 29.1667 21.6667C29.1667 23.9683 27.3017 25.8333 25 25.8333C22.6983 25.8333 20.8333 23.9683 20.8333 21.6667ZM51.6667 17.5H31.2333C32.0317 18.6917 32.5 20.125 32.5 21.6667C32.5 22.5483 32.32 23.3817 32.04 24.1667H40.635C43.0533 24.1667 45.275 25.7967 45.735 28.17C46.355 31.3617 43.915 34.1667 40.8317 34.1667H34.165V42.5H40.8317V46.295C39.84 46.8717 39.165 47.935 39.165 49.1667C39.165 51.0083 40.6567 52.5 42.4983 52.5C44.34 52.5 45.8317 51.0083 45.8317 49.1667C45.8317 47.9367 45.1567 46.8733 44.165 46.295V42.5H51.665C54.8867 42.5 57.4983 39.8883 57.4983 36.6667V23.3333C57.4983 20.1117 54.8883 17.5 51.6667 17.5ZM42.5 29.1667C42.5 28.2467 41.755 27.5 40.8333 27.5H24.1667C20.49 27.5 17.5 30.49 17.5 34.1667V39.1667C17.5 41.6233 18.85 43.75 20.8333 44.9067V55.8333C20.8333 56.755 21.5783 57.5 22.5 57.5C23.4217 57.5 24.1667 56.755 24.1667 55.8333V45.8333H27.5V55.8333C27.5 56.755 28.245 57.5 29.1667 57.5C30.0883 57.5 30.8333 56.755 30.8333 55.8333V30.8333H40.8333C41.755 30.8333 42.5 30.0867 42.5 29.1667Z" fill="#392C7D"/>
</g>
</g>
<defs>
<clipPath id="clip0_2355_22558">
<rect width="75" height="75" fill="white"/>
</clipPath>
<clipPath id="clip1_2355_22558">
<rect width="40" height="40" fill="white" transform="translate(17.5 17.5)"/>
</clipPath>
</defs>
</svg>
