<svg width="75" height="75" viewBox="0 0 75 75" fill="none" xmlns="http://www.w3.org/2000/svg">
<g clip-path="url(#clip0_2355_22568)">
<path d="M0 27.8965C0 12.7424 12.4366 0.45752 27.7778 0.45752H37.963C58.418 0.45752 75 16.8373 75 37.0429V47.1039C75 62.258 62.5634 74.5429 47.2222 74.5429H27.7778C12.4366 74.5429 0 62.258 0 47.1039V27.8965Z" fill="#FFF2F8"/>
<g clip-path="url(#clip1_2355_22568)">
<path d="M20.8333 49.9833V41.0333C19.3099 39.81 18.3333 37.935 18.3333 35.8333C18.3333 32.1567 21.3233 29.1667 24.9999 29.1667C28.6766 29.1667 31.6666 32.1567 31.6666 35.8333C31.6666 37.935 30.6899 39.81 29.1666 41.0333V49.9833L24.9999 45.8167L20.8333 49.9833ZM49.1666 18.4767V25.8333H56.5233L49.1666 18.4767ZM45.8333 29.1667V17.5H29.1666C26.4049 17.5 24.1666 19.7383 24.1666 22.5V25.8683C24.4416 25.845 24.7199 25.8333 24.9999 25.8333C30.5133 25.8333 34.9999 30.3183 34.9999 35.8333C34.9999 36.4017 34.9516 36.9583 34.8599 37.5H49.1666V40.8333H33.6583C33.3249 41.4083 32.9366 41.945 32.4999 42.44V44.1667H49.1666V47.5H32.4999V52.5H26.9699L24.1666 49.6967V57.5H57.4999V29.1667H45.8333Z" fill="#FD3995"/>
</g>
</g>
<defs>
<clipPath id="clip0_2355_22568">
<rect width="75" height="75" fill="white"/>
</clipPath>
<clipPath id="clip1_2355_22568">
<rect width="40" height="40" fill="white" transform="translate(17.5 17.5)"/>
</clipPath>
</defs>
</svg>
