<svg width="30" height="27" viewBox="0 0 30 27" fill="none" xmlns="http://www.w3.org/2000/svg">
<path d="M25.6708 10.4721V15.5734C25.6708 16.3185 25.3223 17.011 24.7485 17.4016C24.2661 17.7299 23.6167 18.1483 22.8491 18.5842V10.4721H25.6708Z" fill="#F8B102"/>
<path d="M22.7052 10.4721V18.6199C20.6366 19.8026 17.7157 21.114 14.943 21.114C11.1429 21.114 7.06418 18.6496 5.28149 17.4326C4.70766 17.0405 4.35919 16.3452 4.35919 15.597V10.4721H22.7052Z" fill="#F8B102"/>
<path d="M25.5302 10.3657V15.3481C25.5302 16.0782 25.1816 16.7564 24.6079 17.1386C22.8254 18.3261 18.7469 20.7306 14.9464 20.7306C11.146 20.7306 7.06756 18.3261 5.28495 17.1386C4.71126 16.7564 4.36271 16.0782 4.36271 15.3481V10.3657H25.5302ZM26.1062 9.78652H3.7868V15.3481C3.7868 16.2793 4.22793 17.1292 4.96686 17.6215C5.90601 18.2472 7.39061 19.1522 9.12967 19.9112C11.2561 20.8393 13.2131 21.3098 14.9464 21.3098C16.6798 21.3098 18.6368 20.8393 20.7632 19.9112C22.5023 19.1522 23.9869 18.2471 24.926 17.6215C25.6649 17.1292 26.1062 16.2793 26.1062 15.3481V9.78652Z" fill="#F8B102"/>
<path d="M22.4382 19.8016C21.8991 19.8672 21.4024 20.1289 21.0418 20.5374C20.6813 20.9459 20.482 21.473 20.4814 22.0191V23.9896C20.4814 24.7885 20.9052 25.5268 21.5934 25.9262C22.2814 26.3258 23.1291 26.3258 23.8171 25.9262C24.5052 25.5268 24.9291 24.7885 24.9291 23.9896V22.0191C24.9285 21.473 24.729 20.9459 24.3686 20.5374C24.0081 20.1289 23.5114 19.8672 22.9722 19.8016" fill="#196164"/>
<path d="M24.3951 22.2822H21.0153V22.0433C21.0153 21.1047 21.7719 20.3439 22.7051 20.3439C23.6385 20.3439 24.395 21.1048 24.395 22.0433L24.3951 22.2822Z" fill="#196164"/>
<path d="M28.3931 9.70512L15.5929 15.8332C15.1618 16.0396 14.6611 16.039 14.2305 15.8317L1.36031 9.63722C0.167147 9.06293 0.160802 7.35707 1.34964 6.7738L14.2129 0.463143C14.6533 0.247024 15.1686 0.248539 15.6079 0.467264L28.4151 6.84447C29.598 7.43346 29.5849 9.1346 28.3931 9.70512Z" fill="#196164"/>
<path d="M14.9063 0.568929C15.0827 0.568929 15.259 0.608615 15.4212 0.687981L28.5317 7.10031C29.3998 7.52487 29.3902 8.75113 28.5156 9.16247L15.4102 15.3253C15.2525 15.3995 15.0819 15.4366 14.9114 15.4366C14.7401 15.4366 14.5689 15.3992 14.4105 15.3243L1.23543 9.09556C0.359786 8.68159 0.355172 7.4519 1.22758 7.03146L14.3974 0.685C14.558 0.607625 14.7322 0.568929 14.9063 0.568929ZM14.9063 0C14.6438 0 14.3806 0.0601025 14.1449 0.173676L0.975089 6.52013C0.371093 6.81121 -0.00250728 7.40432 1.2668e-05 8.06805C0.00253262 8.73178 0.380588 9.32212 0.986744 9.60872L14.1617 15.8374C14.3943 15.9474 14.6535 16.0055 14.9114 16.0055C15.168 16.0055 15.4261 15.9479 15.6578 15.8389L28.7631 9.67607C29.3685 9.39132 29.7479 8.80304 29.7531 8.14066C29.7583 7.47835 29.3882 6.88431 28.7872 6.59038L15.6768 0.178138C15.4385 0.0615775 15.1721 0 14.9063 0Z" fill="#196164"/>
</svg>
