<svg width="24" height="24" viewBox="0 0 24 24" fill="none" xmlns="http://www.w3.org/2000/svg">
<g clip-path="url(#clip0_3784_22346)">
<path d="M11.5545 0.145311C11.0295 0.370312 9.7873 0.778124 8.99043 0.979687C6.95605 1.50469 4.74355 1.73438 2.71855 1.64062C2.21699 1.61719 1.75762 1.59844 1.69668 1.59375H1.58887L1.60762 6.57187C1.62168 11.9438 1.6123 11.7047 1.87949 13.0312C2.08574 14.0531 2.48887 15.2531 2.98105 16.2984C4.05449 18.5859 5.86856 20.6812 7.99199 22.1016C8.63418 22.5281 9.47793 22.9969 10.1248 23.2781C10.7951 23.5734 11.9107 24 12.0092 24C12.1404 24 13.617 23.4094 14.2732 23.0906C17.5779 21.5016 20.1654 18.6703 21.4826 15.2062C21.8482 14.2453 22.0873 13.3313 22.2795 12.1641C22.3732 11.5734 22.3779 11.3953 22.392 6.56719L22.4107 1.58437L21.8811 1.61719C21.0279 1.67813 19.2607 1.65469 18.4217 1.575C16.4904 1.3875 14.4607 0.918749 12.7826 0.271873C12.4404 0.140623 12.1029 0.0281239 12.0232 0.0187492C11.9389 0.00937462 11.7467 0.060936 11.5545 0.145311ZM12.0654 5.95312C12.9232 6.16875 13.5842 6.55781 14.2076 7.20469C14.8732 7.89375 15.2576 8.67656 15.4029 9.63281C15.5576 10.6266 15.3232 11.7188 14.7701 12.5625L14.5451 12.9141L15.9373 14.3203C17.4092 15.8062 17.4514 15.8625 17.3389 16.1625C17.2686 16.3453 17.1186 16.4906 16.9357 16.5516C16.6545 16.6453 16.4857 16.5141 15.0514 15.075L13.7201 13.7437L13.3873 13.9594C12.1873 14.7375 10.6498 14.8641 9.31855 14.2969C8.54512 13.9688 7.74824 13.2797 7.29824 12.5578C6.52481 11.3203 6.41699 9.83437 6.99824 8.48437C7.40605 7.54687 8.27793 6.65625 9.19668 6.23438C9.58574 6.06094 10.0826 5.91094 10.4576 5.85938C10.8795 5.80313 11.6482 5.84531 12.0654 5.95312Z" fill="#196164"/>
<path d="M10.3125 7.05474C9.40781 7.25631 8.55 7.93131 8.1375 8.76568C7.65469 9.74537 7.65469 10.7391 8.1375 11.7188C8.57344 12.5954 9.42656 13.2422 10.4062 13.4344C10.8703 13.5282 11.5453 13.5001 11.9531 13.3782C12.8016 13.1297 13.5516 12.4969 13.9406 11.7188C14.4234 10.7391 14.4234 9.74537 13.9406 8.77037C13.5656 8.00631 12.8859 7.42037 12.0516 7.13912C11.6016 6.98912 10.7859 6.94693 10.3125 7.05474Z" fill="white"/>
</g>
<defs>
<clipPath id="clip0_3784_22346">
<rect width="24" height="24" fill="white"/>
</clipPath>
</defs>
</svg>
