<svg width="24" height="19" viewBox="0 0 24 19" fill="none" xmlns="http://www.w3.org/2000/svg">
<path d="M7.65625 0.168772C6.21875 0.825022 4.3875 2.13752 3.2625 3.32502C1.08125 5.63127 0 8.18127 0 11C0 12.9125 0.3625 14.275 1.20625 15.575C2.1625 17.0313 3.125 17.7313 4.65625 18.0875C5.5625 18.2938 6.93125 18.1813 7.73125 17.8313C9.39375 17.0938 10.5313 15.15 10.4188 13.2375C10.3125 11.4688 9.40625 10.1 7.84375 9.32502C7.5375 9.17502 7.1 9.00627 6.875 8.95002C5.9625 8.71877 4.825 8.73752 4.1 8.98752C3.89375 9.05627 3.71875 9.10002 3.7 9.08752C3.64375 9.02502 3.825 8.18127 4.03125 7.56877C4.46875 6.25002 5.0875 5.23752 6.0625 4.21252C6.9125 3.33127 7.85625 2.59377 8.95625 1.96252C9.24375 1.80002 9.25625 1.78127 9.16875 1.65627C9.11875 1.58127 8.84375 1.17502 8.55 0.762522L8.025 2.28882e-05L7.65625 0.168772Z" fill="white"/>
<path d="M20.5194 0.425106C15.8632 2.84386 13.1382 7.03136 13.3319 11.4814C13.4069 13.2689 13.8319 14.5876 14.7569 15.8814C15.8569 17.4314 17.2944 18.1876 19.1257 18.1814C20.0194 18.1814 20.6132 18.0564 21.3069 17.7251C22.4132 17.2001 23.3382 15.9126 23.6632 14.4501C23.8132 13.7626 23.7632 12.6939 23.5444 12.0189C23.0257 10.4314 21.6694 9.24386 19.9694 8.89386C19.0257 8.70011 17.7632 8.78761 17.1819 9.08136C16.9569 9.20011 16.9569 9.18761 17.1257 8.43761C17.6694 5.99386 19.0632 4.08136 21.4882 2.46886C21.8569 2.21886 22.2569 1.97511 22.3632 1.93136C22.4757 1.88761 22.5632 1.81886 22.5632 1.78761C22.5632 1.73761 21.5194 0.193855 21.3819 0.0376053C21.3632 0.0126057 20.9694 0.187605 20.5194 0.425106Z" fill="white"/>
</svg>
