<svg width="37" height="37" viewBox="0 0 37 37" fill="none" xmlns="http://www.w3.org/2000/svg">
<path d="M26.3381 1.74164C25.6946 1.9829 25.4658 2.21119 24.6046 3.45411C22.4623 6.57179 20.3841 9.2596 18.1147 11.8517C17.7202 12.2933 17.4022 12.6776 17.4026 12.7057C17.4029 12.7268 18.8437 14.1478 20.6122 15.8664L23.8141 18.9779L24.0573 18.7705C24.1891 18.6491 24.8695 18.0346 25.5706 17.3987C27.8197 15.3554 30.7046 13.0217 33.0783 11.3282C33.9833 10.6894 34.1704 10.4969 34.4577 9.93727C34.5945 9.66809 34.6204 9.51302 34.6129 8.98573C34.597 7.87491 34.726 8.04183 31.4312 4.82613C28.1792 1.65201 28.1792 1.65201 27.2365 1.6233C26.8425 1.60784 26.6039 1.63939 26.3381 1.74164Z" fill="#F8B102" fill-opacity="0.45"/>
<path d="M15.0328 15.1301C14.312 15.8647 13.7304 16.4989 13.7309 16.534C13.732 16.6114 20.0217 22.7306 20.092 22.7296C20.1553 22.7287 22.7818 20.026 22.7809 19.9628C22.7797 19.8854 16.4762 13.7804 16.3988 13.7815C16.3566 13.7821 15.7465 14.3886 15.0328 15.1301Z" fill="#F8B102"/>
<path d="M11.8512 18.2982C9.3251 20.6408 6.69783 22.795 3.64281 25.0327C2.37623 25.958 2.14784 26.2144 1.94698 26.9205C1.79995 27.457 1.86606 28.1452 2.11203 28.6269C2.39417 29.1784 7.89195 34.5003 8.40137 34.718C8.8683 34.9152 9.57206 34.9544 10.0622 34.8067C10.7273 34.6003 11.0328 34.3288 11.7009 33.3488C13.7878 30.2881 16.1073 27.2664 18.3146 24.7595C18.6536 24.3679 18.9787 23.9906 19.0339 23.9195C19.1236 23.7987 18.8809 23.5419 15.9286 20.6729C14.1672 18.9612 12.7056 17.5617 12.6845 17.562C12.6564 17.5624 12.2814 17.8912 11.8512 18.2982Z" fill="#F8B102" fill-opacity="0.45"/>
<path d="M28.5326 17.4756L27.3884 17.6186L26.2985 18.6046C25.2433 19.562 23.0861 21.6391 22.7539 22.0096L22.5877 22.1877L22.9684 22.2596C23.8286 22.4231 30.1567 23.3593 30.3606 23.3563C30.5153 23.3541 30.6479 23.2819 30.8142 23.1108C31.2092 22.7043 31.1641 22.501 30.3949 21.3307L29.748 20.3484L30.3602 19.3903C30.6972 18.8651 30.9924 18.3616 31.0194 18.2839C31.1 18.0226 30.9825 17.6727 30.7548 17.486C30.4915 17.2648 30.2173 17.2687 28.5326 17.4756Z" fill="#F8B102"/>
<path d="M21.2106 23.6773C20.22 24.7252 18.7114 26.4274 18.1243 27.1671L17.8756 27.4801L17.7489 28.9446C17.6175 30.5708 17.6414 30.7674 18.0237 30.9518C18.4487 31.1637 18.6096 31.1051 19.856 30.2435L20.6707 29.6833L21.5295 30.2406C22.6226 30.9493 22.8136 31.0309 23.1566 30.9205C23.4786 30.8175 23.7067 30.54 23.7025 30.2447C23.6983 29.9564 22.3917 22.6759 22.3274 22.6065C22.2989 22.5788 21.7995 23.0571 21.2106 23.6773Z" fill="#F8B102"/>
<path d="M26.3381 1.74164C25.6946 1.9829 25.4658 2.21119 24.6046 3.45411C22.4623 6.57179 20.3841 9.2596 18.1147 11.8517C17.7202 12.2933 17.4022 12.6776 17.4026 12.7057C17.4029 12.7268 18.8437 14.1478 20.6122 15.8664L23.8141 18.9779L24.0573 18.7705C24.1891 18.6491 24.8695 18.0346 25.5706 17.3987C27.8197 15.3554 30.7046 13.0217 33.0783 11.3282C33.9833 10.6894 34.1704 10.4969 34.4577 9.93727C34.5945 9.66809 34.6204 9.51302 34.6129 8.98573C34.597 7.87491 34.726 8.04183 31.4312 4.82613C28.1792 1.65201 28.1792 1.65201 27.2365 1.6233C26.8425 1.60784 26.6039 1.63939 26.3381 1.74164Z" fill="#F8B102" fill-opacity="0.45"/>
<path d="M15.0328 15.1301C14.312 15.8647 13.7304 16.4989 13.7309 16.534C13.732 16.6114 20.0217 22.7306 20.092 22.7296C20.1553 22.7287 22.7818 20.026 22.7809 19.9628C22.7797 19.8854 16.4762 13.7804 16.3988 13.7815C16.3566 13.7821 15.7465 14.3886 15.0328 15.1301Z" fill="#F8B102"/>
<path d="M11.8512 18.2982C9.3251 20.6408 6.69783 22.795 3.64281 25.0327C2.37623 25.958 2.14784 26.2144 1.94698 26.9205C1.79995 27.457 1.86606 28.1452 2.11203 28.6269C2.39417 29.1784 7.89195 34.5003 8.40137 34.718C8.8683 34.9152 9.57206 34.9544 10.0622 34.8067C10.7273 34.6003 11.0328 34.3288 11.7009 33.3488C13.7878 30.2881 16.1073 27.2664 18.3146 24.7595C18.6536 24.3679 18.9787 23.9906 19.0339 23.9195C19.1236 23.7987 18.8809 23.5419 15.9286 20.6729C14.1672 18.9612 12.7056 17.5617 12.6845 17.562C12.6564 17.5624 12.2814 17.8912 11.8512 18.2982Z" fill="#F8B102" fill-opacity="0.45"/>
<path d="M28.5326 17.4756L27.3884 17.6186L26.2985 18.6046C25.2433 19.562 23.0861 21.6391 22.7539 22.0096L22.5877 22.1877L22.9684 22.2596C23.8286 22.4231 30.1567 23.3593 30.3606 23.3563C30.5153 23.3541 30.6479 23.2819 30.8142 23.1108C31.2092 22.7043 31.1641 22.501 30.3949 21.3307L29.748 20.3484L30.3602 19.3903C30.6972 18.8651 30.9924 18.3616 31.0194 18.2839C31.1 18.0226 30.9825 17.6727 30.7548 17.486C30.4915 17.2648 30.2173 17.2687 28.5326 17.4756Z" fill="#F8B102"/>
<path d="M21.2106 23.6773C20.22 24.7252 18.7114 26.4274 18.1243 27.1671L17.8756 27.4801L17.7489 28.9446C17.6175 30.5708 17.6414 30.7674 18.0237 30.9518C18.4487 31.1637 18.6096 31.1051 19.856 30.2435L20.6707 29.6833L21.5295 30.2406C22.6226 30.9493 22.8136 31.0309 23.1566 30.9205C23.4786 30.8175 23.7067 30.54 23.7025 30.2447C23.6983 29.9564 22.3917 22.6759 22.3274 22.6065C22.2989 22.5788 21.7995 23.0571 21.2106 23.6773Z" fill="#F8B102"/>
</svg>
