<svg width="37" height="37" viewBox="0 0 37 37" fill="none" xmlns="http://www.w3.org/2000/svg">
<path d="M26.3343 1.71231C25.6901 1.95162 25.4606 2.17922 24.5957 3.41953C22.4439 6.53072 20.3576 9.21224 18.0804 11.7975C17.6845 12.2379 17.3654 12.6212 17.3657 12.6493C17.366 12.6704 18.8024 14.0957 20.5657 15.8197L23.7582 18.9409L24.002 18.7342C24.1342 18.6132 24.8164 18.0008 25.5195 17.367C27.7748 15.3305 30.6667 13.0056 33.0455 11.3192C33.9524 10.6832 34.1401 10.4912 34.4291 9.93245C34.5667 9.6637 34.5931 9.5087 34.5872 8.98139C34.5746 7.87053 34.7031 8.03784 31.418 4.81219C28.1757 1.62825 28.1757 1.62825 27.2331 1.59669C26.8391 1.58004 26.6004 1.61086 26.3343 1.71231Z" fill="#196164"/>
<path d="M14.9882 15.0669C14.2652 15.7993 13.6816 16.4318 13.682 16.4669C13.6829 16.5442 19.9541 22.6825 20.0244 22.6817C20.0877 22.681 22.7223 19.9862 22.7216 19.923C22.7207 19.8456 16.4356 13.7216 16.3583 13.7225C16.3161 13.723 15.7041 14.3276 14.9882 15.0669Z" fill="#196164"/>
<path d="M11.7972 18.2251C9.264 20.5601 6.63023 22.7064 3.56846 24.9348C2.29908 25.8562 2.06992 26.1119 1.86693 26.8174C1.71828 27.3535 1.7823 28.0419 2.02682 28.5243C2.30729 29.0766 7.78895 34.4151 8.29771 34.6344C8.76404 34.8331 9.46768 34.8743 9.95825 34.7282C10.624 34.5238 10.9303 34.2531 11.6013 33.2752C13.6975 30.2209 16.0261 27.2061 18.241 24.706C18.5812 24.3154 18.9074 23.939 18.9629 23.8681C19.0529 23.7475 18.8109 23.4901 15.8674 20.6122C14.1112 18.8952 12.6538 17.4912 12.6327 17.4914C12.6046 17.4918 12.2286 17.8195 11.7972 18.2251Z" fill="#196164"/>
<path d="M28.4813 17.4531L27.3367 17.5926L26.2438 18.5753C25.1858 19.5294 23.0223 21.6001 22.6889 21.9695L22.5222 22.1472L22.9027 22.2202C23.7625 22.3863 30.0877 23.3416 30.2916 23.3393C30.4463 23.3375 30.5791 23.2657 30.7459 23.0951C31.1421 22.6898 31.0977 22.4864 30.332 21.3137L29.6881 20.3295L30.3031 19.3733C30.6417 18.8491 30.9384 18.3465 30.9657 18.2688C31.0471 18.0078 30.9307 17.6575 30.7035 17.4702C30.4409 17.2481 30.1667 17.2512 28.4813 17.4531Z" fill="#196164"/>
<path d="M21.1402 23.6323C20.1464 24.6772 18.6327 26.3749 18.0433 27.1128L17.7937 27.425L17.6625 28.8891C17.5262 30.515 17.5495 30.7116 17.9313 30.8971C18.3556 31.1103 18.5167 31.0522 19.7657 30.1944L20.5821 29.6367L21.4392 30.1966C22.5302 30.9085 22.7209 30.9908 23.0643 30.8814C23.3866 30.7793 23.6155 30.5025 23.6122 30.2072C23.6089 29.919 22.3243 22.6345 22.2602 22.5649C22.2318 22.5371 21.7309 23.0139 21.1402 23.6323Z" fill="#196164"/>
<path d="M26.3343 1.71231C25.6901 1.95162 25.4606 2.17922 24.5957 3.41953C22.4439 6.53072 20.3576 9.21224 18.0804 11.7975C17.6845 12.2379 17.3654 12.6212 17.3657 12.6493C17.366 12.6704 18.8024 14.0957 20.5657 15.8197L23.7582 18.9409L24.002 18.7342C24.1342 18.6132 24.8164 18.0008 25.5195 17.367C27.7748 15.3305 30.6667 13.0056 33.0455 11.3192C33.9524 10.6832 34.1401 10.4912 34.4291 9.93245C34.5667 9.6637 34.5931 9.5087 34.5872 8.98139C34.5746 7.87053 34.7031 8.03784 31.418 4.81219C28.1757 1.62825 28.1757 1.62825 27.2331 1.59669C26.8391 1.58004 26.6004 1.61086 26.3343 1.71231Z" fill="#196164"/>
<path d="M14.9882 15.0669C14.2652 15.7993 13.6816 16.4318 13.682 16.4669C13.6829 16.5442 19.9541 22.6825 20.0244 22.6817C20.0877 22.681 22.7223 19.9862 22.7216 19.923C22.7207 19.8456 16.4356 13.7216 16.3583 13.7225C16.3161 13.723 15.7041 14.3276 14.9882 15.0669Z" fill="#196164"/>
<path d="M11.7972 18.2251C9.264 20.5601 6.63023 22.7064 3.56846 24.9348C2.29908 25.8562 2.06992 26.1119 1.86693 26.8174C1.71828 27.3535 1.7823 28.0419 2.02682 28.5243C2.30729 29.0766 7.78895 34.4151 8.29771 34.6344C8.76404 34.8331 9.46768 34.8743 9.95825 34.7282C10.624 34.5238 10.9303 34.2531 11.6013 33.2752C13.6975 30.2209 16.0261 27.2061 18.241 24.706C18.5812 24.3154 18.9074 23.939 18.9629 23.8681C19.0529 23.7475 18.8109 23.4901 15.8674 20.6122C14.1112 18.8952 12.6538 17.4912 12.6327 17.4914C12.6046 17.4918 12.2286 17.8195 11.7972 18.2251Z" fill="#196164"/>
<path d="M28.4813 17.4531L27.3367 17.5926L26.2438 18.5753C25.1858 19.5294 23.0223 21.6001 22.6889 21.9695L22.5222 22.1472L22.9027 22.2202C23.7625 22.3863 30.0877 23.3416 30.2916 23.3393C30.4463 23.3375 30.5791 23.2657 30.7459 23.0951C31.1421 22.6898 31.0977 22.4864 30.332 21.3137L29.6881 20.3295L30.3031 19.3733C30.6417 18.8491 30.9384 18.3465 30.9657 18.2688C31.0471 18.0078 30.9307 17.6575 30.7035 17.4702C30.4409 17.2481 30.1667 17.2512 28.4813 17.4531Z" fill="#196164"/>
<path d="M21.1402 23.6323C20.1464 24.6772 18.6327 26.3749 18.0433 27.1128L17.7937 27.425L17.6625 28.8891C17.5262 30.515 17.5495 30.7116 17.9313 30.8971C18.3556 31.1103 18.5167 31.0522 19.7657 30.1944L20.5821 29.6367L21.4392 30.1966C22.5302 30.9085 22.7209 30.9908 23.0643 30.8814C23.3866 30.7793 23.6155 30.5025 23.6122 30.2072C23.6089 29.919 22.3243 22.6345 22.2602 22.5649C22.2318 22.5371 21.7309 23.0139 21.1402 23.6323Z" fill="#196164"/>
</svg>
