<svg width="24" height="24" viewBox="0 0 24 24" fill="none" xmlns="http://www.w3.org/2000/svg">
<g clip-path="url(#clip0_3784_22322)">
<path d="M7.68732 1.02659L3.53889 2.04846L3.52482 6.52034C3.51545 9.54846 3.52951 11.1656 3.56232 11.5313C3.86232 14.6016 5.55451 17.4563 8.10451 19.1672C8.46545 19.411 11.6576 21.2625 11.9295 21.3844C12.0279 21.4266 12.2389 21.3188 13.7436 20.461C15.7029 19.3406 16.0217 19.1391 16.6639 18.6235C18.3795 17.2406 19.6592 15.2438 20.1983 13.0969C20.5123 11.85 20.5076 11.9531 20.5076 6.75471V2.04846L16.3358 1.02659C14.0389 0.464087 12.0889 0.00471115 11.9998 0.00471115C11.9108 0.00939941 9.97014 0.468773 7.68732 1.02659ZM13.4998 5.63908L14.1748 6.56721L15.9233 7.13908L17.6717 7.71565L16.5936 9.21096L15.5154 10.7016V12.525C15.5154 13.5235 15.4967 14.3438 15.4779 14.3438C15.4592 14.3438 14.6904 14.1 13.7717 13.8047C12.8529 13.5094 12.0654 13.2656 12.0233 13.2656C11.9811 13.2656 11.1936 13.5094 10.2748 13.8047C9.35139 14.1 8.58264 14.3438 8.56389 14.3438C8.54514 14.3438 8.53107 13.5281 8.53107 12.525V10.711L7.44826 9.21565C6.85764 8.39534 6.37482 7.72034 6.3842 7.71096C6.39357 7.70627 7.18107 7.44846 8.13264 7.1344L9.86701 6.56721L10.9404 5.09065L12.0139 3.61408L12.417 4.16252C12.642 4.46252 13.1248 5.12815 13.4998 5.63908Z" fill="white"/>
<path d="M11.3438 6.81553L10.6781 7.72959L9.62813 8.06709C9.05156 8.25459 8.57812 8.42334 8.57812 8.44678C8.57812 8.46553 8.85 8.85928 9.17813 9.31865C9.50625 9.77334 9.79688 10.1812 9.825 10.2187C9.84844 10.2562 9.87656 10.7858 9.89062 11.3952L9.91406 12.5015L10.9641 12.164L12.0141 11.8218L12.3703 11.9343C12.5672 11.9952 13.0453 12.1499 13.4297 12.2718L14.1328 12.4968L14.1562 11.3718L14.1797 10.2421L14.8266 9.35615C15.1781 8.86865 15.4688 8.45615 15.4688 8.4374C15.4688 8.42334 14.9953 8.25459 14.4188 8.07178L13.3641 7.72959L12.7219 6.85303C12.3703 6.37022 12.0656 5.95772 12.0469 5.93897C12.0281 5.91553 11.7141 6.30928 11.3438 6.81553Z" fill="white"/>
<path d="M1.87493 18.3092C0.93274 19.4529 0.159303 20.4092 0.149928 20.4279C0.14524 20.4467 0.792115 20.6717 1.59368 20.9248L3.0468 21.3889L3.80618 22.6967C4.22337 23.4139 4.58899 23.9951 4.61243 23.9857C4.67337 23.967 7.45305 20.4232 7.43899 20.3857C7.4343 20.3717 7.17649 20.1654 6.86712 19.931C5.64837 19.0123 4.57962 17.831 3.84368 16.5795C3.72649 16.3826 3.62337 16.2232 3.6093 16.2232C3.59524 16.2232 2.81712 17.1607 1.87493 18.3092Z" fill="white"/>
<path d="M20.1422 16.6545C19.3969 17.9342 17.9203 19.4998 16.7672 20.2264C16.6453 20.306 16.5469 20.3764 16.5469 20.3904C16.5516 20.4373 19.3406 23.9717 19.3875 23.9857C19.4109 23.9951 19.7766 23.4139 20.1938 22.6967L20.9531 21.3935L22.4062 20.9295C23.2078 20.6717 23.8547 20.4514 23.85 20.4279C23.8172 20.3435 20.4563 16.2701 20.4141 16.2701C20.3906 16.2701 20.2688 16.4435 20.1422 16.6545Z" fill="white"/>
</g>
<defs>
<clipPath id="clip0_3784_22322">
<rect width="24" height="24" fill="white"/>
</clipPath>
</defs>
</svg>
