<svg width="1600" height="26" viewBox="0 0 1600 26" fill="none" xmlns="http://www.w3.org/2000/svg">
<path d="M1599.14 26H-0.863281V14.4652C-0.863281 14.4652 4.27507 25.2791 22.2593 16.628C24.3688 15.5921 26.8391 14.131 29.5963 12.5002C40.2708 6.18643 55.2441 -2.66995 70.2173 0.767681C77.9249 2.20953 83.0632 14.4652 83.0632 14.4652C83.0632 14.4652 88.2016 25.2791 106.186 16.628C108.708 15.4848 111.626 13.8235 114.849 11.988L114.852 11.9863C125.858 5.71964 140.43 -2.57753 155 0.767681C162.708 2.20953 167.846 14.4652 167.846 14.4652C167.846 14.4652 172.984 25.2791 190.969 16.628C193.025 15.6183 195.458 14.2046 198.179 12.6236C209.059 6.30262 224.541 -2.6924 238.927 0.767681C246.634 2.20953 251.773 14.4652 251.773 14.4652C251.773 14.4652 256.911 25.2791 274.895 16.628C276.951 15.6183 279.385 14.2046 282.106 12.6236C292.985 6.30262 308.467 -2.6924 322.853 0.767681C330.561 2.20953 335.699 14.4652 335.699 14.4652C335.699 14.4652 340.837 25.2791 358.822 16.628C360.878 15.6183 363.311 14.2046 366.032 12.6236C376.912 6.30262 392.394 -2.6924 406.78 0.767681C414.487 2.20953 419.626 14.4652 419.626 14.4652C419.626 14.4652 424.764 25.2791 442.748 16.628C444.804 15.6183 447.238 14.2046 449.959 12.6236C460.838 6.30258 476.32 -2.6924 490.706 0.767681C498.414 2.20953 503.552 14.4652 503.552 14.4652C503.552 14.4652 508.69 25.2791 526.675 16.628C529.579 15.4056 532.935 13.5911 536.61 11.6044C548.106 5.38935 562.717 -2.51007 576.346 0.767681C584.053 2.20953 590.048 14.4652 590.048 14.4652C590.048 14.4652 595.186 25.2791 613.17 16.628C615.227 15.6183 617.66 14.2046 620.381 12.6236C631.26 6.30262 646.742 -2.6924 661.128 0.767681C668.836 2.20953 673.974 14.4652 673.974 14.4652C673.974 14.4652 679.113 25.2791 697.097 16.628C699.153 15.6184 701.586 14.205 704.306 12.6242L704.308 12.6236C715.187 6.30258 730.669 -2.6924 745.055 0.767681C752.762 2.20953 757.901 14.4652 757.901 14.4652C757.901 14.4652 763.039 25.2791 781.023 16.628C783.546 15.4844 786.465 13.8224 789.69 11.986C800.696 5.71939 815.267 -2.5775 829.838 0.767681C837.545 2.20953 842.684 14.4652 842.684 14.4652C842.684 14.4652 847.822 25.2791 865.806 16.628C867.862 15.6183 870.296 14.2046 873.017 12.6236C883.896 6.30262 899.378 -2.6924 913.764 0.767681C921.472 2.20953 926.61 14.4652 926.61 14.4652C926.61 14.4652 931.749 25.2791 949.733 16.628C951.789 15.6183 954.222 14.2046 956.943 12.6236C967.823 6.30258 983.305 -2.6924 997.691 0.767681C1005.4 2.20953 1010.54 14.4652 1010.54 14.4652C1010.54 14.4652 1015.68 25.2791 1033.66 16.628C1035.72 15.6185 1038.15 14.2052 1040.87 12.6246L1040.87 12.6236C1051.75 6.30258 1067.23 -2.6924 1081.62 0.767681C1089.32 2.20953 1094.46 14.4652 1094.46 14.4652C1094.46 14.4652 1099.6 25.2791 1117.59 16.628C1119.64 15.6183 1122.08 14.2046 1124.8 12.6235C1135.68 6.30258 1151.16 -2.69236 1165.54 0.767681C1173.25 2.20953 1178.39 14.4652 1178.39 14.4652C1178.39 14.4652 1183.53 25.2791 1201.51 16.628C1203.57 15.6183 1206 14.2046 1208.72 12.6236C1219.6 6.30258 1235.08 -2.6924 1249.47 0.767681C1257.18 2.20953 1262.32 14.4652 1262.32 14.4652C1262.32 14.4652 1267.45 25.2791 1285.44 16.628C1287.49 15.6187 1289.93 14.2057 1292.65 12.6255L1292.65 12.6236C1303.53 6.30258 1319.01 -2.6924 1333.4 0.767681C1341.1 2.20953 1346.24 14.4652 1346.24 14.4652C1346.24 14.4652 1351.38 25.2791 1369.37 16.628C1371.42 15.6187 1373.85 14.2057 1376.57 12.6255L1376.58 12.6236C1387.46 6.30258 1402.94 -2.6924 1417.32 0.767681C1425.03 2.20953 1430.17 14.4652 1430.17 14.4652C1430.17 14.4652 1435.31 25.2791 1453.29 16.628C1455.35 15.6183 1457.78 14.2046 1460.5 12.6235C1471.38 6.30258 1486.86 -2.69236 1501.25 0.767681C1508.96 2.20953 1514.1 14.4652 1514.1 14.4652C1514.1 14.4652 1519.23 25.2791 1537.22 16.628C1539.27 15.6187 1541.71 14.2057 1544.43 12.6255L1544.43 12.6236C1555.31 6.30258 1570.79 -2.6924 1585.18 0.767681C1592.88 2.20953 1598.02 14.4652 1598.02 14.4652C1598.02 14.4652 1598.35 15.1592 1599.14 16.0549V26Z" fill="white"/>
</svg>
