<svg width="1600" height="26" viewBox="0 0 1600 26" fill="none" xmlns="http://www.w3.org/2000/svg">
<path d="M1599.14 0H-0.863281V11.5348C-0.863281 11.5348 4.27507 0.720925 22.2593 9.37201C24.3688 10.4079 26.8391 11.869 29.5963 13.4998C40.2708 19.8136 55.2441 28.6699 70.2173 25.2323C77.9249 23.7905 83.0632 11.5348 83.0632 11.5348C83.0632 11.5348 88.2016 0.720925 106.186 9.37201C108.708 10.5152 111.626 12.1765 114.849 14.012L114.852 14.0137L114.853 14.0143C125.859 20.2809 140.43 28.5775 155 25.2323C162.708 23.7905 167.846 11.5348 167.846 11.5348C167.846 11.5348 172.984 0.720925 190.969 9.37201C193.025 10.3817 195.458 11.7954 198.179 13.3764C209.059 19.6974 224.541 28.6924 238.927 25.2323C246.634 23.7905 251.773 11.5348 251.773 11.5348C251.773 11.5348 256.911 0.720925 274.895 9.37201C276.951 10.3817 279.385 11.7954 282.106 13.3764C292.985 19.6974 308.467 28.6924 322.853 25.2323C330.561 23.7905 335.699 11.5348 335.699 11.5348C335.699 11.5348 340.837 0.720925 358.822 9.37201C360.878 10.3817 363.311 11.7954 366.032 13.3764C376.912 19.6974 392.394 28.6924 406.78 25.2323C414.487 23.7905 419.626 11.5348 419.626 11.5348C419.626 11.5348 424.764 0.720925 442.748 9.37201C444.804 10.3817 447.238 11.7954 449.959 13.3764C460.838 19.6974 476.32 28.6924 490.706 25.2323C498.414 23.7905 503.552 11.5348 503.552 11.5348C503.552 11.5348 508.691 0.720925 526.675 9.37201C529.579 10.5944 532.935 12.4089 536.61 14.3956C548.106 20.6107 562.717 28.5101 576.346 25.2323C584.053 23.7905 590.048 11.5348 590.048 11.5348C590.048 11.5348 595.186 0.720925 613.17 9.37201C615.227 10.3817 617.66 11.7954 620.381 13.3764C631.26 19.6974 646.742 28.6924 661.128 25.2323C668.836 23.7905 673.974 11.5348 673.974 11.5348C673.974 11.5348 679.113 0.720925 697.097 9.37201C699.153 10.3816 701.586 11.795 704.306 13.3758L704.308 13.3764C715.187 19.6974 730.669 28.6924 745.055 25.2323C752.762 23.7905 757.901 11.5348 757.901 11.5348C757.901 11.5348 763.039 0.720925 781.023 9.37201C783.546 10.5156 786.465 12.1776 789.69 14.014C800.696 20.2806 815.267 28.5775 829.838 25.2323C837.545 23.7905 842.684 11.5348 842.684 11.5348C842.684 11.5348 847.822 0.720925 865.806 9.37201C867.862 10.3817 870.296 11.7954 873.017 13.3764C883.896 19.6974 899.378 28.6924 913.764 25.2323C921.472 23.7905 926.61 11.5348 926.61 11.5348C926.61 11.5348 931.749 0.720925 949.733 9.37201C951.789 10.3817 954.222 11.7954 956.943 13.3764C967.823 19.6974 983.305 28.6924 997.691 25.2323C1005.4 23.7905 1010.54 11.5348 1010.54 11.5348C1010.54 11.5348 1015.68 0.720925 1033.66 9.37201C1035.72 10.3815 1038.15 11.7948 1040.87 13.3754L1040.87 13.3764C1051.75 19.6974 1067.23 28.6924 1081.62 25.2323C1089.32 23.7905 1094.46 11.5348 1094.46 11.5348C1094.46 11.5348 1099.6 0.720925 1117.59 9.37201C1119.64 10.3817 1122.08 11.7954 1124.8 13.3765C1135.68 19.6974 1151.16 28.6924 1165.54 25.2323C1173.25 23.7905 1178.39 11.5348 1178.39 11.5348C1178.39 11.5348 1183.53 0.720925 1201.51 9.37201C1203.57 10.3817 1206 11.7954 1208.72 13.3764C1219.6 19.6974 1235.08 28.6924 1249.47 25.2323C1257.18 23.7905 1262.32 11.5348 1262.32 11.5348C1262.32 11.5348 1267.45 0.720925 1285.44 9.37201C1287.49 10.3813 1289.93 11.7943 1292.65 13.3745L1292.65 13.3764C1303.53 19.6974 1319.01 28.6924 1333.4 25.2323C1341.1 23.7905 1346.24 11.5348 1346.24 11.5348C1346.24 11.5348 1351.38 0.720925 1369.37 9.37201C1371.42 10.3813 1373.85 11.7943 1376.57 13.3745L1376.58 13.3764C1387.46 19.6974 1402.94 28.6924 1417.32 25.2323C1425.03 23.7905 1430.17 11.5348 1430.17 11.5348C1430.17 11.5348 1435.31 0.720925 1453.29 9.37201C1455.35 10.3817 1457.78 11.7954 1460.5 13.3765C1471.38 19.6974 1486.86 28.6924 1501.25 25.2323C1508.96 23.7905 1514.1 11.5348 1514.1 11.5348C1514.1 11.5348 1519.23 0.720925 1537.22 9.37201C1539.27 10.3813 1541.71 11.7943 1544.43 13.3745L1544.43 13.3764C1555.31 19.6974 1570.79 28.6924 1585.18 25.2323C1592.88 23.7905 1598.02 11.5348 1598.02 11.5348C1598.02 11.5348 1598.35 10.8408 1599.14 9.9451V0Z" fill="white"/>
</svg>
